<?xml version="1.0" encoding="UTF-8" standalone="no"?>
<svg
   xmlns:dc="http://purl.org/dc/elements/1.1/"
   xmlns:cc="http://creativecommons.org/ns#"
   xmlns:rdf="http://www.w3.org/1999/02/22-rdf-syntax-ns#"
   xmlns:svg="http://www.w3.org/2000/svg"
   xmlns="http://www.w3.org/2000/svg"
   xmlns:sodipodi="http://sodipodi.sourceforge.net/DTD/sodipodi-0.dtd"
   xmlns:inkscape="http://www.inkscape.org/namespaces/inkscape"
   viewBox="0 0 272 272"
   version="1.1"
   id="svg16"
   sodipodi:docname="adaptive_mask_tester.svg"
   inkscape:version="0.92.4 (5da689c313, 2019-01-14)"
   width="272"
   height="272">
  <metadata
     id="metadata20">
    <rdf:RDF>
      <cc:Work
         rdf:about="">
        <dc:format>image/svg+xml</dc:format>
        <dc:type
           rdf:resource="http://purl.org/dc/dcmitype/StillImage" />
        <dc:title />
      </cc:Work>
    </rdf:RDF>
  </metadata>
  <sodipodi:namedview
     pagecolor="#ffffff"
     bordercolor="#666666"
     borderopacity="1"
     objecttolerance="10"
     gridtolerance="10"
     guidetolerance="10"
     inkscape:pageopacity="0"
     inkscape:pageshadow="2"
     inkscape:window-width="1920"
     inkscape:window-height="1017"
     id="namedview18"
     showgrid="false"
     inkscape:zoom="0.89743885"
     inkscape:cx="251.55156"
     inkscape:cy="1.7921285"
     inkscape:window-x="-8"
     inkscape:window-y="-8"
     inkscape:window-maximized="1"
     inkscape:current-layer="svg16"
     inkscape:snap-global="true">
    <inkscape:grid
       type="xygrid"
       id="grid827"
       spacingx="4"
       spacingy="4" />
  </sodipodi:namedview>
  <defs
     id="defs4">
    <style
       id="style2">.a{fill:none;stroke:#b1b5bd;stroke-linecap:round;stroke-linejoin:round;isolation:isolate;opacity:0.63;}</style>
  </defs>
  <g
     id="g841">
    <path
       inkscape:connector-curvature="0"
       id="rect818-2"
       d="M 0,0 V 272 H 272 V 0 Z m 136,48 c 48.752,0 88,39.248 88,88 0,48.752 -39.248,88 -88,88 -48.752,0 -88,-39.248 -88,-88 0,-48.752 39.248,-88 88,-88 z"
       style="opacity:1;vector-effect:none;fill:#000000;fill-opacity:1;fill-rule:evenodd;stroke:none;stroke-width:16;stroke-linecap:round;stroke-linejoin:round;stroke-miterlimit:4;stroke-dasharray:none;paint-order:stroke fill markers" />
    <path
       id="path1134"
       d="M 238.4375 234.91211 L 238.4375 260.11719 L 241.80078 260.11719 L 241.80078 234.91211 L 238.4375 234.91211 z M 188.78906 238.59375 C 182.77098 238.59375 177.88477 243.47801 177.88477 249.49609 C 177.88477 255.51416 182.77098 260.40039 188.78906 260.40039 C 192.93091 260.40039 196.50487 258.09962 198.3457 254.70117 L 195.37305 253.10742 C 194.13404 255.44385 191.65649 256.9668 188.78906 256.9668 C 184.61181 256.9668 181.31836 253.70874 181.31836 249.49609 C 181.31836 245.28344 184.61181 242.02734 188.78906 242.02734 C 191.65649 242.02734 194.13404 243.5503 195.37305 245.88672 L 198.3457 244.29297 C 196.50487 240.89453 192.93091 238.59375 188.78906 238.59375 z M 203.55078 239.44336 C 202.45337 239.44336 201.5332 240.32813 201.5332 241.46094 C 201.5332 242.52295 202.45337 243.44336 203.55078 243.44336 C 204.6482 243.44336 205.56836 242.52295 205.56836 241.46094 C 205.56836 240.32813 204.6482 239.44336 203.55078 239.44336 z M 217.7793 245.67383 C 215.93847 245.67383 214.41699 246.52368 213.42578 247.9043 L 213.42578 245.95703 L 210.0625 245.95703 L 210.0625 260.11719 L 213.42578 260.11719 L 213.42578 252.92969 C 213.42578 250.45166 215.26635 248.78906 217.70898 248.78906 C 218.16919 248.78906 218.55811 248.85889 218.91211 248.92969 L 218.91211 245.7793 C 218.55811 245.7085 218.1687 245.67383 217.7793 245.67383 z M 227.91016 245.67383 C 223.5205 245.67383 220.29883 248.89526 220.29883 253.03711 C 220.29883 257.17896 223.5205 260.40039 227.91016 260.40039 C 231.66261 260.40039 234.49463 258.09864 235.27344 254.8418 L 231.76953 254.8418 C 231.09692 256.29321 229.64478 257.28516 227.91016 257.28516 C 225.53833 257.28516 223.66211 255.44434 223.66211 253.03711 C 223.66211 250.62988 225.53833 248.78906 227.91016 248.78906 C 229.64478 248.78906 231.09692 249.77905 231.76953 251.23047 L 235.27344 251.23047 C 234.49463 247.97363 231.66261 245.67383 227.91016 245.67383 z M 253.04297 245.67383 C 248.72411 245.67383 245.4668 248.78906 245.4668 253.03711 C 245.4668 257.28517 248.68846 260.40039 253.07812 260.40039 C 256.72436 260.40039 259.44946 258.24 260.26367 255.16016 L 256.90039 255.16016 C 256.29858 256.64698 254.88355 257.60352 253.07812 257.60352 C 250.7063 257.60352 249.04223 255.94019 248.86523 253.56836 L 260.47656 253.56836 L 260.51172 252.9668 C 260.44092 248.71875 257.32642 245.67383 253.04297 245.67383 z M 201.88672 245.95703 L 201.88672 260.11719 L 205.21484 260.11719 L 205.21484 245.95703 L 201.88672 245.95703 z M 253.07812 248.50586 C 254.91895 248.50586 256.22828 249.53174 256.83008 251.16016 L 249.14844 251.16016 C 249.78565 249.56714 251.1665 248.50586 253.07812 248.50586 z "
       style="font-style:normal;font-variant:normal;font-weight:500;font-stretch:normal;font-size:28.32035065px;line-height:1.25;font-family:Now;-inkscape-font-specification:'Now Medium';letter-spacing:0px;word-spacing:0px;fill:#ffffff;fill-opacity:1;stroke:none;stroke-width:0.70800877" />
  </g>
  <g
     id="g825">
    <path
       inkscape:connector-curvature="0"
       id="rect818-9-8"
       d="M 280,0 V 272 H 552 V 0 Z m 48,48 H 504 V 224 H 328 Z"
       style="opacity:1;vector-effect:none;fill:#000000;fill-opacity:1;fill-rule:evenodd;stroke:none;stroke-width:16;stroke-linecap:round;stroke-linejoin:round;stroke-miterlimit:4;stroke-dasharray:none;paint-order:stroke fill markers" />
    <path
       id="path1121"
       d="M 451.19336 238.59375 C 447.86572 238.59375 444.85547 240.68261 444.85547 244.50586 C 444.85547 251.55054 454.91016 249.81469 454.91016 254.31055 C 454.91016 256.04517 453.45899 257.07227 451.47656 257.07227 C 449.31713 257.07227 447.68871 255.86792 446.94531 254.0625 L 443.9707 255.86914 C 445.20971 258.52417 448.04297 260.40039 451.44141 260.40039 C 455.26466 260.40039 458.37891 258.1338 458.37891 254.31055 C 458.37891 246.77026 448.32617 248.61207 448.32617 244.25781 C 448.32617 242.59399 449.63574 241.81445 451.19336 241.81445 C 452.60938 241.81445 453.88403 242.45263 454.83984 243.65625 L 457.28125 241.42578 C 455.93604 239.76196 453.70679 238.59375 451.19336 238.59375 z M 467.82031 245.67383 C 463.82006 245.67383 460.63281 248.93066 460.63281 253.03711 C 460.63281 257.14356 463.82006 260.40039 467.82031 260.40039 C 469.62573 260.40039 471.1831 259.72828 472.38672 258.63086 L 472.38672 263.93945 C 472.38672 266.55908 474.61693 268.61328 477.20117 268.61328 C 477.83837 268.61328 478.47534 268.50708 478.93555 268.33008 L 478.93555 265.56836 L 477.625 265.56836 C 476.56299 265.56836 475.75 264.7898 475.75 263.55078 L 475.75 245.95703 L 472.38672 245.95703 L 472.38672 247.44336 C 471.1831 246.34595 469.62573 245.67383 467.82031 245.67383 z M 502.39062 245.67383 C 498.39038 245.67383 495.20508 248.93066 495.20508 253.03711 C 495.20508 257.14356 498.39037 260.40039 502.39062 260.40039 C 504.44385 260.40039 506.24952 259.47876 507.45312 258.02734 C 508.16114 259.44336 509.54077 260.40039 511.27539 260.40039 C 511.7002 260.40039 512.08959 260.29419 512.4082 260.11719 L 512.4082 257.35547 L 511.63086 257.35547 C 510.95825 257.35547 510.32031 257.00073 510.32031 255.76172 L 510.32031 245.95703 L 506.95703 245.95703 L 506.95703 247.44336 C 505.75341 246.34595 504.19604 245.67383 502.39062 245.67383 z M 522.94141 245.67383 C 521.10059 245.67383 519.57715 246.52368 518.58594 247.9043 L 518.58594 245.95703 L 515.22266 245.95703 L 515.22266 260.11719 L 518.58594 260.11719 L 518.58594 252.92969 C 518.58594 250.45166 520.42651 248.78906 522.86914 248.78906 C 523.32935 248.78906 523.72021 248.85889 524.07422 248.92969 L 524.07422 245.7793 C 523.72021 245.7085 523.33082 245.67383 522.94141 245.67383 z M 533.03711 245.67383 C 528.71825 245.67383 525.46094 248.78906 525.46094 253.03711 C 525.46094 257.28517 528.68261 260.40039 533.07227 260.40039 C 536.71851 260.40039 539.4436 258.24 540.25781 255.16016 L 536.89453 255.16016 C 536.29273 256.64698 534.87769 257.60352 533.07227 257.60352 C 530.70044 257.60352 529.03638 255.94019 528.85938 253.56836 L 540.4707 253.56836 L 540.50586 252.9668 C 540.43506 248.71875 537.32056 245.67383 533.03711 245.67383 z M 480.04102 245.95703 L 480.04102 254.87695 C 480.04102 258.27539 482.27124 260.40039 485.98828 260.40039 C 489.70533 260.40039 491.93555 258.27539 491.93555 254.87695 L 491.93555 245.95703 L 488.60938 245.95703 L 488.60938 254.45312 C 488.60938 256.18774 487.5105 257.28516 485.98828 257.28516 C 484.46607 257.28516 483.36914 256.18775 483.36914 254.45312 L 483.36914 245.95703 L 480.04102 245.95703 z M 533.07227 248.50586 C 534.91309 248.50586 536.22242 249.53174 536.82422 251.16016 L 529.14258 251.16016 C 529.77979 249.56714 531.16064 248.50586 533.07227 248.50586 z M 468.24414 248.78906 C 470.58056 248.78906 472.49219 250.66528 472.49219 253.03711 C 472.49219 255.40894 470.58056 257.28516 468.24414 257.28516 C 465.87231 257.28516 463.99609 255.40894 463.99609 253.03711 C 463.99609 250.66528 465.87231 248.78906 468.24414 248.78906 z M 502.81445 248.78906 C 505.15088 248.78906 507.0625 250.66528 507.0625 253.03711 C 507.0625 255.40894 505.15088 257.28516 502.81445 257.28516 C 500.44262 257.28516 498.56641 255.40894 498.56641 253.03711 C 498.56641 250.66528 500.44262 248.78906 502.81445 248.78906 z "
       style="font-style:normal;font-variant:normal;font-weight:500;font-stretch:normal;font-size:28.32035065px;line-height:1.25;font-family:Now;-inkscape-font-specification:'Now Medium';letter-spacing:0px;word-spacing:0px;fill:#ffffff;fill-opacity:1;stroke:none;stroke-width:0.70800877" />
  </g>
  <g
     id="g829">
    <path
       inkscape:connector-curvature="0"
       id="rect818-9"
       d="M 560,0 V 272 H 832.00003 V 0 Z m 92,48 h 88.00003 c 24.376,0 44,19.624 44,44 v 88 c 0,24.376 -19.624,44 -44,44 H 652 c -24.376,0 -44,-19.624 -44,-44 V 92 c 0,-24.376 19.624,-44 44,-44 z"
       style="opacity:1;vector-effect:none;fill:#000000;fill-opacity:1;fill-rule:evenodd;stroke:none;stroke-width:16;stroke-linecap:round;stroke-linejoin:round;stroke-miterlimit:4;stroke-dasharray:none;paint-order:stroke fill markers" />
    <path
       id="path1094"
       d="M 671.71289 234.91211 L 671.71289 247.44336 C 670.50928 246.34595 668.9519 245.67383 667.14648 245.67383 C 663.14623 245.67383 659.96094 248.93066 659.96094 253.03711 C 659.96094 257.14356 663.14623 260.40039 667.14648 260.40039 C 668.9519 260.40039 670.50928 259.72828 671.71289 258.63086 L 671.71289 260.11719 L 675.07617 260.11719 L 675.07617 234.91211 L 671.71289 234.91211 z M 708.16406 234.91211 L 708.16406 247.44336 C 706.96044 246.34595 705.40309 245.67383 703.59766 245.67383 C 699.59741 245.67383 696.41211 248.93066 696.41211 253.03711 C 696.41211 257.14356 699.59741 260.40039 703.59766 260.40039 C 705.40309 260.40039 706.96044 259.72828 708.16406 258.63086 L 708.16406 260.11719 L 711.52734 260.11719 L 711.52734 234.91211 L 708.16406 234.91211 z M 730.39062 238.59375 C 727.06299 238.59375 724.05469 240.68261 724.05469 244.50586 C 724.05469 251.55054 734.10937 249.81469 734.10938 254.31055 C 734.10938 256.04517 732.65626 257.07227 730.67383 257.07227 C 728.51441 257.07227 726.88599 255.86792 726.14258 254.0625 L 723.16992 255.86914 C 724.40893 258.52417 727.24023 260.40039 730.63867 260.40039 C 734.46192 260.40039 737.57812 258.1338 737.57812 254.31055 C 737.57812 246.77026 727.52344 248.61207 727.52344 244.25781 C 727.52344 242.59399 728.833 241.81445 730.39062 241.81445 C 731.80665 241.81445 733.0813 242.45263 734.03711 243.65625 L 736.48047 241.42578 C 735.13526 239.76196 732.90406 238.59375 730.39062 238.59375 z M 592.30664 238.87695 L 592.30664 260.11719 L 595.77734 260.11719 L 595.77734 251.19531 L 598.71484 251.19531 L 604.34375 260.11719 L 608.23828 260.11719 L 602.14844 250.87695 C 604.80347 250.31054 606.75 247.97486 606.75 245.10742 C 606.75 241.63818 604.06079 238.87695 600.62695 238.87695 L 592.30664 238.87695 z M 595.77734 242.09766 L 600.20117 242.09766 C 602.00659 242.09766 603.35156 243.33715 603.35156 245.14258 C 603.35156 246.948 602.00659 248.1875 600.20117 248.1875 L 595.77734 248.1875 L 595.77734 242.09766 z M 617.29102 245.67383 C 612.90136 245.67383 609.67969 248.89526 609.67969 253.03711 C 609.67969 257.17896 612.90136 260.40039 617.29102 260.40039 C 621.68067 260.40039 624.90234 257.17896 624.90234 253.03711 C 624.90234 248.89526 621.68067 245.67383 617.29102 245.67383 z M 651.36719 245.67383 C 649.95117 245.67383 648.67651 246.27612 647.7207 247.30273 L 647.7207 245.95703 L 644.35742 245.95703 L 644.35742 260.11719 L 647.7207 260.11719 L 647.7207 251.47852 C 647.7207 249.9563 648.9248 248.78906 650.48242 248.78906 C 652.04004 248.78906 653.20703 249.9563 653.20703 251.47852 L 653.20703 260.11719 L 656.53516 260.11719 L 656.53516 251.125 C 656.53516 248.04516 654.12843 245.67383 651.36719 245.67383 z M 686.3418 245.67383 C 682.02295 245.67383 678.76563 248.78906 678.76562 253.03711 C 678.76562 257.28517 681.9873 260.40039 686.37695 260.40039 C 690.0232 260.40039 692.75024 258.24 693.56445 255.16016 L 690.20117 255.16016 C 689.59936 256.64698 688.18237 257.60352 686.37695 257.60352 C 684.00512 257.60352 682.34106 255.94019 682.16406 253.56836 L 693.77539 253.56836 L 693.8125 252.9668 C 693.7417 248.71875 690.62525 245.67383 686.3418 245.67383 z M 747.01758 245.67383 C 743.01733 245.67383 739.83203 248.93066 739.83203 253.03711 C 739.83203 257.14356 743.01733 260.40039 747.01758 260.40039 C 748.823 260.40039 750.38233 259.72828 751.58594 258.63086 L 751.58594 263.93945 C 751.58594 266.55908 753.81616 268.61328 756.40039 268.61328 C 757.0376 268.61328 757.67457 268.50708 758.13477 268.33008 L 758.13477 265.56836 L 756.82422 265.56836 C 755.7622 265.56836 754.94727 264.7898 754.94727 263.55078 L 754.94727 245.95703 L 751.58594 245.95703 L 751.58594 247.44336 C 750.38233 246.34595 748.823 245.67383 747.01758 245.67383 z M 781.58984 245.67383 C 777.58959 245.67383 774.40234 248.93066 774.40234 253.03711 C 774.40234 257.14356 777.58959 260.40039 781.58984 260.40039 C 783.64306 260.40039 785.44872 259.47876 786.65234 258.02734 C 787.36035 259.44336 788.73998 260.40039 790.47461 260.40039 C 790.89941 260.40039 791.28882 260.29419 791.60742 260.11719 L 791.60742 257.35547 L 790.82812 257.35547 C 790.15552 257.35547 789.51953 257.00073 789.51953 255.76172 L 789.51953 245.95703 L 786.15625 245.95703 L 786.15625 247.44336 C 784.95264 246.34595 783.39526 245.67383 781.58984 245.67383 z M 802.13867 245.67383 C 800.29785 245.67383 798.77637 246.52368 797.78516 247.9043 L 797.78516 245.95703 L 794.42188 245.95703 L 794.42188 260.11719 L 797.78516 260.11719 L 797.78516 252.92969 C 797.78516 250.45166 799.62573 248.78906 802.06836 248.78906 C 802.52857 248.78906 802.91747 248.85889 803.27148 248.92969 L 803.27148 245.7793 C 802.91747 245.7085 802.52808 245.67383 802.13867 245.67383 z M 812.23438 245.67383 C 807.91552 245.67383 804.66016 248.78906 804.66016 253.03711 C 804.66016 257.28517 807.87987 260.40039 812.26953 260.40039 C 815.91577 260.40039 818.64282 258.24 819.45703 255.16016 L 816.09375 255.16016 C 815.49194 256.64698 814.07495 257.60352 812.26953 257.60352 C 809.8977 257.60352 808.23559 255.94019 808.05859 253.56836 L 819.66992 253.56836 L 819.70508 252.9668 C 819.63428 248.71875 816.51782 245.67383 812.23438 245.67383 z M 628.20312 245.95703 L 628.20312 254.87695 C 628.20312 258.27539 630.43334 260.40039 634.15039 260.40039 C 637.86743 260.40039 640.09766 258.27539 640.09766 254.87695 L 640.09766 245.95703 L 636.77148 245.95703 L 636.77148 254.45312 C 636.77148 256.18774 635.67261 257.28516 634.15039 257.28516 C 632.62817 257.28516 631.53125 256.18775 631.53125 254.45312 L 631.53125 245.95703 L 628.20312 245.95703 z M 759.24023 245.95703 L 759.24023 254.87695 C 759.24023 258.27539 761.47045 260.40039 765.1875 260.40039 C 768.90454 260.40039 771.13477 258.27539 771.13477 254.87695 L 771.13477 245.95703 L 767.80664 245.95703 L 767.80664 254.45312 C 767.80664 256.18774 766.70971 257.28516 765.1875 257.28516 C 763.66528 257.28516 762.56836 256.18775 762.56836 254.45312 L 762.56836 245.95703 L 759.24023 245.95703 z M 686.37695 248.50586 C 688.21777 248.50586 689.52905 249.53174 690.13086 251.16016 L 682.44727 251.16016 C 683.08448 249.56714 684.46533 248.50586 686.37695 248.50586 z M 812.26953 248.50586 C 814.11035 248.50586 815.42164 249.53174 816.02344 251.16016 L 808.3418 251.16016 C 808.97901 249.56714 810.3579 248.50586 812.26953 248.50586 z M 617.29102 248.78906 C 619.66285 248.78906 621.53906 250.66528 621.53906 253.03711 C 621.53906 255.40894 619.66285 257.28516 617.29102 257.28516 C 614.88379 257.28516 613.04297 255.40894 613.04297 253.03711 C 613.04297 250.66528 614.88379 248.78906 617.29102 248.78906 z M 667.57031 248.78906 C 669.90674 248.78906 671.81836 250.66528 671.81836 253.03711 C 671.81836 255.40894 669.90674 257.28516 667.57031 257.28516 C 665.19848 257.28516 663.32227 255.40894 663.32227 253.03711 C 663.32227 250.66528 665.19848 248.78906 667.57031 248.78906 z M 704.02344 248.78906 C 706.35987 248.78906 708.27148 250.66528 708.27148 253.03711 C 708.27148 255.40894 706.35987 257.28516 704.02344 257.28516 C 701.65161 257.28516 699.77539 255.40894 699.77539 253.03711 C 699.77539 250.66528 701.65161 248.78906 704.02344 248.78906 z M 747.44336 248.78906 C 749.77979 248.78906 751.69141 250.66528 751.69141 253.03711 C 751.69141 255.40894 749.77979 257.28516 747.44336 257.28516 C 745.07153 257.28516 743.19531 255.40894 743.19531 253.03711 C 743.19531 250.66528 745.07153 248.78906 747.44336 248.78906 z M 782.01367 248.78906 C 784.3501 248.78906 786.26172 250.66528 786.26172 253.03711 C 786.26172 255.40894 784.3501 257.28516 782.01367 257.28516 C 779.64184 257.28516 777.76562 255.40894 777.76562 253.03711 C 777.76562 250.66528 779.64184 248.78906 782.01367 248.78906 z "
       style="font-style:normal;font-variant:normal;font-weight:500;font-stretch:normal;font-size:28.32035065px;line-height:1.25;font-family:Now;-inkscape-font-specification:'Now Medium';letter-spacing:0px;word-spacing:0px;fill:#ffffff;fill-opacity:1;stroke:none;stroke-width:0.70800877" />
  </g>
  <g
     id="g837">
    <path
       inkscape:connector-curvature="0"
       id="rect818"
       d="M 0,280 V 552 H 272 V 280 Z m 136,48 c 48.752,0 88,39.248 88,88 v 72 c 0,8.864 -7.136,16 -16,16 h -72 c -48.752,0 -88,-39.248 -88,-88 0,-48.752 39.248,-88 88,-88 z"
       style="opacity:1;vector-effect:none;fill:#000000;fill-opacity:1;fill-rule:evenodd;stroke:none;stroke-width:16;stroke-linecap:round;stroke-linejoin:round;stroke-miterlimit:4;stroke-dasharray:none;paint-order:stroke fill markers" />
    <path
       id="path1060"
       d="M 206.87109 512.77344 L 206.87109 525.30469 C 205.66747 524.20727 204.11011 523.53516 202.30469 523.53516 C 198.30444 523.53516 195.11914 526.79199 195.11914 530.89844 C 195.11914 535.00489 198.30444 538.26172 202.30469 538.26172 C 204.11011 538.26172 205.66747 537.5896 206.87109 536.49219 L 206.87109 537.97852 L 210.23438 537.97852 L 210.23438 512.77344 L 206.87109 512.77344 z M 132.83398 516.73828 L 132.83398 519.96094 L 138.46289 519.96094 L 138.46289 537.97852 L 141.89648 537.97852 L 141.89648 519.96094 L 147.52539 519.96094 L 147.52539 516.73828 L 132.83398 516.73828 z M 154.79297 523.53516 C 150.47412 523.53516 147.21875 526.65038 147.21875 530.89844 C 147.21875 535.14649 150.43847 538.26172 154.82812 538.26172 C 158.47437 538.26172 161.20141 536.10328 162.01562 533.02344 L 158.65234 533.02344 C 158.05053 534.51026 156.63355 535.46484 154.82812 535.46484 C 152.4563 535.46484 150.79419 533.80152 150.61719 531.42969 L 162.22852 531.42969 L 162.26367 530.82812 C 162.19287 526.58006 159.07642 523.53516 154.79297 523.53516 z M 172.04883 523.53516 C 168.04858 523.53516 164.86328 526.79199 164.86328 530.89844 C 164.86328 535.00489 168.04858 538.26172 172.04883 538.26172 C 174.10206 538.26172 175.90772 537.34205 177.11133 535.89062 C 177.81934 537.30665 179.20093 538.26172 180.93555 538.26172 C 181.36036 538.26172 181.74976 538.15553 182.06836 537.97852 L 182.06836 535.2168 L 181.28906 535.2168 C 180.61646 535.2168 179.97852 534.86402 179.97852 533.625 L 179.97852 523.81836 L 176.61523 523.81836 L 176.61523 525.30469 C 175.41161 524.20727 173.85425 523.53516 172.04883 523.53516 z M 192.59961 523.53516 C 190.75879 523.53516 189.23535 524.38502 188.24414 525.76562 L 188.24414 523.81836 L 184.88086 523.81836 L 184.88086 537.97852 L 188.24414 537.97852 L 188.24414 530.79297 C 188.24414 528.31494 190.08471 526.65039 192.52734 526.65039 C 192.98755 526.65039 193.37841 526.72216 193.73242 526.79297 L 193.73242 523.64258 C 193.37841 523.57178 192.98902 523.53516 192.59961 523.53516 z M 222.63477 523.53516 C 220.79395 523.53516 219.27051 524.38502 218.2793 525.76562 L 218.2793 523.81836 L 214.91602 523.81836 L 214.91602 537.97852 L 218.2793 537.97852 L 218.2793 530.79297 C 218.2793 528.31494 220.11987 526.65039 222.5625 526.65039 C 223.02271 526.65039 223.41357 526.72216 223.76758 526.79297 L 223.76758 523.64258 C 223.41357 523.57178 223.02418 523.53516 222.63477 523.53516 z M 232.76562 523.53516 C 228.37597 523.53516 225.1543 526.75658 225.1543 530.89844 C 225.1543 535.04029 228.37597 538.26172 232.76562 538.26172 C 237.15527 538.26172 240.37695 535.04029 240.37695 530.89844 C 240.37695 526.75658 237.15527 523.53516 232.76562 523.53516 z M 251.99609 523.53516 C 250.19067 523.53516 248.6333 524.20727 247.42969 525.30469 L 247.42969 523.81836 L 244.06641 523.81836 L 244.06641 546.47461 L 247.42969 546.47461 L 247.42969 536.49219 C 248.6333 537.5896 250.19067 538.26172 251.99609 538.26172 C 255.99634 538.26172 259.18359 535.00489 259.18359 530.89844 C 259.18359 526.79199 255.99634 523.53516 251.99609 523.53516 z M 154.82812 526.36719 C 156.66895 526.36719 157.98022 527.39502 158.58203 529.02344 L 150.90039 529.02344 C 151.5376 527.43042 152.9165 526.36719 154.82812 526.36719 z M 172.47461 526.65039 C 174.81103 526.65039 176.72266 528.52661 176.72266 530.89844 C 176.72266 533.27027 174.81103 535.14648 172.47461 535.14648 C 170.10278 535.14648 168.22656 533.27027 168.22656 530.89844 C 168.22656 528.52661 170.10278 526.65039 172.47461 526.65039 z M 202.73047 526.65039 C 205.0669 526.65039 206.97852 528.52661 206.97852 530.89844 C 206.97852 533.27027 205.0669 535.14648 202.73047 535.14648 C 200.35865 535.14648 198.48242 533.27027 198.48242 530.89844 C 198.48242 528.52661 200.35865 526.65039 202.73047 526.65039 z M 232.76562 526.65039 C 235.13745 526.65039 237.01367 528.52661 237.01367 530.89844 C 237.01367 533.27027 235.13744 535.14648 232.76562 535.14648 C 230.3584 535.14648 228.51758 533.27027 228.51758 530.89844 C 228.51758 528.52661 230.3584 526.65039 232.76562 526.65039 z M 251.57227 526.65039 C 253.9441 526.65039 255.82031 528.52661 255.82031 530.89844 C 255.82031 533.27027 253.9441 535.14648 251.57227 535.14648 C 249.20044 535.14648 247.32422 533.27027 247.32422 530.89844 C 247.32422 528.52661 249.20044 526.65039 251.57227 526.65039 z "
       style="font-style:normal;font-variant:normal;font-weight:500;font-stretch:normal;font-size:28.32035065px;line-height:1.25;font-family:Now;-inkscape-font-specification:'Now Medium';letter-spacing:0px;word-spacing:0px;fill:#ffffff;fill-opacity:1;stroke:none;stroke-width:0.70800877" />
  </g>
  <g
     id="g833">
    <path
       sodipodi:nodetypes="cccccczczczczc"
       inkscape:connector-curvature="0"
       id="rect818-9-8-4"
       d="M 280,280 V 552 H 552 V 280 Z m 136,48 c 0,0 56,0 72,16 16,16 16,72 16,72 0,0 0,56 -16,72 -16,16 -72,16 -72,16 0,0 -56,0 -72,-16 -16,-16 -16,-72 -16,-72 0,0 0,-56 16,-72 16,-16 72,-16 72,-16 z"
       style="opacity:1;vector-effect:none;fill:#000000;fill-opacity:1;fill-rule:evenodd;stroke:none;stroke-width:16;stroke-linecap:round;stroke-linejoin:round;stroke-miterlimit:4;stroke-dasharray:none;paint-order:stroke fill markers" />
    <path
       id="path1077"
       d="M 517.02344 513.02344 L 517.02344 538.22852 L 520.38477 538.22852 L 520.38477 513.02344 L 517.02344 513.02344 z M 435.29102 516.70508 C 431.96338 516.70508 428.95508 518.79394 428.95508 522.61719 C 428.95508 529.66187 439.00977 527.92797 439.00977 532.42383 C 439.00977 534.15845 437.55665 535.18555 435.57422 535.18555 C 433.4148 535.18555 431.78638 533.9812 431.04297 532.17578 L 428.07031 533.98047 C 429.30933 536.6355 432.14062 538.51172 435.53906 538.51172 C 439.36231 538.51172 442.47852 536.24708 442.47852 532.42383 C 442.47852 524.88353 432.42383 526.7234 432.42383 522.36914 C 432.42383 520.70532 433.7334 519.92773 435.29102 519.92773 C 436.70704 519.92773 437.98168 520.56396 438.9375 521.76758 L 441.38086 519.53711 C 440.03564 517.87329 437.80445 516.70508 435.29102 516.70508 z M 482.13477 517.55469 C 481.03736 517.55469 480.11719 518.44141 480.11719 519.57422 C 480.11719 520.63623 481.03736 521.55664 482.13477 521.55664 C 483.23218 521.55664 484.15234 520.63623 484.15234 519.57422 C 484.15234 518.44141 483.23218 517.55469 482.13477 517.55469 z M 451.91992 523.78516 C 447.91967 523.78516 444.73242 527.04199 444.73242 531.14844 C 444.73242 535.25489 447.91967 538.51172 451.91992 538.51172 C 453.72534 538.51172 455.28271 537.83961 456.48633 536.74219 L 456.48633 542.05273 C 456.48633 544.67236 458.71655 546.72461 461.30078 546.72461 C 461.93799 546.72461 462.57495 546.61841 463.03516 546.44141 L 463.03516 543.68164 L 461.72461 543.68164 C 460.6626 543.68164 459.84961 542.90308 459.84961 541.66406 L 459.84961 524.06836 L 456.48633 524.06836 L 456.48633 525.55664 C 455.28271 524.45923 453.72534 523.78516 451.91992 523.78516 z M 496.36328 523.78516 C 494.52246 523.78516 493.00098 524.635 492.00977 526.01562 L 492.00977 524.06836 L 488.64648 524.06836 L 488.64648 538.22852 L 492.00977 538.22852 L 492.00977 531.04297 C 492.00977 528.56494 493.85034 526.90039 496.29297 526.90039 C 496.75318 526.90039 497.14209 526.97217 497.49609 527.04297 L 497.49609 523.89258 C 497.14209 523.82178 496.75269 523.78516 496.36328 523.78516 z M 506.49609 523.78516 C 502.10644 523.78516 498.88477 527.00659 498.88477 531.14844 C 498.88477 535.29029 502.10644 538.51172 506.49609 538.51172 C 510.24854 538.51172 513.08056 536.21193 513.85938 532.95508 L 510.35352 532.95508 C 509.68091 534.4065 508.23071 535.39648 506.49609 535.39648 C 504.12426 535.39648 502.24805 533.55567 502.24805 531.14844 C 502.24805 528.74121 504.12426 526.90039 506.49609 526.90039 C 508.23071 526.90039 509.68091 527.89233 510.35352 529.34375 L 513.85938 529.34375 C 513.08056 526.08691 510.24854 523.78516 506.49609 523.78516 z M 531.62695 523.78516 C 527.30809 523.78516 524.05273 526.90039 524.05273 531.14844 C 524.05273 535.3965 527.27245 538.51172 531.66211 538.51172 C 535.30835 538.51172 538.0354 536.35328 538.84961 533.27344 L 535.48633 533.27344 C 534.88453 534.76026 533.46753 535.7168 531.66211 535.7168 C 529.29028 535.7168 527.62818 534.05152 527.45117 531.67969 L 539.0625 531.67969 L 539.09766 531.07812 C 539.02686 526.83007 535.9104 523.78516 531.62695 523.78516 z M 464.14062 524.06836 L 464.14062 532.99023 C 464.14062 536.38867 466.37084 538.51172 470.08789 538.51172 C 473.80493 538.51172 476.03516 536.38867 476.03516 532.99023 L 476.03516 524.06836 L 472.70703 524.06836 L 472.70703 532.56445 C 472.70703 534.29907 471.61011 535.39648 470.08789 535.39648 C 468.56567 535.39648 467.46875 534.29907 467.46875 532.56445 L 467.46875 524.06836 L 464.14062 524.06836 z M 480.4707 524.06836 L 480.4707 538.22852 L 483.79883 538.22852 L 483.79883 524.06836 L 480.4707 524.06836 z M 531.66211 526.61719 C 533.50293 526.61719 534.81422 527.64502 535.41602 529.27344 L 527.73438 529.27344 C 528.37158 527.68042 529.75048 526.61719 531.66211 526.61719 z M 452.34375 526.90039 C 454.68018 526.90039 456.5918 528.77661 456.5918 531.14844 C 456.5918 533.52027 454.68018 535.39648 452.34375 535.39648 C 449.97192 535.39648 448.0957 533.52027 448.0957 531.14844 C 448.0957 528.77661 449.97192 526.90039 452.34375 526.90039 z "
       style="font-style:normal;font-variant:normal;font-weight:500;font-stretch:normal;font-size:28.32035065px;line-height:1.25;font-family:Now;-inkscape-font-specification:'Now Medium';letter-spacing:0px;word-spacing:0px;fill:#ffffff;fill-opacity:1;stroke:none;stroke-width:0.70800877" />
  </g>
</svg>
