<svg xmlns="http://www.w3.org/2000/svg" xml:space="preserve" id="svg2" width="192" height="192" version="1.1">
  <defs id="defs4">
    <clipPath id="clipPath21665" clipPathUnits="userSpaceOnUse">
      <rect width="100%" height="100%" $1 y="860,362"
        style="fill:#fff;fill-opacity:1;fill-rule:evenodd;stroke:none;stroke-opacity:1" />
      <path id="path18492" d="m-61.218 313.862 118.75 23.75 2.25-5z" clip-path="url(#clipPath22213)"
        style="fill:#8e6f60;fill-opacity:1;fill-rule:evenodd;stroke-linecap:round;stroke-linejoin:round;stroke-dashoffset:6;stop-color:#000"
        transform="matrix(2.79156 0 0 2.79156 106.855 212.991)" />
      <path id="path18494" d="m-25.303 270.997 2.093-1.271 9.778 1.879z" clip-path="url(#clipPath22209)"
        style="fill:#56595b;fill-opacity:1;fill-rule:evenodd;stroke-linecap:round;stroke-linejoin:round;stroke-dashoffset:6;stop-color:#000"
        transform="matrix(2.79156 0 0 2.79156 106.855 212.991)" />
      <path id="path18496" d="m-23.21 269.726 7.983-2.199 1.795 4.078" clip-path="url(#clipPath22205)"
        style="fill:#4a4a4a;fill-opacity:1;fill-rule:evenodd;stroke-linecap:round;stroke-linejoin:round;stroke-dashoffset:6;stop-color:#000"
        transform="matrix(2.79156 0 0 2.79156 106.855 212.991)" />
      <path id="path18498" d="m-17.023 263.45 27.047-4.773-7.078-9.448z" clip-path="url(#clipPath22201)"
        style="fill:#708cbd;fill-opacity:1;fill-rule:evenodd;stroke-linecap:round;stroke-linejoin:round;stroke-dashoffset:6;stop-color:#000"
        transform="matrix(2.79156 0 0 2.79156 106.855 212.991)" />
      <path id="path18500" d="m2.946 249.229 5.176-3.686 1.902 13.134z" clip-path="url(#clipPath22197)"
        style="fill:#54688c;fill-opacity:1;fill-rule:evenodd;stroke-linecap:round;stroke-linejoin:round;stroke-dashoffset:6;stop-color:#000"
        transform="matrix(2.79156 0 0 2.79156 106.855 212.991)" />
      <path id="path18502" d="m10.024 258.677 36.593 26.517-38.273-14.207Z" clip-path="url(#clipPath22193)"
        style="fill:#54688c;fill-opacity:1;fill-rule:evenodd;stroke-linecap:round;stroke-linejoin:round;stroke-dashoffset:6;stop-color:#000"
        transform="matrix(2.79156 0 0 2.79156 106.855 212.991)" />
      <path id="path18504" d="m10.024 258.677-4.353.768 2.673 11.542z" clip-path="url(#clipPath22189)"
        style="fill:#56595b;fill-opacity:1;fill-rule:evenodd;stroke-linecap:round;stroke-linejoin:round;stroke-dashoffset:6;stop-color:#000"
        transform="matrix(2.79156 0 0 2.79156 106.855 212.991)" />
      <path id="path18506" d="m-17.023 263.45 17.81-.132-14.219 8.287z" clip-path="url(#clipPath22185)"
        style="fill:#4a4a4a;fill-opacity:1;fill-rule:evenodd;stroke-linecap:round;stroke-linejoin:round;stroke-dashoffset:6;stop-color:#000"
        transform="matrix(2.79156 0 0 2.79156 106.855 212.991)" />
      <path id="path18508" d="m-17.023 263.45 17.81-.132 4.884-3.873Z" clip-path="url(#clipPath22181)"
        style="fill:#b1b5bd;fill-opacity:1;fill-rule:evenodd;stroke-linecap:round;stroke-linejoin:round;stroke-dashoffset:6;stop-color:#000"
        transform="matrix(2.79156 0 0 2.79156 106.855 212.991)" />
      <path id="path18510" d="m-13.432 271.605.67 10.503 21.106-11.12z" clip-path="url(#clipPath22177)"
        style="fill:#b1b5bd;fill-opacity:1;fill-rule:evenodd;stroke-linecap:round;stroke-linejoin:round;stroke-dashoffset:6;stop-color:#000"
        transform="matrix(2.79156 0 0 2.79156 106.855 212.991)" />
      <path id="path18512" d="m-12.763 282.108.67 10.504 8-11 12.437-10.625z" clip-path="url(#clipPath22173)"
        style="fill:#54688c;fill-opacity:1;fill-rule:evenodd;stroke-linecap:round;stroke-linejoin:round;stroke-dashoffset:6;stop-color:#000"
        transform="matrix(2.79156 0 0 2.79156 106.855 212.991)" />
      <path id="path18514" d="m8.344 270.987 2.25 17.063-14.687-6.438z" clip-path="url(#clipPath22169)"
        style="fill:#a0a5af;fill-opacity:1;fill-rule:evenodd;stroke-linecap:round;stroke-linejoin:round;stroke-dashoffset:6;stop-color:#000"
        transform="matrix(2.79156 0 0 2.79156 106.855 212.991)" />
      <path id="path18516" d="m8.344 270.987 2.25 17.063 4.273-7.544z" clip-path="url(#clipPath22165)"
        style="fill:#979797;fill-opacity:1;fill-rule:evenodd;stroke-linecap:round;stroke-linejoin:round;stroke-dashoffset:6;stop-color:#000"
        transform="matrix(2.79156 0 0 2.79156 106.855 212.991)" />
      <path id="path18518" d="m-4.093 281.612 14.687 6.438-13.812 17.562z" clip-path="url(#clipPath22161)"
        style="fill:#83868c;fill-opacity:1;fill-rule:evenodd;stroke-linecap:round;stroke-linejoin:round;stroke-dashoffset:6;stop-color:#000"
        transform="matrix(2.79156 0 0 2.79156 106.855 212.991)" />
      <path id="path18520" d="m-12.093 292.612 8.875 13-.875-24z" clip-path="url(#clipPath22157)"
        style="fill:#979797;fill-opacity:1;fill-rule:evenodd;stroke-linecap:round;stroke-linejoin:round;stroke-dashoffset:6;stop-color:#000"
        transform="matrix(2.79156 0 0 2.79156 106.855 212.991)" />
      <path id="path18522" d="m10.594 288.05 22.188 2.562 13.835-5.418z" clip-path="url(#clipPath22153)"
        style="fill:#d8d8d8;fill-opacity:1;fill-rule:evenodd;stroke-linecap:round;stroke-linejoin:round;stroke-dashoffset:6;stop-color:#000"
        transform="matrix(2.79156 0 0 2.79156 106.855 212.991)" />
      <path id="path18524" d="m10.594 288.05 26.688 10.187-4.5-7.625z" clip-path="url(#clipPath22149)"
        style="fill:#b1b5bd;fill-opacity:1;fill-rule:evenodd;stroke-linecap:round;stroke-linejoin:round;stroke-dashoffset:6;stop-color:#000"
        transform="matrix(2.79156 0 0 2.79156 106.855 212.991)" />
      <path id="path18526" d="m10.594 288.05-13.812 17.562 40.5-7.375z" clip-path="url(#clipPath22145)"
        style="fill:#a0a5af;fill-opacity:1;fill-rule:evenodd;stroke-linecap:round;stroke-linejoin:round;stroke-dashoffset:6;stop-color:#000"
        transform="matrix(2.79156 0 0 2.79156 106.855 212.991)" />
      <path id="path18528" d="m-3.218 305.612 54.532 13.875 10.593-.5-.75-8.75-23.875-12z"
        clip-path="url(#clipPath22141)"
        style="fill:#ccc;fill-opacity:1;fill-rule:evenodd;stroke-linecap:round;stroke-linejoin:round;stroke-dashoffset:6;stop-color:#000"
        transform="matrix(2.79156 0 0 2.79156 106.855 212.991)" />
      <path id="path18530" d="m-3.218 305.612 18.625 16.5 35.907-2.625z" clip-path="url(#clipPath22137)"
        style="fill:#b1b5bd;fill-opacity:1;fill-rule:evenodd;stroke-linecap:round;stroke-linejoin:round;stroke-dashoffset:6;stop-color:#000"
        transform="matrix(2.79156 0 0 2.79156 106.855 212.991)" />
      <path id="path18532" d="m32.782 290.612 16.31 1.741-11.81 5.884z" clip-path="url(#clipPath22133)"
        style="fill:#708cbd;fill-opacity:1;fill-rule:evenodd;stroke-linecap:round;stroke-linejoin:round;stroke-dashoffset:6;stop-color:#000"
        transform="matrix(2.79156 0 0 2.79156 106.855 212.991)" />
      <path id="path18534" d="m32.782 290.612 13.835-5.418 2.475 7.16z" clip-path="url(#clipPath22129)"
        style="fill:#54688c;fill-opacity:1;fill-rule:evenodd;stroke-linecap:round;stroke-linejoin:round;stroke-dashoffset:6;stop-color:#000"
        transform="matrix(2.79156 0 0 2.79156 106.855 212.991)" />
      <path id="path18536" d="m46.617 285.194 17.274 11.582-14.8-4.423z" clip-path="url(#clipPath22125)"
        style="fill:#56595b;fill-opacity:1;fill-rule:evenodd;stroke-linecap:round;stroke-linejoin:round;stroke-dashoffset:6;stop-color:#000"
        transform="matrix(2.79156 0 0 2.79156 106.855 212.991)" />
      <path id="path18538" d="m37.282 298.237 26.61-1.461-14.8-4.423z" clip-path="url(#clipPath22121)"
        style="fill:#99bdfe;fill-opacity:1;fill-rule:evenodd;stroke-linecap:round;stroke-linejoin:round;stroke-dashoffset:6;stop-color:#000"
        transform="matrix(2.79156 0 0 2.79156 106.855 212.991)" />
      <path id="path18540" d="m37.282 298.237 13.535 6.803 13.074-8.264z" clip-path="url(#clipPath22117)"
        style="fill:#54688c;fill-opacity:1;fill-rule:evenodd;stroke-linecap:round;stroke-linejoin:round;stroke-dashoffset:6;stop-color:#000"
        transform="matrix(2.79156 0 0 2.79156 106.855 212.991)" />
      <path id="path18542" d="m55.816 301.88 5.34 8.357-10.339-5.197z" clip-path="url(#clipPath22113)"
        style="fill:#a0a5af;fill-opacity:1;fill-rule:evenodd;stroke-linecap:round;stroke-linejoin:round;stroke-dashoffset:6;stop-color:#000"
        transform="matrix(2.79156 0 0 2.79156 106.855 212.991)" />
      <path id="path18544" d="m55.816 301.88 8.075-5.104 17.197 14.404z" clip-path="url(#clipPath22109)"
        style="fill:#708cbd;fill-opacity:1;fill-rule:evenodd;stroke-linecap:round;stroke-linejoin:round;stroke-dashoffset:6;stop-color:#000"
        transform="matrix(2.79156 0 0 2.79156 106.855 212.991)" />
      <path id="path18546" d="m55.816 301.88 5.34 8.357 8.5-3z" clip-path="url(#clipPath22105)"
        style="fill:#54688c;fill-opacity:1;fill-rule:evenodd;stroke-linecap:round;stroke-linejoin:round;stroke-dashoffset:6;stop-color:#000"
        transform="matrix(2.79156 0 0 2.79156 106.855 212.991)" />
      <path id="path18548" d="m61.157 310.237 19.875 7-11.375-10z" clip-path="url(#clipPath22101)"
        style="fill:#56595b;fill-opacity:1;fill-rule:evenodd;stroke-linecap:round;stroke-linejoin:round;stroke-dashoffset:6;stop-color:#000"
        transform="matrix(2.79156 0 0 2.79156 106.855 212.991)" />
      <path id="path18550" d="m61.157 310.237 42.171 31.689-15.345-8.472z" clip-path="url(#clipPath22097)"
        style="fill:#99bdfe;fill-opacity:1;fill-rule:evenodd;stroke-linecap:round;stroke-linejoin:round;stroke-dashoffset:6;stop-color:#000"
        transform="matrix(2.79156 0 0 2.79156 106.855 212.991)" />
      <path id="path18552" d="m61.157 310.237 26.826 23.217-26.076-14.467z" clip-path="url(#clipPath22093)"
        style="fill:#b1b5bd;fill-opacity:1;fill-rule:evenodd;stroke-linecap:round;stroke-linejoin:round;stroke-dashoffset:6;stop-color:#000"
        transform="matrix(2.79156 0 0 2.79156 106.855 212.991)" />
      <path id="path18554" d="m87.983 333.454 15.299 14.283-41.375-28.75z" clip-path="url(#clipPath22089)"
        style="fill:#83868c;fill-opacity:1;fill-rule:evenodd;stroke-linecap:round;stroke-linejoin:round;stroke-dashoffset:6;stop-color:#000"
        transform="matrix(2.79156 0 0 2.79156 106.855 212.991)" />
      <path id="path18556" d="m87.983 333.454 15.299 14.283.046-5.811z" clip-path="url(#clipPath22085)"
        style="fill:#b1b5bd;fill-opacity:1;fill-rule:evenodd;stroke-linecap:round;stroke-linejoin:round;stroke-dashoffset:6;stop-color:#000"
        transform="matrix(2.79156 0 0 2.79156 106.855 212.991)" />
      <path id="path18558" d="m103.328 341.926 8.704 9.561-8.75-3.75z" clip-path="url(#clipPath22081)"
        style="fill:#54688c;fill-opacity:1;fill-rule:evenodd;stroke-linecap:round;stroke-linejoin:round;stroke-dashoffset:6;stop-color:#000"
        transform="matrix(2.79156 0 0 2.79156 106.855 212.991)" />
      <path id="path18560" d="m59.782 332.612 24.222 19.846-26.472-14.846z" clip-path="url(#clipPath22077)"
        style="fill:#d3b69a;fill-opacity:1;fill-rule:evenodd;stroke-linecap:round;stroke-linejoin:round;stroke-dashoffset:6;stop-color:#000"
        transform="matrix(2.79156 0 0 2.79156 106.855 212.991)" />
      <path id="path18562" d="m84.004 352.458 12.2-5.215 1.148 4.772z" clip-path="url(#clipPath22073)"
        style="fill:#8e6f60;fill-opacity:1;fill-rule:evenodd;stroke-linecap:round;stroke-linejoin:round;stroke-dashoffset:6;stop-color:#000"
        transform="matrix(2.79156 0 0 2.79156 106.855 212.991)" />
      <path id="path18564" d="m84.004 352.458 13.348-.444-22.98 15.557z" clip-path="url(#clipPath22069)"
        style="fill:#d4b799;fill-opacity:1;fill-rule:evenodd;stroke-linecap:round;stroke-linejoin:round;stroke-dashoffset:6;stop-color:#000"
        transform="matrix(2.79156 0 0 2.79156 106.855 212.991)" />
      <path id="path18566" d="m79.143 355.552 4.861-3.094-26.472-14.846z" clip-path="url(#clipPath22065)"
        style="fill:#d3b69a;fill-opacity:1;fill-rule:evenodd;stroke-linecap:round;stroke-linejoin:round;stroke-dashoffset:6;stop-color:#000"
        transform="matrix(2.79156 0 0 2.79156 106.855 212.991)" />
      <path id="path18568" d="m79.143 355.552-4.772 12.02 9.633-15.114z" clip-path="url(#clipPath22061)"
        style="fill:#d4b799;fill-opacity:1;fill-rule:evenodd;stroke-linecap:round;stroke-linejoin:round;stroke-dashoffset:6;stop-color:#000"
        transform="matrix(2.79156 0 0 2.79156 106.855 212.991)" />
      <path id="path18570" d="m63.235 367.571 15.908-12.02-4.772 12.02z" clip-path="url(#clipPath22057)"
        style="fill:#8e6f60;fill-opacity:1;fill-rule:evenodd;stroke-linecap:round;stroke-linejoin:round;stroke-dashoffset:6;stop-color:#000"
        transform="matrix(2.79156 0 0 2.79156 106.855 212.991)" />
      <path id="path18572" d="m5.671 259.445 2.673 11.542-7.556-7.67z" clip-path="url(#clipPath22053)"
        style="fill:#ccc;fill-opacity:1;fill-rule:evenodd;stroke-linecap:round;stroke-linejoin:round;stroke-dashoffset:6;stop-color:#000"
        transform="matrix(2.79156 0 0 2.79156 106.855 212.991)" />
      <path id="path18574" d="m-13.432 271.605 14.22-8.287 7.556 7.67z" clip-path="url(#clipPath22049)"
        style="fill:#b1b5bd;fill-opacity:1;fill-rule:evenodd;stroke-linecap:round;stroke-linejoin:round;stroke-dashoffset:6;stop-color:#000"
        transform="matrix(2.79156 0 0 2.79156 106.855 212.991)" />
      <path id="path18576" d="m8.344 270.987 6.523 9.52 31.75 4.687z" clip-path="url(#clipPath22045)"
        style="fill:#708cbd;fill-opacity:1;fill-rule:evenodd;stroke-linecap:round;stroke-linejoin:round;stroke-dashoffset:6;stop-color:#000"
        transform="matrix(2.79156 0 0 2.79156 106.855 212.991)" />
      <path id="path18578" d="m10.594 288.05 4.273-7.544 31.75 4.688z" clip-path="url(#clipPath22041)"
        style="fill:#99bdfe;fill-opacity:1;fill-rule:evenodd;stroke-linecap:round;stroke-linejoin:round;stroke-dashoffset:6;stop-color:#000"
        transform="matrix(2.79156 0 0 2.79156 106.855 212.991)" />
      <path id="path18580" d="m10.545 317.805-3.451 9.138 5.73-7.12z" clip-path="url(#clipPath22037)"
        style="fill:#56595b;fill-opacity:1;fill-rule:evenodd;stroke-linecap:round;stroke-linejoin:round;stroke-dashoffset:6;stop-color:#000"
        transform="matrix(2.79156 0 0 2.79156 106.855 212.991)" />
      <path id="path18582" d="m30.419 320.974 4.555-.31-10.157 9.757z" clip-path="url(#clipPath22033)"
        style="fill:#56595b;fill-opacity:1;fill-rule:evenodd;stroke-linecap:round;stroke-linejoin:round;stroke-dashoffset:6;stop-color:#000"
        transform="matrix(2.79156 0 0 2.79156 106.855 212.991)" />
      <path id="path18584" d="m-61.218 313.862 118.75 23.75 2.25-5z" clip-path="url(#clipPath22029)"
        style="fill:#8e6f60;fill-opacity:1;fill-rule:evenodd;stroke-linecap:round;stroke-linejoin:round;stroke-dashoffset:6;stop-color:#000"
        transform="matrix(2.79156 0 0 2.79156 106.855 212.991)" />
      <path id="path18620" d="m-3.218 305.612 54.532 13.875 10.593-.5-.75-8.75-23.875-12z"
        clip-path="url(#clipPath21957)"
        style="fill:#ccc;fill-opacity:1;fill-rule:evenodd;stroke-linecap:round;stroke-linejoin:round;stroke-dashoffset:6;stop-color:#000"
        transform="matrix(2.79156 0 0 2.79156 106.855 212.991)" />
      <path id="path18622" d="m-3.218 305.612 18.625 16.5 35.907-2.625z" clip-path="url(#clipPath21953)"
        style="fill:#b1b5bd;fill-opacity:1;fill-rule:evenodd;stroke-linecap:round;stroke-linejoin:round;stroke-dashoffset:6;stop-color:#000"
        transform="matrix(2.79156 0 0 2.79156 106.855 212.991)" />
      <path id="path18624" d="m32.782 290.612 16.31 1.741-11.81 5.884z" clip-path="url(#clipPath21949)"
        style="fill:#708cbd;fill-opacity:1;fill-rule:evenodd;stroke-linecap:round;stroke-linejoin:round;stroke-dashoffset:6;stop-color:#000"
        transform="matrix(2.79156 0 0 2.79156 106.855 212.991)" />
      <path id="path18626" d="m32.782 290.612 13.835-5.418 2.475 7.16z" clip-path="url(#clipPath21945)"
        style="fill:#54688c;fill-opacity:1;fill-rule:evenodd;stroke-linecap:round;stroke-linejoin:round;stroke-dashoffset:6;stop-color:#000"
        transform="matrix(2.79156 0 0 2.79156 106.855 212.991)" />
      <path id="path18628" d="m46.617 285.194 17.274 11.582-14.8-4.423z" clip-path="url(#clipPath21941)"
        style="fill:#56595b;fill-opacity:1;fill-rule:evenodd;stroke-linecap:round;stroke-linejoin:round;stroke-dashoffset:6;stop-color:#000"
        transform="matrix(2.79156 0 0 2.79156 106.855 212.991)" />
      <path id="path18630" d="m37.282 298.237 26.61-1.461-14.8-4.423z" clip-path="url(#clipPath21937)"
        style="fill:#99bdfe;fill-opacity:1;fill-rule:evenodd;stroke-linecap:round;stroke-linejoin:round;stroke-dashoffset:6;stop-color:#000"
        transform="matrix(2.79156 0 0 2.79156 106.855 212.991)" />
      <path id="path18632" d="m37.282 298.237 13.535 6.803 13.074-8.264z" clip-path="url(#clipPath21933)"
        style="fill:#54688c;fill-opacity:1;fill-rule:evenodd;stroke-linecap:round;stroke-linejoin:round;stroke-dashoffset:6;stop-color:#000"
        transform="matrix(2.79156 0 0 2.79156 106.855 212.991)" />
      <path id="path18634" d="m55.816 301.88 5.34 8.357-10.339-5.197z" clip-path="url(#clipPath21929)"
        style="fill:#a0a5af;fill-opacity:1;fill-rule:evenodd;stroke-linecap:round;stroke-linejoin:round;stroke-dashoffset:6;stop-color:#000"
        transform="matrix(2.79156 0 0 2.79156 106.855 212.991)" />
      <path id="path18636" d="m55.816 301.88 8.075-5.104 17.197 14.404z" clip-path="url(#clipPath21925)"
        style="fill:#708cbd;fill-opacity:1;fill-rule:evenodd;stroke-linecap:round;stroke-linejoin:round;stroke-dashoffset:6;stop-color:#000"
        transform="matrix(2.79156 0 0 2.79156 106.855 212.991)" />
      <path id="path18638" d="m55.816 301.88 5.34 8.357 8.5-3z" clip-path="url(#clipPath21921)"
        style="fill:#54688c;fill-opacity:1;fill-rule:evenodd;stroke-linecap:round;stroke-linejoin:round;stroke-dashoffset:6;stop-color:#000"
        transform="matrix(2.79156 0 0 2.79156 106.855 212.991)" />
      <path id="path18640" d="m61.157 310.237 19.875 7-11.375-10z" clip-path="url(#clipPath21917)"
        style="fill:#56595b;fill-opacity:1;fill-rule:evenodd;stroke-linecap:round;stroke-linejoin:round;stroke-dashoffset:6;stop-color:#000"
        transform="matrix(2.79156 0 0 2.79156 106.855 212.991)" />
      <path id="path18642" d="m61.157 310.237 42.171 31.689-15.345-8.472z" clip-path="url(#clipPath21913)"
        style="fill:#99bdfe;fill-opacity:1;fill-rule:evenodd;stroke-linecap:round;stroke-linejoin:round;stroke-dashoffset:6;stop-color:#000"
        transform="matrix(2.79156 0 0 2.79156 106.855 212.991)" />
      <path id="path18644" d="m61.157 310.237 26.826 23.217-26.076-14.467z" clip-path="url(#clipPath21909)"
        style="fill:#b1b5bd;fill-opacity:1;fill-rule:evenodd;stroke-linecap:round;stroke-linejoin:round;stroke-dashoffset:6;stop-color:#000"
        transform="matrix(2.79156 0 0 2.79156 106.855 212.991)" />
      <path id="path18646" d="m87.983 333.454 15.299 14.283-41.375-28.75z" clip-path="url(#clipPath21905)"
        style="fill:#83868c;fill-opacity:1;fill-rule:evenodd;stroke-linecap:round;stroke-linejoin:round;stroke-dashoffset:6;stop-color:#000"
        transform="matrix(2.79156 0 0 2.79156 106.855 212.991)" />
      <path id="path18648" d="m87.983 333.454 15.299 14.283.046-5.811z" clip-path="url(#clipPath21901)"
        style="fill:#b1b5bd;fill-opacity:1;fill-rule:evenodd;stroke-linecap:round;stroke-linejoin:round;stroke-dashoffset:6;stop-color:#000"
        transform="matrix(2.79156 0 0 2.79156 106.855 212.991)" />
      <path id="path18650" d="m103.328 341.926 8.704 9.561-8.75-3.75z" clip-path="url(#clipPath21897)"
        style="fill:#54688c;fill-opacity:1;fill-rule:evenodd;stroke-linecap:round;stroke-linejoin:round;stroke-dashoffset:6;stop-color:#000"
        transform="matrix(2.79156 0 0 2.79156 106.855 212.991)" />
      <path id="path18652" d="m59.782 332.612 24.222 19.846-26.472-14.846z" clip-path="url(#clipPath21893)"
        style="fill:#d3b69a;fill-opacity:1;fill-rule:evenodd;stroke-linecap:round;stroke-linejoin:round;stroke-dashoffset:6;stop-color:#000"
        transform="matrix(2.79156 0 0 2.79156 106.855 212.991)" />
      <path id="path18654" d="m84.004 352.458 12.2-5.215 1.148 4.772z" clip-path="url(#clipPath21889)"
        style="fill:#8e6f60;fill-opacity:1;fill-rule:evenodd;stroke-linecap:round;stroke-linejoin:round;stroke-dashoffset:6;stop-color:#000"
        transform="matrix(2.79156 0 0 2.79156 106.855 212.991)" />
      <path id="path18656" d="m84.004 352.458 13.348-.444-22.98 15.557z" clip-path="url(#clipPath21885)"
        style="fill:#d4b799;fill-opacity:1;fill-rule:evenodd;stroke-linecap:round;stroke-linejoin:round;stroke-dashoffset:6;stop-color:#000"
        transform="matrix(2.79156 0 0 2.79156 106.855 212.991)" />
      <path id="path18658" d="m79.143 355.552 4.861-3.094-26.472-14.846z" clip-path="url(#clipPath21881)"
        style="fill:#d3b69a;fill-opacity:1;fill-rule:evenodd;stroke-linecap:round;stroke-linejoin:round;stroke-dashoffset:6;stop-color:#000"
        transform="matrix(2.79156 0 0 2.79156 106.855 212.991)" />
      <path id="path18660" d="m79.143 355.552-4.772 12.02 9.633-15.114z" clip-path="url(#clipPath21877)"
        style="fill:#d4b799;fill-opacity:1;fill-rule:evenodd;stroke-linecap:round;stroke-linejoin:round;stroke-dashoffset:6;stop-color:#000"
        transform="matrix(2.79156 0 0 2.79156 106.855 212.991)" />
      <path id="path18662" d="m63.235 367.571 15.908-12.02-4.772 12.02z" clip-path="url(#clipPath21873)"
        style="fill:#8e6f60;fill-opacity:1;fill-rule:evenodd;stroke-linecap:round;stroke-linejoin:round;stroke-dashoffset:6;stop-color:#000"
        transform="matrix(2.79156 0 0 2.79156 106.855 212.991)" />
      <path id="path18672" d="m10.545 317.805-3.451 9.138 5.73-7.12z" clip-path="url(#clipPath21853)"
        style="fill:#56595b;fill-opacity:1;fill-rule:evenodd;stroke-linecap:round;stroke-linejoin:round;stroke-dashoffset:6;stop-color:#000"
        transform="matrix(2.79156 0 0 2.79156 106.855 212.991)" />
      <path id="path18674" d="m30.419 320.974 4.555-.31-10.157 9.757z" clip-path="url(#clipPath21849)"
        style="fill:#56595b;fill-opacity:1;fill-rule:evenodd;stroke-linecap:round;stroke-linejoin:round;stroke-dashoffset:6;stop-color:#000"
        transform="matrix(2.79156 0 0 2.79156 106.855 212.991)" />
      <path id="path18676" d="m-61.218 313.862 118.75 23.75 2.25-5z" clip-path="url(#clipPath21845)"
        style="fill:#8e6f60;fill-opacity:1;fill-rule:evenodd;stroke-linecap:round;stroke-linejoin:round;stroke-dashoffset:6;stop-color:#000"
        transform="matrix(2.79156 0 0 2.79156 106.855 212.991)" />
      <path id="path18712" d="m-3.218 305.612 54.532 13.875 10.593-.5-.75-8.75-23.875-12z"
        clip-path="url(#clipPath21773)"
        style="fill:#ccc;fill-opacity:1;fill-rule:evenodd;stroke-linecap:round;stroke-linejoin:round;stroke-dashoffset:6;stop-color:#000"
        transform="matrix(2.79156 0 0 2.79156 106.855 212.991)" />
      <path id="path18714" d="m-3.218 305.612 18.625 16.5 35.907-2.625z" clip-path="url(#clipPath21769)"
        style="fill:#b1b5bd;fill-opacity:1;fill-rule:evenodd;stroke-linecap:round;stroke-linejoin:round;stroke-dashoffset:6;stop-color:#000"
        transform="matrix(2.79156 0 0 2.79156 106.855 212.991)" />
      <path id="path18716" d="m32.782 290.612 16.31 1.741-11.81 5.884z" clip-path="url(#clipPath21765)"
        style="fill:#708cbd;fill-opacity:1;fill-rule:evenodd;stroke-linecap:round;stroke-linejoin:round;stroke-dashoffset:6;stop-color:#000"
        transform="matrix(2.79156 0 0 2.79156 106.855 212.991)" />
      <path id="path18718" d="m32.782 290.612 13.835-5.418 2.475 7.16z" clip-path="url(#clipPath21761)"
        style="fill:#54688c;fill-opacity:1;fill-rule:evenodd;stroke-linecap:round;stroke-linejoin:round;stroke-dashoffset:6;stop-color:#000"
        transform="matrix(2.79156 0 0 2.79156 106.855 212.991)" />
      <path id="path18720" d="m46.617 285.194 17.274 11.582-14.8-4.423z" clip-path="url(#clipPath21757)"
        style="fill:#56595b;fill-opacity:1;fill-rule:evenodd;stroke-linecap:round;stroke-linejoin:round;stroke-dashoffset:6;stop-color:#000"
        transform="matrix(2.79156 0 0 2.79156 106.855 212.991)" />
      <path id="path18722" d="m37.282 298.237 26.61-1.461-14.8-4.423z" clip-path="url(#clipPath21753)"
        style="fill:#99bdfe;fill-opacity:1;fill-rule:evenodd;stroke-linecap:round;stroke-linejoin:round;stroke-dashoffset:6;stop-color:#000"
        transform="matrix(2.79156 0 0 2.79156 106.855 212.991)" />
      <path id="path18724" d="m37.282 298.237 13.535 6.803 13.074-8.264z" clip-path="url(#clipPath21749)"
        style="fill:#54688c;fill-opacity:1;fill-rule:evenodd;stroke-linecap:round;stroke-linejoin:round;stroke-dashoffset:6;stop-color:#000"
        transform="matrix(2.79156 0 0 2.79156 106.855 212.991)" />
      <path id="path18726" d="m55.816 301.88 5.34 8.357-10.339-5.197z" clip-path="url(#clipPath21745)"
        style="fill:#a0a5af;fill-opacity:1;fill-rule:evenodd;stroke-linecap:round;stroke-linejoin:round;stroke-dashoffset:6;stop-color:#000"
        transform="matrix(2.79156 0 0 2.79156 106.855 212.991)" />
      <path id="path18728" d="m55.816 301.88 8.075-5.104 17.197 14.404z" clip-path="url(#clipPath21741)"
        style="fill:#708cbd;fill-opacity:1;fill-rule:evenodd;stroke-linecap:round;stroke-linejoin:round;stroke-dashoffset:6;stop-color:#000"
        transform="matrix(2.79156 0 0 2.79156 106.855 212.991)" />
      <path id="path18730" d="m55.816 301.88 5.34 8.357 8.5-3z" clip-path="url(#clipPath21737)"
        style="fill:#54688c;fill-opacity:1;fill-rule:evenodd;stroke-linecap:round;stroke-linejoin:round;stroke-dashoffset:6;stop-color:#000"
        transform="matrix(2.79156 0 0 2.79156 106.855 212.991)" />
      <path id="path18732" d="m61.157 310.237 19.875 7-11.375-10z" clip-path="url(#clipPath21733)"
        style="fill:#56595b;fill-opacity:1;fill-rule:evenodd;stroke-linecap:round;stroke-linejoin:round;stroke-dashoffset:6;stop-color:#000"
        transform="matrix(2.79156 0 0 2.79156 106.855 212.991)" />
      <path id="path18734" d="m61.157 310.237 42.171 31.689-15.345-8.472z" clip-path="url(#clipPath21729)"
        style="fill:#99bdfe;fill-opacity:1;fill-rule:evenodd;stroke-linecap:round;stroke-linejoin:round;stroke-dashoffset:6;stop-color:#000"
        transform="matrix(2.79156 0 0 2.79156 106.855 212.991)" />
      <path id="path18736" d="m61.157 310.237 26.826 23.217-26.076-14.467z" clip-path="url(#clipPath21725)"
        style="fill:#b1b5bd;fill-opacity:1;fill-rule:evenodd;stroke-linecap:round;stroke-linejoin:round;stroke-dashoffset:6;stop-color:#000"
        transform="matrix(2.79156 0 0 2.79156 106.855 212.991)" />
      <path id="path18738" d="m87.983 333.454 15.299 14.283-41.375-28.75z" clip-path="url(#clipPath21721)"
        style="fill:#83868c;fill-opacity:1;fill-rule:evenodd;stroke-linecap:round;stroke-linejoin:round;stroke-dashoffset:6;stop-color:#000"
        transform="matrix(2.79156 0 0 2.79156 106.855 212.991)" />
      <path id="path18740" d="m87.983 333.454 15.299 14.283.046-5.811z" clip-path="url(#clipPath21717)"
        style="fill:#b1b5bd;fill-opacity:1;fill-rule:evenodd;stroke-linecap:round;stroke-linejoin:round;stroke-dashoffset:6;stop-color:#000"
        transform="matrix(2.79156 0 0 2.79156 106.855 212.991)" />
      <path id="path18742" d="m103.328 341.926 8.704 9.561-8.75-3.75z" clip-path="url(#clipPath21713)"
        style="fill:#54688c;fill-opacity:1;fill-rule:evenodd;stroke-linecap:round;stroke-linejoin:round;stroke-dashoffset:6;stop-color:#000"
        transform="matrix(2.79156 0 0 2.79156 106.855 212.991)" />
      <path id="path18744" d="m59.782 332.612 24.222 19.846-26.472-14.846z" clip-path="url(#clipPath21709)"
        style="fill:#d3b69a;fill-opacity:1;fill-rule:evenodd;stroke-linecap:round;stroke-linejoin:round;stroke-dashoffset:6;stop-color:#000"
        transform="matrix(2.79156 0 0 2.79156 106.855 212.991)" />
      <path id="path18746" d="m84.004 352.458 12.2-5.215 1.148 4.772z" clip-path="url(#clipPath21705)"
        style="fill:#8e6f60;fill-opacity:1;fill-rule:evenodd;stroke-linecap:round;stroke-linejoin:round;stroke-dashoffset:6;stop-color:#000"
        transform="matrix(2.79156 0 0 2.79156 106.855 212.991)" />
      <path id="path18748" d="m84.004 352.458 13.348-.444-22.98 15.557z" clip-path="url(#clipPath21701)"
        style="fill:#d4b799;fill-opacity:1;fill-rule:evenodd;stroke-linecap:round;stroke-linejoin:round;stroke-dashoffset:6;stop-color:#000"
        transform="matrix(2.79156 0 0 2.79156 106.855 212.991)" />
      <path id="path18750" d="m79.143 355.552 4.861-3.094-26.472-14.846z" clip-path="url(#clipPath21697)"
        style="fill:#d3b69a;fill-opacity:1;fill-rule:evenodd;stroke-linecap:round;stroke-linejoin:round;stroke-dashoffset:6;stop-color:#000"
        transform="matrix(2.79156 0 0 2.79156 106.855 212.991)" />
      <path id="path18752" d="m79.143 355.552-4.772 12.02 9.633-15.114z" clip-path="url(#clipPath21693)"
        style="fill:#d4b799;fill-opacity:1;fill-rule:evenodd;stroke-linecap:round;stroke-linejoin:round;stroke-dashoffset:6;stop-color:#000"
        transform="matrix(2.79156 0 0 2.79156 106.855 212.991)" />
      <path id="path18754" d="m63.235 367.571 15.908-12.02-4.772 12.02z" clip-path="url(#clipPath21689)"
        style="fill:#8e6f60;fill-opacity:1;fill-rule:evenodd;stroke-linecap:round;stroke-linejoin:round;stroke-dashoffset:6;stop-color:#000"
        transform="matrix(2.79156 0 0 2.79156 106.855 212.991)" />
      <path id="path18764" d="m10.545 317.805-3.451 9.138 5.73-7.12z" clip-path="url(#clipPath21669)"
        style="fill:#56595b;fill-opacity:1;fill-rule:evenodd;stroke-linecap:round;stroke-linejoin:round;stroke-dashoffset:6;stop-color:#000"
        transform="matrix(2.79156 0 0 2.79156 106.855 212.991)" />
      <path id="path18766" d="m30.419 320.974 4.555-.31-10.157 9.757z" clip-path="url(#clipPath21665)"
        style="fill:#56595b;fill-opacity:1;fill-rule:evenodd;stroke-linecap:round;stroke-linejoin:round;stroke-dashoffset:6;stop-color:#000"
        transform="matrix(2.79156 0 0 2.79156 106.855 212.991)" />
      </g>
      <style id="style853" type="text/css">
        .st0 {
          fill: #fff
        }
      </style>
</svg>
