<svg xmlns="http://www.w3.org/2000/svg" xml:space="preserve" width="192" height="192">
  <rect width="100%" height="100%" fill="#98dc9a" />
  <g fill="none" stroke="#fff" stroke-linecap="round" stroke-linejoin="round">
    <path stroke-width="6.1537500000000005"
      d="M132.923 114.962V77.037a3.115 3.115 0 0 0-1.577-2.692L97.5 55.307a3 3 0 0 0-3 0l-33.846 19.04a3.115 3.115 0 0 0-1.577 2.692v37.922a3.115 3.115 0 0 0 1.577 2.693L94.5 136.693a3 3 0 0 0 3 0l33.846-19.04a3.115 3.115 0 0 0 1.576-2.692z" />
    <path stroke-width="6.15392" d="M132.5 75.461 96.346 96 59.5 75.46" />
    <path stroke-width="6.1537500000000005" d="M96.345 96 96 137.074" />
  </g>
</svg>
