<svg xmlns="http://www.w3.org/2000/svg" xml:space="preserve"
  style="fill-rule:evenodd;clip-rule:evenodd;stroke-linejoin:round;stroke-miterlimit:2" viewBox="0 0 192 192">
  <rect width="100%" height="100%" style="fill:#bd9aff" />
  <path
    d="M135.398 76.69h-77.62v-8.792l-.022-.021v-8.361s11.832 7.165 26.098 6.146c14.266-1.019 18.181-7.261 35.696-7.006 0 0 7.888-.446 15.848 4.012V76.69ZM95.649 142.699c-4.923-.122-10.663-6.07-7.875-11.135 4.17-7.577-1.745-19.479-15.878-17.473-14.133 2.005-14.118-6.38-14.118-6.38V81.692h77.62v26.019s.016 8.385-14.117 6.38c-14.134-2.006-20.048 9.896-15.878 17.473 2.81 5.106-3.045 11.108-7.993 11.137h-1.726c-.012 0-.023 0-.035-.002Z"
    style="fill:#fff" transform="translate(15.588 16.248) scale(.8386)" />
</svg>
