<svg xmlns="http://www.w3.org/2000/svg" xml:space="preserve"
  style="fill-rule:evenodd;clip-rule:evenodd;stroke-linejoin:round;stroke-miterlimit:2" viewBox="0 0 192 192">
  <rect width="100%" height="100%" style="fill:#fff" />
  <path d="M77.746 39.812c14.015 7.56 23.43 21.549 23.43 37.543 0 15.993-9.415 29.983-23.43 37.543V39.812Z"
    style="fill:#e0f4e0" transform="rotate(-45 95.956 95.915)" />
  <path d="M77.746 39.812c14.015 7.56 23.43 21.549 23.43 37.543 0 15.993-9.415 29.983-23.43 37.543V39.812Z"
    style="fill:#98dc9a" transform="scale(-1 1) rotate(45 -18.21 -91.78)" />
  <path d="M77.746 39.812c14.015 7.56 23.43 21.549 23.43 37.543 0 15.993-9.415 29.983-23.43 37.543V39.812Z"
    style="fill:#71a372" transform="rotate(45 92.69 128.525) scale(1.1297)" />
  <path d="M77.746 39.812c14.015 7.56 23.43 21.549 23.43 37.543 0 15.993-9.415 29.983-23.43 37.543V39.812Z"
    style="fill:#98dc9a" transform="scale(-1.1297 1.1297) rotate(-45 -4.302 301.465)" />
</svg>
