<svg xmlns="http://www.w3.org/2000/svg" xml:space="preserve"
  style="fill-rule:evenodd;clip-rule:evenodd;stroke-linejoin:round;stroke-miterlimit:2" viewBox="0 0 192 192">
  <rect width="100%" height="100%" style="fill:#9abeff" />
  <path
    d="M75.706 121.27c-11.728-6.948-19.599-19.735-19.599-34.346 0-.929.032-1.851.094-2.767H70.26c-.097.91-.146 1.833-.146 2.767 0 14.288 11.599 25.887 25.886 25.887 14.287 0 25.886-11.599 25.886-25.887 0-.934-.049-1.857-.146-2.767h14.059c.062.916.094 1.838.094 2.767 0 14.611-7.871 27.398-19.599 34.346v29.676h-14.15v-24.204h-3.669a40.506 40.506 0 0 1-4.95 0h-3.669v24.204h-14.15V121.27Z"
    style="fill:#fff" transform="matrix(.73904 0 0 .73904 25.052 25.839)" />
  <path
    d="M112 54.924v32c0 8.831-7.169 16-16 16s-16-7.169-16-16V54.821c.056-8.783 7.204-15.897 16-15.897 8.831 0 16 7.17 16 16Z"
    style="fill:#fff" transform="matrix(.73904 0 0 .73904 25.052 25.839)" />
</svg>
