<svg xmlns="http://www.w3.org/2000/svg" xml:space="preserve"
  style="fill-rule:evenodd;clip-rule:evenodd;stroke-linejoin:round;stroke-miterlimit:2" viewBox="0 0 192 192">
  <rect width="100%" height="100%" style="fill:#54688c" />
  <path
    d="m64.813 99.539-18.909 7.812c15.266 24.452 31.03 33.265 31.03 33.265l6.508-12.637c-19.735-11.877-18.618-28.44-18.618-28.44"
    style="fill:#bd9aff" transform="translate(25.031 23.492) scale(.7381)" />
  <path d="M91.237 142.569 78.346 131.78s23.118-60.819 50.58-76.8l9.816 22.723s-35.369 14.22-47.505 64.866"
    style="fill:#bd9aff" transform="translate(26.978 22.805) scale(.7381)" />
  <circle cx="83.442" cy="135.224" r="12.558" style="fill:#fff" transform="translate(26.663 24.638) scale(.7381)" />
  <circle cx="83.442" cy="135.224" r="12.558" style="fill:#fff" transform="matrix(.89199 0 0 .89199 -9.997 -25.302)" />
  <circle cx="83.442" cy="135.224" r="12.558" style="fill:#fff" transform="translate(36.176 -72.807) scale(1.06868)" />
</svg>
