<svg xmlns="http://www.w3.org/2000/svg" xml:space="preserve" viewBox="0 0 192 192">
  <g fill-rule="evenodd" clip-rule="evenodd">
    <rect width="100%" height="100%" fill="#98dc9a" />
    <path fill="#fff"
      d="m54.778 70.457 65.761 65.761 18.385-18.385-65.761-65.761zm-4.95-2.121a3 3 0 0 0 0 4.242l68.59 68.59a2.998 2.998 0 0 0 4.242 0l21.214-21.214a3.001 3.001 0 0 0 0-4.243l-68.59-68.589a3 3 0 0 0-4.242 0z" />
    <path fill="#fff"
      d="M121.95 47.121a3 3 0 0 0-4.242 0l-68.59 68.589a3 3 0 0 0 0 4.243l21.213 21.213a3 3 0 0 0 4.243 0l68.59-68.589a3.001 3.001 0 0 0 0-4.243zm-21.917 39.307a5 5 0 1 1-7.071-7.072 5 5 0 0 1 7.071 7.072zM89.426 97.035a5 5 0 1 1-7.071-7.07 5 5 0 0 1 7.071 7.07zm21.213 0a5 5 0 1 1-7.071-7.07 5 5 0 0 1 7.071 7.07zm-10.606 10.607a5 5 0 1 1-7.071-7.072 5 5 0 0 1 7.071 7.072z" />
  </g>
</svg>
