<svg xmlns="http://www.w3.org/2000/svg" width="192" height="192" fill="none">
  <rect width="100%" height="100%" fill="#728DBE" />
  <path fill="#fff"
    d="M125.992 106.712h-58.4v11.68h58.4v-11.68ZM111.392 90.36h-43.8v11.68h43.8V90.36ZM125.992 74.008h-58.4v11.68h58.4v-11.68Z" />
  <path fill="#fff" fill-rule="evenodd"
    d="M72.264 67H60v12.264a2.336 2.336 0 0 0 4.672 0v-7.592h7.592a2.336 2.336 0 0 0 0-4.672ZM133 113.136a2.336 2.336 0 0 0-4.672 0v7.592h-7.592a2.336 2.336 0 0 0 0 4.672H133v-12.264ZM120.736 67a2.336 2.336 0 0 0 0 4.672h7.592v7.592a2.336 2.336 0 0 0 4.672 0V67h-12.264ZM60 125.4H72.264a2.336 2.336 0 0 0 0-4.672h-7.592v-7.592a2.336 2.336 0 0 0-4.672 0V125.4Z"
    clip-rule="evenodd" />
</svg>
