<svg xmlns="http://www.w3.org/2000/svg" xml:space="preserve"
  style="fill-rule:evenodd;clip-rule:evenodd;stroke-linejoin:round;stroke-miterlimit:2" viewBox="0 0 192 192">
  <rect width="100%" height="100%" style="fill:#fff" />
  <path
    d="M99.34 66.488a.464.464 0 0 1 .898 0l2.203 8.483a3.293 3.293 0 0 0 2.361 2.361l8.483 2.203a.464.464 0 0 1 0 .898l-8.483 2.203a3.293 3.293 0 0 0-2.361 2.361l-2.203 8.483a.464.464 0 0 1-.898 0l-2.203-8.483a3.293 3.293 0 0 0-2.361-2.361l-8.483-2.203a.464.464 0 0 1 0-.898l8.483-2.203a3.293 3.293 0 0 0 2.361-2.361l2.203-8.483Z"
    style="fill:#98dc9a" transform="translate(-160.419 -109.528) scale(2.56961)" />
</svg>
