<?xml version="1.0" encoding="UTF-8" standalone="no"?>
<svg
   xmlns:dc="http://purl.org/dc/elements/1.1/"
   xmlns:cc="http://creativecommons.org/ns#"
   xmlns:rdf="http://www.w3.org/1999/02/22-rdf-syntax-ns#"
   xmlns:svg="http://www.w3.org/2000/svg"
   xmlns="http://www.w3.org/2000/svg"
   xmlns:xlink="http://www.w3.org/1999/xlink"
   xmlns:sodipodi="http://sodipodi.sourceforge.net/DTD/sodipodi-0.dtd"
   xmlns:inkscape="http://www.inkscape.org/namespaces/inkscape"
   viewBox="0 0 272 272"
   version="1.1"
   id="svg16"
   sodipodi:docname="_1money_fg.svg"
   inkscape:version="0.92.4 (5da689c313, 2019-01-14)"
   width="272"
   height="272">
  <metadata
     id="metadata20">
    <rdf:RDF>
      <cc:Work
         rdf:about="">
        <dc:format>image/svg+xml</dc:format>
        <dc:type
           rdf:resource="http://purl.org/dc/dcmitype/StillImage" />
        <dc:title></dc:title>
      </cc:Work>
    </rdf:RDF>
  </metadata>
  <sodipodi:namedview
     pagecolor="#ffffff"
     bordercolor="#666666"
     borderopacity="1"
     objecttolerance="10"
     gridtolerance="10"
     guidetolerance="10"
     inkscape:pageopacity="0"
     inkscape:pageshadow="2"
     inkscape:window-width="1920"
     inkscape:window-height="1017"
     id="namedview18"
     showgrid="false"
     inkscape:zoom="2.5383403"
     inkscape:cx="50.338858"
     inkscape:cy="144.18316"
     inkscape:window-x="-8"
     inkscape:window-y="-8"
     inkscape:window-maximized="1"
     inkscape:current-layer="svg16"
     inkscape:snap-global="true">
    <inkscape:grid
       type="xygrid"
       id="grid827"
       spacingx="4"
       spacingy="4" />
  </sodipodi:namedview>
  <defs
     id="defs4">
    <style
       id="style2">.a{fill:none;stroke:#b1b5bd;stroke-linecap:round;stroke-linejoin:round;isolation:isolate;opacity:0.63;}</style>
    <linearGradient
       id="b">
      <stop
         id="stop818"
         style="stop-color:#f8c18c;stop-opacity:1"
         offset="0" />
      <stop
         id="stop820"
         style="stop-color:#ff837d;stop-opacity:1"
         offset="1" />
    </linearGradient>
    <linearGradient
       id="a">
      <stop
         id="stop823"
         style="stop-color:#fdf5d9;stop-opacity:1"
         offset="0" />
      <stop
         id="stop825"
         style="stop-color:#ff837d;stop-opacity:1"
         offset="1" />
    </linearGradient>
    <linearGradient
       gradientUnits="userSpaceOnUse"
       y2="60"
       y1="168"
       x2="108"
       x1="108"
       id="d"
       xlink:href="#a"
       gradientTransform="translate(40,40)" />
    <linearGradient
       gradientUnits="userSpaceOnUse"
       y2="136"
       y1="48"
       x2="144"
       x1="48"
       id="c"
       xlink:href="#b"
       gradientTransform="translate(40,40)" />
    <style
       id="style2-8">.a{fill:none;stroke:#b1b5bd;stroke-linecap:round;stroke-linejoin:round;isolation:isolate;opacity:0.63;}</style>
  </defs>
  <rect
     width="160"
     height="160"
     x="56"
     y="56"
     ry="80"
     style="opacity:1;vector-effect:none;fill:url(#c);fill-opacity:1;fill-rule:evenodd;stroke:none;paint-order:stroke fill markers"
     id="rect832" />
  <path
     inkscape:connector-curvature="0"
     d="M 272,83.266 V 0 h -80 l 1.648,92.764 C 202.665,104.788 208,119.747 208,136 c 0,39.888 -32.112,72 -72,72 v 64 c 24.30053,0 136,0 136,0 0,0 0,-111.69947 0,-136 -0.0391,-19.0278 0,-52.734 0,-52.734 z"
     style="fill:url(#d);fill-opacity:1;stroke:none;stroke-width:1px;stroke-linecap:butt;stroke-linejoin:miter;stroke-opacity:1"
     id="path834"
     sodipodi:nodetypes="ccccsccccc" />
  <path
     inkscape:connector-curvature="0"
     d="m 136,48 a 88,88 0 0 0 -88,88 88,88 0 0 0 88,88 v -16 c -39.888,0 -72,-32.112 -72,-72 0,-39.888 32.112,-72 72,-72 23.635,0 44.536,11.278 57.648,28.764 l 12.666,-9.498 A 88,88 0 0 0 136,48 Z"
     style="opacity:1;fill:#fdf5d9;stroke:none"
     id="path836" />
  <path
     style="fill:#fdf5d9;stroke:none;stroke-width:1px;stroke-linecap:butt;stroke-linejoin:miter;stroke-opacity:1"
     d="M 208,88 224,0 H 0 V 272 H 136 V 216 L 80,196 60,160 56,120 92,68 l 48,-16 40,16 8,16 z"
     id="path872"
     inkscape:connector-curvature="0"
     sodipodi:nodetypes="cccccccccccccc" />
  <rect
     width="16"
     height="16"
     x="192"
     y="80"
     ry="8"
     style="opacity:1;vector-effect:none;fill:#fdf5d9;fill-opacity:1;fill-rule:evenodd;stroke:none;paint-order:stroke fill markers"
     id="rect842" />
</svg>
