<?xml version="1.0" encoding="UTF-8" standalone="no"?>
<svg
   xmlns:dc="http://purl.org/dc/elements/1.1/"
   xmlns:cc="http://creativecommons.org/ns#"
   xmlns:rdf="http://www.w3.org/1999/02/22-rdf-syntax-ns#"
   xmlns:svg="http://www.w3.org/2000/svg"
   xmlns="http://www.w3.org/2000/svg"
   xmlns:xlink="http://www.w3.org/1999/xlink"
   xmlns:sodipodi="http://sodipodi.sourceforge.net/DTD/sodipodi-0.dtd"
   xmlns:inkscape="http://www.inkscape.org/namespaces/inkscape"
   viewBox="0 0 272 272"
   version="1.1"
   id="svg16"
   sodipodi:docname="_3dlut_bg.svg"
   inkscape:version="0.92.4 (5da689c313, 2019-01-14)"
   width="272"
   height="272">
  <metadata
     id="metadata20">
    <rdf:RDF>
      <cc:Work
         rdf:about="">
        <dc:format>image/svg+xml</dc:format>
        <dc:type
           rdf:resource="http://purl.org/dc/dcmitype/StillImage" />
        <dc:title></dc:title>
      </cc:Work>
    </rdf:RDF>
  </metadata>
  <sodipodi:namedview
     pagecolor="#ffffff"
     bordercolor="#666666"
     borderopacity="1"
     objecttolerance="10"
     gridtolerance="10"
     guidetolerance="10"
     inkscape:pageopacity="0"
     inkscape:pageshadow="2"
     inkscape:window-width="1920"
     inkscape:window-height="1017"
     id="namedview18"
     showgrid="true"
     inkscape:zoom="2.5383403"
     inkscape:cx="12.943986"
     inkscape:cy="127.45732"
     inkscape:window-x="-8"
     inkscape:window-y="-8"
     inkscape:window-maximized="1"
     inkscape:current-layer="svg16"
     inkscape:snap-global="true">
    <inkscape:grid
       type="xygrid"
       id="grid827"
       spacingx="4"
       spacingy="4" />
  </sodipodi:namedview>
  <defs
     id="defs4">
    <style
       id="style2">.a{fill:none;stroke:#b1b5bd;stroke-linecap:round;stroke-linejoin:round;isolation:isolate;opacity:0.63;}</style>
    <linearGradient
       id="linearGradient863">
      <stop
         style="stop-color:#ba6561;stop-opacity:1"
         offset="0"
         id="stop859" />
      <stop
         style="stop-color:#fd997e;stop-opacity:1"
         offset=".519"
         id="stop873" />
      <stop
         style="stop-color:#f8c18c;stop-opacity:1"
         offset=".833"
         id="stop871" />
      <stop
         style="stop-color:#f9de81;stop-opacity:1"
         offset="1"
         id="stop861" />
    </linearGradient>
    <linearGradient
       gradientUnits="userSpaceOnUse"
       y2="140"
       y1="32"
       x2="132"
       x1="60"
       id="linearGradient865"
       xlink:href="#linearGradient863"
       gradientTransform="translate(40,42)" />
    <style
       id="style2-5">.a{fill:none;stroke:#b1b5bd;stroke-linecap:round;stroke-linejoin:round;isolation:isolate;opacity:.63}</style>
    <style
       id="style2-50">.a{fill:none;stroke:#b1b5bd;stroke-linecap:round;stroke-linejoin:round;isolation:isolate;opacity:0.63;}</style>
  </defs>
  <rect
     style="opacity:1;vector-effect:none;fill:#56595b;fill-opacity:1;fill-rule:evenodd;stroke:none;stroke-width:16;stroke-linecap:round;stroke-linejoin:round;stroke-miterlimit:4;stroke-dasharray:none;paint-order:stroke fill markers"
     id="rect861"
     width="272"
     height="272"
     x="0"
     y="0" />
  <circle
     style="opacity:0.62999998;isolation:isolate;fill:none;stroke:#b1b5bd;stroke-linecap:round;stroke-linejoin:round"
     id="circle10-4"
     cx="136"
     cy="136.1557"
     r="36.5"
     class="a" />
  <circle
     id="circle8-5"
     cx="129.89801"
     cy="131.89799"
     r="81.898003"
     class="a"
     style="opacity:1;isolation:isolate;fill:#83868c;stroke:none;stroke-width:0.93066257;stroke-linecap:round;stroke-linejoin:round" />
  <circle
     id="circle8-5-1"
     cx="128.06799"
     cy="130.06799"
     r="75.593002"
     class="a"
     style="opacity:1;isolation:isolate;fill:url(#linearGradient865);fill-opacity:1;stroke:none;stroke-width:0.85901392;stroke-linecap:round;stroke-linejoin:round" />
  <path
     inkscape:connector-curvature="0"
     id="rect881"
     d="m 124,54.62 a 75.593,75.593 0 0 0 -4,0.374 V 68 h -16 v -9.492 a 75.593,75.593 0 0 0 -4,1.406 V 68 H 85.068 a 75.593,75.593 0 0 0 -5.295,4 H 80 V 88 H 65.3 A 75.593,75.593 0 0 0 60,97.404 V 108 h -4.219 a 75.593,75.593 0 0 0 -1.021,4 H 60 v 16 h -7.422 a 75.593,75.593 0 0 0 -0.103,2.068 75.593,75.593 0 0 0 0.068,1.932 H 60 v 16 h -5.285 a 75.593,75.593 0 0 0 1.082,4 H 60 v 10.795 A 75.593,75.593 0 0 0 65.238,172 H 80 v 16 h -0.479 a 75.593,75.593 0 0 0 5.262,4 H 100 v 8.193 a 75.593,75.593 0 0 0 4,1.461 V 192 h 16 v 13.205 a 75.593,75.593 0 0 0 4,0.252 V 192 h 16 v 12.672 a 75.593,75.593 0 0 0 4,-0.803 V 192 h 16 v 6.492 a 75.593,75.593 0 0 0 4,-1.998 V 192 h 7.256 a 75.593,75.593 0 0 0 5.26,-4 H 164 v -16 h 16 v 12.94 a 75.593,75.593 0 0 0 4,-4.15 V 172 h 6.916 a 75.593,75.593 0 0 0 2.453,-4 H 184 v -16 h 16 v 1.188 a 75.593,75.593 0 0 0 3.66,-23.12 A 75.593,75.593 0 0 0 200,107.12 V 108 H 184 V 92 h 9.27 a 75.593,75.593 0 0 0 -2.467,-4 H 184 v -8.656 a 75.593,75.593 0 0 0 -4,-4.08 V 88 H 164 V 72 h 12.438 a 75.593,75.593 0 0 0 -5.264,-4 H 164 v -4.42 a 75.593,75.593 0 0 0 -4,-1.934 V 68 H 144 V 56.215 a 75.593,75.593 0 0 0 -4,-0.701 V 68 H 124 Z M 84,72 h 16 V 88 H 84 Z m 20,0 h 16 v 16 h -16 z m 20,0 h 16 v 16 h -16 z m 20,0 h 16 V 88 H 144 Z M 64,92 h 16 v 16 H 64 Z m 20,0 h 16 v 16 H 84 Z m 20,0 h 16 v 16 h -16 z m 20,0 h 16 v 16 h -16 z m 20,0 h 16 v 16 h -16 z m 20,0 h 16 v 16 H 164 Z M 64,112 h 16 v 16 H 64 Z m 20,0 h 16 v 16 H 84 Z m 20,0 h 16 v 16 h -16 z m 20,0 h 16 v 16 h -16 z m 20,0 h 16 v 16 h -16 z m 20,0 h 16 v 16 h -16 z m 20,0 h 16 v 16 H 184 Z M 64,132 h 16 v 16 H 64 Z m 20,0 h 16 v 16 H 84 Z m 20,0 h 16 v 16 h -16 z m 20,0 h 16 v 16 h -16 z m 20,0 h 16 v 16 h -16 z m 20,0 h 16 v 16 h -16 z m 20,0 h 16 v 16 H 184 Z M 64,152 h 16 v 16 H 64 Z m 20,0 h 16 v 16 H 84 Z m 20,0 h 16 v 16 h -16 z m 20,0 h 16 v 16 h -16 z m 20,0 h 16 v 16 h -16 z m 20,0 h 16 v 16 h -16 z m -80,20 h 16 v 16 H 84 Z m 20,0 h 16 v 16 h -16 z m 20,0 h 16 v 16 h -16 z m 20,0 h 16 v 16 h -16 z"
     style="opacity:0.25;vector-effect:none;fill:#ba6561;fill-opacity:1;fill-rule:evenodd;stroke:none;stroke-width:1;stroke-linecap:round;stroke-linejoin:round;stroke-miterlimit:4;stroke-dasharray:none;paint-order:stroke fill markers" />
</svg>
