<?xml version="1.0" encoding="UTF-8" standalone="no"?>
<svg
   xmlns:dc="http://purl.org/dc/elements/1.1/"
   xmlns:cc="http://creativecommons.org/ns#"
   xmlns:rdf="http://www.w3.org/1999/02/22-rdf-syntax-ns#"
   xmlns:svg="http://www.w3.org/2000/svg"
   xmlns="http://www.w3.org/2000/svg"
   xmlns:sodipodi="http://sodipodi.sourceforge.net/DTD/sodipodi-0.dtd"
   xmlns:inkscape="http://www.inkscape.org/namespaces/inkscape"
   viewBox="0 0 272 272"
   version="1.1"
   id="svg16"
   sodipodi:docname="_4_equals_10_bg.svg"
   inkscape:version="0.92.4 (5da689c313, 2019-01-14)"
   width="272"
   height="272">
  <metadata
     id="metadata20">
    <rdf:RDF>
      <cc:Work
         rdf:about="">
        <dc:format>image/svg+xml</dc:format>
        <dc:type
           rdf:resource="http://purl.org/dc/dcmitype/StillImage" />
        <dc:title></dc:title>
      </cc:Work>
    </rdf:RDF>
  </metadata>
  <sodipodi:namedview
     pagecolor="#ffffff"
     bordercolor="#666666"
     borderopacity="1"
     objecttolerance="10"
     gridtolerance="10"
     guidetolerance="10"
     inkscape:pageopacity="0"
     inkscape:pageshadow="2"
     inkscape:window-width="1920"
     inkscape:window-height="1017"
     id="namedview18"
     showgrid="true"
     inkscape:zoom="7.1795104"
     inkscape:cx="109.15928"
     inkscape:cy="128.12858"
     inkscape:window-x="-8"
     inkscape:window-y="-8"
     inkscape:window-maximized="1"
     inkscape:current-layer="svg16"
     inkscape:snap-global="false">
    <inkscape:grid
       type="xygrid"
       id="grid827"
       spacingx="4"
       spacingy="4" />
  </sodipodi:namedview>
  <defs
     id="defs4">
    <style
       id="style2">.a{fill:none;stroke:#b1b5bd;stroke-linecap:round;stroke-linejoin:round;isolation:isolate;opacity:0.63;}</style>
    <linearGradient
       gradientUnits="userSpaceOnUse"
       y2="-24.07"
       y1="171.29"
       x2="96"
       x1="96"
       id="b"
       gradientTransform="translate(39.498177,40.166059)">
      <stop
         id="stop818"
         stop-color="#9abeff"
         offset="0" />
      <stop
         id="stop820"
         stop-color="#54688c"
         offset="1" />
    </linearGradient>
    <clipPath
       id="a">
      <rect
         id="rect823"
         rx="10"
         fill="none"
         y="19.5"
         x="19.5"
         height="153"
         width="153" />
    </clipPath>
  </defs>
  <rect
     style="fill:url(#b)"
     width="302.2717"
     height="283.90491"
     x="-6.788229"
     y="-5.4524655"
     rx="10"
     id="rect828" />
  <path
     style="fill:#728dbe"
     inkscape:connector-curvature="0"
     d="m 77.328177,167.96606 22.61,-11.2 c 1.200233,-0.59407 2.648853,-0.32067 3.550003,0.67 l 15.8,17.41 c 0.64148,0.7276 1.59518,1.10014 2.56,1 l 31.79,-3.68 c 0.94733,-0.10925 1.7863,-0.66237 2.26,-1.49 l 9.15,-15.91 c 0.56544,-0.98353 1.63732,-1.56397 2.77,-1.5 l 25.12,1.42 c 1.31192,0.0749 2.42238,0.99491 2.74,2.27 l 106.37964,143.67222 c 0.43326,1.72116 -0.71428,3.44014 -2.47,3.7 l -337.555247,-1.1821 c -1.403363,9.17886 -2.759128,-0.59927 -3.25,-1.93 l -4.57,-12.36 C -46.320632,287.41732 75.953508,168.64791 77.328177,167.96606 Z"
     id="path830"
     sodipodi:nodetypes="ccccccccccccccccc" />
  <circle
     style="fill:#9abeff"
     cx="67.785149"
     cy="86.454582"
     r="1.41"
     id="circle834" />
  <circle
     style="fill:#9abeff"
     cx="99.378181"
     cy="73.406059"
     r="1.29"
     id="circle836" />
  <circle
     style="fill:#9abeff"
     cx="189.73819"
     cy="94.576057"
     r="1.29"
     id="circle838" />
  <circle
     style="fill:#9abeff"
     cx="145.43819"
     cy="71.046059"
     r="1.29"
     id="circle840" />
  <circle
     style="fill:#9abeff"
     cx="201.98425"
     cy="83.131241"
     r="1.29"
     id="circle842" />
  <circle
     style="fill:#9abeff"
     cx="201.02818"
     cy="118.75606"
     r="1.29"
     id="circle844" />
  <circle
     style="fill:#9abeff"
     cx="77.028175"
     cy="92.226059"
     r="1.0599999"
     id="circle846" />
  <circle
     style="fill:#9abeff"
     cx="119.78818"
     cy="79.51606"
     r="1.0599999"
     id="circle848" />
  <circle
     style="fill:#9abeff"
     cx="183.55818"
     cy="72.106056"
     r="1.0599999"
     id="circle850" />
  <circle
     style="fill:#9abeff"
     cx="83.618179"
     cy="103.75606"
     r="1.53"
     id="circle852" />
  <circle
     style="fill:#9abeff"
     cx="82.088181"
     cy="115.04606"
     r="0.88"
     id="circle854" />
  <circle
     style="fill:#9abeff"
     cx="109.96818"
     cy="119.16606"
     r="0.88"
     id="circle856" />
  <circle
     style="fill:#9abeff"
     cx="104.90818"
     cy="104.63606"
     r="0.88"
     id="circle858" />
  <circle
     style="fill:#9abeff"
     cx="166.90819"
     cy="106.40606"
     r="0.88"
     id="circle860" />
  <circle
     style="fill:#9abeff"
     cx="108.20818"
     cy="87.406059"
     r="0.88"
     id="circle862" />
  <circle
     style="fill:#9abeff"
     cx="140.31818"
     cy="92.226059"
     r="0.88"
     id="circle864" />
  <circle
     style="fill:#9abeff"
     cx="166.02818"
     cy="88.286057"
     r="0.88"
     id="circle866" />
</svg>
