<?xml version="1.0" encoding="UTF-8" standalone="no"?>
<svg
   xmlns:dc="http://purl.org/dc/elements/1.1/"
   xmlns:cc="http://creativecommons.org/ns#"
   xmlns:rdf="http://www.w3.org/1999/02/22-rdf-syntax-ns#"
   xmlns:svg="http://www.w3.org/2000/svg"
   xmlns="http://www.w3.org/2000/svg"
   xmlns:sodipodi="http://sodipodi.sourceforge.net/DTD/sodipodi-0.dtd"
   xmlns:inkscape="http://www.inkscape.org/namespaces/inkscape"
   viewBox="0 0 272 272"
   version="1.1"
   id="svg16"
   sodipodi:docname="_7zipper_bg.svg"
   inkscape:version="0.92.4 (5da689c313, 2019-01-14)"
   width="272"
   height="272">
  <metadata
     id="metadata20">
    <rdf:RDF>
      <cc:Work
         rdf:about="">
        <dc:format>image/svg+xml</dc:format>
        <dc:type
           rdf:resource="http://purl.org/dc/dcmitype/StillImage" />
        <dc:title></dc:title>
      </cc:Work>
    </rdf:RDF>
  </metadata>
  <sodipodi:namedview
     pagecolor="#ffffff"
     bordercolor="#666666"
     borderopacity="1"
     objecttolerance="10"
     gridtolerance="10"
     guidetolerance="10"
     inkscape:pageopacity="0"
     inkscape:pageshadow="2"
     inkscape:window-width="1920"
     inkscape:window-height="1017"
     id="namedview18"
     showgrid="true"
     inkscape:zoom="2.5383403"
     inkscape:cx="19.75687"
     inkscape:cy="141.16173"
     inkscape:window-x="-8"
     inkscape:window-y="-8"
     inkscape:window-maximized="1"
     inkscape:current-layer="svg16"
     inkscape:snap-global="true"
     showguides="false">
    <inkscape:grid
       type="xygrid"
       id="grid827"
       spacingx="4"
       spacingy="4" />
  </sodipodi:namedview>
  <defs
     id="defs4">
    <style
       id="style2">.a{fill:none;stroke:#b1b5bd;stroke-linecap:round;stroke-linejoin:round;isolation:isolate;opacity:0.63;}</style>
  </defs>
  <rect
     style="opacity:1;vector-effect:none;fill:#98dc9a;fill-opacity:1;fill-rule:evenodd;stroke:none;stroke-width:16;stroke-linecap:round;stroke-linejoin:round;stroke-miterlimit:4;stroke-dasharray:none;paint-order:stroke fill markers"
     id="rect860"
     width="272"
     height="272"
     x="0"
     y="0" />
  <path
     inkscape:connector-curvature="0"
     d="m 132,0 v 136.398 c 0,2.216 1.784,4 4,4 2.216,0 4,-1.784 4,-4 V 0 Z"
     style="fill:#4a4a4a;stroke-width:3.90899992;paint-order:stroke fill markers"
     id="path820"
     sodipodi:nodetypes="cssscc" />
  <path
     inkscape:connector-curvature="0"
     d="M 128.922,56 A 0.92,0.92 0 0 0 128,56.922 v 2.156 c 0,0.51 0.412,0.922 0.922,0.922 h 6.156 A 0.92,0.92 0 0 0 136,59.078 V 56.922 A 0.92,0.92 0 0 0 135.078,56 Z m 8,4 A 0.92,0.92 0 0 0 136,60.922 v 2.156 c 0,0.51 0.412,0.922 0.922,0.922 h 6.156 A 0.92,0.92 0 0 0 144,63.078 V 60.922 A 0.92,0.92 0 0 0 143.078,60 Z m -8,4 A 0.92,0.92 0 0 0 128,64.922 v 2.156 c 0,0.51 0.412,0.922 0.922,0.922 h 6.156 A 0.92,0.92 0 0 0 136,67.078 V 64.922 A 0.92,0.92 0 0 0 135.078,64 Z m 8,4 A 0.92,0.92 0 0 0 136,68.922 v 2.156 c 0,0.51 0.412,0.922 0.922,0.922 h 6.156 A 0.92,0.92 0 0 0 144,71.078 V 68.922 A 0.92,0.92 0 0 0 143.078,68 Z m -8,4.398 A 0.92,0.92 0 0 0 128,73.32 v 2.157 c 0,0.51 0.412,0.921 0.922,0.921 h 6.156 A 0.92,0.92 0 0 0 136,75.477 V 73.32 a 0.92,0.92 0 0 0 -0.922,-0.922 z m 8,4 A 0.92,0.92 0 0 0 136,77.32 v 2.157 c 0,0.51 0.412,0.921 0.922,0.921 h 6.156 A 0.92,0.92 0 0 0 144,79.477 V 77.32 a 0.92,0.92 0 0 0 -0.922,-0.922 z m -8,4 A 0.92,0.92 0 0 0 128,81.32 v 2.157 c 0,0.51 0.412,0.921 0.922,0.921 h 6.156 A 0.92,0.92 0 0 0 136,83.477 V 81.32 a 0.92,0.92 0 0 0 -0.922,-0.922 z m 8,4 A 0.92,0.92 0 0 0 136,85.32 v 2.157 c 0,0.51 0.412,0.921 0.922,0.921 h 6.156 A 0.92,0.92 0 0 0 144,87.477 V 85.32 a 0.92,0.92 0 0 0 -0.922,-0.922 z m -8,4 A 0.92,0.92 0 0 0 128,89.32 v 2.157 c 0,0.51 0.412,0.921 0.922,0.921 h 6.156 A 0.92,0.92 0 0 0 136,91.477 V 89.32 a 0.92,0.92 0 0 0 -0.922,-0.922 z m 8,4 A 0.92,0.92 0 0 0 136,93.32 v 2.157 c 0,0.51 0.412,0.921 0.922,0.921 h 6.156 A 0.92,0.92 0 0 0 144,95.477 V 93.32 a 0.92,0.92 0 0 0 -0.922,-0.922 z m -8,4 A 0.92,0.92 0 0 0 128,97.32 v 2.157 c 0,0.51 0.412,0.921 0.922,0.921 h 6.156 A 0.92,0.92 0 0 0 136,99.477 V 97.32 a 0.92,0.92 0 0 0 -0.922,-0.922 z m 8,4 A 0.92,0.92 0 0 0 136,101.32 v 2.157 c 0,0.51 0.412,0.921 0.922,0.921 h 6.156 A 0.92,0.92 0 0 0 144,103.477 v -2.157 a 0.92,0.92 0 0 0 -0.922,-0.922 z m -8,4 A 0.92,0.92 0 0 0 128,105.32 v 2.157 c 0,0.51 0.412,0.921 0.922,0.921 h 6.156 A 0.92,0.92 0 0 0 136,107.477 v -2.157 a 0.92,0.92 0 0 0 -0.922,-0.922 z m 8,4 A 0.92,0.92 0 0 0 136,109.32 v 2.157 c 0,0.51 0.412,0.921 0.922,0.921 h 6.156 A 0.92,0.92 0 0 0 144,111.477 v -2.157 a 0.92,0.92 0 0 0 -0.922,-0.922 z m -8,4 A 0.92,0.92 0 0 0 128,113.32 v 2.157 c 0,0.51 0.412,0.921 0.922,0.921 h 6.156 A 0.92,0.92 0 0 0 136,115.477 v -2.157 a 0.92,0.92 0 0 0 -0.922,-0.922 z m 8,4 A 0.92,0.92 0 0 0 136,117.32 v 2.157 c 0,0.51 0.412,0.921 0.922,0.921 h 6.156 A 0.92,0.92 0 0 0 144,119.477 v -2.157 a 0.92,0.92 0 0 0 -0.922,-0.922 z m -8,4 A 0.92,0.92 0 0 0 128,121.32 v 2.157 c 0,0.51 0.412,0.921 0.922,0.921 h 6.156 A 0.92,0.92 0 0 0 136,123.477 v -2.157 a 0.92,0.92 0 0 0 -0.922,-0.922 z m 8,4 A 0.92,0.92 0 0 0 136,125.32 v 2.157 c 0,0.51 0.412,0.921 0.922,0.921 h 6.156 A 0.92,0.92 0 0 0 144,127.477 v -2.157 a 0.92,0.92 0 0 0 -0.922,-0.922 z m -8,4 A 0.92,0.92 0 0 0 128,129.32 v 2.157 c 0,0.51 0.412,0.921 0.922,0.921 h 6.156 A 0.92,0.92 0 0 0 136,131.477 v -2.157 a 0.92,0.92 0 0 0 -0.922,-0.922 z m 8,4 A 0.92,0.92 0 0 0 136,133.32 v 2.157 c 0,0.51 0.412,0.921 0.922,0.921 h 6.156 A 0.92,0.92 0 0 0 144,135.477 v -2.157 a 0.92,0.92 0 0 0 -0.922,-0.922 z"
     style="fill:#a0a5af;stroke-width:4;paint-order:stroke fill markers"
     id="path822" />
  <rect
     width="16"
     height="20"
     x="128"
     y="52"
     ry="4"
     style="fill:#cccccc;stroke-width:4;paint-order:stroke fill markers"
     id="rect824" />
  <path
     inkscape:connector-curvature="0"
     d="m 132.5,60 c -1.939,0 -3.5,1.672 -3.5,3.75 v 22.5 c 0,2.077 1.561,3.75 3.5,3.75 h 7 c 1.939,0 3.5,-1.673 3.5,-3.75 V 63.75 C 143,61.672 141.439,60 139.5,60 Z m 1.736,3.75 h 3.528 c 0.963,0 1.736,0.829 1.736,1.86 v 7.53 c 0,1.031 -0.773,1.86 -1.736,1.86 h -3.528 c -0.963,0 -1.736,-0.829 -1.736,-1.86 v -7.53 c 0,-1.031 0.773,-1.86 1.736,-1.86 z m 0,15 h 3.528 c 0.963,0 1.736,0.829 1.736,1.86 v 3.78 c 0,1.031 -0.773,1.86 -1.736,1.86 h -3.528 c -0.963,0 -1.736,-0.829 -1.736,-1.86 v -3.78 c 0,-1.031 0.773,-1.86 1.736,-1.86 z"
     style="fill:#ececec;stroke-width:3.62280011;paint-order:stroke fill markers"
     id="path826" />
  <rect
     width="6"
     height="16"
     x="133"
     y="54"
     ry="1.9859999"
     style="fill:#d8d8d8;stroke-width:3.46409988;paint-order:stroke fill markers"
     id="rect828" />
</svg>
