<?xml version="1.0" encoding="UTF-8" standalone="no"?>
<svg
   xmlns:dc="http://purl.org/dc/elements/1.1/"
   xmlns:cc="http://creativecommons.org/ns#"
   xmlns:rdf="http://www.w3.org/1999/02/22-rdf-syntax-ns#"
   xmlns:svg="http://www.w3.org/2000/svg"
   xmlns="http://www.w3.org/2000/svg"
   xmlns:sodipodi="http://sodipodi.sourceforge.net/DTD/sodipodi-0.dtd"
   xmlns:inkscape="http://www.inkscape.org/namespaces/inkscape"
   viewBox="0 0 272 272"
   version="1.1"
   id="svg16"
   sodipodi:docname="aosp_keyboard_bg.svg"
   inkscape:version="0.92.4 (5da689c313, 2019-01-14)"
   width="272"
   height="272">
  <metadata
     id="metadata20">
    <rdf:RDF>
      <cc:Work
         rdf:about="">
        <dc:format>image/svg+xml</dc:format>
        <dc:type
           rdf:resource="http://purl.org/dc/dcmitype/StillImage" />
        <dc:title></dc:title>
      </cc:Work>
    </rdf:RDF>
  </metadata>
  <sodipodi:namedview
     pagecolor="#ffffff"
     bordercolor="#666666"
     borderopacity="1"
     objecttolerance="10"
     gridtolerance="10"
     guidetolerance="10"
     inkscape:pageopacity="0"
     inkscape:pageshadow="2"
     inkscape:window-width="1920"
     inkscape:window-height="1017"
     id="namedview18"
     showgrid="true"
     inkscape:zoom="2.9945397"
     inkscape:cx="59.840745"
     inkscape:cy="147.21672"
     inkscape:window-x="-8"
     inkscape:window-y="-8"
     inkscape:window-maximized="1"
     inkscape:current-layer="svg16"
     inkscape:snap-global="false">
    <inkscape:grid
       type="xygrid"
       id="grid827"
       spacingx="4"
       spacingy="4" />
  </sodipodi:namedview>
  <defs
     id="defs4">
    <style
       id="style2">.a{fill:none;stroke:#b1b5bd;stroke-linecap:round;stroke-linejoin:round;isolation:isolate;opacity:0.63;}</style>
  </defs>
  <rect
     class="a"
     x="0"
     y="0"
     width="272"
     height="272"
     id="rect6-0"
     style="opacity:1;isolation:isolate;fill:#56595b;stroke:none;stroke-width:1;stroke-linecap:round;stroke-linejoin:round;stroke-miterlimit:4;stroke-dasharray:none" />
  <path
     style="clip-rule:evenodd;fill:#b1b5bd;fill-rule:evenodd"
     inkscape:connector-curvature="0"
     d="m 75.547606,123.75655 a 5,5 0 1 0 0,10 5,5 0 0 0 0,-10 z m 120.000004,42 a 5.0005,5.0005 0 1 0 0.001,10.001 5.0005,5.0005 0 0 0 -0.001,-10.001 z m -5,-16 a 5.0005,5.0005 0 1 1 10.001,0.001 5.0005,5.0005 0 0 1 -10.001,-0.001 z m 5,-26 a 5,5 0 1 0 0,10 5,5 0 0 0 0,-10 z m -25,47 a 5.0005,5.0005 0 1 1 10.001,0.001 5.0005,5.0005 0 0 1 -10.001,-0.001 z m 5,-26 a 5.0005,5.0005 0 1 0 0.001,10.001 5.0005,5.0005 0 0 0 -0.001,-10.001 z m -5,-16 a 5,5 0 1 1 10,0 5,5 0 0 1 -10,0 z m -15,37 a 5.0005,5.0005 0 1 0 0.001,10.001 5.0005,5.0005 0 0 0 -0.001,-10.001 z m -5,-16 a 5.0005,5.0005 0 1 1 10.001,0.001 5.0005,5.0005 0 0 1 -10.001,-0.001 z m 5,-26 a 5,5 0 1 0 0,10 5,5 0 0 0 0,-10 z m -25,47 a 5,5 0 1 1 10,0 5,5 0 0 1 -10,0 z m 5,-26 a 5,5 0 1 0 0,10 5,5 0 0 0 0,-10 z m -5,-16 a 5,5 0 1 1 10,0 5,5 0 0 1 -10,0 z m -15,37 a 5,5 0 1 0 0,10 5,5 0 0 0 0,-10 z m -5,-16 a 5,5 0 1 1 10,0 5,5 0 0 1 -10,0 z m 5,-26 a 5,5 0 1 0 0,10 5,5 0 0 0 0,-10 z m -25.000004,47 a 5.000002,5.000002 0 1 1 10.000004,0 5.000002,5.000002 0 0 1 -10.000004,0 z m 5,-26 a 5,5 0 1 0 0,10 5,5 0 0 0 0,-10 z m -5,-16 a 5.000002,5.000002 0 1 1 10.000004,0 5.000002,5.000002 0 0 1 -10.000004,0 z m -15,37 a 5,5 0 1 0 0,10 5,5 0 0 0 0,-10 z m -5,-16 a 5,5 0 1 1 10,0 5,5 0 0 1 -10,0 z m 29.000002,40 a 5,5 0 0 0 0,10 h 75.000002 a 5,5 0 0 0 0,-10 z"
     id="path824" />
</svg>
