<?xml version="1.0" encoding="UTF-8" standalone="no"?>
<svg
   xmlns:dc="http://purl.org/dc/elements/1.1/"
   xmlns:cc="http://creativecommons.org/ns#"
   xmlns:rdf="http://www.w3.org/1999/02/22-rdf-syntax-ns#"
   xmlns:svg="http://www.w3.org/2000/svg"
   xmlns="http://www.w3.org/2000/svg"
   xmlns:sodipodi="http://sodipodi.sourceforge.net/DTD/sodipodi-0.dtd"
   xmlns:inkscape="http://www.inkscape.org/namespaces/inkscape"
   viewBox="0 0 272 272"
   version="1.1"
   id="svg16"
   sodipodi:docname="king_of_theives_bg.svg"
   inkscape:version="0.92.4 (5da689c313, 2019-01-14)"
   width="272"
   height="272">
  <metadata
     id="metadata20">
    <rdf:RDF>
      <cc:Work
         rdf:about="">
        <dc:format>image/svg+xml</dc:format>
        <dc:type
           rdf:resource="http://purl.org/dc/dcmitype/StillImage" />
        <dc:title></dc:title>
      </cc:Work>
    </rdf:RDF>
  </metadata>
  <sodipodi:namedview
     pagecolor="#ffffff"
     bordercolor="#666666"
     borderopacity="1"
     objecttolerance="10"
     gridtolerance="10"
     guidetolerance="10"
     inkscape:pageopacity="0"
     inkscape:pageshadow="2"
     inkscape:window-width="1920"
     inkscape:window-height="1017"
     id="namedview18"
     showgrid="true"
     inkscape:zoom="3.5897552"
     inkscape:cx="36.580106"
     inkscape:cy="134.71011"
     inkscape:window-x="-8"
     inkscape:window-y="-8"
     inkscape:window-maximized="1"
     inkscape:current-layer="svg16"
     inkscape:snap-global="true"
     showguides="false">
    <inkscape:grid
       type="xygrid"
       id="grid827"
       spacingx="4"
       spacingy="4" />
  </sodipodi:namedview>
  <defs
     id="defs4">
    <style
       id="style2">.a{fill:none;stroke:#b1b5bd;stroke-linecap:round;stroke-linejoin:round;isolation:isolate;opacity:0.63;}</style>
  </defs>
  <rect
     style="opacity:1;vector-effect:none;fill:#8c72bd;fill-opacity:1;fill-rule:evenodd;stroke:none;stroke-width:16;stroke-linecap:round;stroke-linejoin:round;stroke-miterlimit:4;stroke-dasharray:none;paint-order:stroke fill markers"
     id="rect833"
     width="272"
     height="272"
     x="0"
     y="0" />
  <rect
     class="a"
     x="72"
     y="-8"
     width="128"
     height="280"
     id="rect6-0"
     style="opacity:1;isolation:isolate;fill:#b1b5bd;stroke:none;stroke-width:0.69600946;stroke-linecap:round;stroke-linejoin:round;stroke-miterlimit:4;stroke-dasharray:none" />
  <path
     inkscape:connector-curvature="0"
     d="m 96,152 c 0,-28 4,-44 8,-48 4,-4 0,-12 48,-12 12.293,0 36,4 36,8 0,8 -16,20 -16,20 0,0 4,16 4,32 0,16 -4,24 -4,24 h -72 c 0,0 -4,-8 -4,-24 z"
     style="fill:#56595b"
     id="path824" />
  <path
     inkscape:connector-curvature="0"
     d="m 88,176 h 96 l 4,108 H 88 Z"
     style="fill:#979797;paint-order:stroke fill markers"
     id="path826"
     sodipodi:nodetypes="ccccc" />
  <path
     inkscape:connector-curvature="0"
     d="m 92,176 8,28 20,-12 16,12 16,-12 20,12 8,-28 h -44 z"
     style="fill:#ff837d"
     id="path828" />
  <path
     inkscape:connector-curvature="0"
     d="m 96,184 h 12 l -8,12 z m 40,12 -8,-12 h 16 z m 40,-12 h -12 l 8,12 z"
     style="fill:#ba6561"
     id="path830" />
  <path
     inkscape:connector-curvature="0"
     d="m 103.155,173.33 3.111,-9.333 c 0,0 13.643,3.596 15.556,9.333 3.111,9.333 -12.444,18.667 -12.444,18.667 0,0 0,-3.111 -3.111,-15.556 -0.356,-1.423 -3.111,-3.111 -3.111,-3.111 z"
     style="fill:#56595b;stroke:#56595b;stroke-width:6.22219992;stroke-linecap:round;stroke-linejoin:round"
     id="path832" />
  <rect
     width="40"
     height="136"
     x="60"
     y="148"
     rx="9.9350004"
     style="fill:#cccccc;paint-order:stroke fill markers"
     id="rect834" />
  <path
     inkscape:connector-curvature="0"
     d="m 168.85,173.33 -3.111,-9.333 c 0,0 -13.643,3.596 -15.556,9.333 -3.111,9.333 12.444,18.667 12.444,18.667 0,0 0,-3.111 3.111,-15.556 0.356,-1.423 3.111,-3.111 3.111,-3.111 z"
     style="fill:#56595b;stroke:#56595b;stroke-width:6.22219992;stroke-linecap:round;stroke-linejoin:round"
     id="path836" />
  <rect
     width="40"
     height="136"
     x="172"
     y="148"
     rx="9.9350004"
     style="fill:#cccccc;paint-order:stroke fill markers"
     id="rect838" />
  <path
     inkscape:connector-curvature="0"
     d="m 80,160 -8,12 8,12 8,-12 z m 112,0 -8,12 8,12 8,-12 z"
     style="fill:#b1b5bd"
     id="path840" />
  <rect
     width="28"
     height="16"
     x="80"
     y="136"
     ry="7.8520002"
     style="fill:#56595b;paint-order:stroke fill markers"
     id="rect842" />
  <rect
     width="20"
     height="24"
     x="88"
     y="136"
     ry="7.8520002"
     style="fill:#56595b;paint-order:stroke fill markers"
     id="rect844" />
  <rect
     width="28"
     height="16"
     x="-192"
     y="136"
     ry="7.8520002"
     style="fill:#56595b;paint-order:stroke fill markers"
     transform="scale(-1,1)"
     id="rect846" />
  <rect
     width="20"
     height="24"
     x="-184"
     y="136"
     ry="7.8520002"
     style="fill:#56595b;paint-order:stroke fill markers"
     transform="scale(-1,1)"
     id="rect848" />
  <ellipse
     cx="124.5"
     cy="140"
     rx="18"
     ry="20"
     style="fill:#ffffff;paint-order:stroke fill markers"
     id="ellipse850" />
  <ellipse
     cx="148.5"
     cy="140"
     rx="18"
     ry="20"
     style="fill:#ffffff;paint-order:stroke fill markers"
     id="ellipse852" />
  <path
     inkscape:connector-curvature="0"
     d="m 104,128 32,16 32,-16 -4,-16 -36,-4 -16,8 z"
     style="fill:#56595b"
     id="path858" />
</svg>
