<?xml version="1.0" encoding="UTF-8" standalone="no"?>
<svg
   xmlns:dc="http://purl.org/dc/elements/1.1/"
   xmlns:cc="http://creativecommons.org/ns#"
   xmlns:rdf="http://www.w3.org/1999/02/22-rdf-syntax-ns#"
   xmlns:svg="http://www.w3.org/2000/svg"
   xmlns="http://www.w3.org/2000/svg"
   xmlns:sodipodi="http://sodipodi.sourceforge.net/DTD/sodipodi-0.dtd"
   xmlns:inkscape="http://www.inkscape.org/namespaces/inkscape"
   viewBox="0 0 272 272"
   version="1.1"
   id="svg16"
   sodipodi:docname="larnu_bg.svg"
   inkscape:version="0.92.4 (5da689c313, 2019-01-14)"
   width="272"
   height="272">
  <metadata
     id="metadata20">
    <rdf:RDF>
      <cc:Work
         rdf:about="">
        <dc:format>image/svg+xml</dc:format>
        <dc:type
           rdf:resource="http://purl.org/dc/dcmitype/StillImage" />
        <dc:title></dc:title>
      </cc:Work>
    </rdf:RDF>
  </metadata>
  <sodipodi:namedview
     pagecolor="#ffffff"
     bordercolor="#666666"
     borderopacity="1"
     objecttolerance="10"
     gridtolerance="10"
     guidetolerance="10"
     inkscape:pageopacity="0"
     inkscape:pageshadow="2"
     inkscape:window-width="1920"
     inkscape:window-height="1017"
     id="namedview18"
     showgrid="true"
     inkscape:zoom="2.5383403"
     inkscape:cx="91.560411"
     inkscape:cy="123.50658"
     inkscape:window-x="-8"
     inkscape:window-y="-8"
     inkscape:window-maximized="1"
     inkscape:current-layer="svg16"
     inkscape:snap-global="true">
    <inkscape:grid
       type="xygrid"
       id="grid827"
       spacingx="4"
       spacingy="4" />
  </sodipodi:namedview>
  <defs
     id="defs4">
    <style
       id="style2">.a{fill:none;stroke:#b1b5bd;stroke-linecap:round;stroke-linejoin:round;isolation:isolate;opacity:0.63;}</style>
    <clipPath
       id="clipPath685">
      <circle
         id="circle850"
         fill="#fff"
         r="88"
         cy="96"
         cx="96"
         class="a" />
    </clipPath>
  </defs>
  <rect
     style="opacity:1;vector-effect:none;fill:#ffffff;fill-opacity:1;fill-rule:evenodd;stroke:none;stroke-width:16;stroke-linecap:round;stroke-linejoin:round;stroke-miterlimit:4;stroke-dasharray:none;paint-order:stroke fill markers"
     id="rect824"
     width="272"
     height="272"
     x="0"
     y="0" />
  <path
     style="fill:#d2d2d2"
     inkscape:connector-curvature="0"
     d="m 91.076365,88.506588 c -3.1348,0.5465 -6.0892,2.1383 -8.6646,4.0074 -2.2328,1.6205 -3.9226,3.8996 -5.632,6.0652 -1.8549,2.350002 -3.7946,4.724902 -4.9821,7.473202 -1.2053,2.7896 -1.9628,5.8438 -2.0578,8.8812 -0.08926,2.8534 0.55408,5.7238 1.408,8.4479 0.68109,2.1728 1.2774,4.6011 2.9243,6.1735 1.5567,1.4862 3.8607,2.979 5.9569,2.4911 2.1931,-0.51048 3.5166,-3.037 4.4406,-5.0904 0.46304,-1.0291 0.33473,-2.2334 0.43323,-3.3575 0.13566,-1.5481 0.1374,-3.1051 0.21661,-4.6572 0.06634,-1.3 0.02743,-2.6112 0.21662,-3.8991 0.29147,-1.9839 0.70277,-3.9715 1.408,-5.8486 0.602,-1.6024 1.4692,-3.1014 2.3828,-4.5489 1.0598,-1.6792 2.3081,-3.2359 3.5741,-4.765502 1.0591,-1.2796 2.3419,-2.368 3.3575,-3.6824 0.52652,-0.68147 1.134,-1.3497 1.408,-2.1661 0.32249,-0.96076 0.63998,-2.1118 0.21662,-3.0326 -0.50676,-1.1021 -1.7902,-1.7357 -2.9243,-2.1661 -1.152,-0.43729 -2.4685,-0.53655 -3.6824,-0.32492 z"
     id="path871" />
  <path
     style="fill:#d2d2d2"
     inkscape:connector-curvature="0"
     d="m 99.199365,78.001588 c -1.0898,0.56936 -2.2259,1.304 -2.816,2.3828 -0.52437,0.95861 -0.77488,2.2113 -0.43323,3.2492 0.34545,1.0494 1.2602,2.0203 2.3039,2.3828 1.023,0.35525 2.197795,-0.07507 3.219705,-0.43323 0.99331,-0.34812 1.88739,-0.96507 2.70769,-1.6246 0.69662,-0.56009 1.42671,-1.1576 1.84121,-1.9495 0.32505,-0.62106 0.6586,-1.3941 0.43322,-2.0578 -0.32104,-0.94552 -1.3621,-1.5438 -2.27439,-1.9495 -1.03111,-0.45857 -2.23151,-0.50781 -3.35751,-0.43323 -0.55922,0.03704 -1.127795,0.17371 -1.624595,0.43323 z"
     id="path873" />
</svg>
