<?xml version="1.0" encoding="UTF-8" standalone="no"?>
<svg
   xmlns:dc="http://purl.org/dc/elements/1.1/"
   xmlns:cc="http://creativecommons.org/ns#"
   xmlns:rdf="http://www.w3.org/1999/02/22-rdf-syntax-ns#"
   xmlns:svg="http://www.w3.org/2000/svg"
   xmlns="http://www.w3.org/2000/svg"
   xmlns:sodipodi="http://sodipodi.sourceforge.net/DTD/sodipodi-0.dtd"
   xmlns:inkscape="http://www.inkscape.org/namespaces/inkscape"
   viewBox="0 0 272 272"
   version="1.1"
   id="svg16"
   sodipodi:docname="rooms_of_doom_bg.svg"
   inkscape:version="0.92.4 (5da689c313, 2019-01-14)"
   width="272"
   height="272">
  <metadata
     id="metadata20">
    <rdf:RDF>
      <cc:Work
         rdf:about="">
        <dc:format>image/svg+xml</dc:format>
        <dc:type
           rdf:resource="http://purl.org/dc/dcmitype/StillImage" />
        <dc:title></dc:title>
      </cc:Work>
    </rdf:RDF>
  </metadata>
  <sodipodi:namedview
     pagecolor="#ffffff"
     bordercolor="#666666"
     borderopacity="1"
     objecttolerance="10"
     gridtolerance="10"
     guidetolerance="10"
     inkscape:pageopacity="0"
     inkscape:pageshadow="2"
     inkscape:window-width="1920"
     inkscape:window-height="1017"
     id="namedview18"
     showgrid="true"
     inkscape:zoom="2.5383403"
     inkscape:cx="94.5692"
     inkscape:cy="158.97026"
     inkscape:window-x="-8"
     inkscape:window-y="-8"
     inkscape:window-maximized="1"
     inkscape:current-layer="svg16"
     inkscape:snap-global="true"
     showguides="false">
    <inkscape:grid
       type="xygrid"
       id="grid827"
       spacingx="4"
       spacingy="4" />
  </sodipodi:namedview>
  <defs
     id="defs4">
    <style
       id="style2">.a{fill:none;stroke:#b1b5bd;stroke-linecap:round;stroke-linejoin:round;isolation:isolate;opacity:0.63;}</style>
    <style
       id="style2-4">.a{fill:none;stroke:#b1b5bd;stroke-linecap:round;stroke-linejoin:round;isolation:isolate;opacity:.63}</style>
  </defs>
  <rect
     style="opacity:1;vector-effect:none;fill:#8c72bd;fill-opacity:1;fill-rule:evenodd;stroke:none;stroke-width:28.79153252;stroke-linecap:round;stroke-linejoin:round;stroke-miterlimit:4;stroke-dasharray:none;paint-order:stroke fill markers"
     id="rect912"
     width="272"
     height="272"
     x="0"
     y="7.730705e-14" />
  <path
     inkscape:connector-curvature="0"
     id="path833"
     d="m 119.895,176.263 h 32.21 L 136,192.368 Z"
     style="fill:#54688c;stroke-width:4.02631569" />
  <path
     inkscape:connector-curvature="0"
     id="path835-5-0"
     d="m 156,164.184 48.315,-24.158 c 2.685,-1.342 8.053,4.026 8.053,4.026 0,0 3.5,3.948 3.5,11.948 0,8 -3.5,12.21 -3.5,12.21 0,0 -8.053,12.08 -24.158,12.08 -20.131,0 -32.21,-16.106 -32.21,-16.106 z"
     style="fill:#98dc9a;stroke-width:4.02631569"
     sodipodi:nodetypes="ccczcsc" />
  <path
     inkscape:connector-curvature="0"
     id="path835-5"
     d="M 115.868,164.184 67.553,140.026 c -2.685,-1.342 -8.053,4.026 -8.053,4.026 0,0 -3.5,3.948 -3.5,11.948 0,8 3.5,12.21 3.5,12.21 0,0 8.053,12.08 24.158,12.08 20.131,0 32.21,-16.106 32.21,-16.106 z"
     style="fill:#98dc9a;stroke-width:4.02631569"
     sodipodi:nodetypes="ccczcsc" />
  <path
     inkscape:connector-curvature="0"
     id="path950-7"
     d="m 86.489,149.494 c -1.444,2.973 -2.831,6.807 -2.831,10.664 0,8.052 6.04,16.105 6.04,16.105 0,0 6.039,-8.053 6.039,-16.105 0,-2.281 -0.509,-4.54 -1.203,-6.637 z m 99.022,0 -8.045,4.027 c -0.694,2.098 -1.203,4.356 -1.203,6.637 0,8.052 6.04,16.105 6.04,16.105 0,0 6.04,-8.053 6.04,-16.105 0,-3.857 -1.388,-7.691 -2.832,-10.664 z"
     style="fill:#4a4a4a;stroke-width:4.02631569" />
  <style
     type="text/css"
     id="style853">.st0{fill:#898989}.st1{fill:#fff}</style>
</svg>
