<?xml version="1.0" encoding="UTF-8" standalone="no"?>
<svg
   xmlns:dc="http://purl.org/dc/elements/1.1/"
   xmlns:cc="http://creativecommons.org/ns#"
   xmlns:rdf="http://www.w3.org/1999/02/22-rdf-syntax-ns#"
   xmlns:svg="http://www.w3.org/2000/svg"
   xmlns="http://www.w3.org/2000/svg"
   xmlns:sodipodi="http://sodipodi.sourceforge.net/DTD/sodipodi-0.dtd"
   xmlns:inkscape="http://www.inkscape.org/namespaces/inkscape"
   viewBox="0 0 272 272"
   version="1.1"
   id="svg16"
   sodipodi:docname="zee5_bg.svg"
   inkscape:version="0.92.4 (5da689c313, 2019-01-14)"
   width="272"
   height="272">
  <metadata
     id="metadata20">
    <rdf:RDF>
      <cc:Work
         rdf:about="">
        <dc:format>image/svg+xml</dc:format>
        <dc:type
           rdf:resource="http://purl.org/dc/dcmitype/StillImage" />
        <dc:title></dc:title>
      </cc:Work>
    </rdf:RDF>
  </metadata>
  <sodipodi:namedview
     pagecolor="#ffffff"
     bordercolor="#666666"
     borderopacity="1"
     objecttolerance="10"
     gridtolerance="10"
     guidetolerance="10"
     inkscape:pageopacity="0"
     inkscape:pageshadow="2"
     inkscape:window-width="1920"
     inkscape:window-height="1017"
     id="namedview18"
     showgrid="true"
     inkscape:zoom="2.9945397"
     inkscape:cx="65.615728"
     inkscape:cy="158.83335"
     inkscape:window-x="-8"
     inkscape:window-y="-8"
     inkscape:window-maximized="1"
     inkscape:current-layer="svg16"
     inkscape:snap-global="true">
    <inkscape:grid
       type="xygrid"
       id="grid827"
       spacingx="4"
       spacingy="4" />
  </sodipodi:namedview>
  <defs
     id="defs4">
    <style
       id="style2">.a{fill:none;stroke:#b1b5bd;stroke-linecap:round;stroke-linejoin:round;isolation:isolate;opacity:0.63;}</style>
    <style
       id="style2-2">.a{fill:none;stroke:#b1b5bd;stroke-linecap:round;stroke-linejoin:round;isolation:isolate;opacity:.63}</style>
  </defs>
  <rect
     class="a"
     x="0"
     y="0"
     width="272"
     height="272"
     id="rect6-0"
     style="opacity:1;isolation:isolate;fill:#56595b;stroke:none;stroke-width:1;stroke-linecap:round;stroke-linejoin:round;stroke-miterlimit:4;stroke-dasharray:none" />
  <path
     inkscape:connector-curvature="0"
     id="rect873"
     d="m 136,80 c -31.024,0 -56,24.976 -56,56 0,31.024 24.976,56 56,56 v -4 c -28.808,0 -52,-23.192 -52,-52 0,-28.808 23.192,-52 52,-52 z"
     style="opacity:1;vector-effect:none;fill:#96dfd3;fill-opacity:1;fill-rule:evenodd;stroke:none;paint-order:stroke fill markers" />
  <path
     inkscape:connector-curvature="0"
     id="rect871"
     d="M 114.197,88.762 C 96.343,96.979 84,114.989 84,136 c 0,28.808 23.192,52 52,52 a 52.002,52.002 0 0 0 21.803,-4.762 l -1.676,-3.633 A 47.998,47.998 0 0 1 136,184 c -26.592,0 -48,-21.408 -48,-48 0,-19.394 11.393,-36.02 27.873,-43.605 z"
     style="opacity:1;vector-effect:none;fill:#98dc9a;fill-opacity:1;fill-rule:evenodd;stroke:none;paint-order:stroke fill markers" />
  <path
     inkscape:connector-curvature="0"
     id="rect818-4"
     d="m 136,88 c -26.592,0 -48,21.408 -48,48 0,21.345 13.798,39.34 32.994,45.613 l 1.543,-3.705 C 104.79,172.245 92,155.675 92,136 92,111.624 111.624,92 136,92 a 43.947,43.947 0 0 1 20.281,4.924 l 1.543,-3.705 A 47.947,47.947 0 0 0 136,88 Z"
     style="opacity:1;vector-effect:none;fill:#f9de81;fill-opacity:1;fill-rule:evenodd;stroke:none;paint-order:stroke fill markers" />
  <path
     inkscape:connector-curvature="0"
     id="rect820"
     d="M 115.098,97.242 C 101.323,104.66 92,119.2 92,136 c 0,24.376 19.624,44 44,44 8.812,0 16.996,-2.574 23.863,-7 l -2.037,-3.45 c -6.27,4.078 -13.759,6.45 -21.826,6.45 -22.16,0 -40,-17.84 -40,-40 0,-15.329 8.539,-28.585 21.137,-35.305 l -2.04,-3.453 z"
     style="opacity:1;vector-effect:none;fill:#ff837d;fill-opacity:1;fill-rule:evenodd;stroke:none;paint-order:stroke fill markers" />
  <path
     inkscape:connector-curvature="0"
     id="rect818"
     d="m 136,96 c -22.16,0 -40,17.84 -40,40 0,19.473 13.777,35.603 32.154,39.23 L 143.846,96.77 A 40.48,40.48 0 0 0 136,96 Z"
     style="opacity:1;vector-effect:none;fill:#8c72bd;fill-opacity:1;fill-rule:evenodd;stroke:none;paint-order:stroke fill markers" />
  <circle
     id="circle10-7"
     cx="136"
     cy="136"
     r="36"
     class="a"
     style="opacity:1;isolation:isolate;fill:#ffffff;stroke:none;stroke-width:0.9863013;stroke-linecap:round;stroke-linejoin:round" />
</svg>
