<svg xmlns="http://www.w3.org/2000/svg" width="192" height="192">
  <rect width="100%" height="100%" fill="#f8c18c" />
  <g stroke-width="0">
    <path fill="#fff"
      d="M117.73 59.972c-12.924-4.604-30.535-4.604-43.459 0-4.79 1.707-8.27 8.18-8.27 13.278v41.846a12.923 12.923 0 0 0 12.922 12.923h34.154A12.923 12.923 0 0 0 126 115.096V73.25c0-5.098-3.48-11.571-8.27-13.278z" />
    <g fill="#56595b" transform="translate(7.385 7.387) scale(.92308)">
      <rect width="54.167" height="33.583" x="68.917" y="72.185" rx="5.417" ry="5.417" />
      <circle cx="74.333" cy="115.52" r="5.417" />
      <circle cx="117.67" cy="115.52" r="5.417" />
    </g>
    <path fill="#fff"
      d="M80.334 128.015 75 133.348v2.134h8.534L91 128.015zM111.665 128.015l5.333 5.333v2.134h-8.533l-7.467-7.467z" />
  </g>
</svg>
