<svg xmlns="http://www.w3.org/2000/svg" xml:space="preserve" width="192" height="192">
  <rect width="100%" height="100%" fill="#F9DE90" />
  <path
    d="M117.264 62.405h-7.906v-6.476a2.429 2.429 0 0 0-2.429-2.429H85.881a2.429 2.429 0 0 0-2.428 2.429v6.476h-8.05c-2.374 0-4.903 1.879-4.903 4.254v67.233c0 2.375 2.53 4.608 4.903 4.608h41.86c2.375 0 4.237-2.233 4.237-4.608V66.66c0-2.375-1.862-4.254-4.236-4.254zm-.62 68.536c0 1.943-.383 2.703-2.326 2.703H78.349c-1.942 0-2.992-.76-2.992-2.703V73.435s3.066.99 7.307 2.12c4.241 1.132 10.38 1.273 16.742-.99 7.797-2.771 16.428-4.382 17.237-3.816z"
    style="fill:#585b5d;fill-opacity:1;stroke-width:.809532" />
  <path
    d="M92.358 92.358h-9.31a1.214 1.214 0 0 0-1.214 1.214v4.047a1.214 1.214 0 0 0 1.214 1.215h9.31v27.12a1.214 1.214 0 0 0 1.214 1.213h4.857a1.214 1.214 0 0 0 1.214-1.214v-27.12h9.31a1.214 1.214 0 0 0 1.214-1.214v-4.047a1.214 1.214 0 0 0-1.214-1.214h-9.31v-9.31a1.214 1.214 0 0 0-1.214-1.214h-4.857a1.214 1.214 0 0 0-1.214 1.214Z"
    style="fill:#585b5d;fill-opacity:1;stroke-width:.809532" />
</svg>
