<svg xmlns="http://www.w3.org/2000/svg" viewBox="0 0 192 192">
  <rect height="100%" width="100%" style="fill:#fff" />
  <path
    d="M84.89 75.78v11.8a7.75 7.75 0 0 0 7.83 7.64h15a10 10 0 0 1 9.8 9.86v11.15C128 114.54 136 106 136 96c0-11.13-10-20.24-22.34-20.24Z"
    style="fill:#ff837d;fill-rule:evenodd" />
  <path
    d="M86.76 96.67A9.67 9.67 0 0 1 77 87.15V75.77c-11.65.65-21 9.49-21 20.2 0 11.14 10 20.25 22.34 20.25h31.26v-11.89a7.78 7.78 0 0 0-7.84-7.66Z"
    style="fill:#9abeff;fill-rule:evenodd" />
</svg>
