<svg xmlns="http://www.w3.org/2000/svg" viewBox="0 0 192 192">
  <rect height="100%" width="100%" style="fill:#56595b" />
  <rect height="100%" width="100%" style="fill:#56595b" />
  <path d="M173.15 69.86a81.46 81.46 0 0 0-154.27 0A190 190 0 0 0 96 86.09a190.12 190.12 0 0 0 77.15-16.23Z"
    style="fill:#fff" />
  <path d="m80.4 50.71 12.41 36.06"
    style="fill:none;stroke:#ff837d;stroke-linecap:round;stroke-miterlimit:10;stroke-width:11.471388185847683px" />
  <path d="M96.01 25.87v11.62M152.9 55.76l-9.26 6.5M39.12 55.76l9.26 6.5"
    style="fill:none;stroke:#b1b5bd;stroke-miterlimit:10;stroke-width:4.7235127824078695px" />
  <path d="M177.44 96a81.32 81.32 0 1 1-4.29-26.18A81.35 81.35 0 0 1 177.44 96Z"
    style="fill:none;stroke:#56595b;stroke-linecap:round;stroke-miterlimit:10;stroke-width:6.923320318375859px" />
  <path d="M173.15 69.86A190.12 190.12 0 0 1 96 86.09a190 190 0 0 1-77.12-16.23 81.43 81.43 0 1 0 154.27 0Z"
    style="fill:#56595b" />
  <path
    d="m117.92 116.86-8.81-8.86-2.52 2.52 5 5a5.93 5.93 0 0 0 2.13 11.48 5.83 5.83 0 0 0 2.37-.5v17.13a2.37 2.37 0 1 1-4.72.5 2.09 2.09 0 0 1 0-.5v-10.69a4.73 4.73 0 0 0-4.72-4.73h-2.38v-16.65a4.72 4.72 0 0 0-4.72-4.72H85.21a4.72 4.72 0 0 0-4.72 4.72v38h23.75v-17.81h3.57v11.87a5.94 5.94 0 1 0 11.87 0v-22.56a5.92 5.92 0 0 0-1.76-4.2Zm-17.1 6.58h-17v-11.88h17Zm12.9 0a2.38 2.38 0 1 1 2.37-2.38 2.39 2.39 0 0 1-2.37 2.38Z"
    style="fill:#fff" />
</svg>
