<svg xmlns="http://www.w3.org/2000/svg" width="192" height="192" fill="none">
  <g clip-rect width="100%" height="100%" h="url(#a)">
    <path fill="#FF837D" />
    <path fill="#fff"
      d="M105.8 128.6H86.2c-2.2 0-3.9-1.8-3.9-3.9 0-2.2 1.8-3.9 3.9-3.9h19.6c2.2 0 3.9 1.8 3.9 3.9 0 2.1-1.8 3.9-3.9 3.9ZM126 63.4H66c-3.6 0-6.5 2.9-6.5 6.5v36.5c0 3.6 2.9 6.5 6.5 6.5h60c3.6 0 6.5-2.9 6.5-6.5V69.9c0-3.6-2.9-6.5-6.5-6.5Zm-21 26.3-12.5 10c-1.3 1-3.2.1-3.2-1.5v-20c0-1.6 1.9-2.6 3.2-1.5l12.5 10c.9.7.9 2.2 0 3Z" />
  </g>
  <defs>
    <clipPath id="a">
      <path fill="#fff" d="M0 0h192v192H0z" />
    </clipPath>
  </defs>
</svg>
