<svg xmlns="http://www.w3.org/2000/svg" xml:space="preserve"
  style="fill-rule:evenodd;clip-rule:evenodd;stroke-linejoin:round;stroke-miterlimit:2" viewBox="0 0 192 192">
  <rect width="100%" height="100%" style="fill:#fff" />
  <path
    d="M84.485 67.99c0-6.161-5.168-11.163-11.533-11.163-6.365 0-11.533 5.002-11.533 11.163v56.74c0 6.161 5.168 11.164 11.533 11.164 6.365 0 11.533-5.003 11.533-11.164V67.99Z"
    style="fill:#f9de81" transform="rotate(45 61.376 108.327) scale(.75485 .77988)" />
  <path
    d="M84.485 67.99c0-6.161-5.168-11.163-11.533-11.163-6.365 0-11.533 5.002-11.533 11.163v56.74c0 6.161 5.168 11.164 11.533 11.164 6.365 0 11.533-5.003 11.533-11.164V67.99Z"
    style="fill:#ff837d" transform="rotate(45 50.39 134.995) scale(.75485 .77988)" />
  <path
    d="M84.485 67.99c0-6.161-5.168-11.163-11.533-11.163-6.365 0-11.533 5.002-11.533 11.163v56.74c0 6.161 5.168 11.164 11.533 11.164 6.365 0 11.533-5.003 11.533-11.164V67.99Z"
    style="fill:#9abeff" transform="rotate(45 39.354 161.641) scale(.75485 .77988)" />
</svg>
