<svg xmlns="http://www.w3.org/2000/svg" viewBox="0 0 192 192">
  <rect width="100%" height="100%" style="fill:#54688c" />
  <circle cx="96" cy="96" r="58.67" style="fill:#728dbe" />
  <path
    d="M120.06,69.1,114,32.35a3,3,0,0,0-3-2.52H81a3,3,0,0,0-3,2.52L71.94,69.1a36.09,36.09,0,0,0,0,53.8L78,159.65a3,3,0,0,0,3,2.52H111a3,3,0,0,0,3-2.52l6.06-36.75a36.09,36.09,0,0,0,0-53.8Z"
    style="fill:#fff" />
  <circle cx="96" cy="96" r="29.33" style="fill:#9abeff" />
  <polyline points="96 77.63 96 96.78 109.83 110.2"
    style="fill:none;stroke:#fff;stroke-linecap:round;stroke-linejoin:round;stroke-width:6.287878838059619px" />
</svg>
