<svg xmlns="http://www.w3.org/2000/svg" xml:space="preserve"
  style="fill-rule:evenodd;clip-rule:evenodd;stroke-linecap:round;stroke-linejoin:round;stroke-miterlimit:1.5"
  viewBox="0 0 192 192">
  <rect width="100%" height="100%" style="fill:#8c72bd" />
  <path
    d="M44.898 120.853V79.018s-.41-8.033 11.689-8.033l9.022.081c12.099 0 11.688 8.033 11.688 8.033v41.835l.002-.081 13.224.081s.066-39.283.066-43.488c0-10.237-8.859-18.381-20.958-18.381-11.626 0-11.531 6.015-11.531 6.015V120.934H44.897"
    style="fill:none;stroke:#fff;stroke-width:5.12px" transform="matrix(.87958 0 0 .87958 11.546 11.556)" />
  <path
    d="M44.898 120.853V79.018s-.41-8.033 11.689-8.033l9.022.081c12.099 0 11.688 8.033 11.688 8.033v41.835l.002-.081 13.224.081s.066-39.283.066-43.488c0-10.237-8.859-18.381-20.958-18.381-11.626 0-11.531 6.015-11.531 6.015V120.934H44.897"
    style="fill:none;stroke:#fff;stroke-width:5.12px" transform="matrix(-.87958 0 0 -.87958 180.205 180.363)" />
</svg>
