<svg xmlns="http://www.w3.org/2000/svg" viewBox="0 0 192 192">
  <defs>
    <clipPath id="a">
      <rect width="100%" height="100%" fill="none" rx="10" />
    </clipPath>
    <clipPath id="b">
      <rect width="100" height="57.85" x="46" y="67.08" fill="none" rx="3.81" />
    </clipPath>
  </defs>
  <g clip-path="url(#a)">
    <rect width="100%" height="100%" fill="#728dbe" />
    <g clip-path="url(#b)">
      <rect width="100" height="57.85" x="46" y="67.08" fill="#d8d8d8" rx="3.81" />
      <path fill="#fff"
        d="M39.43 53.47 94.65-1.76a1.92 1.92 0 0 1 2.7 0l55.22 55.23a1.91 1.91 0 0 1-.15 2.83l-55.23 51.64a1.9 1.9 0 0 1-2.38 0L39.58 56.3a1.91 1.91 0 0 1-.15-2.83Z" />
    </g>
    <path fill="#9abeff" d="M32.03 179.82 93.23 6.18H8.53v173.64h23.5z" />
  </g>
</svg>
