<svg xmlns="http://www.w3.org/2000/svg" width="192" height="192" fill="none">
  <rect width="100%" height="100%" fill="#fff" />
  <path fill="#B1B5BD" fill-rule="evenodd"
    d="M74 81a6 6 0 1 0 0-12 6 6 0 0 0 0 12Zm44 42a6 6 0 1 0 0-12 6 6 0 0 0 0 12Zm6-27a6 6 0 1 1-12 0 6 6 0 0 1 12 0Zm-6-15a6 6 0 1 0 0-12 6 6 0 0 0 0 12Zm-16 36a6 6 0 1 1-12 0 6 6 0 0 1 12 0Zm-6-15a6 6 0 1 0 0-12 6 6 0 0 0 0 12Zm6-27a6 6 0 1 1-12 0 6 6 0 0 1 12 0Zm-28 48a6 6 0 1 0 0-12 6 6 0 0 0 0 12Zm6-27a6 6 0 1 1-12 0 6 6 0 0 1 12 0Z"
    clip-rule="evenodd" />
</svg>
