<svg xmlns="http://www.w3.org/2000/svg" width="192" height="192" fill="none">
  <width"100%" height="100%" fill="#56595B" fill-rule="evenodd" clip-rule="evenodd" />
  <path fill="#FF837D" fill-rule="evenodd"
    d="M96 158c34.242 0 62-27.758 62-62 0-34.242-27.758-62-62-62-34.242 0-62 27.758-62 62 0 34.242 27.758 62 62 62Z"
    clip-rule="evenodd" />
  <path stroke="#F9DE81" stroke-opacity=".5" stroke-width="20"
    d="M134 96c0 20.987-17.013 38-38 38s-38-17.013-38-38 17.013-38 38-38 38 17.013 38 38Z" />
  <path fill="#fff" fill-opacity=".5" fill-rule="evenodd"
    d="M121.5 96c14.083 0 25.5-11.417 25.5-25.5S135.583 45 121.5 45 96 56.417 96 70.5 107.417 96 121.5 96ZM64 145c9.389 0 17-7.611 17-17s-7.611-17-17-17-17 7.611-17 17 7.611 17 17 17Z"
    clip-rule="evenodd" />
</svg>
