<svg xmlns="http://www.w3.org/2000/svg" width="192" height="192" fill="none">
  <width"100%" height="100%" fill="#F9DE81" fill-rule="evenodd" clip-rule="evenodd" />
  <path fill="#56595B" d="M66 85.5C66 68.655 79.655 55 96.5 55S127 68.655 127 85.5V131H66V85.5Z" />
  <path fill="#F9DE81" fill-rule="evenodd"
    d="M86.03 99.867c7.04 0 12.746-5.739 12.746-12.819 0-7.08-5.706-12.82-12.746-12.82s-12.746 5.74-12.746 12.82 5.706 12.82 12.746 12.82Zm26.858-5.494c5.28 0 9.56-4.304 9.56-9.614 0-5.31-4.28-9.615-9.56-9.615s-9.56 4.305-9.56 9.615c0 5.31 4.28 9.614 9.56 9.614Z"
    clip-rule="evenodd" />
</svg>
