<svg xmlns="http://www.w3.org/2000/svg" width="192" height="192" fill="none">
  <width"100%" height="100%" fill="#9ABEFF" fill-rule="evenodd" clip-rule="evenodd" />
  <path fill="#fff" fill-rule="evenodd" d="M65 118a5 5 0 0 1 5-5h54a5 5 0 0 1 5 5v4H65v-4Z" clip-rule="evenodd" />
  <path fill="#ECECEC" fill-rule="evenodd"
    d="M62 124a5 5 0 0 1 5-5h59a5 5 0 0 1 5 5v4H62v-4Zm3-45a5 5 0 0 0 5 5h54a5 5 0 0 0 5-5v-4H65v4Z"
    clip-rule="evenodd" />
  <path fill="#fff" fill-rule="evenodd"
    d="M64.709 70.202A5 5 0 0 0 62 74.646V77a2 2 0 0 0 2 2h65a2 2 0 0 0 2-2v-2.325a5 5 0 0 0-2.747-4.463L96.137 54 64.709 70.202ZM71 84h12v29H71V84Zm20 0h12v29H91V84Zm20 0h12v29h-12V84Z"
    clip-rule="evenodd" />
</svg>
