<svg xmlns="http://www.w3.org/2000/svg" width="192" height="192" fill="none">
  <width"100%" height="100%" fill="#fff" fill-rule="evenodd" clip-rule="evenodd" />
  <path fill="#FF837D" fill-rule="evenodd"
    d="M72.044 73.363h46.912l-4.372 49.256a7 7 0 0 1-6.973 6.381H83.388a7 7 0 0 1-6.972-6.381l-4.372-49.256Z"
    clip-rule="evenodd" />
  <path fill="#fff" d="M72.853 89.728h45.294v4.091H72.853z" />
  <path fill="#fff" d="M72.853 89.728h45.294v4.091H72.853zm0 7.363h45.294v4.091H72.853zm0 7.363h45.294v4.091H72.853z" />
  <path fill="#FF837D" fill-rule="evenodd"
    d="M69.934 70.552C69.017 68.394 70.6 66 72.945 66h45.109c2.345 0 3.929 2.394 3.012 4.552a.587.587 0 0 1-.541.357h-50.05a.587.587 0 0 1-.541-.358Z"
    clip-rule="evenodd" />
</svg>
