<svg xmlns="http://www.w3.org/2000/svg" width="192" height="192" fill="none">
  <width"100%" height="100%" fill="#9ABEFF" fill-rule="evenodd" clip-rule="evenodd" />
  <path fill="#fff" fill-rule="evenodd"
    d="m85.458 83.047-18.463 31.749-.175.3H56l1.753-3.015 23.084-39.695h9.242l23.083 39.695 1.753 3.015h-10.82l-.175-.3-18.462-31.75Z"
    clip-rule="evenodd" />
  <mask id="a" width="59" height="44" x="56" y="72" maskUnits="userSpaceOnUse" style="mask-type:luminance">
    <path fill="#fff" fill-rule="evenodd"
      d="m85.458 83.047-18.463 31.749-.175.3H56l1.753-3.015 23.084-39.695h9.242l23.083 39.695 1.753 3.015h-10.82l-.175-.3-18.462-31.75Z"
      clip-rule="evenodd" />
  </mask>
  <g mask="url(#a)">
    <path fill="#ECECEC" fill-rule="evenodd" d="m85.334 83.295 5.945-13.36 31.478 45.719-25.677.333-11.746-32.692Z"
      clip-rule="evenodd" />
  </g>
  <path fill="#fff" fill-rule="evenodd"
    d="m107.458 83.047-18.463 31.749-.175.3H78l1.753-3.015 23.084-39.695h9.242l23.083 39.695 1.753 3.015h-10.82l-.175-.3-18.462-31.75Z"
    clip-rule="evenodd" />
  <mask id="b" width="59" height="44" x="78" y="72" maskUnits="userSpaceOnUse" style="mask-type:luminance">
    <path fill="#fff" fill-rule="evenodd"
      d="m107.458 83.047-18.463 31.749-.175.3H78l1.753-3.015 23.084-39.695h9.242l23.083 39.695 1.753 3.015h-10.82l-.175-.3-18.462-31.75Z"
      clip-rule="evenodd" />
  </mask>
  <g mask="url(#b)">
    <path fill="#ECECEC" fill-rule="evenodd" d="m107.333 83.295 5.946-13.36 31.478 45.719-25.677.333-11.747-32.692Z"
      clip-rule="evenodd" />
  </g>
</svg>
