<svg xmlns="http://www.w3.org/2000/svg" width="192" height="192" fill="none">
  <width"100%" height="100%" fill="#98DC9A" fill-rule="evenodd" clip-rule="evenodd" />
  <mask id="a" width="174" height="174" x="9" y="9" maskUnits="userSpaceOnUse" style="mask-type:luminance">
    <width"100%" height="100%" fill="#fff" fill-rule="evenodd" clip-rule="evenodd" />
  </mask>
  <g mask="url(#a)">
    <path stroke="#fff" stroke-width="5"
      d="M96.014 143.573s-1.454 16.119 9.531 16.119c10.985 0 10.292 22.101 10.292 22.101" />
  </g>
  <path fill="#B1B5BD" stroke="#fff" stroke-width="6"
    d="M114 96c0 9.941-8.059 18-18 18s-18-8.059-18-18 8.059-18 18-18 18 8.059 18 18Z" />
  <rect width="10" height="34" x="91" y="111" fill="#fff" rx="5" />
  <path stroke="#fff" stroke-linecap="round" stroke-width="5"
    d="M68.289 78c-10.1 10.1-10.1 26.477 0 36.577m-11-45.221c-14.875 14.874-14.875 38.991 0 53.865M122.6 77.112c10.1 10.1 10.1 26.476 0 36.577m10.356-44.577c14.874 14.874 14.874 38.991 0 53.865" />
</svg>
