<svg xmlns="http://www.w3.org/2000/svg" width="192" height="192" fill="none">
  <width"100%" height="100%" fill="#9ABEFF" fill-rule="evenodd" clip-rule="evenodd" />
  <path fill="#fff" fill-rule="evenodd"
    d="M68.042 77.443a5 5 0 0 1 5-5h10.624a2 2 0 0 0 1.3-.48l4.375-3.738a2 2 0 0 1 1.3-.48h12.433c.536 0 1.05.215 1.426.597l3.45 3.504a2 2 0 0 0 1.425.597h10.583a5 5 0 0 1 5 5v39.035a5 5 0 0 1-5 5H73.042a5 5 0 0 1-5-5V77.443Z"
    clip-rule="evenodd" />
  <path stroke="#9ABEFF" stroke-width="5"
    d="M108.448 95.89c0 6.356-5.153 11.51-11.51 11.51s-11.51-5.154-11.51-11.51c0-6.357 5.153-11.51 11.51-11.51s11.51 5.153 11.51 11.51Z" />
</svg>
