<svg xmlns="http://www.w3.org/2000/svg" width="192" height="192" fill="none">
  <width"100%" height="100%" fill="#FF837D" fill-rule="evenodd" clip-rule="evenodd" />
  <path fill="#fff" fill-rule="evenodd"
    d="M119.656 91.515a5.099 5.099 0 0 0 5.092-5.105c0-2.82-2.28-5.105-5.092-5.105a5.099 5.099 0 0 0-5.092 5.105c0 2.82 2.28 5.105 5.092 5.105Z"
    clip-rule="evenodd" />
  <path stroke="#fff" stroke-linecap="round" stroke-width="10"
    d="m77.826 120.56 14.408 14.453a6.999 6.999 0 0 0 9.913.001l39.644-39.746a7 7 0 0 0 0-9.887l-21.202-21.257a7 7 0 0 0-9.913 0l-39.625 39.728a7 7 0 0 1-9.906.007l-8.755-8.755a7 7 0 0 1-.006-9.893l20.425-20.479a7 7 0 0 1 9.915.003l5.03 5.048" />
</svg>
