<svg xmlns="http://www.w3.org/2000/svg" width="192" height="192" fill="none">
  <width"100%" height="100%" fill="#F9DE81" fill-rule="evenodd" clip-rule="evenodd" />
  <path fill="#fff" fill-rule="evenodd"
    d="M88.07 93.513a7.833 7.833 0 0 1 15.666 0v33.518a7.833 7.833 0 0 1-15.667 0V93.513Z" clip-rule="evenodd" />
  <path fill="#fff" fill-rule="evenodd"
    d="M100.52 88.213a7.833 7.833 0 0 1-11.078 11.078l-23.7-23.701a7.833 7.833 0 0 1 11.077-11.078l23.701 23.701Z"
    clip-rule="evenodd" />
  <path fill="#fff" fill-rule="evenodd"
    d="M92.412 88.166a7.833 7.833 0 0 0 11.077 11.078l23.701-23.7a7.833 7.833 0 0 0-11.077-11.078l-23.701 23.7Z"
    clip-rule="evenodd" />
</svg>
