<svg xmlns="http://www.w3.org/2000/svg" width="192" height="192" fill="none">
  <rect width="100%" height="100%" fill="#9ABEFF" fill-rule="evenodd" clip-rule="evenodd" />
  <path fill="#fff" fill-rule="evenodd"
    d="M98.73 93.581v15.138h17.729c-3.624 5.823-9.965 9.575-17.6 9.575-11.777 0-20.577-8.669-20.577-20.443 0-11.774 8.8-20.443 20.577-20.443 8.282 0 15.012 4.27 18.376 10.998l17.083-8.67C127.718 66.799 114.259 58 98.858 58 76.73 58 59 75.855 59 97.85c0 21.996 17.73 39.852 39.859 39.852 22 0 39.859-17.856 39.859-39.851v-4.27H98.729Z"
    clip-rule="evenodd" />
</svg>
