<svg xmlns="http://www.w3.org/2000/svg" width="192" height="192" fill="none">
  <rect width="100%" height="100%" fill="#9ABEFF" fill-rule="evenodd" clip-rule="evenodd" />
  <path stroke="#D2D2D2" stroke-linecap="round" stroke-linejoin="round" stroke-width="5"
    d="M84.281 68.466H74a5 5 0 0 0-5 5v7.79a5 5 0 0 0 5 5h20.562a5 5 0 0 1 5 5v20.578" />
  <path fill="#fff" fill-rule="evenodd"
    d="M99.575 104.744a4.85 4.85 0 0 1 4.849 4.849v22.486a4.85 4.85 0 0 1-9.698 0v-22.486a4.85 4.85 0 0 1 4.849-4.849Z"
    clip-rule="evenodd" />
  <rect width="51.494" height="12.931" x="73.506" y="62" fill="#FF837D" rx="5" />
</svg>
