<svg xmlns="http://www.w3.org/2000/svg" width="192" height="192" fill="none">
  <width"100%" height="100%" fill="#4A4A4A" fill-rule="evenodd" clip-rule="evenodd" />
  <path fill="#D8D8D8" fill-rule="evenodd"
    d="M61.5 61a2.5 2.5 0 0 0-2.5 2.5v65a2.5 2.5 0 0 0 2.5 2.5h1a2.5 2.5 0 0 0 2.5-2.5v-65a2.5 2.5 0 0 0-2.5-2.5h-1Zm21 0a2.5 2.5 0 0 0-2.5 2.5v65a2.5 2.5 0 0 0 2.5 2.5h1a2.5 2.5 0 0 0 2.5-2.5v-65a2.5 2.5 0 0 0-2.5-2.5h-1Zm32.5 2.5a2.5 2.5 0 0 1 2.5-2.5h1a2.5 2.5 0 0 1 2.5 2.5v65a2.5 2.5 0 0 1-2.5 2.5h-1a2.5 2.5 0 0 1-2.5-2.5v-65Zm16.5-2.5a2.5 2.5 0 0 0-2.5 2.5v65a2.5 2.5 0 0 0 2.5 2.5h1a2.5 2.5 0 0 0 2.5-2.5v-65a2.5 2.5 0 0 0-2.5-2.5h-1ZM101 65.5a4.5 4.5 0 0 1 4.5-4.5h2a4.5 4.5 0 0 1 4.5 4.5v61a4.5 4.5 0 0 1-4.5 4.5h-2a4.5 4.5 0 0 1-4.5-4.5v-61ZM70 61a1 1 0 0 0-1 1v68a1 1 0 0 0 2 0V62a1 1 0 0 0-1-1Zm26 1a1 1 0 1 1 2 0v68a1 1 0 0 1-2 0V62Zm29-1a1 1 0 0 0-1 1v68a1 1 0 0 0 2 0V62a1 1 0 0 0-1-1Zm-50 1.5a1.5 1.5 0 0 1 1.5-1.5h1a1.5 1.5 0 0 1 1.5 1.5v67a1.5 1.5 0 0 1-1.5 1.5h-1a1.5 1.5 0 0 1-1.5-1.5v-67ZM91.5 61a1.5 1.5 0 0 0-1.5 1.5v67a1.5 1.5 0 0 0 1.5 1.5h1a1.5 1.5 0 0 0 1.5-1.5v-67a1.5 1.5 0 0 0-1.5-1.5h-1Z"
    clip-rule="evenodd" />
</svg>
