<svg xmlns="http://www.w3.org/2000/svg" width="192" height="192" fill="none">
  <width"100%" height="100%" fill="#FF837D" fill-rule="evenodd" clip-rule="evenodd" />
  <path stroke="#fff" stroke-width="5" d="M76.5 63a8.5 8.5 0 1 1-17 0 8.5 8.5 0 0 1 17 0Z" />
  <path fill="#fff"
    d="M99.05 145.72c10.71 0 19.98-6.03 24.57-14.85l-10.26-5.31c-2.61 5.13-7.92 8.55-14.31 8.55-9.09 0-16.02-7.02-16.02-16.11s6.93-16.11 16.02-16.11c6.39 0 11.7 3.42 14.31 8.55l10.26-5.31a27.645 27.645 0 0 0-24.57-14.85c-15.3 0-27.72 12.42-27.72 27.72 0 15.3 12.42 27.72 27.72 27.72Z" />
</svg>
