<svg xmlns="http://www.w3.org/2000/svg" width="192" height="192" fill="none">
  <width"100%" height="100%" fill="#fff" fill-rule="evenodd" clip-rule="evenodd" />
  <path fill="#9ABEFF" stroke="#fff"
    d="M62.5 66.667a2.5 2.5 0 0 1 2.5-2.5h13.24a2.5 2.5 0 0 1 2.5 2.5V110a3.5 3.5 0 0 0 3.5 3.5h25.183a3.5 3.5 0 0 0 3.5-3.5V66.667a2.5 2.5 0 0 1 2.5-2.5H128a2.5 2.5 0 0 1 2.5 2.5V128a2.5 2.5 0 0 1-2.5 2.5H65a2.5 2.5 0 0 1-2.5-2.5V66.667Z" />
  <path fill="#9ABEFF" stroke="#fff"
    d="M109.998 79.008a2.5 2.5 0 0 1-2.5 2.5h-5.923a3.5 3.5 0 0 0-3.5 3.5v4.909a3.5 3.5 0 0 0 3.5 3.5h5.923a2.5 2.5 0 0 1 2.5 2.5v11.968a2.5 2.5 0 0 1-2.5 2.5H86.165a2.5 2.5 0 0 1-2.5-2.5V66.398a2.5 2.5 0 0 1 2.5-2.5h21.333a2.5 2.5 0 0 1 2.5 2.5v12.61Z" />
</svg>
