<svg xmlns="http://www.w3.org/2000/svg" width="192" height="192" fill="none">
  <mask id="a" fill="#fff">
    <rect width="100%" height="100%" />
  </mask>
  <rect width="100%" height="100%" fill="#FF837D" stroke="#56595B" stroke-width="40" mask="url(#a)" rx="10" />
  <path stroke="#56595B" stroke-linecap="round" stroke-width="5"
    d="M132.455 52.45v88.101M97 52.45v88.101M61.545 52.45v88.101" />
  <path fill="#56595B" fill-rule="evenodd" stroke="#FF837D" stroke-width="5"
    d="M123 68c0 5.523 4.477 10 10 10s10-4.477 10-10-4.477-10-10-10-10 4.477-10 10Zm-36 63c0 5.523 4.477 10 10 10s10-4.477 10-10-4.477-10-10-10-10 4.477-10 10ZM52 98c0 5.523 4.477 10 10 10s10-4.477 10-10-4.477-10-10-10-10 4.477-10 10Z"
    clip-rule="evenodd" />
</svg>
