<svg xmlns="http://www.w3.org/2000/svg" width="192" height="192" fill="none">
  <rect width="100%" height="100%" fill="#9ABEFF" fill-rule="evenodd" clip-rule="evenodd" />
  <path stroke="#728DBE" stroke-width="20"
    d="M174 96c0 43.078-34.922 78-78 78s-78-34.922-78-78 34.922-78 78-78 78 34.922 78 78Z" />
  <path fill="#fff"
    d="M106.48 100.77c6.39-1.89 10.89-7.83 10.89-15.21 0-9.18-6.84-16.56-16.11-16.56H78.31v54h11.88v-20.88h4.77L108.28 123h13.32l-15.12-22.23Zm-7.02-8.46h-9.27V79.53h9.27c3.78 0 6.57 2.7 6.57 6.39 0 3.78-2.79 6.39-6.57 6.39Z" />
</svg>
