<svg xmlns="http://www.w3.org/2000/svg" width="192" height="192" fill="none">
  <width"100%" height="100%" fill="#9ABEFF" fill-rule="evenodd" clip-rule="evenodd" />
  <path stroke="#fff" stroke-width="10"
    d="M137 97c0 22.091-17.909 40-40 40s-40-17.909-40-40 17.909-40 40-40 40 17.909 40 40Z" />
  <path fill="#fff" stroke="#9ABEFF" stroke-width="5"
    d="M96 72.5c8.008 0 14.5-6.492 14.5-14.5S104.008 43.5 96 43.5 81.5 49.992 81.5 58 87.992 72.5 96 72.5Zm-32 60c8.008 0 14.5-6.492 14.5-14.5s-6.492-14.5-14.5-14.5-14.5 6.492-14.5 14.5 6.492 14.5 14.5 14.5Zm66-2c8.008 0 14.5-6.492 14.5-14.5s-6.492-14.5-14.5-14.5-14.5 6.492-14.5 14.5 6.492 14.5 14.5 14.5Z" />
</svg>
