<svg xmlns="http://www.w3.org/2000/svg" width="192" height="192" fill="none">
  <width"100%" height="100%" fill="#56595B" fill-rule="evenodd" clip-rule="evenodd" />
  <path stroke="#B1B5BD" stroke-linecap="round" stroke-width="5" d="M47.5 61.545h98M47.5 97h98m-98 35.455h98" />
  <path fill="#B1B5BD" fill-rule="evenodd" stroke="#56595B" stroke-width="5"
    d="M68 71c5.523 0 10-4.477 10-10s-4.477-10-10-10-10 4.477-10 10 4.477 10 10 10Zm62 36c5.523 0 10-4.477 10-10s-4.477-10-10-10-10 4.477-10 10 4.477 10 10 10Zm-32 35c5.523 0 10-4.477 10-10s-4.477-10-10-10-10 4.477-10 10 4.477 10 10 10Z"
    clip-rule="evenodd" />
</svg>
