<svg xmlns="http://www.w3.org/2000/svg" width="192" height="192" fill="none">
  <width"100%" height="100%" fill="#F9DE81" fill-rule="evenodd" clip-rule="evenodd" />
  <mask id="a" width="174" height="174" x="9" y="9" maskUnits="userSpaceOnUse" style="mask-type:luminance">
    <width"100%" height="100%" fill="#fff" fill-rule="evenodd" clip-rule="evenodd" />
  </mask>
  <g mask="url(#a)">
    <path stroke="#C39A54" stroke-width="10"
      d="M99.82 5S71 17.8 71 57.65c0 39.85 50.479 58.633 50.479 89.066s-19.417 40.762-19.417 40.762" />
  </g>
  <path fill="#fff" fill-rule="evenodd" d="m47 62 50.5-.048L95 79H47V62Z" clip-rule="evenodd" />
  <path fill="#fff" d="M62 79h18v39H62zm-3 39h24v6H59zm-4 6h32v6H55z" />
  <path fill="#fff" fill-rule="evenodd" d="m147 62-50.5-.048L99 79h48V62Z" clip-rule="evenodd" />
  <path fill="#fff" d="M132 79h-18v39h18zm3 39h-24v6h24zm4 6h-32v6h32z" />
</svg>
