<?xml version="1.0" encoding="UTF-8" standalone="no"?>
<svg
   xmlns:dc="http://purl.org/dc/elements/1.1/"
   xmlns:cc="http://creativecommons.org/ns#"
   xmlns:rdf="http://www.w3.org/1999/02/22-rdf-syntax-ns#"
   xmlns:svg="http://www.w3.org/2000/svg"
   xmlns="http://www.w3.org/2000/svg"
   xmlns:sodipodi="http://sodipodi.sourceforge.net/DTD/sodipodi-0.dtd"
   xmlns:inkscape="http://www.inkscape.org/namespaces/inkscape"
   viewBox="0 0 272 272"
   version="1.1"
   id="svg16"
   sodipodi:docname="0h_h1_fg.svg"
   inkscape:version="0.92.4 (5da689c313, 2019-01-14)"
   width="272"
   height="272">
  <metadata
     id="metadata20">
    <rdf:RDF>
      <cc:Work
         rdf:about="">
        <dc:format>image/svg+xml</dc:format>
        <dc:type
           rdf:resource="http://purl.org/dc/dcmitype/StillImage" />
        <dc:title></dc:title>
      </cc:Work>
    </rdf:RDF>
  </metadata>
  <sodipodi:namedview
     pagecolor="#ffffff"
     bordercolor="#666666"
     borderopacity="1"
     objecttolerance="10"
     gridtolerance="10"
     guidetolerance="10"
     inkscape:pageopacity="0"
     inkscape:pageshadow="2"
     inkscape:window-width="1920"
     inkscape:window-height="1017"
     id="namedview18"
     showgrid="true"
     inkscape:zoom="4.2349186"
     inkscape:cx="36.204625"
     inkscape:cy="139.70708"
     inkscape:window-x="-8"
     inkscape:window-y="-8"
     inkscape:window-maximized="1"
     inkscape:current-layer="svg16"
     inkscape:snap-global="true">
    <inkscape:grid
       type="xygrid"
       id="grid827"
       spacingx="4"
       spacingy="4" />
  </sodipodi:namedview>
  <defs
     id="defs4">
    <style
       id="style2">.a{fill:none;stroke:#b1b5bd;stroke-linecap:round;stroke-linejoin:round;isolation:isolate;opacity:0.63;}</style>
  </defs>
  <rect
     width="40"
     height="40"
     x="92"
     y="92"
     ry="8"
     style="opacity:1;vector-effect:none;fill:#9abeff;fill-opacity:1;fill-rule:evenodd;stroke:none;paint-order:stroke fill markers"
     id="rect820" />
  <path
     inkscape:connector-curvature="0"
     d="m 96,124 c -1.631,0 -3.023,0.97 -3.646,2.363 A 7.98,7.98 0 0 0 100,132 h 24 a 7.98,7.98 0 0 0 7.646,-5.637 A 3.986,3.986 0 0 0 128,124 Z"
     style="opacity:1;vector-effect:none;fill:#728dbe;fill-opacity:1;fill-rule:evenodd;stroke:none;paint-order:stroke fill markers"
     id="path822" />
  <rect
     width="40"
     height="40"
     x="140"
     y="92"
     ry="8"
     style="opacity:1;vector-effect:none;fill:#ff837d;fill-opacity:1;fill-rule:evenodd;stroke:none;paint-order:stroke fill markers"
     id="rect824" />
  <path
     inkscape:connector-curvature="0"
     d="m 144,124 c -1.631,0 -3.023,0.97 -3.646,2.363 A 7.98,7.98 0 0 0 148,132 h 24 a 7.98,7.98 0 0 0 7.646,-5.637 A 3.986,3.986 0 0 0 176,124 Z"
     style="opacity:1;vector-effect:none;fill:#ba6561;fill-opacity:1;fill-rule:evenodd;stroke:none;paint-order:stroke fill markers"
     id="path826" />
  <rect
     width="40"
     height="40"
     x="92"
     y="140"
     ry="8"
     style="opacity:1;vector-effect:none;fill:#ff837d;fill-opacity:1;fill-rule:evenodd;stroke:none;paint-order:stroke fill markers"
     id="rect828" />
  <path
     inkscape:connector-curvature="0"
     d="m 96,172 c -1.631,0 -3.023,0.97 -3.646,2.363 A 7.98,7.98 0 0 0 100,180 h 24 a 7.98,7.98 0 0 0 7.646,-5.637 A 3.986,3.986 0 0 0 128,172 Z"
     style="opacity:1;vector-effect:none;fill:#ba6561;fill-opacity:1;fill-rule:evenodd;stroke:none;paint-order:stroke fill markers"
     id="path830" />
</svg>
