<?xml version="1.0" encoding="UTF-8" standalone="no"?>
<svg
   xmlns:dc="http://purl.org/dc/elements/1.1/"
   xmlns:cc="http://creativecommons.org/ns#"
   xmlns:rdf="http://www.w3.org/1999/02/22-rdf-syntax-ns#"
   xmlns:svg="http://www.w3.org/2000/svg"
   xmlns="http://www.w3.org/2000/svg"
   xmlns:sodipodi="http://sodipodi.sourceforge.net/DTD/sodipodi-0.dtd"
   xmlns:inkscape="http://www.inkscape.org/namespaces/inkscape"
   viewBox="0 0 272 272"
   version="1.1"
   id="svg16"
   sodipodi:docname="_11pet_fg.svg"
   inkscape:version="0.92.4 (5da689c313, 2019-01-14)"
   width="272"
   height="272">
  <metadata
     id="metadata20">
    <rdf:RDF>
      <cc:Work
         rdf:about="">
        <dc:format>image/svg+xml</dc:format>
        <dc:type
           rdf:resource="http://purl.org/dc/dcmitype/StillImage" />
        <dc:title></dc:title>
      </cc:Work>
    </rdf:RDF>
  </metadata>
  <sodipodi:namedview
     pagecolor="#ffffff"
     bordercolor="#666666"
     borderopacity="1"
     objecttolerance="10"
     gridtolerance="10"
     guidetolerance="10"
     inkscape:pageopacity="0"
     inkscape:pageshadow="2"
     inkscape:window-width="1920"
     inkscape:window-height="1017"
     id="namedview18"
     showgrid="true"
     inkscape:zoom="4.2349186"
     inkscape:cx="36.204625"
     inkscape:cy="149.15236"
     inkscape:window-x="-8"
     inkscape:window-y="-8"
     inkscape:window-maximized="1"
     inkscape:current-layer="svg16"
     inkscape:snap-global="true">
    <inkscape:grid
       type="xygrid"
       id="grid827"
       spacingx="4"
       spacingy="4" />
  </sodipodi:namedview>
  <defs
     id="defs4">
    <style
       id="style2">.a{fill:none;stroke:#b1b5bd;stroke-linecap:round;stroke-linejoin:round;isolation:isolate;opacity:0.63;}</style>
  </defs>
  <path
     inkscape:connector-curvature="0"
     d="m 132.374,126.57 c -0.05,0.196 0,0.343 -0.05,0.393 -0.196,0.294 -0.441,0.589 -0.687,0.883 -3.339,4.42 -6.137,9.084 -7.512,14.534 -1.915,7.562 1.227,13.503 8.543,16.204 3.536,1.276 7.12,1.669 10.802,1.423 9.035,-0.687 16.253,-4.615 20.967,-12.471 3.535,-5.892 4.664,-12.423 3.977,-19.199 -0.933,-9.132 -4.763,-16.89 -12.128,-22.537 -5.696,-4.37 -12.275,-6.137 -19.346,-6.285 -10.95,-0.294 -19.886,3.683 -26.416,12.472 -4.861,6.58 -6.973,14.092 -7.12,22.193 -0.245,13.061 4.468,23.913 15.025,31.916 10.066,7.66 25.09,8.985 35.893,1.031 2.258,-1.67 5.204,-2.602 8.003,-3.437 1.719,-0.54 3.683,-0.295 5.843,-0.393 -0.442,-0.196 -0.638,-0.245 -0.785,-0.294 -5.009,-0.982 -9.477,0.392 -13.847,2.798 -1.915,1.031 -3.879,2.16 -5.892,2.848 -10.9,3.732 -24.01,-0.294 -31.67,-9.673 -7.365,-9.083 -9.33,-19.444 -7.12,-30.737 1.277,-6.58 4.174,-12.373 9.231,-16.94 6.187,-5.45 13.552,-7.021 21.506,-6.137 5.696,0.638 10.95,2.504 15.074,6.628 6.973,6.875 9.231,15.32 7.906,24.845 -1.964,13.896 -16.007,22.194 -29.166,17.235 -4.272,-1.62 -6.138,-4.91 -5.401,-9.428 0.933,-5.843 3.83,-10.802 7.267,-15.466 2.062,-2.848 1.129,-5.254 -2.406,-5.843 -0.688,-0.098 -1.326,-0.246 -2.357,-0.491 3.142,-2.16 5.646,-4.37 5.646,-8.544 9.771,7.61 9.771,17.726 8.691,28.282 1.424,-5.254 2.013,-10.556 1.08,-15.958 -0.982,-5.597 -3.486,-10.36 -8.052,-13.895 -2.013,-1.571 -4.272,-0.737 -4.42,1.768 -0.146,2.21 -1.325,3.535 -2.994,4.664 -0.688,0.491 -1.424,0.933 -1.964,1.522 -1.915,2.063 -1.228,4.567 1.424,5.401 0.834,0.344 1.669,0.491 2.455,0.688 z"
     style="fill:#b1b5be;stroke-width:0.491009"
     id="path820" />
</svg>
