<?xml version="1.0" encoding="UTF-8" standalone="no"?>
<svg
   xmlns:dc="http://purl.org/dc/elements/1.1/"
   xmlns:cc="http://creativecommons.org/ns#"
   xmlns:rdf="http://www.w3.org/1999/02/22-rdf-syntax-ns#"
   xmlns:svg="http://www.w3.org/2000/svg"
   xmlns="http://www.w3.org/2000/svg"
   xmlns:sodipodi="http://sodipodi.sourceforge.net/DTD/sodipodi-0.dtd"
   xmlns:inkscape="http://www.inkscape.org/namespaces/inkscape"
   viewBox="0 0 272 272"
   version="1.1"
   id="svg16"
   sodipodi:docname="1800flowers_fg.svg"
   inkscape:version="0.92.4 (5da689c313, 2019-01-14)"
   width="272"
   height="272">
  <metadata
     id="metadata20">
    <rdf:RDF>
      <cc:Work
         rdf:about="">
        <dc:format>image/svg+xml</dc:format>
        <dc:type
           rdf:resource="http://purl.org/dc/dcmitype/StillImage" />
        <dc:title></dc:title>
      </cc:Work>
    </rdf:RDF>
  </metadata>
  <sodipodi:namedview
     pagecolor="#ffffff"
     bordercolor="#666666"
     borderopacity="1"
     objecttolerance="10"
     gridtolerance="10"
     guidetolerance="10"
     inkscape:pageopacity="0"
     inkscape:pageshadow="2"
     inkscape:window-width="1920"
     inkscape:window-height="1017"
     id="namedview18"
     showgrid="true"
     inkscape:zoom="2.9945397"
     inkscape:cx="36.204625"
     inkscape:cy="101.92595"
     inkscape:window-x="-8"
     inkscape:window-y="-8"
     inkscape:window-maximized="1"
     inkscape:current-layer="svg16"
     inkscape:snap-global="false">
    <inkscape:grid
       type="xygrid"
       id="grid827"
       spacingx="4"
       spacingy="4" />
  </sodipodi:namedview>
  <defs
     id="defs4">
    <style
       id="style2">.a{fill:none;stroke:#b1b5bd;stroke-linecap:round;stroke-linejoin:round;isolation:isolate;opacity:0.63;}</style>
  </defs>
  <g
     id="g913"
     transform="matrix(0.56733571,0,0,0.56733571,81.497141,80.595857)"
     style="fill:#ffffff;stroke:#ffffff">
    <path
       id="path896"
       style="fill:#ffffff;stroke:#ffffff;stroke-width:8;stroke-linecap:round;stroke-linejoin:round"
       d="m 36,44 c 0,0 36,20 52,88 4.934,20.968 1.76,27.128 5.484,40 0.828,2.864 1.171,7.057 4,8 2.828,0.943 2.704,-0.059 3.845,-2.813 1.614,-3.895 -2.22,-8.08 -2.22,-12.297 0,-56 12.89,-64.89 12.89,-64.89 0,0 -12,16 -16,40 C 76,60 36,44 36,44 Z"
       inkscape:connector-curvature="0" />
    <path
       id="path898"
       style="fill:#ffffff;stroke:#ffffff;stroke-width:4;stroke-linecap:round;stroke-linejoin:round"
       d="m 114.16,89.809 c 0,0 -0.859,-12.977 1.679,-23.712 4.908,-20.763 23.798,-31.559 23.082,-33.994 -3.175,-10.795 -16.577,-18.256 -16.577,-18.256 0,0 2.555,8.103 0.21,11.751 -5.809,9.034 -24.365,21.642 -24.551,38.61 -0.166,15.081 16.157,25.6 16.157,25.6 z"
       inkscape:connector-curvature="0" />
    <path
       id="path900"
       style="fill:#ffffff;stroke:#ffffff;stroke-width:4;stroke-linecap:round;stroke-linejoin:round"
       d="m 122.14,94.216 c 0,0 -0.891,-18.036 1.889,-25.81 8.861,-24.782 33.783,-33.994 33.783,-33.994 0,0 -3.179,3.803 -3.986,6.505 -3.03,10.136 -3.585,20.853 -5.456,31.266 -3.956,22.013 -26.23,22.033 -26.23,22.033 z"
       inkscape:connector-curvature="0" />
  </g>
</svg>
