<?xml version="1.0" encoding="UTF-8" standalone="no"?>
<svg
   xmlns:dc="http://purl.org/dc/elements/1.1/"
   xmlns:cc="http://creativecommons.org/ns#"
   xmlns:rdf="http://www.w3.org/1999/02/22-rdf-syntax-ns#"
   xmlns:svg="http://www.w3.org/2000/svg"
   xmlns="http://www.w3.org/2000/svg"
   xmlns:sodipodi="http://sodipodi.sourceforge.net/DTD/sodipodi-0.dtd"
   xmlns:inkscape="http://www.inkscape.org/namespaces/inkscape"
   viewBox="0 0 272 272"
   version="1.1"
   id="svg16"
   sodipodi:docname="_1822tan_fg.svg"
   inkscape:version="0.92.4 (5da689c313, 2019-01-14)"
   width="272"
   height="272">
  <metadata
     id="metadata20">
    <rdf:RDF>
      <cc:Work
         rdf:about="">
        <dc:format>image/svg+xml</dc:format>
        <dc:type
           rdf:resource="http://purl.org/dc/dcmitype/StillImage" />
        <dc:title />
      </cc:Work>
    </rdf:RDF>
  </metadata>
  <sodipodi:namedview
     pagecolor="#ffffff"
     bordercolor="#666666"
     borderopacity="1"
     objecttolerance="10"
     gridtolerance="10"
     guidetolerance="10"
     inkscape:pageopacity="0"
     inkscape:pageshadow="2"
     inkscape:window-width="1920"
     inkscape:window-height="1017"
     id="namedview18"
     showgrid="true"
     inkscape:zoom="7.1795104"
     inkscape:cx="12.943986"
     inkscape:cy="119.63259"
     inkscape:window-x="-8"
     inkscape:window-y="-8"
     inkscape:window-maximized="1"
     inkscape:current-layer="svg16"
     inkscape:snap-global="true">
    <inkscape:grid
       type="xygrid"
       id="grid827"
       spacingx="4"
       spacingy="4" />
  </sodipodi:namedview>
  <defs
     id="defs4">
    <style
       id="style2">.a{fill:none;stroke:#b1b5bd;stroke-linecap:round;stroke-linejoin:round;isolation:isolate;opacity:0.63;}</style>
    <style
       id="style2-8">.a{fill:none;stroke:#b1b5bd;stroke-linecap:round;stroke-linejoin:round;isolation:isolate;opacity:.63}</style>
  </defs>
  <rect
     style="opacity:0.75;vector-effect:none;fill:#ffffff;fill-opacity:1;fill-rule:evenodd;stroke:none;stroke-width:16;stroke-linecap:round;stroke-linejoin:round;stroke-miterlimit:4;stroke-dasharray:none;paint-order:stroke fill markers"
     id="rect858"
     width="272"
     height="272"
     x="0"
     y="0" />
  <path
     inkscape:connector-curvature="0"
     id="path832"
     d="m 96.929,134.45 h 7.4 v -30 h -11.8 v 6.45 h 4.4 z"
     style="font-style:normal;font-variant:normal;font-weight:900;font-stretch:normal;font-size:40px;line-height:1.25;font-family:Now;-inkscape-font-specification:'Now Heavy';letter-spacing:0;word-spacing:0;fill:#54688c;fill-opacity:1;stroke:none" />
  <path
     inkscape:connector-curvature="0"
     id="path834"
     d="m 127.766,117.7 c 1.45,-1.35 2.3,-3.25 2.3,-5.45 0,-4.65 -3.8,-8.2 -9.15,-8.2 -5.3,0 -9.15,3.55 -9.15,8.2 0,2.2 0.85,4.1 2.3,5.5 -2.55,1.6 -4.1,4.25 -4.1,7.45 0,5.5 4.6,9.65 10.95,9.65 6.4,0 11.05,-4.15 11.05,-9.65 0,-3.2 -1.6,-5.85 -4.2,-7.5 z m -6.8,-7.95 c 1.7,0 3,1.3 3,3.05 0,1.75 -1.3,3.05 -3,3.05 -1.75,0 -3.05,-1.3 -3.05,-3.05 0,-1.75 1.3,-3.05 3.05,-3.05 z m -0.05,18.65 c -2.05,0 -3.55,-1.65 -3.55,-3.8 0,-2.1 1.5,-3.5 3.55,-3.5 2.1,0 3.6,1.4 3.6,3.5 0,2.15 -1.5,3.8 -3.6,3.8 z"
     style="font-style:normal;font-variant:normal;font-weight:900;font-stretch:normal;font-size:40px;line-height:1.25;font-family:Now;-inkscape-font-specification:'Now Heavy';letter-spacing:0;word-spacing:0;fill:#54688c;fill-opacity:1;stroke:none" />
  <path
     inkscape:connector-curvature="0"
     id="path836"
     d="m 144.997,128 3.85,-5 c 3.7,-4.9 4.9,-6.85 4.95,-10.35 0.05,-4.95 -4,-8.65 -9.35,-8.65 -5.5,0 -10.5,4 -9.9,9.7 h 7.1 c -0.4,-2 0.85,-3.2 2.45,-3.2 1,0 2.65,0.4 2.65,2.75 0,1.15 -0.25,1.85 -3.1,5.7 l -11.55,15.5 h 22.1 V 128 Z"
     style="font-style:normal;font-variant:normal;font-weight:900;font-stretch:normal;font-size:40px;line-height:1.25;font-family:Now;-inkscape-font-specification:'Now Heavy';letter-spacing:0;word-spacing:0;fill:#54688c;fill-opacity:1;stroke:none" />
  <path
     inkscape:connector-curvature="0"
     id="path838"
     d="m 167.42,128 3.85,-5 c 3.7,-4.9 4.9,-6.85 4.95,-10.35 0.05,-4.95 -4,-8.65 -9.35,-8.65 -5.5,0 -10.5,4 -9.9,9.7 h 7.1 c -0.4,-2 0.85,-3.2 2.45,-3.2 1,0 2.65,0.4 2.65,2.75 0,1.15 -0.25,1.85 -3.1,5.7 l -11.55,15.5 h 22.1 V 128 Z"
     style="font-style:normal;font-variant:normal;font-weight:900;font-stretch:normal;font-size:40px;line-height:1.25;font-family:Now;-inkscape-font-specification:'Now Heavy';letter-spacing:0;word-spacing:0;fill:#54688c;fill-opacity:1;stroke:none" />
  <path
     inkscape:connector-curvature="0"
     id="path840"
     d="m 105.175,152.956 v -4.782 h -4 v -6.391 h -6.434 v 6.39 H 91.83 v 4.783 h 2.912 v 5.912 c 0,3.956 3.391,7.043 7.39,7.043 1.262,0 2.522,-0.26 2.957,-0.565 v -5 h -2.13 c -1.087,0 -1.782,-0.87 -1.782,-2.26 v -5.13 z"
     style="font-style:normal;font-variant:normal;font-weight:900;font-stretch:normal;font-size:40px;line-height:1.25;font-family:Now;-inkscape-font-specification:'Now Heavy';letter-spacing:0;word-spacing:0;fill:#54688c;fill-opacity:1;stroke:none;stroke-width:0.86948365" />
  <path
     inkscape:connector-curvature="0"
     id="path842"
     d="m 127.899,160.346 c -0.696,0 -1.479,-0.13 -1.479,-1.521 v -10.651 h -6.434 v 1.26 c -1.174,-1 -2.695,-1.608 -4.521,-1.608 -4.739,0 -8.434,3.956 -8.434,9.042 0,5.087 3.695,9.043 8.434,9.043 2.521,0 4.478,-1.13 5.739,-3 1.26,1.826 3.347,3 5.825,3 0.565,0 1.087,-0.174 1.478,-0.348 v -5.217 z m -10.956,-0.043 c -1.956,0 -3.478,-1.478 -3.478,-3.435 0,-1.956 1.522,-3.434 3.478,-3.434 a 3.414,3.414 0 0 1 3.435,3.434 c 0,0.305 -0.044,0.609 -0.13,0.87 l -0.175,0.522 a 3.396,3.396 0 0 1 -3.13,2.043 z"
     style="font-style:normal;font-variant:normal;font-weight:900;font-stretch:normal;font-size:40px;line-height:1.25;font-family:Now;-inkscape-font-specification:'Now Heavy';letter-spacing:0;word-spacing:0;fill:#54688c;fill-opacity:1;stroke:none;stroke-width:0.86948365" />
  <path
     inkscape:connector-curvature="0"
     id="path844"
     d="m 143.31,147.826 c -2.13,0 -4,1.087 -5.26,2.826 v -2.478 h -6.434 v 17.39 h 6.434 v -9.739 c 0,-1.391 1.174,-2.391 2.608,-2.391 1.435,0 2.391,1 2.391,2.391 v 9.738 h 6.434 v -10.999 c 0,-3.869 -2.695,-6.738 -6.173,-6.738 z"
     style="font-style:normal;font-variant:normal;font-weight:900;font-stretch:normal;font-size:40px;line-height:1.25;font-family:Now;-inkscape-font-specification:'Now Heavy';letter-spacing:0;word-spacing:0;fill:#54688c;fill-opacity:1;stroke:none;stroke-width:0.86948365" />
  <path
     inkscape:connector-curvature="0"
     id="path846"
     d="m 162.827,165.563 h 4.782 v -8.39 H 176 v -4.782 h -8.39 V 144 h -4.783 v 8.39 h -8.39 v 4.783 h 8.39 z"
     style="font-style:normal;font-variant:normal;font-weight:900;font-stretch:normal;font-size:40px;line-height:1.25;font-family:Now;-inkscape-font-specification:'Now Heavy';letter-spacing:0;word-spacing:0;fill:#ff837d;fill-opacity:1;stroke:none;stroke-width:0.86948365" />
</svg>
