<?xml version="1.0" encoding="UTF-8" standalone="no"?>
<svg
   xmlns:dc="http://purl.org/dc/elements/1.1/"
   xmlns:cc="http://creativecommons.org/ns#"
   xmlns:rdf="http://www.w3.org/1999/02/22-rdf-syntax-ns#"
   xmlns:svg="http://www.w3.org/2000/svg"
   xmlns="http://www.w3.org/2000/svg"
   xmlns:sodipodi="http://sodipodi.sourceforge.net/DTD/sodipodi-0.dtd"
   xmlns:inkscape="http://www.inkscape.org/namespaces/inkscape"
   viewBox="0 0 272 272"
   version="1.1"
   id="svg16"
   sodipodi:docname="_1945_air_force_fg.svg"
   inkscape:version="0.92.4 (5da689c313, 2019-01-14)"
   width="272"
   height="272">
  <metadata
     id="metadata20">
    <rdf:RDF>
      <cc:Work
         rdf:about="">
        <dc:format>image/svg+xml</dc:format>
        <dc:type
           rdf:resource="http://purl.org/dc/dcmitype/StillImage" />
        <dc:title></dc:title>
      </cc:Work>
    </rdf:RDF>
  </metadata>
  <sodipodi:namedview
     pagecolor="#ffffff"
     bordercolor="#666666"
     borderopacity="1"
     objecttolerance="10"
     gridtolerance="10"
     guidetolerance="10"
     inkscape:pageopacity="0"
     inkscape:pageshadow="2"
     inkscape:window-width="1920"
     inkscape:window-height="1017"
     id="namedview18"
     showgrid="true"
     inkscape:zoom="2.9945397"
     inkscape:cx="36.204625"
     inkscape:cy="141.99889"
     inkscape:window-x="-8"
     inkscape:window-y="-8"
     inkscape:window-maximized="1"
     inkscape:current-layer="svg16"
     inkscape:snap-global="true">
    <inkscape:grid
       type="xygrid"
       id="grid827"
       spacingx="4"
       spacingy="4" />
  </sodipodi:namedview>
  <defs
     id="defs4">
    <style
       id="style2">.a{fill:none;stroke:#b1b5bd;stroke-linecap:round;stroke-linejoin:round;isolation:isolate;opacity:0.63;}</style>
    <style
       id="style2-5">.a{fill:none;stroke:#b1b5bd;stroke-linecap:round;stroke-linejoin:round;isolation:isolate;opacity:.63}</style>
  </defs>
  <g
     id="g994"
     transform="matrix(0.63157848,0,0,0.63157848,75.368466,75.36843)">
    <path
       style="fill:#728dbe;stroke:none;stroke-width:1px;stroke-linecap:butt;stroke-linejoin:miter;stroke-opacity:1"
       d="m 48,172 v 8 l 20,-4 4,-8 -4,-4 z"
       id="path894"
       inkscape:connector-curvature="0" />
    <path
       style="fill:#b1b5bd;stroke:none;stroke-width:1px;stroke-linecap:butt;stroke-linejoin:miter;stroke-opacity:1"
       d="m 48,168 -4,4 4,4 20,-8 h 4 l 4,-4 -4,-12 -4,-4 -12,8 z"
       id="path892"
       inkscape:connector-curvature="0" />
    <path
       style="opacity:1;vector-effect:none;fill:#83868c;fill-opacity:1;fill-rule:evenodd;stroke:none;paint-order:stroke fill markers"
       d="m 72,124 h 8 v 24 h -8 z"
       id="rect896"
       inkscape:connector-curvature="0" />
    <path
       style="fill:#9abeff;stroke:none;stroke-width:1px;stroke-linecap:butt;stroke-linejoin:miter;stroke-opacity:1"
       d="m 48,168 v -8 l 4,-3.973 V 152 l 8,-8 h 20 v 12 l -8,4 v -4 h -4 v -4 h -4 z"
       id="path890"
       inkscape:connector-curvature="0" />
    <path
       style="fill:#728dbe;stroke:none;stroke-width:1px;stroke-linecap:butt;stroke-linejoin:miter;stroke-opacity:1"
       d="m 68,84 v 8 l 4,4 v 36 L 60,144 H 32 c -8,0 -8,-9.527 -8,-9.527 V 112 l 12,-8 v -4 z"
       id="path898"
       inkscape:connector-curvature="0" />
    <path
       style="opacity:1;vector-effect:none;fill:#ffffff;fill-opacity:1;fill-rule:evenodd;stroke:none;paint-order:stroke fill markers"
       d="m 40,108 h 8 v 24 h -8 z"
       id="rect918"
       inkscape:connector-curvature="0" />
    <path
       style="opacity:1;vector-effect:none;fill:#ff837d;fill-opacity:1;fill-rule:evenodd;stroke:none;paint-order:stroke fill markers"
       d="m 48,108 h 8 v 24 h -8 z"
       id="rect922"
       inkscape:connector-curvature="0" />
    <path
       style="opacity:1;vector-effect:none;fill:#ff837d;fill-opacity:1;fill-rule:evenodd;stroke:none;paint-order:stroke fill markers"
       d="m 64,104 h 8 v 28 h -8 z"
       id="rect926"
       inkscape:connector-curvature="0" />
    <path
       style="opacity:1;vector-effect:none;fill:#ffffff;fill-opacity:1;fill-rule:evenodd;stroke:none;stroke-width:1.08012342;paint-order:stroke fill markers"
       d="m 56,104 h 8 v 28 h -8 z"
       id="rect924"
       inkscape:connector-curvature="0" />
    <path
       style="fill:#ececec;stroke:none;stroke-width:1px;stroke-linecap:butt;stroke-linejoin:miter;stroke-opacity:1"
       d="m 36,112 v 8 h 4 L 68,104 70.95,100 68,96 Z"
       id="path908"
       inkscape:connector-curvature="0" />
    <rect
       style="opacity:1;vector-effect:none;fill:#979797;fill-opacity:1;fill-rule:evenodd;stroke:none;paint-order:stroke fill markers"
       rx="12"
       y="84"
       x="68"
       height="44"
       width="24"
       id="rect886" />
    <rect
       style="opacity:1;vector-effect:none;fill:#ff837d;fill-opacity:1;fill-rule:evenodd;stroke:none;paint-order:stroke fill markers"
       ry="2"
       y="108"
       x="20"
       height="32"
       width="4"
       id="rect930" />
    <rect
       style="opacity:1;vector-effect:none;fill:#979797;fill-opacity:1;fill-rule:evenodd;stroke:none;paint-order:stroke fill markers"
       ry="4"
       y="96"
       x="24"
       height="28"
       width="8"
       id="rect928" />
    <rect
       style="opacity:1;vector-effect:none;fill:#a0a5af;fill-opacity:1;fill-rule:evenodd;stroke:none;paint-order:stroke fill markers"
       ry="2.1359999"
       y="120"
       x="8"
       height="8"
       width="20"
       id="rect932" />
    <path
       style="fill:#728dbe;stroke:none;stroke-width:1px;stroke-linecap:butt;stroke-linejoin:miter;stroke-opacity:1"
       d="M 80,60 64,72 v 8 L 76,73.925 84,64 Z"
       id="path841"
       inkscape:connector-curvature="0" />
    <path
       style="fill:#d2d2d2;stroke:none;stroke-width:1px;stroke-linecap:butt;stroke-linejoin:miter;stroke-opacity:1"
       d="m 68,78 v -3.864 l 10.407,-8.95 4.118,1.983 L 76,73.925 Z"
       id="path843"
       inkscape:connector-curvature="0" />
    <path
       style="fill:#56595b;stroke:none;stroke-width:1px;stroke-linecap:butt;stroke-linejoin:miter;stroke-opacity:1"
       d="m 88,60 h -8 l -4,13.925 h 8 z"
       id="path837"
       inkscape:connector-curvature="0" />
    <path
       style="fill:#728dbe;stroke:none;stroke-width:1px;stroke-linecap:butt;stroke-linejoin:miter;stroke-opacity:1"
       d="m 72,156 v 12 h 4 l 4,-4 v -12 l -4,4 z"
       id="path888"
       inkscape:connector-curvature="0" />
    <path
       style="opacity:1;vector-effect:none;fill:#56595b;fill-opacity:1;fill-rule:evenodd;stroke:none;paint-order:stroke fill markers"
       d="m 36,132 h 28 v 4 H 36 Z"
       id="rect920"
       inkscape:connector-curvature="0" />
    <path
       style="fill:#9abeff;stroke:none;stroke-width:1px;stroke-linecap:butt;stroke-linejoin:miter;stroke-opacity:1"
       d="m 24,124 v -8 l 12,-4 4,4 v 8 l -4,4 z"
       id="path906"
       inkscape:connector-curvature="0" />
    <path
       style="opacity:1;vector-effect:none;fill:#d8d8d8;fill-opacity:1;fill-rule:evenodd;stroke:none;paint-order:stroke fill markers"
       d="m 24,124 h 16 v 12 H 24 Z"
       id="rect900"
       inkscape:connector-curvature="0" />
    <path
       style="fill:#83868c;stroke:none;stroke-width:1px;stroke-linecap:butt;stroke-linejoin:miter;stroke-opacity:1"
       d="m 28,136 c 0,0 0,4 4,4 h 32 c 4,0 4,-4 4,-4 h 4 l 4,-4 H 64 c 0,0 0,4 -4,4 z"
       id="path902"
       inkscape:connector-curvature="0" />
    <rect
       style="opacity:1;vector-effect:none;fill:#ff837d;fill-opacity:1;fill-rule:evenodd;stroke:none;paint-order:stroke fill markers"
       ry="4"
       y="125.942"
       x="28"
       height="8"
       width="8"
       id="rect904" />
    <rect
       style="opacity:1;vector-effect:none;fill:#9abeff;fill-opacity:1;fill-rule:evenodd;stroke:none;paint-order:stroke fill markers"
       ry="2.5079999"
       y="100"
       x="40"
       height="12"
       width="8"
       id="rect910" />
    <rect
       style="opacity:1;vector-effect:none;fill:#9abeff;fill-opacity:1;fill-rule:evenodd;stroke:none;paint-order:stroke fill markers"
       ry="2.5079999"
       y="96"
       x="52"
       height="12"
       width="8"
       id="rect912" />
    <rect
       style="opacity:1;vector-effect:none;fill:#9abeff;fill-opacity:1;fill-rule:evenodd;stroke:none;paint-order:stroke fill markers"
       ry="2"
       y="88"
       x="41.966"
       height="16"
       width="4"
       id="rect914" />
    <rect
       style="opacity:1;vector-effect:none;fill:#9abeff;fill-opacity:1;fill-rule:evenodd;stroke:none;paint-order:stroke fill markers"
       ry="2"
       y="84"
       x="53.966"
       height="16"
       width="4"
       id="rect916" />
    <rect
       style="opacity:1;vector-effect:none;fill:#cccccc;fill-opacity:1;fill-rule:evenodd;stroke:none;paint-order:stroke fill markers"
       ry="2.2709999"
       y="124"
       x="12"
       height="16"
       width="8"
       id="rect938" />
    <rect
       style="opacity:1;vector-effect:none;fill:#83868c;fill-opacity:1;fill-rule:evenodd;stroke:none;paint-order:stroke fill markers"
       ry="4"
       y="108"
       x="8"
       height="28"
       width="12"
       id="rect934" />
    <path
       style="opacity:1;vector-effect:none;fill:#83868c;fill-opacity:1;fill-rule:evenodd;stroke:none;paint-order:stroke fill markers"
       d="m 12,120 h 8 v 16 h -8 z"
       id="rect940"
       inkscape:connector-curvature="0" />
    <path
       style="opacity:1;vector-effect:none;fill:#979797;fill-opacity:1;fill-rule:evenodd;stroke:none;paint-order:stroke fill markers"
       d="m 8,112 h 12 v 20 H 8 Z"
       id="rect942"
       inkscape:connector-curvature="0" />
    <rect
       style="opacity:1;vector-effect:none;fill:#d2d2d2;fill-opacity:1;fill-rule:evenodd;stroke:none;paint-order:stroke fill markers"
       ry="4"
       y="20"
       x="76"
       height="36"
       width="8"
       id="rect845" />
    <rect
       style="opacity:1;vector-effect:none;fill:#728dbe;fill-opacity:1;fill-rule:evenodd;stroke:none;paint-order:stroke fill markers"
       ry="4"
       y="28"
       x="80"
       height="24"
       width="12"
       id="rect835" />
    <path
       style="fill:#d2d2d2;stroke:none;stroke-width:1px;stroke-linecap:butt;stroke-linejoin:miter;stroke-opacity:1"
       d="m 76,40 -4,4 v 12 l 4,-4 4,-5.017 z"
       id="path847"
       inkscape:connector-curvature="0" />
    <path
       style="fill:#728dbe;stroke:none;stroke-width:1px;stroke-linecap:butt;stroke-linejoin:miter;stroke-opacity:1"
       d="m 144,172 v 8 l -20,-4 -4,-8 4,-4 z"
       id="path894-1"
       inkscape:connector-curvature="0" />
    <path
       style="fill:#b1b5bd;stroke:none;stroke-width:1px;stroke-linecap:butt;stroke-linejoin:miter;stroke-opacity:1"
       d="m 144,168 4,4 -4,4 -20,-8 h -4 l -4,-4 4,-12 4,-4 12,8 z"
       id="path892-7"
       inkscape:connector-curvature="0" />
    <path
       transform="scale(-1,1)"
       style="opacity:1;vector-effect:none;fill:#83868c;fill-opacity:1;fill-rule:evenodd;stroke:none;paint-order:stroke fill markers"
       d="m -120,124 h 8 v 24 h -8 z"
       id="rect896-4"
       inkscape:connector-curvature="0" />
    <path
       style="fill:#9abeff;stroke:none;stroke-width:1px;stroke-linecap:butt;stroke-linejoin:miter;stroke-opacity:1"
       d="m 144,168 v -8 l -4,-3.973 V 152 l -8,-8 h -20 v 12 l 8,4 v -4 h 4 v -4 h 4 z"
       id="path890-1"
       inkscape:connector-curvature="0" />
    <path
       style="fill:#728dbe;stroke:none;stroke-width:1px;stroke-linecap:butt;stroke-linejoin:miter;stroke-opacity:1"
       d="m 124,84 v 8 l -4,4 v 36 l 12,12 h 28 c 8,0 8,-9.527 8,-9.527 V 112 l -12,-8 v -4 z"
       id="path898-6"
       inkscape:connector-curvature="0" />
    <path
       transform="scale(-1,1)"
       style="opacity:1;vector-effect:none;fill:#ffffff;fill-opacity:1;fill-rule:evenodd;stroke:none;paint-order:stroke fill markers"
       d="m -152,108 h 8 v 24 h -8 z"
       id="rect918-6"
       inkscape:connector-curvature="0" />
    <path
       transform="scale(-1,1)"
       style="opacity:1;vector-effect:none;fill:#ff837d;fill-opacity:1;fill-rule:evenodd;stroke:none;paint-order:stroke fill markers"
       d="m -144,108 h 8 v 24 h -8 z"
       id="rect922-8"
       inkscape:connector-curvature="0" />
    <path
       transform="scale(-1,1)"
       style="opacity:1;vector-effect:none;fill:#ff837d;fill-opacity:1;fill-rule:evenodd;stroke:none;paint-order:stroke fill markers"
       d="m -128,104 h 8 v 28 h -8 z"
       id="rect926-9"
       inkscape:connector-curvature="0" />
    <path
       transform="scale(-1,1)"
       style="opacity:1;vector-effect:none;fill:#ffffff;fill-opacity:1;fill-rule:evenodd;stroke:none;stroke-width:1.08012342;paint-order:stroke fill markers"
       d="m -136,104 h 8 v 28 h -8 z"
       id="rect924-6"
       inkscape:connector-curvature="0" />
    <path
       style="fill:#ececec;stroke:none;stroke-width:1px;stroke-linecap:butt;stroke-linejoin:miter;stroke-opacity:1"
       d="m 156,112 v 8 h -4 l -28,-16 -2.95,-4 2.95,-4 z"
       id="path908-4"
       inkscape:connector-curvature="0" />
    <rect
       transform="scale(-1,1)"
       style="opacity:1;vector-effect:none;fill:#979797;fill-opacity:1;fill-rule:evenodd;stroke:none;paint-order:stroke fill markers"
       rx="12"
       y="84"
       x="-124"
       height="44"
       width="24"
       id="rect886-7" />
    <rect
       transform="scale(-1,1)"
       style="opacity:1;vector-effect:none;fill:#ff837d;fill-opacity:1;fill-rule:evenodd;stroke:none;paint-order:stroke fill markers"
       ry="2"
       y="108"
       x="-172"
       height="32"
       width="4"
       id="rect930-3" />
    <rect
       transform="scale(-1,1)"
       style="opacity:1;vector-effect:none;fill:#979797;fill-opacity:1;fill-rule:evenodd;stroke:none;paint-order:stroke fill markers"
       ry="4"
       y="96"
       x="-168"
       height="28"
       width="8"
       id="rect928-4" />
    <rect
       transform="scale(-1,1)"
       style="opacity:1;vector-effect:none;fill:#a0a5af;fill-opacity:1;fill-rule:evenodd;stroke:none;paint-order:stroke fill markers"
       ry="2.1359999"
       y="120"
       x="-184"
       height="8"
       width="20"
       id="rect932-3" />
    <path
       style="fill:#728dbe;stroke:none;stroke-width:1px;stroke-linecap:butt;stroke-linejoin:miter;stroke-opacity:1"
       d="m 112,60 16,12 v 8 L 116,73.925 108,64 Z"
       id="path841-1"
       inkscape:connector-curvature="0" />
    <path
       style="fill:#d2d2d2;stroke:none;stroke-width:1px;stroke-linecap:butt;stroke-linejoin:miter;stroke-opacity:1"
       d="m 124,78 v -3.864 l -10.407,-8.95 -4.118,1.983 6.525,6.756 z"
       id="path843-1"
       inkscape:connector-curvature="0" />
    <path
       style="fill:#56595b;stroke:none;stroke-width:1px;stroke-linecap:butt;stroke-linejoin:miter;stroke-opacity:1"
       d="m 104,60 h 8 l 4,13.925 h -8 z"
       id="path837-0"
       inkscape:connector-curvature="0" />
    <path
       style="fill:#728dbe;stroke:none;stroke-width:1px;stroke-linecap:butt;stroke-linejoin:miter;stroke-opacity:1"
       d="M 84,60 80,74.5 V 84 l 4,4 v 20 l -8,4 v 12 h 40 v -12 l -8,-4 V 88 l 4,-4 V 74.5 L 108,60 Z"
       id="path839-1"
       inkscape:connector-curvature="0" />
    <rect
       transform="scale(-1,1)"
       style="opacity:1;vector-effect:none;fill:#d2d2d2;fill-opacity:1;fill-rule:evenodd;stroke:none;paint-order:stroke fill markers"
       ry="4"
       y="20"
       x="-116"
       height="36"
       width="8"
       id="rect845-0" />
    <rect
       transform="scale(-1,1)"
       style="opacity:1;vector-effect:none;fill:#728dbe;fill-opacity:1;fill-rule:evenodd;stroke:none;paint-order:stroke fill markers"
       ry="4"
       y="28"
       x="-112"
       height="24"
       width="12"
       id="rect835-9" />
    <path
       style="fill:#d2d2d2;stroke:none;stroke-width:1px;stroke-linecap:butt;stroke-linejoin:miter;stroke-opacity:1"
       d="m 116,40 4,4 v 12 l -4,-4 -4,-5.017 z"
       id="path847-0"
       inkscape:connector-curvature="0" />
    <path
       style="fill:#a0a5af;stroke:none;stroke-width:1px;stroke-linecap:butt;stroke-linejoin:miter;stroke-opacity:1"
       d="m 96,8 c 0,0 -4.651,-0.198 -8,12 -5.49,20 -8,32 -8,32 v 4 h 8 l 8,-24 8,24 h 8 v -4 c 0,0 -2.51,-12 -8,-32 C 100.651,7.802 96,8 96,8 Z"
       id="path833-7"
       inkscape:connector-curvature="0" />
    <path
       style="fill:#ff837d;stroke:none;stroke-width:1px;stroke-linecap:butt;stroke-linejoin:miter;stroke-opacity:1"
       d="m 96,28 c 0,0 -4,0 -4,4 v 8 c 0,4 -2.966,5.204 -4,8 -1.907,5.156 -4,16 -4,16 0,0 0,4 4,4 4,0 4,-4 4,-4 V 52 l 4,-4 4,4 v 12 c 0,0 0,4 4,4 4,0 4,-4 4,-4 0,0 -2.093,-10.844 -4,-16 -1.034,-2.796 -4,-4 -4,-8 v -8 c 0,-4 -4,-4 -4,-4 z"
       id="path829-3"
       inkscape:connector-curvature="0" />
    <rect
       transform="scale(-1,1)"
       style="opacity:1;vector-effect:none;fill:#b1b5bd;fill-opacity:1;fill-rule:evenodd;stroke:none;paint-order:stroke fill markers"
       ry="8"
       y="116"
       x="-116"
       height="32"
       width="16"
       id="rect851-2" />
    <rect
       transform="scale(-1,1)"
       style="opacity:1;vector-effect:none;fill:#a0a5af;fill-opacity:1;fill-rule:evenodd;stroke:none;paint-order:stroke fill markers"
       ry="2.441"
       y="164"
       x="-112"
       height="8"
       width="8"
       id="rect880-0" />
    <path
       style="fill:#728dbe;stroke:none;stroke-width:1px;stroke-linecap:butt;stroke-linejoin:miter;stroke-opacity:1"
       d="m 120,156 v 12 h -4 l -4,-4 v -12 l 4,4 z"
       id="path888-3"
       inkscape:connector-curvature="0" />
    <rect
       transform="scale(-1,1)"
       style="opacity:1;vector-effect:none;fill:#d2d2d2;fill-opacity:1;fill-rule:evenodd;stroke:none;paint-order:stroke fill markers"
       ry="8"
       y="124"
       x="-116"
       height="44"
       width="16"
       id="rect849-0" />
    <path
       transform="scale(-1,1)"
       style="opacity:1;vector-effect:none;fill:#56595b;fill-opacity:1;fill-rule:evenodd;stroke:none;paint-order:stroke fill markers"
       d="m -156,132 h 28 v 4 h -28 z"
       id="rect920-8"
       inkscape:connector-curvature="0" />
    <path
       style="fill:#9abeff;stroke:none;stroke-width:1px;stroke-linecap:butt;stroke-linejoin:miter;stroke-opacity:1"
       d="m 168,124 v -8 l -12,-4 -4,4 v 8 l 4,4 z"
       id="path906-8"
       inkscape:connector-curvature="0" />
    <path
       transform="scale(-1,1)"
       style="opacity:1;vector-effect:none;fill:#d8d8d8;fill-opacity:1;fill-rule:evenodd;stroke:none;paint-order:stroke fill markers"
       d="m -168,124 h 16 v 12 h -16 z"
       id="rect900-0"
       inkscape:connector-curvature="0" />
    <path
       style="fill:#83868c;stroke:none;stroke-width:1px;stroke-linecap:butt;stroke-linejoin:miter;stroke-opacity:1"
       d="m 164,136 c 0,0 0,4 -4,4 h -32 c -4,0 -4,-4 -4,-4 h -4 l -4,-4 h 12 c 0,0 0,4 4,4 z"
       id="path902-1"
       inkscape:connector-curvature="0" />
    <rect
       transform="scale(-1,1)"
       style="opacity:1;vector-effect:none;fill:#ff837d;fill-opacity:1;fill-rule:evenodd;stroke:none;paint-order:stroke fill markers"
       ry="4"
       y="125.942"
       x="-164"
       height="8"
       width="8"
       id="rect904-3" />
    <rect
       transform="scale(-1,1)"
       style="opacity:1;vector-effect:none;fill:#9abeff;fill-opacity:1;fill-rule:evenodd;stroke:none;paint-order:stroke fill markers"
       ry="2.5079999"
       y="100"
       x="-152"
       height="12"
       width="8"
       id="rect910-3" />
    <rect
       transform="scale(-1,1)"
       style="opacity:1;vector-effect:none;fill:#9abeff;fill-opacity:1;fill-rule:evenodd;stroke:none;paint-order:stroke fill markers"
       ry="2.5079999"
       y="96"
       x="-140"
       height="12"
       width="8"
       id="rect912-5" />
    <rect
       transform="scale(-1,1)"
       style="opacity:1;vector-effect:none;fill:#9abeff;fill-opacity:1;fill-rule:evenodd;stroke:none;paint-order:stroke fill markers"
       ry="2"
       y="88"
       x="-150.034"
       height="16"
       width="4"
       id="rect914-1" />
    <rect
       transform="scale(-1,1)"
       style="opacity:1;vector-effect:none;fill:#9abeff;fill-opacity:1;fill-rule:evenodd;stroke:none;paint-order:stroke fill markers"
       ry="2"
       y="84"
       x="-138.034"
       height="16"
       width="4"
       id="rect916-1" />
    <rect
       transform="scale(-1,1)"
       style="opacity:1;vector-effect:none;fill:#cccccc;fill-opacity:1;fill-rule:evenodd;stroke:none;paint-order:stroke fill markers"
       ry="2.2709999"
       y="124"
       x="-180"
       height="16"
       width="8"
       id="rect938-4" />
    <rect
       transform="scale(-1,1)"
       style="opacity:1;vector-effect:none;fill:#83868c;fill-opacity:1;fill-rule:evenodd;stroke:none;paint-order:stroke fill markers"
       ry="4"
       y="108"
       x="-184"
       height="28"
       width="12"
       id="rect934-8" />
    <path
       transform="scale(-1,1)"
       style="opacity:1;vector-effect:none;fill:#83868c;fill-opacity:1;fill-rule:evenodd;stroke:none;paint-order:stroke fill markers"
       d="m -180,120 h 8 v 16 h -8 z"
       id="rect940-3"
       inkscape:connector-curvature="0" />
    <path
       transform="scale(-1,1)"
       style="opacity:1;vector-effect:none;fill:#979797;fill-opacity:1;fill-rule:evenodd;stroke:none;paint-order:stroke fill markers"
       d="m -184,112 h 12 v 20 h -12 z"
       id="rect942-5"
       inkscape:connector-curvature="0" />
    <rect
       style="opacity:1;vector-effect:none;fill:#96dfd3;fill-opacity:1;fill-rule:evenodd;paint-order:stroke fill markers"
       ry="4"
       y="48"
       x="92"
       height="20"
       width="8"
       id="rect831" />
    <path
       style="fill:#728dbe;stroke:none;stroke-width:1px;stroke-linecap:butt;stroke-linejoin:miter;stroke-opacity:1"
       d="m 92,156 4,28 4,-28 v -36 h -8 z"
       id="path855"
       inkscape:connector-curvature="0" />
    <path
       style="opacity:1;vector-effect:none;fill:#ffffff;fill-opacity:1;fill-rule:evenodd;stroke:none;paint-order:stroke fill markers"
       d="m 92,124 h 8 v 8 h -8 z"
       id="rect857"
       inkscape:connector-curvature="0" />
    <path
       style="opacity:1;vector-effect:none;fill:#ffffff;fill-opacity:1;fill-rule:evenodd;stroke:none;paint-order:stroke fill markers"
       d="m 92,136 h 8 v 8 h -8 z"
       id="rect857-4"
       inkscape:connector-curvature="0" />
    <path
       style="opacity:1;vector-effect:none;fill:#ffffff;fill-opacity:1;fill-rule:evenodd;stroke:none;paint-order:stroke fill markers"
       d="m 92,148 h 8 v 8 h -8 z"
       id="rect857-5"
       inkscape:connector-curvature="0" />
    <rect
       style="opacity:1;vector-effect:none;fill:#a0a5af;fill-opacity:1;fill-rule:evenodd;stroke:none;paint-order:stroke fill markers"
       ry="8"
       y="88"
       x="88"
       height="24"
       width="16"
       id="rect882" />
    <rect
       style="opacity:1;vector-effect:none;fill:#cccccc;fill-opacity:1;fill-rule:evenodd;stroke:none;paint-order:stroke fill markers"
       ry="8"
       y="96"
       x="88"
       height="16"
       width="16"
       id="rect884" />
    <rect
       style="opacity:1;vector-effect:none;fill:#b1b5bd;fill-opacity:1;fill-rule:evenodd;stroke:none;paint-order:stroke fill markers"
       ry="8"
       y="116"
       x="76"
       height="32"
       width="16"
       id="rect851" />
    <rect
       style="opacity:1;vector-effect:none;fill:#a0a5af;fill-opacity:1;fill-rule:evenodd;stroke:none;paint-order:stroke fill markers"
       ry="2.441"
       y="164"
       x="80"
       height="8"
       width="8"
       id="rect880" />
    <rect
       style="opacity:1;vector-effect:none;fill:#d2d2d2;fill-opacity:1;fill-rule:evenodd;stroke:none;paint-order:stroke fill markers"
       ry="8"
       y="124"
       x="76"
       height="44"
       width="16"
       id="rect849" />
  </g>
</svg>
