<?xml version="1.0" encoding="UTF-8" standalone="no"?>
<svg
   xmlns:dc="http://purl.org/dc/elements/1.1/"
   xmlns:cc="http://creativecommons.org/ns#"
   xmlns:rdf="http://www.w3.org/1999/02/22-rdf-syntax-ns#"
   xmlns:svg="http://www.w3.org/2000/svg"
   xmlns="http://www.w3.org/2000/svg"
   xmlns:sodipodi="http://sodipodi.sourceforge.net/DTD/sodipodi-0.dtd"
   xmlns:inkscape="http://www.inkscape.org/namespaces/inkscape"
   viewBox="0 0 272 272"
   version="1.1"
   id="svg16"
   sodipodi:docname="_1dm.svg"
   inkscape:version="0.92.4 (5da689c313, 2019-01-14)"
   width="272"
   height="272">
  <metadata
     id="metadata20">
    <rdf:RDF>
      <cc:Work
         rdf:about="">
        <dc:format>image/svg+xml</dc:format>
        <dc:type
           rdf:resource="http://purl.org/dc/dcmitype/StillImage" />
        <dc:title></dc:title>
      </cc:Work>
    </rdf:RDF>
  </metadata>
  <sodipodi:namedview
     pagecolor="#ffffff"
     bordercolor="#666666"
     borderopacity="1"
     objecttolerance="10"
     gridtolerance="10"
     guidetolerance="10"
     inkscape:pageopacity="0"
     inkscape:pageshadow="2"
     inkscape:window-width="1920"
     inkscape:window-height="1017"
     id="namedview18"
     showgrid="true"
     inkscape:zoom="4.2349186"
     inkscape:cx="107.3594"
     inkscape:cy="158.59764"
     inkscape:window-x="-8"
     inkscape:window-y="-8"
     inkscape:window-maximized="1"
     inkscape:current-layer="svg16"
     inkscape:snap-global="true">
    <inkscape:grid
       type="xygrid"
       id="grid827"
       spacingx="4"
       spacingy="4" />
  </sodipodi:namedview>
  <defs
     id="defs4">
    <style
       id="style2">.a{fill:none;stroke:#b1b5bd;stroke-linecap:round;stroke-linejoin:round;isolation:isolate;opacity:0.63;}</style>
  </defs>
  <style
     type="text/css"
     id="style853">.st0{fill:#fff}</style>
  <path
     inkscape:connector-curvature="0"
     id="rect923"
     d="m 146.078,102.658 c -10.887,0 -20.118,7.289 -23.666,17.562 -2.2,-1.937 -5.026,-3.098 -8.114,-3.098 -7.058,0 -12.741,6.064 -12.741,13.598 v 1.47 c -9.395,1.874 -16.38,9.35 -16.38,18.346 0,10.418 9.363,18.806 20.993,18.806 h 59.66 c 11.63,0 20.992,-8.388 20.992,-18.806 0,-8.72 -6.561,-16.014 -15.52,-18.16 v -2.795 c 0,-14.916 -11.25,-26.923 -25.224,-26.923 z"
     style="fill:#f8c18c;fill-opacity:1;stroke-width:23.76320076;stroke-linecap:round;stroke-linejoin:round" />
  <path
     inkscape:connector-curvature="0"
     id="rect937"
     d="m 121.178,149.186 v 6.961 a 2,2 0 0 0 2,2 h 32.37 a 2,2 0 0 0 2,-2 v -6.961 a 2,2 0 0 0 -2,-2 h -9.851 c -0.734,0.723 -1.47,1.444 -2.198,2.171 -1.72,2.104 -5.11,2.579 -7.277,0.897 -1.085,-1 -2.14,-2.03 -3.192,-3.068 h -9.852 a 2,2 0 0 0 -2,2 z"
     style="fill:#56595b;fill-opacity:1;stroke-width:70.58719635;stroke-linecap:round;stroke-linejoin:round" />
  <path
     inkscape:connector-curvature="0"
     id="rect935"
     d="m 135.474,125.278 v 10.057 h -5.98 a 1.47,1.47 0 0 0 -1.034,2.516 l 9.571,9.465 a 1.895,1.895 0 0 0 2.665,0 l 9.57,-9.465 a 1.47,1.47 0 0 0 -1.035,-2.516 h -5.98 v -10.057 a 1.399,1.399 0 0 0 -1.398,-1.399 h -4.98 a 1.399,1.399 0 0 0 -1.4,1.399 z"
     style="fill:#56595b;fill-opacity:1;stroke-width:38.104599;stroke-linecap:round;stroke-linejoin:round" />
  <circle
     id="circle1024"
     cx="148.05499"
     cy="154.46899"
     r="1.967"
     style="fill:#f8c18c;fill-opacity:1;stroke-width:30.8173008;stroke-linecap:round;stroke-linejoin:round" />
  <circle
     id="circle1026"
     cx="153.871"
     cy="154.46899"
     r="1.967"
     style="fill:#f8c18c;fill-opacity:1;stroke-width:30.8173008;stroke-linecap:round;stroke-linejoin:round" />
  <style
     type="text/css"
     id="style853-2">.st0{fill:#fff}</style>
</svg>
