<?xml version="1.0" encoding="UTF-8" standalone="no"?>
<svg
   xmlns:dc="http://purl.org/dc/elements/1.1/"
   xmlns:cc="http://creativecommons.org/ns#"
   xmlns:rdf="http://www.w3.org/1999/02/22-rdf-syntax-ns#"
   xmlns:svg="http://www.w3.org/2000/svg"
   xmlns="http://www.w3.org/2000/svg"
   xmlns:sodipodi="http://sodipodi.sourceforge.net/DTD/sodipodi-0.dtd"
   xmlns:inkscape="http://www.inkscape.org/namespaces/inkscape"
   viewBox="0 0 272 272"
   version="1.1"
   id="svg16"
   sodipodi:docname="1password_fg.svg"
   inkscape:version="0.92.4 (5da689c313, 2019-01-14)"
   width="272"
   height="272">
  <metadata
     id="metadata20">
    <rdf:RDF>
      <cc:Work
         rdf:about="">
        <dc:format>image/svg+xml</dc:format>
        <dc:type
           rdf:resource="http://purl.org/dc/dcmitype/StillImage" />
        <dc:title></dc:title>
      </cc:Work>
    </rdf:RDF>
  </metadata>
  <sodipodi:namedview
     pagecolor="#ffffff"
     bordercolor="#666666"
     borderopacity="1"
     objecttolerance="10"
     gridtolerance="10"
     guidetolerance="10"
     inkscape:pageopacity="0"
     inkscape:pageshadow="2"
     inkscape:window-width="1920"
     inkscape:window-height="1017"
     id="namedview18"
     showgrid="true"
     inkscape:zoom="2.9945397"
     inkscape:cx="36.204625"
     inkscape:cy="101.92595"
     inkscape:window-x="-8"
     inkscape:window-y="-8"
     inkscape:window-maximized="1"
     inkscape:current-layer="svg16"
     inkscape:snap-global="false">
    <inkscape:grid
       type="xygrid"
       id="grid827"
       spacingx="4"
       spacingy="4" />
  </sodipodi:namedview>
  <defs
     id="defs4">
    <style
       id="style2">.a{fill:none;stroke:#b1b5bd;stroke-linecap:round;stroke-linejoin:round;isolation:isolate;opacity:0.63;}</style>
    <style
       id="style818">
      .cls-1 {
        fill: #fff;
      }

      .cls-2 {
        fill: #56595b;
      }

      .cls-3 {
        fill: #9abeff;
      }
    </style>
  </defs>
  <path
     style="fill:#9abeff"
     inkscape:connector-curvature="0"
     class="cls-3"
     d="m 136.01182,69.408177 c 36.7,0 66.56,29.86 66.56,66.560003 0,36.7 -29.86,66.56 -66.56,66.56 -36.699997,0 -66.559997,-29.86 -66.559997,-66.56 0,-36.700003 29.86,-66.560003 66.559997,-66.560003 m 0,-9 c -41.729997,0 -75.559997,33.83 -75.559997,75.560003 0,41.73 33.83,75.56 75.559997,75.56 41.73,0 75.56,-33.83 75.56,-75.56 0,-41.730003 -33.83,-75.560003 -75.56,-75.560003 z"
     id="path824" />
  <polygon
     style="fill:#56595b"
     class="cls-2"
     points="86.01,55.04 105.95,55.04 105.95,113.99 98.96,120.98 106.01,127.97 105.91,137.04 85.92,137.01 86.02,78.11 92.99,71.03 86.01,64.01 "
     id="polygon826"
     transform="translate(40.011823,39.968177)" />
</svg>
