<?xml version="1.0" encoding="UTF-8" standalone="no"?>
<svg
   xmlns:dc="http://purl.org/dc/elements/1.1/"
   xmlns:cc="http://creativecommons.org/ns#"
   xmlns:rdf="http://www.w3.org/1999/02/22-rdf-syntax-ns#"
   xmlns:svg="http://www.w3.org/2000/svg"
   xmlns="http://www.w3.org/2000/svg"
   xmlns:sodipodi="http://sodipodi.sourceforge.net/DTD/sodipodi-0.dtd"
   xmlns:inkscape="http://www.inkscape.org/namespaces/inkscape"
   viewBox="0 0 272 272"
   version="1.1"
   id="svg16"
   sodipodi:docname="1weather_fg.svg"
   inkscape:version="0.92.4 (5da689c313, 2019-01-14)"
   width="272"
   height="272">
  <metadata
     id="metadata20">
    <rdf:RDF>
      <cc:Work
         rdf:about="">
        <dc:format>image/svg+xml</dc:format>
        <dc:type
           rdf:resource="http://purl.org/dc/dcmitype/StillImage" />
        <dc:title></dc:title>
      </cc:Work>
    </rdf:RDF>
  </metadata>
  <sodipodi:namedview
     pagecolor="#ffffff"
     bordercolor="#666666"
     borderopacity="1"
     objecttolerance="10"
     gridtolerance="10"
     guidetolerance="10"
     inkscape:pageopacity="0"
     inkscape:pageshadow="2"
     inkscape:window-width="1920"
     inkscape:window-height="1017"
     id="namedview18"
     showgrid="true"
     inkscape:zoom="4.2349186"
     inkscape:cx="106.76272"
     inkscape:cy="139.70708"
     inkscape:window-x="-8"
     inkscape:window-y="-8"
     inkscape:window-maximized="1"
     inkscape:current-layer="svg16"
     inkscape:snap-global="false">
    <inkscape:grid
       type="xygrid"
       id="grid827"
       spacingx="4"
       spacingy="4" />
  </sodipodi:namedview>
  <defs
     id="defs4">
    <style
       id="style2">.a{fill:none;stroke:#b1b5bd;stroke-linecap:round;stroke-linejoin:round;isolation:isolate;opacity:0.63;}</style>
    <style
       id="style818">
      .cls-1 {
        fill: #fff;
      }

      .cls-2 {
        fill: #54688c;
      }
    </style>
  </defs>
  <path
     inkscape:connector-curvature="0"
     d="m 133.20626,111.08419 a 23.754925,23.754925 0 0 0 -23.75492,23.75492 23.754925,23.754925 0 0 0 0.0311,0.87621 h -2.41599 c -5.20506,0 -9.395271,5.73155 -9.395271,12.85102 0,7.11947 4.190211,12.85103 9.395271,12.85103 h 56.36849 c 5.20505,0 9.39526,-5.73156 9.39526,-12.85103 0,-0.62931 -0.0452,-1.24226 -0.10826,-1.84665 a 14.603437,14.603437 0 0 0 0.0109,-0.19783 14.603437,14.603437 0 0 0 -14.60344,-14.60344 14.603437,14.603437 0 0 0 -1.36922,0.0779 23.754925,23.754925 0 0 0 -23.55398,-20.91212 z"
     style="opacity:1;fill:#f6f8fb;fill-opacity:1;stroke:none;stroke-width:59.38731384;stroke-linecap:round;stroke-linejoin:bevel;stroke-miterlimit:4;stroke-dasharray:none;stroke-dashoffset:0;stroke-opacity:1;paint-order:normal"
     id="path838" />
  <path
     inkscape:connector-curvature="0"
     d="m 95.702296,141.20193 a 16.154128,16.154128 0 0 0 -1.843538,4.97296 c -1.140236,7.2472 2.7361,14.7927 9.636712,17.77647 3.55545,1.57328 7.69659,1.31626 10.74657,1.31626 h 45.08763 c 7.39518,0 17.58254,-6.88504 18.16122,-17.75155 0.26092,-8.07122 -3.9955,-15.78885 -11.77621,-18.87699 -1.96426,-0.77885 -4.04768,-1.22669 -6.14513,-1.36454 -1.92376,-7.85315 -7.94037,-14.53646 -15.72731,-17.87072 -9.11489,-3.90204 -20.09745,-2.25087 -27.96383,3.71667 -7.03847,5.33902 -9.78548,13.09092 -10.43582,20.39108 -4.17074,1.26952 -7.653755,4.03911 -9.740294,7.69036 z m 15.091774,-1.5943 c 0.73446,0.0678 1.19009,0.035 1.57639,-0.22821 0.75549,-0.7547 0.26715,-2.05383 0.26715,-3.74782 -0.21185,-7.14595 2.40042,-13.1431 7.86483,-17.18377 5.55631,-4.21436 13.33391,-5.47064 20.22985,-2.80542 5.9434,2.29605 9.53624,6.66462 11.59006,11.81048 -3.43784,1.06625 -6.75107,3.16525 -9.07593,6.13345 -1.25006,1.54523 -0.84895,4.22604 0.77106,5.31175 1.78824,1.19865 4.08507,0.884 5.28216,-0.69551 3.65748,-4.05469 8.5471,-5.08122 13.25914,-3.34282 4.89897,1.80615 8.24023,7.02055 7.77059,12.4429 0.10358,4.80006 -5.082,11.03397 -11.27308,11.03397 H 114.5933 c -3.44096,0 -5.98157,0.27649 -7.95829,-0.61217 -4.63727,-1.86457 -6.950454,-7.12259 -5.51659,-11.26685 1.23525,-4.54848 5.69573,-7.15452 9.67565,-6.84998 z"
     style="color:#000000;font-style:normal;font-variant:normal;font-weight:400;font-stretch:normal;font-size:medium;line-height:normal;font-family:sans-serif;font-variant-ligatures:normal;font-variant-position:normal;font-variant-caps:normal;font-variant-numeric:normal;font-variant-alternates:normal;font-feature-settings:normal;text-indent:0;text-align:start;text-decoration:none;text-decoration-line:none;text-decoration-style:solid;text-decoration-color:#000000;letter-spacing:normal;word-spacing:normal;text-transform:none;writing-mode:lr-tb;direction:ltr;text-orientation:mixed;dominant-baseline:auto;baseline-shift:baseline;text-anchor:start;white-space:normal;shape-padding:0;clip-rule:nonzero;display:inline;overflow:visible;visibility:visible;opacity:1;isolation:auto;mix-blend-mode:normal;color-interpolation:sRGB;color-interpolation-filters:linearRGB;solid-color:#000000;solid-opacity:1;vector-effect:none;fill:#738dbe;fill-opacity:1;fill-rule:nonzero;stroke:none;stroke-width:7.02790451;stroke-linecap:round;stroke-linejoin:bevel;stroke-miterlimit:4;stroke-dasharray:none;stroke-dashoffset:0;stroke-opacity:1;paint-order:normal;color-rendering:auto;image-rendering:auto;shape-rendering:auto;text-rendering:auto;enable-background:accumulate"
     id="path840" />
</svg>
