<?xml version="1.0" encoding="UTF-8" standalone="no"?>
<svg
   xmlns:dc="http://purl.org/dc/elements/1.1/"
   xmlns:cc="http://creativecommons.org/ns#"
   xmlns:rdf="http://www.w3.org/1999/02/22-rdf-syntax-ns#"
   xmlns:svg="http://www.w3.org/2000/svg"
   xmlns="http://www.w3.org/2000/svg"
   xmlns:sodipodi="http://sodipodi.sourceforge.net/DTD/sodipodi-0.dtd"
   xmlns:inkscape="http://www.inkscape.org/namespaces/inkscape"
   viewBox="0 0 272 272"
   version="1.1"
   id="svg16"
   sodipodi:docname="_1xbet_fg.svg"
   inkscape:version="0.92.4 (5da689c313, 2019-01-14)"
   width="272"
   height="272">
  <metadata
     id="metadata20">
    <rdf:RDF>
      <cc:Work
         rdf:about="">
        <dc:format>image/svg+xml</dc:format>
        <dc:type
           rdf:resource="http://purl.org/dc/dcmitype/StillImage" />
        <dc:title></dc:title>
      </cc:Work>
    </rdf:RDF>
  </metadata>
  <sodipodi:namedview
     pagecolor="#ffffff"
     bordercolor="#666666"
     borderopacity="1"
     objecttolerance="10"
     gridtolerance="10"
     guidetolerance="10"
     inkscape:pageopacity="0"
     inkscape:pageshadow="2"
     inkscape:window-width="1920"
     inkscape:window-height="1017"
     id="namedview18"
     showgrid="true"
     inkscape:zoom="4.2349186"
     inkscape:cx="110.93947"
     inkscape:cy="139.70708"
     inkscape:window-x="-8"
     inkscape:window-y="-8"
     inkscape:window-maximized="1"
     inkscape:current-layer="svg16"
     inkscape:snap-global="true">
    <inkscape:grid
       type="xygrid"
       id="grid827"
       spacingx="4"
       spacingy="4" />
  </sodipodi:namedview>
  <defs
     id="defs4">
    <style
       id="style2">.a{fill:none;stroke:#b1b5bd;stroke-linecap:round;stroke-linejoin:round;isolation:isolate;opacity:0.63;}</style>
    <style
       id="style905">.cls-1{fill:#14a0ff}.cls-2,.st0{fill:#fff}</style>
  </defs>
  <path
     inkscape:connector-curvature="0"
     id="path1061"
     d="m 111.39,156.88 h -9.422 a 1.175,1.175 0 0 1 -1.14,-1.456 l 4.658,-18.863 a 25.166,25.166 0 0 1 0.89,-2.86 l 0.182,-0.482 a 0.323,0.323 0 0 0 -0.53,-0.342 l -1.168,1.167 a 503.168,503.168 0 0 0 -2.115,2.127 l -1.545,1.564 a 0.628,0.628 0 0 1 -1.074,-0.433 l -0.106,-7.874 a 3.35,3.35 0 0 1 1.085,-2.513 l 10.68,-9.796 a 3.854,3.854 0 0 1 2.605,-1.014 h 7.04 a 1.175,1.175 0 0 1 1.142,1.457 l -9.323,37.862 a 1.914,1.914 0 0 1 -1.859,1.456 z"
     style="fill:#ffffff;fill-opacity:1;stroke-width:1.46145999" />
  <path
     inkscape:connector-curvature="0"
     id="path1059"
     d="m 154.016,117.144 -6.227,5.977 -24.785,22.725 -11.897,11.035 h 15.438 a 3.935,3.935 0 0 0 2.62,-0.998 l 11.61,-10.357 4.282,7.306 c 1.461,1.842 3.522,4.078 12.261,4.078 h 8.73 a 0.866,0.866 0 0 0 0.75,-1.298 l -9.04,-15.641 -0.016,0.015 -3.96,-6.709 18.1,-16.172 a 0.573,0.573 0 0 0 -0.382,-1 h -14.902 a 3.729,3.729 0 0 0 -2.582,1.04 z"
     style="fill:#ffffff;fill-opacity:1;stroke-width:1.46145999" />
  <path
     inkscape:connector-curvature="0"
     id="path984"
     d="m 146.416,120.87 v -0.088 a 11.239,11.239 0 0 0 -9.704,-4.677 h -11.726 a 0.858,0.858 0 0 0 -0.74,1.293 l 9.105,15.485 z"
     style="fill:#ffffff;fill-opacity:1;stroke-width:1.46145999" />
</svg>
