<?xml version="1.0" encoding="UTF-8" standalone="no"?>
<svg
   xmlns:dc="http://purl.org/dc/elements/1.1/"
   xmlns:cc="http://creativecommons.org/ns#"
   xmlns:rdf="http://www.w3.org/1999/02/22-rdf-syntax-ns#"
   xmlns:svg="http://www.w3.org/2000/svg"
   xmlns="http://www.w3.org/2000/svg"
   xmlns:sodipodi="http://sodipodi.sourceforge.net/DTD/sodipodi-0.dtd"
   xmlns:inkscape="http://www.inkscape.org/namespaces/inkscape"
   viewBox="0 0 272 272"
   version="1.1"
   id="svg16"
   sodipodi:docname="_20_minutes_fg.svg"
   inkscape:version="0.92.4 (5da689c313, 2019-01-14)"
   width="272"
   height="272">
  <metadata
     id="metadata20">
    <rdf:RDF>
      <cc:Work
         rdf:about="">
        <dc:format>image/svg+xml</dc:format>
        <dc:type
           rdf:resource="http://purl.org/dc/dcmitype/StillImage" />
        <dc:title></dc:title>
      </cc:Work>
    </rdf:RDF>
  </metadata>
  <sodipodi:namedview
     pagecolor="#ffffff"
     bordercolor="#666666"
     borderopacity="1"
     objecttolerance="10"
     gridtolerance="10"
     guidetolerance="10"
     inkscape:pageopacity="0"
     inkscape:pageshadow="2"
     inkscape:window-width="1920"
     inkscape:window-height="1017"
     id="namedview18"
     showgrid="true"
     inkscape:zoom="2.9945397"
     inkscape:cx="36.204625"
     inkscape:cy="101.92595"
     inkscape:window-x="-8"
     inkscape:window-y="-8"
     inkscape:window-maximized="1"
     inkscape:current-layer="svg16"
     inkscape:snap-global="false">
    <inkscape:grid
       type="xygrid"
       id="grid827"
       spacingx="4"
       spacingy="4" />
  </sodipodi:namedview>
  <defs
     id="defs4">
    <style
       id="style2">.a{fill:none;stroke:#b1b5bd;stroke-linecap:round;stroke-linejoin:round;isolation:isolate;opacity:0.63;}</style>
  </defs>
  <path
     style="clip-rule:evenodd;fill:#a0a5af;fill-rule:evenodd"
     inkscape:connector-curvature="0"
     d="m 128.66788,96.341235 c 0.437,0.053 1.047,0.41 1.37,0.809 l 2.396,2.927005 c 0.32,0.38799 0.323,0.95599 0,1.27799 l -2.396,2.408 c -0.32,0.325 -0.935,0.554 -1.37,0.51301 l -17.963,-1.72501 c -0.437,-0.042 -1.047,-0.40299 -1.37,-0.817 l -2.396,-3.089995 c -0.32,-0.416 -0.323,-1.03 0,-1.38 l 2.396,-2.571 c 0.32,-0.34 0.935,-0.572 1.37,-0.52 z m 41.394,4.994995 c 0.436,0.053 1.046,0.374 1.369,0.726 l 2.396,2.58301 c 0.319,0.34199 0.323,0.83599 0,1.111 l -2.396,2.065 c -0.32,0.278 -0.935,0.47 -1.369,0.429 l -17.964,-1.725 c -0.437,-0.042 -1.046,-0.366 -1.37,-0.733 l -2.396,-2.747 c -0.319,-0.369 -0.323,-0.91 0,-1.21301 l 2.396,-2.226995 c 0.32,-0.294 0.935,-0.489 1.37,-0.437 z m -41.394,64.69 c 0.437,-0.041 1.047,0.184 1.37,0.51301 l 2.396,2.40799 c 0.32,0.319 0.323,0.886 0,1.278 l -2.396,2.927 c -0.32,0.394 -0.935,0.757 -1.37,0.809 l -17.963,2.168 c -0.437,0.053 -1.047,-0.176 -1.37,-0.52 l -2.396,-2.571 c -0.32,-0.346 -0.323,-0.96 0,-1.38 l 2.396,-3.09 c 0.32,-0.41 0.935,-0.775 1.37,-0.817 z m 41.394,-3.974 c 0.436,-0.041 1.046,0.148 1.369,0.429 l 2.396,2.065 c 0.319,0.27201 0.323,0.765 0,1.11101 l -2.396,2.58299 c -0.32,0.348 -0.935,0.673 -1.369,0.726 l -17.964,2.168 c -0.437,0.052 -1.046,-0.14 -1.37,-0.437 l -2.396,-2.227 c -0.319,-0.3 -0.323,-0.84 0,-1.213 l 2.396,-2.746 c 0.32,-0.364 0.935,-0.692 1.37,-0.73399 z m -41.394,-30.868 c 0.437,0.005 1.047,0.297 1.37,0.66 l 2.396,2.668 c 0.32,0.353 0.323,0.92 0,1.278 l -2.396,2.668 c -0.32,0.359 -0.935,0.65501 -1.37,0.66001 l -17.963,0.22199 c -0.437,0.005 -1.047,-0.29 -1.37,-0.668 l -2.396,-2.831 a 1.108,1.108 0 0 1 0,-1.38 l 2.396,-2.83 c 0.32,-0.375 0.935,-0.674 1.37,-0.66899 z m 8.822,-2.851 c 0,0.50401 -0.24,1.204 -0.544,1.573 l -2.25,2.757 c -0.3,0.37 -0.784,0.372 -1.088,-0.009 l -2.25,-2.84099 c -0.3,-0.382 -0.544,-1.113 -0.544,-1.62601 v -21.206 c 0,-0.515 0.24,-1.21299 0.543,-1.566 l 2.251,-2.59399 c 0.3,-0.34301 0.784,-0.297 1.088,0.11099 l 2.25,3.004 c 0.3,0.398 0.544,1.131 0.544,1.634 v 20.764 z m 41.393,0.902 c 0,0.438 -0.24,1.045 -0.544,1.36401 l -2.25,2.38999 a 0.727,0.727 0 0 1 -1.088,-0.008 l -2.251,-2.47501 c -0.3,-0.334 -0.543,-0.96999 -0.543,-1.416 v -18.45999 c 0,-0.448 0.24,-1.052 0.543,-1.356 l 2.251,-2.227 c 0.3,-0.295 0.784,-0.248 1.088,0.11 l 2.25,2.638 c 0.301,0.349 0.544,0.988 0.544,1.424 z m 0,29.848 c 0,0.438 -0.24,1.071 -0.544,1.424 l -2.25,2.637 c -0.301,0.355 -0.784,0.40901 -1.088,0.11101 l -2.251,-2.22701 c -0.3,-0.3 -0.543,-0.90999 -0.543,-1.356 v -18.45999 c 0,-0.448 0.24,-1.079 0.543,-1.416 l 2.251,-2.47501 a 0.727,0.727 0 0 1 1.088,-0.008 l 2.25,2.38999 c 0.301,0.31601 0.544,0.928 0.544,1.36401 z m -70.324,6.202 c 0,0.551 -0.24,1.34301 -0.544,1.779 l -2.25,3.26101 c -0.3,0.43799 -0.784,0.49199 -1.088,0.11099 l -2.25,-2.85 c -0.3,-0.384 -0.544,-1.153 -0.544,-1.713 v -23.128 c 0,-0.562 0.24,-1.351 0.544,-1.772 l 2.25,-3.097 c 0.3,-0.41 0.784,-0.418 1.088,-0.009 l 2.25,3.013 c 0.3,0.399 0.544,1.17101 0.544,1.72 z m 41.393,-3.651 c 0,0.485 -0.24,1.183 -0.543,1.57101 l -2.251,2.89299 c -0.3,0.389 -0.784,0.443 -1.088,0.111 l -2.25,-2.483 c -0.3,-0.335 -0.544,-1.01 -0.544,-1.503 v -20.38 c 0,-0.495 0.24,-1.19099 0.544,-1.562 l 2.25,-2.73099 c 0.301,-0.362 0.784,-0.37001 1.088,-0.009 l 2.251,2.646 c 0.3,0.34999 0.543,1.02799 0.543,1.51099 z m 0,-33.029 c 0,0.484 -0.24,1.156 -0.543,1.51001 l -2.251,2.64599 c -0.3,0.356 -0.784,0.35701 -1.088,-0.008 l -2.25,-2.731 c -0.3,-0.368 -0.544,-1.07 -0.544,-1.563 v -20.38 c 0,-0.495 0.24,-1.165 0.544,-1.503 l 2.25,-2.483 c 0.301,-0.329 0.784,-0.283 1.088,0.11 l 2.251,2.894 c 0.3,0.383 0.543,1.089 0.543,1.57 z"
     id="path820" />
</svg>
