<?xml version="1.0" encoding="UTF-8" standalone="no"?>
<svg
   xmlns:dc="http://purl.org/dc/elements/1.1/"
   xmlns:cc="http://creativecommons.org/ns#"
   xmlns:rdf="http://www.w3.org/1999/02/22-rdf-syntax-ns#"
   xmlns:svg="http://www.w3.org/2000/svg"
   xmlns="http://www.w3.org/2000/svg"
   xmlns:sodipodi="http://sodipodi.sourceforge.net/DTD/sodipodi-0.dtd"
   xmlns:inkscape="http://www.inkscape.org/namespaces/inkscape"
   viewBox="0 0 272 272"
   version="1.1"
   id="svg16"
   sodipodi:docname="_24fps_fg.svg"
   inkscape:version="0.92.4 (5da689c313, 2019-01-14)"
   width="272"
   height="272">
  <metadata
     id="metadata20">
    <rdf:RDF>
      <cc:Work
         rdf:about="">
        <dc:format>image/svg+xml</dc:format>
        <dc:type
           rdf:resource="http://purl.org/dc/dcmitype/StillImage" />
        <dc:title />
      </cc:Work>
    </rdf:RDF>
  </metadata>
  <sodipodi:namedview
     pagecolor="#ffffff"
     bordercolor="#666666"
     borderopacity="1"
     objecttolerance="10"
     gridtolerance="10"
     guidetolerance="10"
     inkscape:pageopacity="0"
     inkscape:pageshadow="2"
     inkscape:window-width="1920"
     inkscape:window-height="1017"
     id="namedview18"
     showgrid="true"
     inkscape:zoom="10.153361"
     inkscape:cx="19.75687"
     inkscape:cy="127.80408"
     inkscape:window-x="-8"
     inkscape:window-y="-8"
     inkscape:window-maximized="1"
     inkscape:current-layer="svg16"
     inkscape:snap-global="false">
    <inkscape:grid
       type="xygrid"
       id="grid827"
       spacingx="4"
       spacingy="4" />
  </sodipodi:namedview>
  <defs
     id="defs4">
    <style
       id="style2">.a{fill:none;stroke:#b1b5bd;stroke-linecap:round;stroke-linejoin:round;isolation:isolate;opacity:0.63;}</style>
  </defs>
  <g
     id="g838"
     transform="matrix(0.5199596,0,0,0.5199596,84.495378,85.951067)">
    <path
       id="path818"
       style="fill:#f8c18c"
       d="m 68.92,34.49 h 48.86 A 13.24,13.24 0 0 1 131,47.73 V 96.59 A 60.92,60.92 0 0 1 70.1,157.51 H 21.25 A 13.24,13.24 0 0 1 8,144.27 V 95.41 A 60.92,60.92 0 0 1 68.92,34.49 Z"
       inkscape:connector-curvature="0" />
    <path
       id="path820"
       style="fill:#ff837d"
       d="m 95.41,34.49 h 48.86 a 13.24,13.24 0 0 1 13.24,13.24 V 96.59 A 60.92,60.92 0 0 1 96.59,157.51 H 47.73 A 13.24,13.24 0 0 1 34.49,144.27 V 95.41 A 60.92,60.92 0 0 1 95.41,34.49 Z"
       inkscape:connector-curvature="0" />
    <path
       id="path822"
       style="fill:#bd9aff"
       d="m 121.9,34.49 h 48.86 A 13.24,13.24 0 0 1 184,47.73 v 48.86 a 60.92,60.92 0 0 1 -60.92,60.92 H 74.22 A 13.24,13.24 0 0 1 61,144.27 V 95.41 a 60.92,60.92 0 0 1 60.9,-60.92 z"
       inkscape:connector-curvature="0" />
    <path
       id="path824"
       style="fill:#9abeff"
       d="m 170.75,34.49 h -26.48 a 13.24,13.24 0 0 1 13.24,13.24 v 48.86 a 60.93,60.93 0 0 1 -60.92,60.92 h 26.49 A 60.93,60.93 0 0 0 184,96.59 V 47.73 A 13.25,13.25 0 0 0 170.75,34.49 Z"
       inkscape:connector-curvature="0" />
  </g>
</svg>
