<?xml version="1.0" encoding="UTF-8" standalone="no"?>
<svg
   xmlns:dc="http://purl.org/dc/elements/1.1/"
   xmlns:cc="http://creativecommons.org/ns#"
   xmlns:rdf="http://www.w3.org/1999/02/22-rdf-syntax-ns#"
   xmlns:svg="http://www.w3.org/2000/svg"
   xmlns="http://www.w3.org/2000/svg"
   xmlns:sodipodi="http://sodipodi.sourceforge.net/DTD/sodipodi-0.dtd"
   xmlns:inkscape="http://www.inkscape.org/namespaces/inkscape"
   viewBox="0 0 272 272"
   version="1.1"
   id="svg16"
   sodipodi:docname="_2_3_4_player_mini_games_fg.svg"
   inkscape:version="0.92.4 (5da689c313, 2019-01-14)"
   width="272"
   height="272">
  <metadata
     id="metadata20">
    <rdf:RDF>
      <cc:Work
         rdf:about="">
        <dc:format>image/svg+xml</dc:format>
        <dc:type
           rdf:resource="http://purl.org/dc/dcmitype/StillImage" />
        <dc:title></dc:title>
      </cc:Work>
    </rdf:RDF>
  </metadata>
  <sodipodi:namedview
     pagecolor="#ffffff"
     bordercolor="#666666"
     borderopacity="1"
     objecttolerance="10"
     gridtolerance="10"
     guidetolerance="10"
     inkscape:pageopacity="0"
     inkscape:pageshadow="2"
     inkscape:window-width="1920"
     inkscape:window-height="1017"
     id="namedview18"
     showgrid="true"
     inkscape:zoom="2.5383403"
     inkscape:cx="231.81232"
     inkscape:cy="165.23845"
     inkscape:window-x="-8"
     inkscape:window-y="-8"
     inkscape:window-maximized="1"
     inkscape:current-layer="svg16"
     inkscape:snap-global="true">
    <inkscape:grid
       type="xygrid"
       id="grid827"
       spacingx="4"
       spacingy="4" />
  </sodipodi:namedview>
  <defs
     id="defs4">
    <style
       id="style2">.a{fill:none;stroke:#b1b5bd;stroke-linecap:round;stroke-linejoin:round;isolation:isolate;opacity:0.63;}</style>
    <style
       id="style2-2">.a{fill:none;stroke:#b1b5bd;stroke-linecap:round;stroke-linejoin:round;isolation:isolate;opacity:0.63;}</style>
  </defs>
  <g
     transform="matrix(0.61736,0,0,0.61736,212,79.941)"
     id="g836">
    <path
       style="fill:none;stroke:#56595b;stroke-linecap:round;stroke-linejoin:round"
       inkscape:connector-curvature="0"
       d="m -213.75,19.5 v 37.75 c 0,3.15 5.75,7.5 5.75,7.5 l -6,7.5 5.75,7 23.5,-14 21.25,13.75 6,-5.75 -4.5,-6.75 c 0,0 7.25,-4.023 7.25,-7.5 v -8.25 l 7.5,-10.75 -7.75,-8.5 -0.25,-12 c 0,0 5.316,-5.187 7.103,-11.231 1.254,-4.242 1.914,-8.77 0.147,-13.269 -3.074,-7.829 -8.99,-11.75 -15.601,-12.409 -12.022,-1.198 -17.399,8.91 -17.399,8.91 0,0 -4.8,-4.448 -13,-2.25 -4.669,1.25 -7.5,6.5 -7.5,6.5 0,0 -13.167,-4.896 -17.188,9 -2.378,8.218 4.937,14.75 4.937,14.75 z"
       id="path826" />
    <path
       style="fill:#ff837d;stroke:#56595b;stroke-linecap:round;stroke-linejoin:round"
       inkscape:connector-curvature="0"
       d="m -213.75,19.5 v 37.75 c 0,3.15 5.75,7.5 5.75,7.5 l -6,7.5 5.75,7 23.5,-14 21.25,13.75 6,-5.75 -4.5,-6.75 c 0,0 7.25,-4.023 7.25,-7.5 v -8.25 l 7.5,-10.75 -7.75,-8.5 -0.25,-12 c 0,0 5.316,-5.187 7.103,-11.231 1.254,-4.242 1.914,-8.77 0.147,-13.269 -3.074,-7.829 -8.99,-11.75 -15.601,-12.409 -12.022,-1.198 -17.399,8.91 -17.399,8.91 0,0 -4.8,-4.448 -13,-2.25 -4.669,1.25 -7.5,6.5 -7.5,6.5 0,0 -13.167,-4.896 -17.188,9 -2.378,8.218 4.937,14.75 4.937,14.75 z"
       id="path828" />
    <path
       style="fill:#ffffff;stroke:#56595b;stroke-linecap:round;stroke-linejoin:round"
       inkscape:connector-curvature="0"
       d="m -213.75,19.5 v 37.75 c 1.144,4.293 3.666,5.388 5.75,7.5 l 46,1.75 c 2.952,-1.741 5.886,-3.507 7.25,-7.5 V 18.984 c 0,0 -4.752,-7.359 -8.5,-7.359 h -41.875 c -3.893,0 -8.625,7.875 -8.625,7.875 z"
       id="path830" />
    <path
       style="fill:#f9de81;stroke:#56595b;stroke-linecap:round;stroke-linejoin:round"
       inkscape:connector-curvature="0"
       d="m -208,64.75 -6,7.5 5.75,7 23.25,-13.625 -23,-0.875 m 23.25,0.885 21.25,13.365 6,-5.75 -4.5,-6.365 z m 30,-34.135 7.5,8.5 -7.5,10.75 z"
       id="path832" />
    <ellipse
       style="fill:#56595b"
       cx="-163.62"
       cy="33.812"
       rx="2.723"
       ry="4.5359998"
       id="ellipse834" />
  </g>
  <g
     transform="matrix(0.62226,0,0,0.62226,224.75,82.32)"
     id="g856">
    <path
       style="fill:#56595b"
       inkscape:connector-curvature="0"
       d="m -214.31,120.38 h -6.563 l -30.75,30.5 0.25,7.25 3.623,3.272 0.177,5.523 24.326,24.33 5.5,-0.063 2.937,3.813 7.375,0.312 31.191,-30.468 v -6.499 l -4.33,-3.93 -4.439,-9.962 -15.484,-14.953 -9.069,-4.519 z"
       id="path838" />
    <path
       style="fill:#9abeff"
       inkscape:connector-curvature="0"
       d="m -204.64,129.12 -6.232,-2.125 -35,34.125 0.125,4.5 21.586,21.941 7.414,1.684 34,-34 -1.625,-7.1 -20.268,-19.024"
       id="path840" />
    <path
       style="fill:#728dbe"
       inkscape:connector-curvature="0"
       d="m -204.64,129.12 -38.795,39.168 19.273,19.273 39.789,-39.416 z"
       id="path842" />
    <path
       style="fill:#9abeff;stroke:#54688c;stroke-linecap:round;stroke-linejoin:round"
       inkscape:connector-curvature="0"
       d="m -195.62,124.62 -9.75,9.75 v 4.375 l -17.375,17.375 10.688,10.688 17.5,-17.5 h 4.687 l 9.72,-9.719 z"
       id="path844" />
    <path
       style="fill:#9abeff"
       inkscape:connector-curvature="0"
       d="m -237.14,174.59 -4.264,-4.264 11.075,-11.075 4.455,4.455 z m 10.92,10.93 -4.174,-4.174 10.84,-10.841 4.362,4.36 z"
       id="path846" />
    <path
       style="fill:#fcecdc"
       inkscape:connector-curvature="0"
       d="m -152.54,96.139 c -7.678,3.012 -14.992,5.858 -21.279,10.262 l -4.037,-2.78 c -3.769,3.424 -5.653,7.21 -7.788,11.724 l -3.145,-3.85 c 0,0 -3.241,4.097 -3.03,8.88 0.286,6.483 6.733,12.457 12.85,14.625 6.55,2.322 14.392,-4.491 14.392,-4.491 l -6.111,-1.723 c 5.429,-1.74 7.798,-4.267 11.044,-7.645 l -2.925,-2.542 c 4.22,-7 8.271,-14.093 10.03,-22.46 z"
       id="path848" />
    <path
       style="fill:#f8c18c"
       inkscape:connector-curvature="0"
       d="m -161.14,104.11 c -5.6,2.197 -10.805,4.789 -15.391,8 l -2.895,-2.286 c -2.75,2.498 -4.33,5.775 -5.887,9.067 l -2.266,-3.58 c 0,0 -2.363,2.987 -2.21,6.476 0.21,4.728 4.911,9.086 9.372,10.667 4.779,1.693 9.905,-2.524 9.905,-2.524 l -4.571,-1.438 c 3.96,-1.27 6.395,-3.683 8.762,-6.146 l -2.134,-1.855 c 3.079,-5.104 6.033,-10.279 7.315,-16.38 z"
       id="path850" />
    <path
       style="fill:#f9de81"
       inkscape:connector-curvature="0"
       d="m -170.07,112.98 c 0,0 -13.916,5.481 -15.114,8.21 -2.13,4.853 3.593,9.342 7.248,7.523 2.416,-1.202 7.866,-15.733 7.866,-15.733 z"
       id="path852" />
    <ellipse
       style="fill:#ffffff"
       cx="-100.1"
       cy="195.10001"
       rx="3.177"
       ry="2.757"
       transform="rotate(28.363)"
       id="ellipse854" />
  </g>
  <g
     transform="matrix(0.67252,0,0,0.67252,231.17,72.323)"
     id="g864">
    <ellipse
       style="fill:#cccccc"
       cx="-84.063004"
       cy="151.19"
       rx="41.194"
       ry="42.688"
       id="ellipse858" />
    <ellipse
       style="fill:#ffffff"
       cx="-83.750999"
       cy="150.86"
       rx="32.952999"
       ry="34.147999"
       id="ellipse860" />
    <path
       style="fill:#56595b"
       inkscape:connector-curvature="0"
       d="m -83.75,116.71 a 32.953,34.148 0 0 0 -3.236,0.24 l 1.611,9.17 14.125,5 8.951,-6.17 a 32.953,34.148 0 0 0 -21.45,-8.24 z m -23.75,20.91 11.125,-1.5 4,11.25 -10.875,9.75 -6.625,-6 z m 39,6.88 -8.875,8.75 2,12.375 11.875,-0.875 4.5,-13 z m -30.75,26.12 -6.549,5.56 a 32.953,34.148 0 0 0 22.05,8.827 32.953,34.148 0 0 0 1.585,-0.041 l -3.71,-9.97 z"
       id="path862" />
  </g>
  <path
     style="fill:#ffffff;fill-opacity:0.5"
     inkscape:connector-curvature="0"
     d="m 163.15413,92.836718 c 0,0 1.449,-1.595 2.425,-1.65 1.207,-0.07 3.21,1.685 3.21,1.685 0,0 2.7,0.085 3.495,0.999 0.677,0.78 0.428,3.067 0.428,3.067 0,0 2.011,1.498 2.068,2.606 0.06,1.168002 -1.89,2.957002 -1.89,2.957002 0,0 0.05,2.423 -0.713,3.21 -0.7,0.723 -2.925,0.749 -2.925,0.749 0,0 -1.717,2.096 -2.924,2.14 -1.345,0.049 -3.423,-2.14 -3.423,-2.14 -1.972,0.196 -3.518,-0.456 -4.351,-1.783 -0.446,-0.71 0.151,-2.51 0.151,-2.51 0,0 -1.434,-1.135 -1.47,-1.948 -0.058,-1.259002 1.996,-3.210002 1.996,-3.210002 0,0 -0.061,-2.138 0.57,-2.888 0.772,-0.916 3.353,-1.284 3.353,-1.284 z"
     id="path868" />
  <path
     style="fill:#ffffff;fill-opacity:0.5"
     inkscape:connector-curvature="0"
     d="m 154.38413,103.10372 c 0,0 1.449,-1.595 2.425,-1.651 1.207,-0.069 3.21,1.686 3.21,1.686 0,0 2.7,0.084 3.495,0.999 0.677,0.779 0.428,3.067 0.428,3.067 0,0 2.011,1.498 2.068,2.606 0.06,1.168 -1.89,2.957 -1.89,2.957 0,0 0.05,2.422 -0.713,3.21 -0.7,0.723 -2.925,0.749 -2.925,0.749 0,0 -1.717,2.095 -2.924,2.14 -1.345,0.049 -3.424,-2.14 -3.424,-2.14 -1.971,0.196 -3.517,-0.456 -4.35,-1.783 -0.446,-0.71 0.15,-2.51 0.15,-2.51 0,0 -1.433,-1.135 -1.47,-1.948 -0.057,-1.26 1.997,-3.21 1.997,-3.21 0,0 -0.062,-2.138 0.57,-2.889 0.772,-0.915 3.353,-1.283 3.353,-1.283 z"
     id="path870" />
  <path
     style="fill:#ffffff;fill-opacity:0.75"
     inkscape:connector-curvature="0"
     d="m 158.86913,103.45172 c 0,0 1.449,-1.595 2.425,-1.651 1.207,-0.069 3.21,1.686 3.21,1.686 0,0 2.7,0.084 3.495,0.999 0.677,0.779 0.427,3.067 0.427,3.067 0,0 2.012,1.498 2.069,2.606 0.06,1.168 -1.89,2.957 -1.89,2.957 0,0 0.049,2.423 -0.713,3.21 -0.7,0.723 -2.925,0.749 -2.925,0.749 0,0 -1.717,2.095 -2.924,2.14 -1.345,0.049 -3.424,-2.14 -3.424,-2.14 -1.971,0.196 -3.517,-0.456 -4.35,-1.783 -0.446,-0.71 0.15,-2.51 0.15,-2.51 0,0 -1.433,-1.135 -1.47,-1.948 -0.057,-1.259 1.997,-3.21 1.997,-3.21 0,0 -0.062,-2.138 0.57,-2.888 0.772,-0.916 3.353,-1.284 3.353,-1.284 z"
     id="path872" />
  <path
     style="fill:#ffffff;fill-opacity:0.75"
     inkscape:connector-curvature="0"
     d="m 169.10613,99.004718 c 0,0 1.448,-1.594 2.425,-1.65 1.206,-0.069 3.21,1.686 3.21,1.686 0,0 2.7,0.084 3.494,0.999002 0.677,0.779 0.428,3.067 0.428,3.067 0,0 2.012,1.498 2.068,2.606 0.06,1.168 -1.89,2.957 -1.89,2.957 0,0 0.05,2.422 -0.713,3.21 -0.7,0.723 -2.924,0.749 -2.924,0.749 0,0 -1.717,2.095 -2.925,2.14 -1.344,0.049 -3.423,-2.14 -3.423,-2.14 -1.972,0.196 -3.517,-0.456 -4.35,-1.783 -0.447,-0.71 0.15,-2.51 0.15,-2.51 0,0 -1.434,-1.135 -1.47,-1.948 -0.057,-1.26 1.997,-3.21 1.997,-3.21 0,0 -0.062,-2.138 0.57,-2.889 0.771,-0.915002 3.353,-1.283002 3.353,-1.283002 z"
     id="path874" />
  <path
     style="fill:#728dbe"
     inkscape:connector-curvature="0"
     d="m 179.91513,97.541718 2.471,1.967 c -0.748,2.243002 -1.708,4.443002 -3.127,6.552002 -2.854,-0.244 -4.38,-1.61 -5.497,-3.324 z m -4.59,-4.747 -1.967,-2.472 c -2.243,0.749 -4.443,1.709 -6.552,3.127 0.244,2.854 1.61,4.38 3.324,5.498 z"
     id="path878" />
  <path
     style="fill:#56595b"
     inkscape:connector-curvature="0"
     d="m 179.76713,84.488718 -12.51,15.666002 5.424,5.536 15.555,-12.510002 c 0,0 7.9,-6.05 2.879,-11.072 -4.504,-4.504 -11.348,2.38 -11.348,2.38 z"
     id="path880" />
  <path
     style="fill:#728dbe"
     inkscape:connector-curvature="0"
     d="m 179.76713,84.488718 8.469,8.691 c 0,0 7.9,-6.05 2.879,-11.071 -4.504,-4.504 -11.349,2.38 -11.349,2.38 z"
     id="path882" />
</svg>
