<?xml version="1.0" encoding="UTF-8" standalone="no"?>
<svg
   xmlns:dc="http://purl.org/dc/elements/1.1/"
   xmlns:cc="http://creativecommons.org/ns#"
   xmlns:rdf="http://www.w3.org/1999/02/22-rdf-syntax-ns#"
   xmlns:svg="http://www.w3.org/2000/svg"
   xmlns="http://www.w3.org/2000/svg"
   xmlns:sodipodi="http://sodipodi.sourceforge.net/DTD/sodipodi-0.dtd"
   xmlns:inkscape="http://www.inkscape.org/namespaces/inkscape"
   viewBox="0 0 272 272"
   version="1.1"
   id="svg16"
   sodipodi:docname="_2do_fg.svg"
   inkscape:version="0.92.4 (5da689c313, 2019-01-14)"
   width="272"
   height="272">
  <metadata
     id="metadata20">
    <rdf:RDF>
      <cc:Work
         rdf:about="">
        <dc:format>image/svg+xml</dc:format>
        <dc:type
           rdf:resource="http://purl.org/dc/dcmitype/StillImage" />
        <dc:title></dc:title>
      </cc:Work>
    </rdf:RDF>
  </metadata>
  <sodipodi:namedview
     pagecolor="#ffffff"
     bordercolor="#666666"
     borderopacity="1"
     objecttolerance="10"
     gridtolerance="10"
     guidetolerance="10"
     inkscape:pageopacity="0"
     inkscape:pageshadow="2"
     inkscape:window-width="1920"
     inkscape:window-height="1017"
     id="namedview18"
     showgrid="true"
     inkscape:zoom="10.153361"
     inkscape:cx="19.75687"
     inkscape:cy="127.80408"
     inkscape:window-x="-8"
     inkscape:window-y="-8"
     inkscape:window-maximized="1"
     inkscape:current-layer="svg16"
     inkscape:snap-global="true">
    <inkscape:grid
       type="xygrid"
       id="grid827"
       spacingx="4"
       spacingy="4" />
  </sodipodi:namedview>
  <defs
     id="defs4">
    <style
       id="style2">.a{fill:none;stroke:#b1b5bd;stroke-linecap:round;stroke-linejoin:round;isolation:isolate;opacity:0.63;}</style>
    <style
       id="style2-7">.a{fill:none;stroke:#b1b5bd;stroke-linecap:round;stroke-linejoin:round;isolation:isolate;opacity:0.63;}</style>
  </defs>
  <path
     style="clip-rule:evenodd;fill:#56595b;fill-rule:evenodd"
     inkscape:connector-curvature="0"
     d="m 97.568,135.90424 c -0.898,0.699 -1.036,2 -0.3,2.869 2.698,3.184 8.77,10.365 11.8,14.076 2.79,3.417 6.9,8.667 9.094,11.484 a 2.005,2.005 0 0 0 3.107,0.073 c 3.778,-4.415 13.494,-15.681 20.689,-23.263 7.847,-8.268 25.962,-26.131 30.862,-30.953 a 1.983,1.983 0 0 0 0.179,-2.623 l -0.48,-0.635 a 1.986,1.986 0 0 0 -2.715,-0.446 c -4.945,3.41 -20.375,14.093 -27.846,19.813 -7.232,5.538 -16.848,13.959 -20.3,17.013 a 2.005,2.005 0 0 1 -2.631,0.024 689.574,689.574 0 0 0 -5.69,-4.804 c -1.377,-1.137 -5.938,-4.817 -8.156,-6.605 a 1.998,1.998 0 0 0 -2.482,-0.02 z"
     id="path824" />
</svg>
