<?xml version="1.0" encoding="UTF-8" standalone="no"?>
<svg
   xmlns:dc="http://purl.org/dc/elements/1.1/"
   xmlns:cc="http://creativecommons.org/ns#"
   xmlns:rdf="http://www.w3.org/1999/02/22-rdf-syntax-ns#"
   xmlns:svg="http://www.w3.org/2000/svg"
   xmlns="http://www.w3.org/2000/svg"
   xmlns:sodipodi="http://sodipodi.sourceforge.net/DTD/sodipodi-0.dtd"
   xmlns:inkscape="http://www.inkscape.org/namespaces/inkscape"
   viewBox="0 0 272 272"
   version="1.1"
   id="svg16"
   sodipodi:docname="_2gis_fg.svg"
   inkscape:version="0.92.4 (5da689c313, 2019-01-14)"
   width="272"
   height="272">
  <metadata
     id="metadata20">
    <rdf:RDF>
      <cc:Work
         rdf:about="">
        <dc:format>image/svg+xml</dc:format>
        <dc:type
           rdf:resource="http://purl.org/dc/dcmitype/StillImage" />
        <dc:title></dc:title>
      </cc:Work>
    </rdf:RDF>
  </metadata>
  <sodipodi:namedview
     pagecolor="#ffffff"
     bordercolor="#666666"
     borderopacity="1"
     objecttolerance="10"
     gridtolerance="10"
     guidetolerance="10"
     inkscape:pageopacity="0"
     inkscape:pageshadow="2"
     inkscape:window-width="1920"
     inkscape:window-height="1017"
     id="namedview18"
     showgrid="true"
     inkscape:zoom="2.9945397"
     inkscape:cx="140.17675"
     inkscape:cy="127.24246"
     inkscape:window-x="-8"
     inkscape:window-y="-8"
     inkscape:window-maximized="1"
     inkscape:current-layer="svg16"
     inkscape:snap-global="true">
    <inkscape:grid
       type="xygrid"
       id="grid827"
       spacingx="4"
       spacingy="4" />
  </sodipodi:namedview>
  <defs
     id="defs4">
    <style
       id="style2">.a{fill:none;stroke:#b1b5bd;stroke-linecap:round;stroke-linejoin:round;isolation:isolate;opacity:0.63;}</style>
  </defs>
  <path
     sodipodi:nodetypes="ccccccczcccccccc"
     inkscape:connector-curvature="0"
     d="m 137.365,85.881 c -16.929,-0.22356 -36.586,13.758 -35.535,36.289 0.25278,5.4212 1.976,11.077 3.6621,15.254 1.0663,2.6412 2.3001,6.1169 6.3047,6.1016 2.9784,-0.0114 5.9477,0.8104 8.7461,1.8301 4.2392,1.5447 5.0256,6.282 5.6934,9.5606 2.0443,10.037 5.0859,29.24241 5.0859,29.24241 0,0 0.10534,2.96059 5.1275,2.96059 5.02216,0 5.1275,-2.96059 5.1275,-2.96059 0,0 3.0396,-19.20541 5.084,-29.24241 0.66778,-3.2785 1.4561,-8.0159 5.6953,-9.5606 2.7984,-1.0197 5.7677,-1.8415 8.7461,-1.8301 4.0046,0.0154 5.2384,-3.4604 6.3047,-6.1016 1.6861,-4.1765 3.4093,-9.8327 3.6621,-15.254 1.0506,-22.531 -17.197,-36.071 -33.705,-36.289 z"
     style="fill:#ffffff"
     id="path822" />
  <path
     inkscape:connector-curvature="0"
     d="m 136.203,91.457 c -15.069,-0.47238 -27.555,13.73 -28.272,27.051 -0.53395,9.925 3.8652,18.713 3.8652,18.713 0,0 12.002,1.8591 14.033,4.2703 8.0707,9.5792 10.779,37.628 10.779,37.628 0,0 2.7105,-28.659 10.781,-38.238 2.0315,-2.4112 14.033,-3.6602 14.033,-3.6602 0,0 4.3992,-8.7879 3.8652,-18.713 -0.71662,-13.32 -12.998,-26.547 -29.086,-27.051 z"
     style="fill:#9abeff"
     id="path824" />
</svg>
