<?xml version="1.0" encoding="UTF-8" standalone="no"?>
<svg
   xmlns:dc="http://purl.org/dc/elements/1.1/"
   xmlns:cc="http://creativecommons.org/ns#"
   xmlns:rdf="http://www.w3.org/1999/02/22-rdf-syntax-ns#"
   xmlns:svg="http://www.w3.org/2000/svg"
   xmlns="http://www.w3.org/2000/svg"
   xmlns:sodipodi="http://sodipodi.sourceforge.net/DTD/sodipodi-0.dtd"
   xmlns:inkscape="http://www.inkscape.org/namespaces/inkscape"
   viewBox="0 0 272 272"
   version="1.1"
   id="svg16"
   sodipodi:docname="_30_day_fitness_challenge_fg.svg"
   inkscape:version="0.92.4 (5da689c313, 2019-01-14)"
   width="272"
   height="272">
  <metadata
     id="metadata20">
    <rdf:RDF>
      <cc:Work
         rdf:about="">
        <dc:format>image/svg+xml</dc:format>
        <dc:type
           rdf:resource="http://purl.org/dc/dcmitype/StillImage" />
        <dc:title></dc:title>
      </cc:Work>
    </rdf:RDF>
  </metadata>
  <sodipodi:namedview
     pagecolor="#ffffff"
     bordercolor="#666666"
     borderopacity="1"
     objecttolerance="10"
     gridtolerance="10"
     guidetolerance="10"
     inkscape:pageopacity="0"
     inkscape:pageshadow="2"
     inkscape:window-width="1920"
     inkscape:window-height="1017"
     id="namedview18"
     showgrid="true"
     inkscape:zoom="5.9890793"
     inkscape:cx="133.0166"
     inkscape:cy="120.81651"
     inkscape:window-x="-8"
     inkscape:window-y="-8"
     inkscape:window-maximized="1"
     inkscape:current-layer="svg16"
     inkscape:snap-global="false">
    <inkscape:grid
       type="xygrid"
       id="grid827"
       spacingx="4"
       spacingy="4" />
  </sodipodi:namedview>
  <defs
     id="defs4">
    <style
       id="style2">.a{fill:none;stroke:#b1b5bd;stroke-linecap:round;stroke-linejoin:round;isolation:isolate;opacity:0.63;}</style>
  </defs>
  <path
     style="clip-rule:evenodd;fill:none;stroke:#728dbe;stroke-width:5"
     inkscape:connector-curvature="0"
     d="m 136.26387,174.66606 c 21.263,0 38.5,-17.237 38.5,-38.5 0,-21.263 -17.237,-38.500001 -38.5,-38.500001 -21.263,0 -38.500002,17.237001 -38.500002,38.500001 0,21.263 17.237002,38.5 38.500002,38.5 z"
     id="path820" />
  <path
     style="clip-rule:evenodd;fill:#9abeff;fill-rule:evenodd"
     inkscape:connector-curvature="0"
     d="m 109.76387,121 c 6.075,0 11,-4.925 11,-11 0,-6.075 -4.925,-11 -11,-11 -6.075,0 -11.000002,4.925 -11.000002,11 0,6.075 4.925002,11 11.000002,11 z"
     id="path822" />
  <path
     style="fill:#9abeff"
     inkscape:connector-curvature="0"
     d="m 126.34287,134.73712 8.64,-10.845 h -18.27 v 5.085 h 8.505 l -7.56,9.9 h 8.054 c 1.98,0 3.376,1.35 3.376,3.42 0,2.025 -1.35,3.555 -3.465,3.555 -1.71,0 -3.195,-1.08 -3.195,-2.52 l -5.716,0.09 c 0,4.365 4.006,7.83 8.91,7.83 5.175,0 9.135,-3.915 9.135,-8.775 0,-5.085 -3.69,-7.785 -8.414,-7.74 z m 23.003,16.515 c 6.66,0 10.08,-5.625 10.08,-13.86 0,-8.235 -3.42,-13.86 -10.08,-13.86 -6.75,0 -10.125,5.625 -10.125,13.86 0,8.235 3.375,13.86 10.125,13.86 z m 0,-5.085 c -3.285,0 -4.365,-3.51 -4.365,-8.775 0,-5.265 1.08,-8.775 4.365,-8.775 3.24,0 4.32,3.51 4.32,8.775 0,5.265 -1.08,8.775 -4.32,8.775 z"
     id="path824" />
</svg>
