<?xml version="1.0" encoding="UTF-8" standalone="no"?>
<svg
   xmlns:dc="http://purl.org/dc/elements/1.1/"
   xmlns:cc="http://creativecommons.org/ns#"
   xmlns:rdf="http://www.w3.org/1999/02/22-rdf-syntax-ns#"
   xmlns:svg="http://www.w3.org/2000/svg"
   xmlns="http://www.w3.org/2000/svg"
   xmlns:sodipodi="http://sodipodi.sourceforge.net/DTD/sodipodi-0.dtd"
   xmlns:inkscape="http://www.inkscape.org/namespaces/inkscape"
   viewBox="0 0 272 272"
   version="1.1"
   id="svg16"
   sodipodi:docname="_365scores_fg.svg"
   inkscape:version="0.92.4 (5da689c313, 2019-01-14)"
   width="272"
   height="272">
  <metadata
     id="metadata20">
    <rdf:RDF>
      <cc:Work
         rdf:about="">
        <dc:format>image/svg+xml</dc:format>
        <dc:type
           rdf:resource="http://purl.org/dc/dcmitype/StillImage" />
        <dc:title></dc:title>
      </cc:Work>
    </rdf:RDF>
  </metadata>
  <sodipodi:namedview
     pagecolor="#ffffff"
     bordercolor="#666666"
     borderopacity="1"
     objecttolerance="10"
     gridtolerance="10"
     guidetolerance="10"
     inkscape:pageopacity="0"
     inkscape:pageshadow="2"
     inkscape:window-width="1920"
     inkscape:window-height="1017"
     id="namedview18"
     showgrid="true"
     inkscape:zoom="2.9945397"
     inkscape:cx="121.04456"
     inkscape:cy="139.70708"
     inkscape:window-x="-8"
     inkscape:window-y="-8"
     inkscape:window-maximized="1"
     inkscape:current-layer="svg16"
     inkscape:snap-global="false">
    <inkscape:grid
       type="xygrid"
       id="grid827"
       spacingx="4"
       spacingy="4" />
  </sodipodi:namedview>
  <defs
     id="defs4">
    <style
       id="style2">.a{fill:none;stroke:#b1b5bd;stroke-linecap:round;stroke-linejoin:round;isolation:isolate;opacity:0.63;}</style>
  </defs>
  <path
     style="fill:#9abeff"
     inkscape:connector-curvature="0"
     d="m 105.39267,131.76182 11.52,-14.64 h -22.92 v 5.34 h 12.6 l -10.74,13.98 h 9.72 c 3.3,0 5.88,2.22 5.88,5.58 0,3.42 -2.52,6.06 -5.94,6.06 -3.06,0 -5.7,-2.16 -5.7,-4.98 l -5.82,0.06 c 0,5.82 5.16,10.44 11.46,10.44 6.66,0 11.7,-5.1 11.7,-11.34 0,-6.6 -5.22,-10.74 -11.76,-10.5 z m 44.66833,9.06 c -0.12,-6.78 -5.88,-11.64 -11.64,-12.06 -0.72,0 -1.44,0.06 -2.04,0.18 l 9.539,-11.82 h -6.84 l -12.06,15.96 c -1.74,2.4 -3.06,5.16 -2.94,8.34 0.12,6.9 6.06,12.3 13.26,12.12 7.02,-0.18 12.84,-5.7 12.72,-12.72 z m -12.72,7.56 c -4.38,0.12 -7.44,-2.82 -7.62,-6.96 -0.12,-4.32 2.76,-7.62 7.08,-7.8 4.32,-0.12 7.5,2.94 7.62,7.26 0.18,4.08 -2.76,7.32 -7.08,7.5 z m 30.83454,-19.38 c -2.7,0 -4.98,0.84 -6.78,2.28 l 1.02,-8.7 h 14.88 v -5.34 h -19.62 l -1.8,16.98 4.68,2.88 c 1.56,-1.68 3.9,-2.76 6.24,-2.76 3.9,0 6.96,2.88 6.96,6.96 0,3.84 -2.88,6.84 -7.68,6.84 -3.36,0 -7.38,-1.08 -10.32,-5.1 h -0.84 l -0.54,5.94 c 2.52,2.76 7.44,4.62 12,4.62 7.86,0 13.14,-5.28 13.14,-12.54 0,-6.9 -4.68,-12.06 -11.34,-12.06 z"
     id="path820"
     sodipodi:nodetypes="ccccccsssccssccccccccccccccccscccccccssscccsss" />
  <path
     style="fill:#f9de81"
     inkscape:connector-curvature="0"
     d="m 95,158 h 24 v 3 H 95 Z"
     id="path822" />
  <path
     style="fill:#98dc9a"
     inkscape:connector-curvature="0"
     d="m 125,158 h 24 v 3 h -24 z"
     id="path824" />
  <path
     style="fill:#ff837d"
     inkscape:connector-curvature="0"
     d="m 155,158 h 24 v 3 h -24 z"
     id="path826" />
</svg>
