<?xml version="1.0" encoding="UTF-8" standalone="no"?>
<svg
   xmlns:dc="http://purl.org/dc/elements/1.1/"
   xmlns:cc="http://creativecommons.org/ns#"
   xmlns:rdf="http://www.w3.org/1999/02/22-rdf-syntax-ns#"
   xmlns:svg="http://www.w3.org/2000/svg"
   xmlns="http://www.w3.org/2000/svg"
   xmlns:sodipodi="http://sodipodi.sourceforge.net/DTD/sodipodi-0.dtd"
   xmlns:inkscape="http://www.inkscape.org/namespaces/inkscape"
   viewBox="0 0 272 272"
   version="1.1"
   id="svg16"
   sodipodi:docname="_3c_aio_toolbox_fg.svg"
   inkscape:version="0.92.4 (5da689c313, 2019-01-14)"
   width="272"
   height="272">
  <metadata
     id="metadata20">
    <rdf:RDF>
      <cc:Work
         rdf:about="">
        <dc:format>image/svg+xml</dc:format>
        <dc:type
           rdf:resource="http://purl.org/dc/dcmitype/StillImage" />
        <dc:title></dc:title>
      </cc:Work>
    </rdf:RDF>
  </metadata>
  <sodipodi:namedview
     pagecolor="#ffffff"
     bordercolor="#666666"
     borderopacity="1"
     objecttolerance="10"
     gridtolerance="10"
     guidetolerance="10"
     inkscape:pageopacity="0"
     inkscape:pageshadow="2"
     inkscape:window-width="1920"
     inkscape:window-height="1017"
     id="namedview18"
     showgrid="true"
     inkscape:zoom="2.5383403"
     inkscape:cx="19.75687"
     inkscape:cy="101.08879"
     inkscape:window-x="-8"
     inkscape:window-y="-8"
     inkscape:window-maximized="1"
     inkscape:current-layer="svg16"
     inkscape:snap-global="false">
    <inkscape:grid
       type="xygrid"
       id="grid827"
       spacingx="4"
       spacingy="4" />
  </sodipodi:namedview>
  <defs
     id="defs4">
    <style
       id="style2">.a{fill:none;stroke:#b1b5bd;stroke-linecap:round;stroke-linejoin:round;isolation:isolate;opacity:0.63;}</style>
    <style
       id="style2-9">.a{fill:none;stroke:#b1b5bd;stroke-linecap:round;stroke-linejoin:round;isolation:isolate;opacity:.63}</style>
  </defs>
  <path
     inkscape:connector-curvature="0"
     id="rect4182"
     d="m 125.8208,108.62908 a 1.2924707,1.2924707 0 0 0 -0.89168,0.37435 c -0.50244,0.49253 -0.52723,1.27677 -0.0545,1.76021 l 2.80641,2.8626 a 13.64697,13.64697 0 0 0 -2.37503,2.18498 l -0.002,-0.005 c -1.95441,2.27835 -3.13035,5.19799 -3.13035,8.3928 v 0.49583 h 27.58317 v -0.49583 c 0,-4.33771 -2.16514,-8.16306 -5.50705,-10.57281 l 2.80476,-2.86343 c 0.47269,-0.48261 0.44956,-1.26685 -0.0537,-1.75938 -0.50244,-0.49253 -1.2875,-0.49996 -1.7602,-0.0173 l -3.25018,3.31629 a 14.248581,14.248581 0 0 0 -6.0252,-1.33462 c -2.16679,0 -4.20466,0.48757 -6.02519,1.33462 l -3.25018,-3.31629 a 1.1924778,1.1924778 0 0 0 -0.86937,-0.35783 z m -9.41504,18.21607 c -1.94367,0 -3.50884,1.50237 -3.50884,3.36753 v 16.53271 c 0,1.86433 1.56517,3.36505 3.50884,3.36505 1.94283,0 3.50636,-1.50072 3.50636,-3.36505 v -16.53271 c 0,-1.86516 -1.56353,-3.36753 -3.50636,-3.36753 z m 39.11955,0 c -1.94283,0 -3.50719,1.50237 -3.50719,3.36753 v 16.53271 c 0,0.0992 0.0215,0.19172 0.0298,0.28924 0.15454,1.7255 1.63791,3.07581 3.47744,3.07581 1.94367,0 3.50885,-1.50072 3.50885,-3.36505 v -16.53271 c 0,-1.86516 -1.56518,-3.36753 -3.50885,-3.36753 z m -33.35136,0.15122 v 23.14961 c 0,1.14207 1.00488,2.06184 2.25356,2.06184 h 2.24942 v 8.22091 c 0,1.73045 1.33627,3.14771 3.09896,3.34521 l 8.3e-4,-0.0182 c 0.13553,0.0157 0.26857,0.0397 0.40906,0.0397 1.94283,0 3.50719,-1.50155 3.50719,-3.3667 v -8.22089 h 4.54595 v 8.22091 c 0,1.86515 1.56353,3.3667 3.50637,3.3667 1.94367,0 3.50885,-1.50155 3.50885,-3.3667 v -8.22091 h 2.24942 c 1.24785,0 2.25356,-0.91977 2.25356,-2.06184 V 126.9964 h -21.87696 z"
     style="fill:#ffffff;fill-opacity:1;stroke:none;stroke-width:1.30369699;stroke-linecap:round;stroke-linejoin:round;stroke-miterlimit:4;stroke-dasharray:none;stroke-opacity:1" />
  <circle
     id="path892"
     cx="130.99977"
     cy="118.42343"
     r="1.5213802"
     style="fill:#9abeff;fill-opacity:1;stroke:none;stroke-width:0.08297574" />
  <circle
     id="circle894"
     cx="141.26682"
     cy="118.42343"
     r="1.5213802"
     style="fill:#9abeff;fill-opacity:1;stroke:none;stroke-width:0.08297574" />
  <path
     inkscape:connector-curvature="0"
     id="path849"
     d="m 136.20601,188.67466 c 20.02834,0 37.31804,-11.1273 46.21988,-27.56003 l -14.37915,-7.70359 c -5.99131,11.29755 -17.97476,18.65901 -31.84073,18.65901 -20.19939,0 -36.11975,-15.7493 -36.11975,-36.11976 0,-20.37046 15.92036,-36.119757 36.11975,-36.119757 13.86597,0 25.84942,7.360627 31.84073,18.658997 l 14.37915,-7.70358 c -8.90184,-16.433545 -26.19154,-27.560032 -46.21988,-27.560032 -29.10124,0 -52.724364,23.623122 -52.724364,52.723542 0,29.10208 23.623124,52.7252 52.724364,52.7252 z"
     style="font-style:normal;font-variant:normal;font-weight:500;font-stretch:normal;font-size:168.37748718px;line-height:1.25;font-family:Now;-inkscape-font-specification:'Now Medium';letter-spacing:0;word-spacing:0;fill:#ffffff;fill-opacity:1;stroke:none;stroke-width:3.42367816" />
</svg>
