<?xml version="1.0" encoding="UTF-8" standalone="no"?>
<svg
   xmlns:dc="http://purl.org/dc/elements/1.1/"
   xmlns:cc="http://creativecommons.org/ns#"
   xmlns:rdf="http://www.w3.org/1999/02/22-rdf-syntax-ns#"
   xmlns:svg="http://www.w3.org/2000/svg"
   xmlns="http://www.w3.org/2000/svg"
   xmlns:sodipodi="http://sodipodi.sourceforge.net/DTD/sodipodi-0.dtd"
   xmlns:inkscape="http://www.inkscape.org/namespaces/inkscape"
   viewBox="0 0 272 272"
   version="1.1"
   id="svg16"
   sodipodi:docname="_3c_task_manager_fg.svg"
   inkscape:version="0.92.4 (5da689c313, 2019-01-14)"
   width="272"
   height="272">
  <metadata
     id="metadata20">
    <rdf:RDF>
      <cc:Work
         rdf:about="">
        <dc:format>image/svg+xml</dc:format>
        <dc:type
           rdf:resource="http://purl.org/dc/dcmitype/StillImage" />
        <dc:title></dc:title>
      </cc:Work>
    </rdf:RDF>
  </metadata>
  <sodipodi:namedview
     pagecolor="#ffffff"
     bordercolor="#666666"
     borderopacity="1"
     objecttolerance="10"
     gridtolerance="10"
     guidetolerance="10"
     inkscape:pageopacity="0"
     inkscape:pageshadow="2"
     inkscape:window-width="1920"
     inkscape:window-height="1017"
     id="namedview18"
     showgrid="true"
     inkscape:zoom="10.153361"
     inkscape:cx="19.75687"
     inkscape:cy="101.08879"
     inkscape:window-x="-8"
     inkscape:window-y="-8"
     inkscape:window-maximized="1"
     inkscape:current-layer="svg16"
     inkscape:snap-global="false">
    <inkscape:grid
       type="xygrid"
       id="grid827"
       spacingx="4"
       spacingy="4" />
  </sodipodi:namedview>
  <defs
     id="defs4">
    <style
       id="style2">.a{fill:none;stroke:#b1b5bd;stroke-linecap:round;stroke-linejoin:round;isolation:isolate;opacity:0.63;}</style>
    <style
       id="style2-9">.a{fill:none;stroke:#b1b5bd;stroke-linecap:round;stroke-linejoin:round;isolation:isolate;opacity:.63}</style>
    <style
       id="style2-7">.a{fill:none;stroke:#b1b5bd;stroke-linecap:round;stroke-linejoin:round;isolation:isolate;opacity:.63}</style>
    <style
       id="style2-0">.a{fill:none;stroke:#b1b5bd;stroke-linecap:round;stroke-linejoin:round;isolation:isolate;opacity:.63}</style>
  </defs>
  <path
     inkscape:connector-curvature="0"
     id="path849-6"
     d="m 136.26576,188.60849 c 20.02885,0 37.31901,-11.1276 46.22109,-27.56076 l -14.37953,-7.70379 c -5.99147,11.29785 -17.97523,18.6595 -31.84156,18.6595 -20.19994,0 -36.12072,-15.74971 -36.12072,-36.1207 0,-20.371 15.92078,-36.120719 36.12072,-36.120719 13.86633,0 25.85009,7.360829 31.84156,18.659509 l 14.37953,-7.70379 c -8.90208,-16.433988 -26.19224,-27.560767 -46.22109,-27.560767 -29.10202,0 -52.725767,23.623747 -52.725767,52.724927 0,29.10285 23.623747,52.72659 52.725767,52.72659 z"
     style="font-style:normal;font-variant:normal;font-weight:500;font-stretch:normal;font-size:168.37748718px;line-height:1.25;font-family:Now;-inkscape-font-specification:'Now Medium';letter-spacing:0;word-spacing:0;fill:#ffffff;fill-opacity:1;stroke:none;stroke-width:3.42376781" />
  <path
     inkscape:connector-curvature="0"
     id="path2"
     d="m 130.59223,159.40684 c -0.56247,0.5093 -1.5686,0.64888 -2.24739,0.31156 l -5.19515,-2.57888 c -0.67879,-0.33732 -1.19058,-1.22298 -1.14322,-1.98069 l 0.1886,-2.98018 c 0.0474,-0.75605 -0.29827,-1.84858 -0.77184,-2.43764 l -1.39329,-1.7356 c -0.47358,-0.58988 -1.46226,-1.16648 -2.21499,-1.28861 l -2.69187,-0.43867 c -0.74858,-0.1213 -1.48137,-0.82169 -1.6359,-1.56196 l -1.24125,-5.96117 c -0.15454,-0.7411 0.22432,-1.69323 0.84495,-2.12692 l 1.99979,-1.39828 c 0.62146,-0.43452 1.25704,-1.38914 1.41906,-2.12691 l 0.52508,-2.39527 c 0.16284,-0.73944 -0.007,-1.87684 -0.3772,-2.53569 l -1.05681,-1.88016 c -0.37055,-0.6605 -0.28248,-1.67245 0.19691,-2.25984 l 4.02452,-4.92431 c 0.47939,-0.58739 1.45893,-0.88898 2.18507,-0.6738 l 1.81453,0.53672 c 0.72697,0.21435 1.86935,0.11797 2.55063,-0.21602 l 2.47254,-1.21301 c 0.68128,-0.33399 1.46558,-1.17561 1.75055,-1.876 l 0.67297,-1.65584 c 0.28414,-0.70205 1.13158,-1.27365 1.88847,-1.27698 l 6.42394,-0.0266 c 0.75855,-0.003 1.60516,0.56496 1.89013,1.26701 l 0.65802,1.62094 c 0.2858,0.70288 1.07176,1.54035 1.75387,1.86936 l 2.62375,1.26285 c 0.68294,0.32818 1.82865,0.4204 2.55313,0.20605 l 1.82366,-0.53921 c 0.72698,-0.21518 1.70735,0.0839 2.19089,0.67048 l 3.96886,4.80633 c 0.48271,0.5849 0.57327,1.59601 0.20189,2.25735 l -1.03604,1.84277 c -0.37138,0.66134 -0.54004,1.79791 -0.37637,2.53568 l 0.60651,2.73758 c 0.16284,0.73943 0.79759,1.68907 1.41905,2.12359 l 1.98733,1.38914 c 0.62063,0.43369 0.997,1.38831 0.8408,2.12941 l -1.21882,5.79584 c -0.1562,0.74193 -0.89148,1.44314 -1.63756,1.56445 l -2.68772,0.43784 c -0.74775,0.1213 -1.74058,0.6954 -2.21831,1.28529 l -1.57774,1.94413 c -0.47689,0.5874 -0.82501,1.67744 -0.77682,2.43183 l 0.18527,2.94611 c 0.0482,0.75522 -0.46692,1.63756 -1.1457,1.96823 l -5.15279,2.50992 c -0.68128,0.33233 -1.68907,0.18694 -2.24987,-0.32153 L 139.9008,157.358 c -0.56247,-0.50929 -1.6334,-0.88649 -2.38696,-0.84245 l 0.32402,-0.0183 c -0.75605,0.044 -1.97903,0.0415 -2.74006,-0.006 l 0.16616,0.01 c -0.75771,-0.0473 -1.82532,0.32569 -2.38945,0.83664 z"
     style="fill:#ffffff;fill-rule:evenodd;stroke-width:0.27449787" />
  <circle
     id="circle6"
     cx="136.4695"
     cy="136.23427"
     r="9.9001236"
     style="fill:#9abeff;fill-rule:evenodd;stroke-width:0.28286815" />
</svg>
