<?xml version="1.0" encoding="UTF-8" standalone="no"?>
<svg
   xmlns:dc="http://purl.org/dc/elements/1.1/"
   xmlns:cc="http://creativecommons.org/ns#"
   xmlns:rdf="http://www.w3.org/1999/02/22-rdf-syntax-ns#"
   xmlns:svg="http://www.w3.org/2000/svg"
   xmlns="http://www.w3.org/2000/svg"
   xmlns:sodipodi="http://sodipodi.sourceforge.net/DTD/sodipodi-0.dtd"
   xmlns:inkscape="http://www.inkscape.org/namespaces/inkscape"
   viewBox="0 0 272 272"
   version="1.1"
   id="svg16"
   sodipodi:docname="_3d_geeks_fg.svg"
   inkscape:version="0.92.4 (5da689c313, 2019-01-14)"
   width="272"
   height="272">
  <metadata
     id="metadata20">
    <rdf:RDF>
      <cc:Work
         rdf:about="">
        <dc:format>image/svg+xml</dc:format>
        <dc:type
           rdf:resource="http://purl.org/dc/dcmitype/StillImage" />
        <dc:title></dc:title>
      </cc:Work>
    </rdf:RDF>
  </metadata>
  <sodipodi:namedview
     pagecolor="#ffffff"
     bordercolor="#666666"
     borderopacity="1"
     objecttolerance="10"
     gridtolerance="10"
     guidetolerance="10"
     inkscape:pageopacity="0"
     inkscape:pageshadow="2"
     inkscape:window-width="1920"
     inkscape:window-height="1017"
     id="namedview18"
     showgrid="true"
     inkscape:zoom="4.2349186"
     inkscape:cx="36.204625"
     inkscape:cy="120.81651"
     inkscape:window-x="-8"
     inkscape:window-y="-8"
     inkscape:window-maximized="1"
     inkscape:current-layer="svg16"
     inkscape:snap-global="true">
    <inkscape:grid
       type="xygrid"
       id="grid827"
       spacingx="4"
       spacingy="4" />
  </sodipodi:namedview>
  <defs
     id="defs4">
    <style
       id="style2">.a{fill:none;stroke:#b1b5bd;stroke-linecap:round;stroke-linejoin:round;isolation:isolate;opacity:0.63;}</style>
  </defs>
  <g
     style="opacity:1"
     id="g824"
     transform="matrix(3.7795276,0,0,3.7795276,-280.12346,-182.55497)">
    <path
       inkscape:connector-curvature="0"
       d="m 162.119,-28.32 h 10.097 c 1.486,0 3.092,1.277 3.092,2.12 v 3.713 c -0.906,3.05 -1.412,4.861 -2.422,6.109 -1.01,1.247 -2.191,1.725 -3.188,1.732 l -6.386,0.044 c -0.997,0.007 -2.992,-1.272 -3.753,-2.779 -0.486,-0.962 -0.993,-4.432 -1.04,-5.018 l -0.176,-2.233 c -0.116,-1.456 1.627,-3.688 3.776,-3.688 z"
       style="color:#000000;font-style:normal;font-variant:normal;font-weight:400;font-stretch:normal;font-size:medium;line-height:normal;font-family:sans-serif;font-variant-ligatures:normal;font-variant-position:normal;font-variant-caps:normal;font-variant-numeric:normal;font-variant-alternates:normal;font-feature-settings:normal;text-indent:0;text-align:start;text-decoration:none;text-decoration-line:none;text-decoration-style:solid;text-decoration-color:#000000;letter-spacing:normal;word-spacing:normal;text-transform:none;writing-mode:lr-tb;direction:ltr;text-orientation:mixed;dominant-baseline:auto;baseline-shift:baseline;text-anchor:start;white-space:normal;shape-padding:0;clip-rule:nonzero;display:inline;overflow:visible;visibility:visible;isolation:auto;mix-blend-mode:normal;color-interpolation:sRGB;color-interpolation-filters:linearRGB;solid-color:#000000;solid-opacity:1;vector-effect:none;fill:#97db99;fill-opacity:1;fill-rule:nonzero;stroke:none;stroke-width:0.079375;stroke-linecap:square;stroke-linejoin:miter;stroke-miterlimit:4;stroke-dasharray:none;stroke-dashoffset:0;stroke-opacity:1;color-rendering:auto;image-rendering:auto;shape-rendering:auto;text-rendering:auto;enable-background:accumulate"
       transform="matrix(0.65583,0,0,0.65583,-5.608,98.36)"
       id="path820" />
    <path
       inkscape:connector-curvature="0"
       d="m 162.12,-28.36 c -1.09,0 -2.07,0.565 -2.766,1.311 -0.696,0.746 -1.11,1.675 -1.051,2.42 l 0.177,2.234 c 0.024,0.298 0.162,1.31 0.356,2.372 0.194,1.062 0.438,2.166 0.687,2.66 0.385,0.762 1.079,1.462 1.801,1.972 0.723,0.51 1.473,0.832 1.988,0.829 l 6.385,-0.043 c 1.01,-0.007 2.205,-0.493 3.221,-1.749 1.017,-1.256 1.522,-3.073 2.428,-6.123 l 0.002,-0.003 v -3.72 c 0,-0.446 -0.413,-0.979 -1.006,-1.407 -0.593,-0.43 -1.37,-0.752 -2.125,-0.752 z m 0,0.08 h 10.097 c 0.732,0 1.498,0.317 2.08,0.737 0.581,0.42 0.97,0.947 0.97,1.344 v 3.707 c -0.904,3.046 -1.41,4.853 -2.412,6.09 -1.003,1.24 -2.173,1.71 -3.158,1.716 l -6.385,0.045 c -0.48,0.004 -1.229,-0.31 -1.943,-0.814 -0.714,-0.504 -1.4,-1.198 -1.775,-1.943 -0.237,-0.47 -0.487,-1.581 -0.68,-2.641 -0.193,-1.06 -0.333,-2.076 -0.355,-2.363 l -0.176,-2.233 c -0.056,-0.71 0.343,-1.625 1.027,-2.36 0.684,-0.733 1.648,-1.284 2.71,-1.284 z"
       style="color:#000000;font-style:normal;font-variant:normal;font-weight:400;font-stretch:normal;font-size:medium;line-height:normal;font-family:sans-serif;font-variant-ligatures:normal;font-variant-position:normal;font-variant-caps:normal;font-variant-numeric:normal;font-variant-alternates:normal;font-feature-settings:normal;text-indent:0;text-align:start;text-decoration:none;text-decoration-line:none;text-decoration-style:solid;text-decoration-color:#000000;letter-spacing:normal;word-spacing:normal;text-transform:none;writing-mode:lr-tb;direction:ltr;text-orientation:mixed;dominant-baseline:auto;baseline-shift:baseline;text-anchor:start;white-space:normal;shape-padding:0;clip-rule:nonzero;display:inline;overflow:visible;visibility:visible;isolation:auto;mix-blend-mode:normal;color-interpolation:sRGB;color-interpolation-filters:linearRGB;solid-color:#000000;solid-opacity:1;vector-effect:none;fill:#97db99;fill-opacity:1;fill-rule:nonzero;stroke:none;stroke-width:0.079375;stroke-linecap:square;stroke-linejoin:miter;stroke-miterlimit:4;stroke-dasharray:none;stroke-dashoffset:0;stroke-opacity:1;color-rendering:auto;image-rendering:auto;shape-rendering:auto;text-rendering:auto;enable-background:accumulate"
       transform="matrix(0.65583,0,0,0.65583,-5.608,98.36)"
       id="path822" />
  </g>
  <g
     style="opacity:1"
     id="g830"
     transform="matrix(3.7795276,0,0,3.7795276,-280.12346,-182.55497)">
    <path
       inkscape:connector-curvature="0"
       d="m 190.743,-28.32 h -10.097 c -1.487,0 -3.092,1.277 -3.092,2.12 v 3.713 c 0.906,3.05 1.412,4.861 2.422,6.109 1.01,1.247 2.19,1.725 3.188,1.732 l 6.386,0.044 c 0.997,0.007 2.992,-1.272 3.753,-2.779 0.485,-0.962 0.993,-4.432 1.04,-5.018 l 0.176,-2.233 c 0.115,-1.456 -1.627,-3.688 -3.776,-3.688 z"
       style="color:#000000;font-style:normal;font-variant:normal;font-weight:400;font-stretch:normal;font-size:medium;line-height:normal;font-family:sans-serif;font-variant-ligatures:normal;font-variant-position:normal;font-variant-caps:normal;font-variant-numeric:normal;font-variant-alternates:normal;font-feature-settings:normal;text-indent:0;text-align:start;text-decoration:none;text-decoration-line:none;text-decoration-style:solid;text-decoration-color:#000000;letter-spacing:normal;word-spacing:normal;text-transform:none;writing-mode:lr-tb;direction:ltr;text-orientation:mixed;dominant-baseline:auto;baseline-shift:baseline;text-anchor:start;white-space:normal;shape-padding:0;clip-rule:nonzero;display:inline;overflow:visible;visibility:visible;isolation:auto;mix-blend-mode:normal;color-interpolation:sRGB;color-interpolation-filters:linearRGB;solid-color:#000000;solid-opacity:1;vector-effect:none;fill:#97db99;fill-opacity:1;fill-rule:nonzero;stroke:none;stroke-width:0.079375;stroke-linecap:square;stroke-linejoin:miter;stroke-miterlimit:4;stroke-dasharray:none;stroke-dashoffset:0;stroke-opacity:1;color-rendering:auto;image-rendering:auto;shape-rendering:auto;text-rendering:auto;enable-background:accumulate"
       transform="matrix(0.65583,0,0,0.65583,-5.608,98.36)"
       id="path826" />
    <path
       inkscape:connector-curvature="0"
       d="m 180.646,-28.36 c -0.754,0 -1.534,0.324 -2.126,0.753 -0.593,0.428 -1.006,0.961 -1.006,1.408 v 3.719 l 0.002,0.003 c 0.905,3.05 1.412,4.866 2.43,6.123 1.015,1.256 2.209,1.742 3.218,1.749 l 6.385,0.042 c 0.516,0.004 1.265,-0.317 1.988,-0.828 0.723,-0.51 1.416,-1.21 1.8,-1.972 0.25,-0.494 0.497,-1.598 0.69,-2.66 0.194,-1.062 0.332,-2.074 0.356,-2.372 l 0.176,-2.234 c 0.059,-0.745 -0.353,-1.674 -1.05,-2.42 -0.695,-0.746 -1.679,-1.31 -2.767,-1.31 z m 0,0.08 h 10.096 c 1.06,0 2.025,0.552 2.71,1.286 0.683,0.734 1.085,1.648 1.028,2.36 l -0.177,2.232 c -0.023,0.287 -0.16,1.303 -0.354,2.363 -0.193,1.06 -0.445,2.172 -0.681,2.64 -0.377,0.746 -1.062,1.44 -1.776,1.944 -0.714,0.504 -1.46,0.818 -1.941,0.814 l -6.387,-0.045 c -0.985,-0.006 -2.155,-0.477 -3.158,-1.716 -1.001,-1.237 -1.508,-3.044 -2.412,-6.09 V -26.2 c 0,-0.397 0.391,-0.924 0.972,-1.344 0.582,-0.42 1.349,-0.736 2.08,-0.736 z"
       style="color:#000000;font-style:normal;font-variant:normal;font-weight:400;font-stretch:normal;font-size:medium;line-height:normal;font-family:sans-serif;font-variant-ligatures:normal;font-variant-position:normal;font-variant-caps:normal;font-variant-numeric:normal;font-variant-alternates:normal;font-feature-settings:normal;text-indent:0;text-align:start;text-decoration:none;text-decoration-line:none;text-decoration-style:solid;text-decoration-color:#000000;letter-spacing:normal;word-spacing:normal;text-transform:none;writing-mode:lr-tb;direction:ltr;text-orientation:mixed;dominant-baseline:auto;baseline-shift:baseline;text-anchor:start;white-space:normal;shape-padding:0;clip-rule:nonzero;display:inline;overflow:visible;visibility:visible;isolation:auto;mix-blend-mode:normal;color-interpolation:sRGB;color-interpolation-filters:linearRGB;solid-color:#000000;solid-opacity:1;vector-effect:none;fill:#97db99;fill-opacity:1;fill-rule:nonzero;stroke:none;stroke-width:0.079375;stroke-linecap:square;stroke-linejoin:miter;stroke-miterlimit:4;stroke-dasharray:none;stroke-dashoffset:0;stroke-opacity:1;color-rendering:auto;image-rendering:auto;shape-rendering:auto;text-rendering:auto;enable-background:accumulate"
       transform="matrix(0.65583,0,0,0.65583,-5.608,98.36)"
       id="path828" />
  </g>
  <path
     inkscape:connector-curvature="0"
     d="m 101.21392,126.39832 h 23.34961 c 1.25176,0 2.67703,1.13278 2.2606,2.38949 l -4.32538,13.167 c -0.46352,1.41288 -3.3091,3.64869 -4.56086,3.64869 h -13.05545 c -1.25424,0 -3.56937,-1.44262 -3.79742,-2.74643 l -2.379574,-13.65779 c -0.230521,-1.30381 1.254236,-2.80096 2.508474,-2.80096 z"
     style="fill:#56595b;fill-opacity:1;stroke:none;stroke-width:0.196749;stroke-linecap:square"
     id="path832" />
  <path
     inkscape:connector-curvature="0"
     d="m 170.79676,126.39832 h -23.34961 c -1.25176,0 -2.67703,1.13278 -2.26308,2.38949 l 4.32538,13.167 c 0.466,1.41288 3.3091,3.64869 4.56333,3.64869 h 13.05546 c 1.25424,0 3.56937,-1.44262 3.79741,-2.74643 l 2.37958,-13.65779 c 0.22805,-1.30381 -1.25423,-2.80096 -2.50847,-2.80096 z"
     style="fill:#56595b;fill-opacity:1;stroke:none;stroke-width:0.196749;stroke-linecap:square;stroke-opacity:1"
     id="path834" />
  <path
     inkscape:connector-curvature="0"
     d="m 134.68666,124.03609 h 2.63488 c 1.25424,0 2.26556,0.5825 2.26556,1.30629 v 9.2754 c 0,0.72379 -1.01132,-2.72164 -2.26556,-2.72164 h -2.63241 c -1.25423,0 -2.26307,3.44543 -2.26307,2.72164 v -9.2754 c 0,-0.72379 1.00884,-1.30629 2.26307,-1.30629 z"
     style="fill:#97db99;fill-opacity:1;stroke:#97db99;stroke-width:0.65582919;stroke-linecap:round;stroke-miterlimit:4;stroke-dasharray:none;stroke-opacity:1"
     id="path836" />
</svg>
