<?xml version="1.0" encoding="UTF-8" standalone="no"?>
<svg
   xmlns:dc="http://purl.org/dc/elements/1.1/"
   xmlns:cc="http://creativecommons.org/ns#"
   xmlns:rdf="http://www.w3.org/1999/02/22-rdf-syntax-ns#"
   xmlns:svg="http://www.w3.org/2000/svg"
   xmlns="http://www.w3.org/2000/svg"
   xmlns:sodipodi="http://sodipodi.sourceforge.net/DTD/sodipodi-0.dtd"
   xmlns:inkscape="http://www.inkscape.org/namespaces/inkscape"
   viewBox="0 0 272 272"
   version="1.1"
   id="svg16"
   sodipodi:docname="_3d_model_viewer_bg.svg"
   inkscape:version="0.92.4 (5da689c313, 2019-01-14)"
   width="272"
   height="272">
  <metadata
     id="metadata20">
    <rdf:RDF>
      <cc:Work
         rdf:about="">
        <dc:format>image/svg+xml</dc:format>
        <dc:type
           rdf:resource="http://purl.org/dc/dcmitype/StillImage" />
        <dc:title></dc:title>
      </cc:Work>
    </rdf:RDF>
  </metadata>
  <sodipodi:namedview
     pagecolor="#ffffff"
     bordercolor="#666666"
     borderopacity="1"
     objecttolerance="10"
     gridtolerance="10"
     guidetolerance="10"
     inkscape:pageopacity="0"
     inkscape:pageshadow="2"
     inkscape:window-width="1920"
     inkscape:window-height="1017"
     id="namedview18"
     showgrid="true"
     inkscape:zoom="2.1174593"
     inkscape:cx="36.204625"
     inkscape:cy="101.92595"
     inkscape:window-x="-8"
     inkscape:window-y="-8"
     inkscape:window-maximized="1"
     inkscape:current-layer="svg16"
     inkscape:snap-global="true">
    <inkscape:grid
       type="xygrid"
       id="grid827"
       spacingx="4"
       spacingy="4" />
  </sodipodi:namedview>
  <defs
     id="defs4">
    <style
       id="style2">.a{fill:none;stroke:#b1b5bd;stroke-linecap:round;stroke-linejoin:round;isolation:isolate;opacity:0.63;}</style>
    <style
       id="style2-6">.a{fill:none;stroke:#b1b5bd;stroke-linecap:round;stroke-linejoin:round;isolation:isolate;opacity:0.63;}</style>
  </defs>
  <path
     inkscape:connector-curvature="0"
     d="m 133.485,166.29635 -9.192,-9.193 -7.059,7.058 -2.12,-2.121 -29.359,29.358 c -3.71,3.71 -3.71,9.725 0,13.435 3.71,3.71 9.725,3.71 13.435,0 l 29.358,-29.358 -2.121,-2.121 z"
     style="clip-rule:evenodd;fill:#56595b;fill-rule:evenodd"
     id="path854" />
  <ellipse
     cx="153.701"
     cy="135.33435"
     rx="36.674"
     ry="36.098"
     style="opacity:0.25;fill:#ffffff;paint-order:stroke fill markers"
     id="ellipse856" />
  <path
     inkscape:connector-curvature="0"
     d="m 153.991,93.71735 c -10.631,0 -21.263,4.043 -29.346,12.125 -16.165,16.165 -16.165,42.525 0,58.689 16.165,16.165 42.525,16.165 58.689,0 16.166,-16.165 16.166,-42.525 0,-58.689 -8.082,-8.082 -18.713,-12.125 -29.344,-12.125 z m 0,9.938 c 8.051,0 16.102,3.086 22.273,9.257 a 31.423,31.423 0 0 1 0,44.547 v 0.002 a 31.424,31.424 0 0 1 -44.547,0 31.427,31.427 0 0 1 0,-44.549 c 6.172,-6.171 14.222,-9.258 22.273,-9.258 z"
     style="color:#000000;font-variant-ligatures:normal;font-variant-position:normal;font-variant-caps:normal;font-variant-numeric:normal;font-variant-alternates:normal;font-feature-settings:normal;text-indent:0;text-decoration:none;text-decoration-line:none;text-decoration-style:solid;text-decoration-color:#000000;text-transform:none;text-orientation:mixed;dominant-baseline:auto;white-space:normal;shape-padding:0;isolation:auto;mix-blend-mode:normal;solid-color:#000000;fill:#83868c;color-rendering:auto;image-rendering:auto;shape-rendering:auto"
     id="path858-5" />
</svg>
