<?xml version="1.0" encoding="UTF-8" standalone="no"?>
<svg
   xmlns:dc="http://purl.org/dc/elements/1.1/"
   xmlns:cc="http://creativecommons.org/ns#"
   xmlns:rdf="http://www.w3.org/1999/02/22-rdf-syntax-ns#"
   xmlns:svg="http://www.w3.org/2000/svg"
   xmlns="http://www.w3.org/2000/svg"
   xmlns:sodipodi="http://sodipodi.sourceforge.net/DTD/sodipodi-0.dtd"
   xmlns:inkscape="http://www.inkscape.org/namespaces/inkscape"
   viewBox="0 0 272 272"
   version="1.1"
   id="svg16"
   sodipodi:docname="_4_equals_10_fg.svg"
   inkscape:version="0.92.4 (5da689c313, 2019-01-14)"
   width="272"
   height="272">
  <metadata
     id="metadata20">
    <rdf:RDF>
      <cc:Work
         rdf:about="">
        <dc:format>image/svg+xml</dc:format>
        <dc:type
           rdf:resource="http://purl.org/dc/dcmitype/StillImage" />
        <dc:title></dc:title>
      </cc:Work>
    </rdf:RDF>
  </metadata>
  <sodipodi:namedview
     pagecolor="#ffffff"
     bordercolor="#666666"
     borderopacity="1"
     objecttolerance="10"
     gridtolerance="10"
     guidetolerance="10"
     inkscape:pageopacity="0"
     inkscape:pageshadow="2"
     inkscape:window-width="1920"
     inkscape:window-height="1017"
     id="namedview18"
     showgrid="true"
     inkscape:zoom="3.5897552"
     inkscape:cx="109.15928"
     inkscape:cy="128.12858"
     inkscape:window-x="-8"
     inkscape:window-y="-8"
     inkscape:window-maximized="1"
     inkscape:current-layer="svg16"
     inkscape:snap-global="false">
    <inkscape:grid
       type="xygrid"
       id="grid827"
       spacingx="4"
       spacingy="4" />
  </sodipodi:namedview>
  <defs
     id="defs4">
    <style
       id="style2">.a{fill:none;stroke:#b1b5bd;stroke-linecap:round;stroke-linejoin:round;isolation:isolate;opacity:0.63;}</style>
    <linearGradient
       gradientUnits="userSpaceOnUse"
       y2="-24.07"
       y1="171.29"
       x2="96"
       x1="96"
       id="b"
       gradientTransform="translate(39.498177,40.166059)">
      <stop
         id="stop818"
         stop-color="#9abeff"
         offset="0" />
      <stop
         id="stop820"
         stop-color="#54688c"
         offset="1" />
    </linearGradient>
    <clipPath
       id="a">
      <rect
         id="rect823"
         rx="10"
         fill="none"
         y="19.5"
         x="19.5"
         height="153"
         width="153" />
    </clipPath>
  </defs>
  <path
     style="fill:#54688c"
     inkscape:connector-curvature="0"
     d="m -10.892664,231.26162 75.310841,-67.59556 c 0.793818,-0.94172 2.082578,-1.30258 3.25,-0.91 l 31.83,10.69 c 0.798593,0.26831 1.673193,0.18847 2.410003,-0.22 l 19.7,-10.94 c 0.21059,-0.11886 0.43584,-0.20963 0.67,-0.27 l 30.22,-8.28 c 0.77146,-0.21262 1.59589,-0.10822 2.29,0.29 l 24.16,13.89 c 0.84017,0.49315 1.87007,0.5381 2.75,0.12 l 30.8,-14.27 c 1.87286,-0.86221 90.46153,61.06414 90.66433,63.11594 l -9.72698,77.75726 c 0.16999,1.74899 -1.19289,3.26895 -2.95,3.29 -23,0.2 -301.419231,-1.21745 -302.789231,-1.21745 -1.37,0 1.231037,-55.69019 0.721037,-63.31019 -0.05613,-0.77581 0.191268,-1.54309 0.69,-2.14 z"
     id="path832"
     sodipodi:nodetypes="cccccccccccccccscc" />
  <path
     style="fill:#ffffff"
     inkscape:connector-curvature="0"
     d="m 131.75818,133.40606 c 0,-10.25 8.39,-5 8.39,-11.75 0,-2.08 -2.08,-3.82 -4.57,-3.82 a 4.51,4.51 0 0 0 -4.57,5.9 h -7.51 c -0.93,-7.41 4.45,-13.31 12.09,-13.31 6.71,0 12,5 12,11.23 0,10 -8.16,7.35 -8.16,11.34 v 1.68 h -7.7 z m -0.58,8 a 4.58,4.58 0 1 1 4.57,4.52 4.56,4.56 0 0 1 -4.57,-4.54 z"
     id="path868" />
  <path
     style="fill:#54688c;stroke:none;stroke-width:1px;stroke-linecap:butt;stroke-linejoin:miter;stroke-opacity:1"
     d="m -9.6814139,158.18435 82.4100849,45.33736 169.306679,-8.97302 -12.515,-20.30736 69.65895,-22.43254 2.36955,66.09274 -34.06199,72.46523 L 1.0018234,288.36312 -51.426936,235.26647 Z"
     id="path926"
     inkscape:connector-curvature="0" />
</svg>
