<?xml version="1.0" encoding="UTF-8" standalone="no"?>
<svg
   xmlns:dc="http://purl.org/dc/elements/1.1/"
   xmlns:cc="http://creativecommons.org/ns#"
   xmlns:rdf="http://www.w3.org/1999/02/22-rdf-syntax-ns#"
   xmlns:svg="http://www.w3.org/2000/svg"
   xmlns="http://www.w3.org/2000/svg"
   xmlns:sodipodi="http://sodipodi.sourceforge.net/DTD/sodipodi-0.dtd"
   xmlns:inkscape="http://www.inkscape.org/namespaces/inkscape"
   viewBox="0 0 272 272"
   version="1.1"
   id="svg16"
   sodipodi:docname="_4pda_fg.svg"
   inkscape:version="0.92.4 (5da689c313, 2019-01-14)"
   width="272"
   height="272">
  <metadata
     id="metadata20">
    <rdf:RDF>
      <cc:Work
         rdf:about="">
        <dc:format>image/svg+xml</dc:format>
        <dc:type
           rdf:resource="http://purl.org/dc/dcmitype/StillImage" />
        <dc:title></dc:title>
      </cc:Work>
    </rdf:RDF>
  </metadata>
  <sodipodi:namedview
     pagecolor="#ffffff"
     bordercolor="#666666"
     borderopacity="1"
     objecttolerance="10"
     gridtolerance="10"
     guidetolerance="10"
     inkscape:pageopacity="0"
     inkscape:pageshadow="2"
     inkscape:window-width="1920"
     inkscape:window-height="1017"
     id="namedview18"
     showgrid="true"
     inkscape:zoom="2.9945397"
     inkscape:cx="36.204625"
     inkscape:cy="120.81651"
     inkscape:window-x="-8"
     inkscape:window-y="-8"
     inkscape:window-maximized="1"
     inkscape:current-layer="svg16"
     inkscape:snap-global="false">
    <inkscape:grid
       type="xygrid"
       id="grid827"
       spacingx="4"
       spacingy="4" />
  </sodipodi:namedview>
  <defs
     id="defs4">
    <style
       id="style2">.a{fill:none;stroke:#b1b5bd;stroke-linecap:round;stroke-linejoin:round;isolation:isolate;opacity:0.63;}</style>
  </defs>
  <path
     inkscape:connector-curvature="0"
     d="m 170.4892,97.655095 h -42.6844 a 0.6884581,0.68549109 0 0 0 -0.53842,0.272439 L 96.833009,137.72117 a 0.67963171,0.67670274 0 0 0 -0.132396,0.40426 v 28.06999 a 0.67080533,0.66791439 0 0 0 0.670805,0.6767 h 45.605932 a 0.6884581,0.68549109 0 0 1 0.67963,0.6767 v 6.58247 a 0.67963171,0.67670274 0 0 0 0.67964,0.67671 h 26.15258 a 0.6884581,0.68549109 0 0 0 0.67963,-0.67671 V 98.331798 a 0.6884581,0.68549109 0 0 0 -0.67963,-0.676703 z m -26.83222,46.173975 a 0.33540266,0.33395719 0 0 1 -0.34422,0.33396 h -20.01825 a 0.33540266,0.33395719 0 0 1 -0.26479,-0.54488 l 20.09768,-25.98714 a 0.33540266,0.33395719 0 0 1 0.6002,0.20213 z"
     style="fill:#ffffff;stroke-width:0.88073456"
     id="path849" />
</svg>
