<?xml version="1.0" encoding="UTF-8" standalone="no"?>
<svg
   xmlns:dc="http://purl.org/dc/elements/1.1/"
   xmlns:cc="http://creativecommons.org/ns#"
   xmlns:rdf="http://www.w3.org/1999/02/22-rdf-syntax-ns#"
   xmlns:svg="http://www.w3.org/2000/svg"
   xmlns="http://www.w3.org/2000/svg"
   xmlns:sodipodi="http://sodipodi.sourceforge.net/DTD/sodipodi-0.dtd"
   xmlns:inkscape="http://www.inkscape.org/namespaces/inkscape"
   viewBox="0 0 272 272"
   version="1.1"
   id="svg16"
   sodipodi:docname="_500px_fg.svg"
   inkscape:version="0.92.4 (5da689c313, 2019-01-14)"
   width="272"
   height="272">
  <metadata
     id="metadata20">
    <rdf:RDF>
      <cc:Work
         rdf:about="">
        <dc:format>image/svg+xml</dc:format>
        <dc:type
           rdf:resource="http://purl.org/dc/dcmitype/StillImage" />
        <dc:title></dc:title>
      </cc:Work>
    </rdf:RDF>
  </metadata>
  <sodipodi:namedview
     pagecolor="#ffffff"
     bordercolor="#666666"
     borderopacity="1"
     objecttolerance="10"
     gridtolerance="10"
     guidetolerance="10"
     inkscape:pageopacity="0"
     inkscape:pageshadow="2"
     inkscape:window-width="1920"
     inkscape:window-height="1017"
     id="namedview18"
     showgrid="true"
     inkscape:zoom="2.9945397"
     inkscape:cx="36.204625"
     inkscape:cy="101.92595"
     inkscape:window-x="-8"
     inkscape:window-y="-8"
     inkscape:window-maximized="1"
     inkscape:current-layer="svg16"
     inkscape:snap-global="true">
    <inkscape:grid
       type="xygrid"
       id="grid827"
       spacingx="4"
       spacingy="4" />
  </sodipodi:namedview>
  <defs
     id="defs4">
    <style
       id="style2">.a{fill:none;stroke:#b1b5bd;stroke-linecap:round;stroke-linejoin:round;isolation:isolate;opacity:0.63;}</style>
  </defs>
  <path
     style="clip-rule:evenodd;fill:#ffffff;fill-rule:evenodd"
     inkscape:connector-curvature="0"
     d="m 161.114,157.487 c -0.463,-0.461 -0.856,-0.734 -1.201,-0.833 -0.351,-0.1 -0.664,-0.025 -0.905,0.217 l -0.228,0.227 a 25.847,25.847 0 0 1 -18.341,7.597 25.854,25.854 0 0 1 -18.34,-7.597 c -2.482,-2.482 -4.352,-5.256 -5.559,-8.244 -1.177,-2.914 -1.56,-5.106 -1.687,-5.826 a 11.466,11.466 0 0 0 -0.028,-0.16 c -0.162,-0.848 -0.943,-0.907 -2.065,-0.736 -0.466,0.072 -1.886,0.289 -1.751,1.31 l 0.003,0.024 a 29.701,29.701 0 0 0 8.358,16.361 29.673,29.673 0 0 0 9.471,6.384 29.59,29.59 0 0 0 11.598,2.343 c 4.021,0 7.923,-0.789 11.599,-2.344 a 29.69,29.69 0 0 0 9.708,-6.629 c 0.301,-0.328 0.563,-0.902 -0.632,-2.094 z m -20.712,-47.463 c -3.843,0 -7.932,0.775 -10.936,2.075 -0.32,0.126 -0.513,0.383 -0.555,0.746 -0.04,0.342 0.053,0.793 0.282,1.38 0.187,0.476 0.682,1.74 1.64,1.375 3.074,-1.173 6.472,-1.819 9.569,-1.819 3.509,0 6.913,0.687 10.115,2.042 2.545,1.076 4.947,2.631 7.558,4.894 0.19,0.165 0.392,0.248 0.6,0.248 0.509,0 0.997,-0.5 1.415,-0.968 0.697,-0.782 1.176,-1.432 0.489,-2.083 -2.493,-2.362 -5.225,-4.126 -8.598,-5.552 a 29.56,29.56 0 0 0 -11.579,-2.338 z m -5.24,32.498 c 0.005,0.434 0.403,0.815 0.64,1.043 l 0.075,0.072 c 0.407,0.4 0.795,0.603 1.152,0.603 0.297,0 0.48,-0.14 0.544,-0.2 0.18,-0.167 2.208,-2.223 2.402,-2.419 l 2.263,2.256 c 0.209,0.236 0.437,0.354 0.702,0.361 0.362,0 0.756,-0.214 1.171,-0.638 0.976,-0.997 0.488,-1.535 0.251,-1.795 l -2.292,-2.293 2.391,-2.408 c 0.524,-0.568 0.061,-1.17 -0.401,-1.633 -0.67,-0.67 -1.317,-0.844 -1.732,-0.461 l -2.378,2.38 -2.404,-2.405 a 0.66,0.66 0 0 0 -0.465,-0.186 c -0.32,0 -0.7,0.216 -1.127,0.644 -0.74,0.74 -0.898,1.25 -0.513,1.658 l 2.405,2.397 -2.39,2.396 c -0.198,0.196 -0.296,0.407 -0.294,0.627 z m -15.246,3.551 c 0.014,0.039 0.354,0.979 0.55,1.444 a 21.384,21.384 0 0 0 4.598,6.819 21.384,21.384 0 0 0 6.82,4.597 21.31,21.31 0 0 0 8.353,1.687 21.391,21.391 0 0 0 15.173,-6.285 21.38,21.38 0 0 0 6.285,-15.173 21.39,21.39 0 0 0 -6.285,-15.173 21.379,21.379 0 0 0 -6.82,-4.597 21.324,21.324 0 0 0 -8.353,-1.687 c -2.93,0 -5.858,0.583 -8.468,1.687 -2.086,0.882 -5.616,3.154 -7.683,5.285 l -0.012,0.012 V 107.03 h 29.665 c 1.079,-0.011 1.079,-1.519 1.079,-2.014 0,-0.495 0,-2.002 -1.083,-2.015 H 121.66 c -0.873,0 -1.413,0.726 -1.413,1.4 v 24.856 c 0,0.802 0.998,1.38 1.927,1.58 1.812,0.386 2.23,-0.193 2.675,-0.806 l 0.059,-0.081 c 0.677,-1.007 2.795,-3.138 2.816,-3.16 3.305,-3.305 7.724,-5.125 12.443,-5.125 4.697,0 9.103,1.82 12.408,5.125 3.316,3.317 5.143,7.71 5.143,12.373 0,4.68 -1.817,9.074 -5.117,12.373 -3.257,3.257 -7.807,5.125 -12.483,5.125 -3.168,0 -6.225,-0.844 -8.844,-2.441 l 0.011,-15.114 c 0,-2.015 0.875,-4.206 2.34,-5.86 1.674,-1.891 3.982,-2.933 6.499,-2.933 2.436,0 4.712,0.925 6.408,2.605 a 8.746,8.746 0 0 1 2.611,6.257 c 0,5.051 -3.971,9.007 -9.041,9.007 -0.978,0 -2.755,-0.431 -2.828,-0.449 -1.023,-0.305 -1.459,1.116 -1.602,1.585 -0.551,1.801 0.277,2.158 0.449,2.212 1.631,0.506 2.7,0.602 4.104,0.602 7.158,0 12.98,-5.826 12.98,-12.986 0,-7.103 -5.819,-12.882 -12.972,-12.882 -3.502,0 -6.793,1.338 -9.265,3.77 -2.355,2.315 -3.705,5.403 -3.705,8.47 l -0.001,0.076 c -0.012,0.382 -0.02,9.443 -0.022,12.416 l -0.013,-0.015 c -1.345,-1.49 -2.675,-3.77 -3.556,-6.099 -0.346,-0.913 -1.127,-0.752 -2.192,-0.424 -0.465,0.144 -1.88,0.58 -1.568,1.603 l 0.005,0.013 z"
     id="path820" />
</svg>
