<?xml version="1.0" encoding="UTF-8" standalone="no"?>
<svg
   xmlns:dc="http://purl.org/dc/elements/1.1/"
   xmlns:cc="http://creativecommons.org/ns#"
   xmlns:rdf="http://www.w3.org/1999/02/22-rdf-syntax-ns#"
   xmlns:svg="http://www.w3.org/2000/svg"
   xmlns="http://www.w3.org/2000/svg"
   xmlns:sodipodi="http://sodipodi.sourceforge.net/DTD/sodipodi-0.dtd"
   xmlns:inkscape="http://www.inkscape.org/namespaces/inkscape"
   viewBox="0 0 272 272"
   version="1.1"
   id="svg16"
   sodipodi:docname="_500firepaper_fg.svg"
   inkscape:version="0.92.4 (5da689c313, 2019-01-14)"
   width="272"
   height="272">
  <metadata
     id="metadata20">
    <rdf:RDF>
      <cc:Work
         rdf:about="">
        <dc:format>image/svg+xml</dc:format>
        <dc:type
           rdf:resource="http://purl.org/dc/dcmitype/StillImage" />
        <dc:title></dc:title>
      </cc:Work>
    </rdf:RDF>
  </metadata>
  <sodipodi:namedview
     pagecolor="#ffffff"
     bordercolor="#666666"
     borderopacity="1"
     objecttolerance="10"
     gridtolerance="10"
     guidetolerance="10"
     inkscape:pageopacity="0"
     inkscape:pageshadow="2"
     inkscape:window-width="1920"
     inkscape:window-height="1017"
     id="namedview18"
     showgrid="true"
     inkscape:zoom="4.2349186"
     inkscape:cx="36.204625"
     inkscape:cy="120.81651"
     inkscape:window-x="-8"
     inkscape:window-y="-8"
     inkscape:window-maximized="1"
     inkscape:current-layer="svg16"
     inkscape:snap-global="true">
    <inkscape:grid
       type="xygrid"
       id="grid827"
       spacingx="4"
       spacingy="4" />
  </sodipodi:namedview>
  <defs
     id="defs4">
    <style
       id="style2">.a{fill:none;stroke:#b1b5bd;stroke-linecap:round;stroke-linejoin:round;isolation:isolate;opacity:0.63;}</style>
  </defs>
  <path
     style="clip-rule:evenodd;fill:#ffffff;fill-rule:evenodd"
     inkscape:connector-curvature="0"
     d="m 156.836,128.53 c -1.547,-1.914 -3.675,-2.871 -6.385,-2.871 -2.71,0 -5.14,1.443 -7.29,4.33 -2.15,2.886 -3.225,4.786 -3.225,5.7 0,0.971 1.097,2.982 3.292,6.03 2.194,3.049 4.617,4.573 7.268,4.573 2.651,0 4.757,-1.001 6.318,-3.004 1.561,-2.003 2.341,-4.536 2.341,-7.6 0,-2.857 -0.773,-5.243 -2.319,-7.157 z m -41.466,15.31 c 1.709,1.753 3.638,2.629 5.788,2.629 2.71,0 5.243,-1.613 7.6,-4.838 2.356,-3.225 3.534,-5.339 3.534,-6.34 0,-0.678 -1.274,-2.475 -3.822,-5.39 -2.547,-2.917 -5.117,-4.375 -7.71,-4.375 -2.238,0 -4.123,0.972 -5.655,2.916 -1.531,1.944 -2.297,4.536 -2.297,7.776 0,3.329 0.854,5.869 2.562,7.622 z m 20.06,-0.376 c -1.503,2.534 -3.005,4.478 -4.507,5.833 -2.828,2.562 -6.097,3.843 -9.809,3.843 -4.507,0 -8.174,-1.605 -11.001,-4.816 -2.828,-3.21 -4.242,-7.378 -4.242,-12.503 0,-4.742 1.355,-8.807 4.065,-12.195 2.71,-3.387 6.377,-5.08 11.001,-5.08 2.975,0 5.648,0.898 8.02,2.694 2.37,1.797 4.558,4.67 6.56,8.616 1.945,-3.534 3.815,-6.097 5.612,-7.688 2.71,-2.474 5.994,-3.711 9.853,-3.711 4.683,0 8.335,1.745 10.957,5.236 2.621,3.49 3.932,7.489 3.932,11.995 0,4.625 -1.289,8.689 -3.866,12.195 -2.577,3.505 -6.163,5.257 -10.758,5.257 -3.564,0 -6.598,-1.134 -9.102,-3.402 -2.239,-1.944 -4.168,-4.565 -5.788,-7.864 l -0.928,1.59 z"
     id="path820" />
</svg>
