<?xml version="1.0" encoding="UTF-8" standalone="no"?>
<svg
   xmlns:dc="http://purl.org/dc/elements/1.1/"
   xmlns:cc="http://creativecommons.org/ns#"
   xmlns:rdf="http://www.w3.org/1999/02/22-rdf-syntax-ns#"
   xmlns:svg="http://www.w3.org/2000/svg"
   xmlns="http://www.w3.org/2000/svg"
   xmlns:sodipodi="http://sodipodi.sourceforge.net/DTD/sodipodi-0.dtd"
   xmlns:inkscape="http://www.inkscape.org/namespaces/inkscape"
   viewBox="0 0 272 272"
   version="1.1"
   id="svg16"
   sodipodi:docname="_50_us_states_fg.svg"
   inkscape:version="0.92.4 (5da689c313, 2019-01-14)"
   width="272"
   height="272">
  <metadata
     id="metadata20">
    <rdf:RDF>
      <cc:Work
         rdf:about="">
        <dc:format>image/svg+xml</dc:format>
        <dc:type
           rdf:resource="http://purl.org/dc/dcmitype/StillImage" />
        <dc:title></dc:title>
      </cc:Work>
    </rdf:RDF>
  </metadata>
  <sodipodi:namedview
     pagecolor="#ffffff"
     bordercolor="#666666"
     borderopacity="1"
     objecttolerance="10"
     gridtolerance="10"
     guidetolerance="10"
     inkscape:pageopacity="0"
     inkscape:pageshadow="2"
     inkscape:window-width="1920"
     inkscape:window-height="1017"
     id="namedview18"
     showgrid="true"
     inkscape:zoom="2.9945397"
     inkscape:cx="36.204625"
     inkscape:cy="95.247126"
     inkscape:window-x="-8"
     inkscape:window-y="-8"
     inkscape:window-maximized="1"
     inkscape:current-layer="svg16"
     inkscape:snap-global="false">
    <inkscape:grid
       type="xygrid"
       id="grid827"
       spacingx="4"
       spacingy="4" />
  </sodipodi:namedview>
  <defs
     id="defs4">
    <style
       id="style2">.a{fill:none;stroke:#b1b5bd;stroke-linecap:round;stroke-linejoin:round;isolation:isolate;opacity:0.63;}</style>
  </defs>
  <path
     style="fill:#728dbe;fill-opacity:1;stroke:none;stroke-width:0.30987513px;stroke-linecap:butt;stroke-linejoin:miter;stroke-opacity:1"
     d="m 161.15744,127.83398 c 0.99801,-0.64628 1.97891,-1.25908 3.05151,-1.91374 0.84961,-0.39535 1.04467,-0.92478 1.5561,-1.65741 0.17121,-0.83217 -0.36836,-2.04287 0.40832,-2.4311 0.48451,-0.73735 1.88052,-1.16838 2.89149,-1.2685 0.68905,-0.36699 1.7001,-0.56472 1.93037,-1.72145 0.0187,-1.29329 0.87132,-2.66941 2.05486,-2.74295 1.38888,-0.1543 3.20042,-0.32865 3.61211,-1.91268 0.51918,-0.8781 1.11065,-1.20126 1.36949,-2.2325 0.5296,-1.26731 0.44746,-2.84988 1.74269,-3.3809 0.98351,-0.91698 3.41962,-0.37759 3.92342,0.51073 0.4761,0.29659 1.06712,1.276 1.18304,1.91286 0.25697,0.82185 0.57957,1.61302 1.12012,2.42441 -0.10858,1.0862 -1.29569,1.56927 -1.61892,2.16798 -0.69678,0.41578 -1.34666,1.89172 -1.30662,2.99747 0.45178,1.09833 0.0297,2.62098 -0.59484,3.25979 -0.60956,0.74206 -0.98736,1.47787 -1.8958,1.90615 -0.93537,0.58046 -2.23752,1.61118 -2.53498,2.55107 -0.60881,0.51416 -1.14853,1.74491 -1.69874,2.55156 -0.40339,0.68671 -0.75224,1.60504 -1.24551,1.91364 -0.63837,1.01999 -1.0724,2.77152 -1.74261,3.25233 -1.65466,0.80756 -3.75034,1.00403 -5.6674,0.82959 -1.19421,-0.46366 -2.40504,-1.2966 -3.3001,-1.8496 -0.58517,-0.85654 -1.42536,-1.92262 -2.05497,-2.93439 -0.63694,-0.75571 -0.99695,-0.87815 -1.30741,-1.84934 -0.25877,-0.13198 -0.10986,-0.48536 0.12438,-0.38302 z"
     id="path820"
     inkscape:connector-curvature="0" />
  <path
     style="fill:#ff837d;fill-opacity:1;stroke:none;stroke-width:0.30987513px;stroke-linecap:butt;stroke-linejoin:miter;stroke-opacity:1"
     d="m 114.44928,150.03045 c 0.95156,0.58835 1.72324,1.10141 2.36646,1.91285 0.64521,1.13791 1.0111,2.25858 1.86859,3.38006 0.51596,1.93389 2.77934,2.26714 4.67099,1.91354 1.40776,-0.17918 2.34256,0.95002 2.80174,1.89469 0.79705,2.08069 1.9745,3.75227 4.23572,4.48291 1.50054,0.46131 2.68651,1.44532 4.0476,2.10473 1.42882,0.20309 1.41675,-2.13841 1.18323,-2.87013 0.0119,-1.24202 0.65292,-1.8495 1.99325,-2.23233 1.36459,-0.59349 3.00627,-0.89563 4.11034,-1.97705 1.22414,-0.94286 3.29419,-1.04926 4.79485,-0.57414 1.85244,1.02559 4.13657,0.64719 5.97885,-0.0635 0.99605,-0.8849 1.30598,-2.44432 2.86409,-2.42356 1.31471,0.005 2.43325,-0.17798 3.67429,-0.3188 0.9139,0.17171 1.9873,0.80651 2.7403,1.786 0.86481,1.13522 2.23834,1.69891 3.11356,2.80584 1.35472,1.42083 2.08138,3.22649 3.67407,4.46498 0.89502,0.96206 2.45044,1.15488 3.79808,1.21183 0.6965,-1.33959 -0.74392,-2.691 -0.74611,-3.95418 -0.89407,-1.86793 -1.75547,-3.94997 -2.61509,-5.99532 -0.55347,-1.28286 -1.62413,-2.38875 -1.36938,-4.05352 -0.31199,-1.30437 0.93495,-1.90557 1.36291,-2.92662 0.60888,-0.67766 1.12286,-2.48678 1.81512,-3.13461 1.19595,-0.63703 2.01258,-1.81898 2.98647,-2.64051 0.8881,-1.22187 2.48303,-2.13792 2.05409,-3.95399 0.32462,-1.87311 -1.07571,-3.80201 -1.25897,-5.45482 -0.58434,-1.30738 0.68673,-2.68443 -0.0476,-3.66722 -0.36637,-0.75585 -1.44051,-1.16527 -2.36609,-1.65833 -1.88532,-0.38186 -4.10607,-0.33542 -5.97884,-0.25456 -0.6397,0.29494 -0.76355,1.07186 -1.4315,1.4663 -0.4769,0.77701 -1.23795,1.71756 -2.24153,1.97708 -2.40065,0.71864 -5.0943,0.95044 -7.59873,1.53125 -1.9009,0.51192 -3.80927,1.21727 -5.41824,2.16799 -5.03487,2.26682 -10.90716,1.65004 -16.44052,1.91341 -3.24086,0.27314 -6.65207,-0.47538 -9.65404,1.02067 -1.05895,0.38437 -2.04827,1.31082 -2.73969,1.72223 -0.57961,0.74908 -1.12431,2.29303 -1.74389,3.31649 -1.10073,1.35144 -1.30653,2.69676 -2.05518,3.88999 -0.64662,0.73154 -1.70068,1.58976 -2.05518,2.23217 -0.20039,0.0914 -0.33326,0.63537 -0.37398,0.95815 z"
     id="path822"
     inkscape:connector-curvature="0" />
  <path
     style="fill:#f9de81;fill-opacity:1;stroke:none;stroke-width:0.30987513px;stroke-linecap:butt;stroke-linejoin:miter;stroke-opacity:1"
     d="m 123.17991,109.03322 c 1.37871,-0.0816 2.77675,0.55449 4.22777,0.63179 3.87775,0.49149 8.11171,-0.16257 11.8894,0.4514 2.25624,-0.0744 4.27678,0.83 5.99507,1.62732 1.42088,0.4947 2.68472,0.96539 4.22204,1.2583 0.88635,0.65311 1.77097,0.39498 2.46632,1.08244 1.04935,0.14546 2.6533,1.12951 3.43485,1.6236 0.31877,0.59811 1.43928,1.62203 1.64849,1.89339 1.28819,0.91091 2.06001,1.63932 2.57969,3.24785 0.64279,0.97754 0.53709,2.30118 1.40862,3.15752 0.412,0.76236 0.79913,1.00205 1.85023,1.26283 0.71463,0.32569 0.82024,0.75495 1.40942,1.17225 0.35288,0.85055 0.8624,1.73712 0.6163,2.88569 -0.62875,0.62167 -1.01659,1.7132 -1.58563,2.07513 -0.67626,1.11964 -2.02373,1.28204 -3.34709,1.26282 -1.05925,0.33093 -2.02369,0.86603 -3.17114,1.0824 -0.52858,0.38433 -1.99387,0.8705 -2.29914,1.31311 -0.40106,0.60156 -1.3495,1.21208 -1.66432,1.6632 -0.54449,0.22957 -1.08644,0.9823 -1.44818,1.25323 -0.16177,0.39083 -0.62376,0.72892 -1.06675,1.01118 -1.04688,1.14103 -2.90689,0.93489 -4.4432,1.07346 -2.06708,0.36512 -3.82418,-0.48693 -5.97265,-0.2718 -2.15586,-0.0439 -3.87566,-0.52583 -6.14973,-0.3608 -2.84597,0.12437 -5.95999,-0.57592 -8.57498,0.0914 -0.53654,0.27569 -2.61708,0.41706 -2.50964,0.1799 l 0.0442,-0.0909"
     id="path824"
     inkscape:connector-curvature="0" />
  <path
     style="fill:#98dc9a;fill-opacity:1;stroke:none;stroke-width:0.30987513px;stroke-linecap:butt;stroke-linejoin:miter;stroke-opacity:1"
     d="m 123.88454,109.03322 c -1.96786,0.0162 -3.93739,0.0774 -5.81399,-0.5412 -1.37253,-0.25672 -2.50494,-0.79425 -3.87546,-0.9926 -1.22877,-0.48416 -2.59385,-0.60682 -3.96313,-0.72159 -0.96831,-0.0321 -1.85686,-0.42038 -2.83914,-0.3608 -1.42479,-0.1815 -2.77853,-0.63044 -4.20633,-0.99181 -0.78854,-0.53758 -1.68892,-0.86656 -2.64237,-0.99182 -1.24243,-0.414 -2.575441,-0.44119 -3.786972,-0.81221 -1.124017,-0.0624 -1.954481,-0.57749 -3.083153,-0.4506 -0.671175,0.45004 -1.681487,0.34006 -2.290036,0.90202 -0.548528,0.43223 -0.792052,0.87598 -1.056951,1.53384 -0.248106,0.60144 -0.531543,1.54737 -0.263837,2.43509 0.379131,1.13072 0.400423,2.32596 0.4408,3.51762 -0.326943,0.49008 -0.351997,0.79821 -0.744261,1.25299 -0.306394,0.44417 -0.749477,1.40757 -1.017319,1.72414 -0.498186,0.11372 -0.840338,0.9091 -1.106161,1.09139 -0.523616,0.59068 -0.66083,1.11381 -1.096217,1.97469 -0.242253,1.09195 -0.624057,1.9066 -0.528473,3.05641 0.08208,1.04168 0.06956,2.01851 0,3.08249 0.0019,1.29295 0.06721,2.59589 -0.26464,3.82045 -0.118096,1.03063 -0.0093,1.64858 0.529277,2.39835 0.724412,0.62835 0.592705,2.16417 0.793112,3.24655 0.364003,1.04823 0.628184,2.71365 1.144622,3.698 0.445961,1.26755 1.113119,2.66984 1.575371,3.89417 0.375115,0.20278 0.543819,0.61654 1.066997,0.88623 0.689798,0.61182 1.787578,0.70458 2.552253,1.3442 0.708081,0.25507 0.754726,0.66811 1.146247,0.91129 0.636379,0.86703 1.855401,1.54793 3.02819,2.06886 0.469066,0.36249 1.590534,0.57298 2.345009,0.81767 1.602682,0.80191 3.469322,1.40812 4.927372,2.52679 1.18165,0.43371 2.31545,0.89616 3.52947,1.07543 0.79144,0.37671 1.86444,0.64474 2.90488,0.90707 1.25732,0.47541 2.6972,0.19705 4.05162,0.271 0.63526,-0.20251 0.43271,-0.71403 1.32158,-0.72241 0.78418,-0.19223 1.3984,-0.58524 2.33963,-0.4506 0.83704,-0.0545 1.78106,0.14564 2.50349,-0.18042 0.22989,-0.48234 0.67152,-0.48108 0.88159,-1.17303 0.34007,-0.74898 0.0816,-1.80629 0.61616,-2.43511 0.19349,-1.58035 -0.0284,-3.33051 0.26464,-4.87026 0.28261,-0.76727 -0.23802,-2.00994 0.52848,-2.25552 0.6557,-0.37571 1.07107,-0.54121 1.49695,-1.1722 0.51613,-0.62457 0.78585,-1.33808 1.23311,-2.16489 0.2299,-0.78345 0.1965,-1.68078 0.26464,-2.52546 0.22901,-0.94377 0.30086,-2.50621 -0.13769,-3.1664 -0.35916,-0.25101 -0.52739,-0.67017 -1.00773,-0.80258 -0.44583,-0.43099 -1.29432,-0.89469 -1.64877,-1.26224 -0.59807,-0.63498 -1.01014,-1.01212 -0.99441,-1.95325 -0.031,-1.27669 0.26142,-2.25639 0.35312,-3.54939 0.28438,-1.07113 0.0504,-2.27195 0.35232,-3.28415 -0.0515,-1.11263 0.31898,-1.99206 0.4408,-3.12004 0.37172,-0.61381 0.4003,-1.72347 0.52848,-2.43508 -0.0251,-1.13838 0.0903,-2.45456 -0.17696,-3.42697 -0.0817,-0.55503 -0.30449,-1.05602 -0.61621,-1.62411 z"
     id="path826"
     inkscape:connector-curvature="0" />
  <g
     style="fill:#98dc9a;fill-opacity:1;stroke:none"
     id="g834"
     transform="translate(39.833933,39.498171)">
    <g
       style="fill:#98dc9a;fill-opacity:1;stroke:none"
       id="g830">
      <path
         style="fill:#98dc9a;fill-opacity:1;stroke:none;stroke-width:0.3098779px;stroke-linecap:butt;stroke-linejoin:miter;stroke-opacity:1"
         d="m 62.160353,113.53108 c -1.584447,0.0203 -2.662131,-1.22533 -3.861182,-1.72229 -0.890058,-0.14456 -1.956544,-0.7806 -2.80349,-0.18985 -1.483197,0.35557 -2.742034,0.92728 -3.424312,1.91214 -0.295684,1.46119 -0.96996,2.82505 -1.867934,3.74494 -0.631298,0.86576 -1.169518,2.79041 -0.560844,3.97276 0.305568,0.57898 1.18893,1.36638 0.747434,2.35984 -0.833866,1.39172 -3.3462,1.8848 -3.799023,3.7632 1.291946,1.28639 3.383059,0.28761 4.857557,-0.38259 1.365725,-0.37016 2.527599,-0.72187 3.702072,-1.33253 0.563336,-0.66144 1.859959,-1.48508 3.023917,-1.47388 1.065199,-0.40703 1.272158,0.54109 2.179838,0.95679 1.309918,0.62755 2.816402,0.78306 3.861182,1.65832 0.92781,1.12853 3.021696,1.6873 4.546457,1.46702 0.47471,-1.27563 -0.843632,-2.14378 -1.432403,-2.93404 -0.820631,-0.77957 -2.595537,-1.13304 -3.487618,-1.78595 -0.508822,-0.33976 -1.180191,-0.96482 -1.307781,-1.72198 -0.296184,-2.45057 -0.06443,-5.15796 -0.249246,-7.65403 -0.238121,-0.38329 0.111182,-0.14426 -0.124624,-0.63787 z m 9.964667,6.25068 c -0.905293,0.068 -2.427998,0.10305 -2.428779,1.27572 0.71396,0.87783 2.790168,0.39904 2.802343,-0.70152 0.325834,-0.38376 -0.127364,-0.45265 -0.373564,-0.5742 z m 3.549776,1.65832 c -0.300019,-0.78947 -1.150208,-0.33498 -1.245621,0.12763 -0.33005,0.60858 0.559692,1.39277 1.120998,1.02045 0.153284,-0.25639 0.416227,-0.67419 0.124623,-1.14808 z m 3.736559,1.53099 c -0.852361,-0.34139 -1.635331,-1.25984 -2.61556,-0.51054 -0.330685,0.97321 0.56111,1.27746 0.872057,1.59466 0.840769,0.2273 2.176683,0.274 1.743503,-1.08412 z"
         id="path828"
         inkscape:connector-curvature="0" />
    </g>
    <path
       style="fill:#98dc9a;fill-opacity:1;stroke:none;stroke-width:0.3098779px;stroke-linecap:butt;stroke-linejoin:miter;stroke-opacity:1"
       d="m 80.221254,124.69305 c -1.192275,-0.22316 -0.828265,1.6733 -0.498494,2.29618 0.173457,0.65341 1.361015,1.50634 1.86174,0.41822 0.263087,-0.38982 1.242026,-0.60113 1.003068,-1.43868 -0.7618,-0.64578 -0.924723,-1.44413 -2.117067,-1.40336 l -0.249553,0.12764 z"
       id="path832"
       inkscape:connector-curvature="0" />
  </g>
</svg>
