<?xml version="1.0" encoding="UTF-8" standalone="no"?>
<svg
   xmlns:dc="http://purl.org/dc/elements/1.1/"
   xmlns:cc="http://creativecommons.org/ns#"
   xmlns:rdf="http://www.w3.org/1999/02/22-rdf-syntax-ns#"
   xmlns:svg="http://www.w3.org/2000/svg"
   xmlns="http://www.w3.org/2000/svg"
   xmlns:sodipodi="http://sodipodi.sourceforge.net/DTD/sodipodi-0.dtd"
   xmlns:inkscape="http://www.inkscape.org/namespaces/inkscape"
   viewBox="0 0 272 272"
   version="1.1"
   id="svg16"
   sodipodi:docname="_5paisa_fg.svg"
   inkscape:version="0.92.4 (5da689c313, 2019-01-14)"
   width="272"
   height="272">
  <metadata
     id="metadata20">
    <rdf:RDF>
      <cc:Work
         rdf:about="">
        <dc:format>image/svg+xml</dc:format>
        <dc:type
           rdf:resource="http://purl.org/dc/dcmitype/StillImage" />
        <dc:title></dc:title>
      </cc:Work>
    </rdf:RDF>
  </metadata>
  <sodipodi:namedview
     pagecolor="#ffffff"
     bordercolor="#666666"
     borderopacity="1"
     objecttolerance="10"
     gridtolerance="10"
     guidetolerance="10"
     inkscape:pageopacity="0"
     inkscape:pageshadow="2"
     inkscape:window-width="1920"
     inkscape:window-height="1017"
     id="namedview18"
     showgrid="true"
     inkscape:zoom="2.9945397"
     inkscape:cx="135.60233"
     inkscape:cy="124.27953"
     inkscape:window-x="-8"
     inkscape:window-y="-8"
     inkscape:window-maximized="1"
     inkscape:current-layer="svg16"
     inkscape:snap-global="true">
    <inkscape:grid
       type="xygrid"
       id="grid827"
       spacingx="4"
       spacingy="4" />
  </sodipodi:namedview>
  <defs
     id="defs4">
    <style
       id="style2">.a{fill:none;stroke:#b1b5bd;stroke-linecap:round;stroke-linejoin:round;isolation:isolate;opacity:0.63;}</style>
  </defs>
  <path
     inkscape:connector-curvature="0"
     d="M 96.09,85.305 60,99.104 -32,136 -4,280 215.97311,287.13676 166.273,146.285 145.85,100.262 123.703,87.032 Z"
     style="fill:#cccccc;stroke:none;stroke-width:1px;stroke-linecap:butt;stroke-linejoin:miter;stroke-opacity:1"
     id="path820"
     sodipodi:nodetypes="ccccccccc" />
  <path
     style="color:#000000;font-style:normal;font-variant:normal;font-weight:400;font-stretch:normal;font-size:medium;line-height:normal;font-family:sans-serif;font-variant-ligatures:normal;font-variant-position:normal;font-variant-caps:normal;font-variant-numeric:normal;font-variant-alternates:normal;font-feature-settings:normal;text-indent:0;text-align:start;text-decoration:none;text-decoration-line:none;text-decoration-style:solid;text-decoration-color:#000000;letter-spacing:normal;word-spacing:normal;text-transform:none;writing-mode:lr-tb;direction:ltr;text-orientation:mixed;dominant-baseline:auto;baseline-shift:baseline;text-anchor:start;white-space:normal;shape-padding:0;clip-rule:nonzero;display:inline;overflow:visible;visibility:visible;opacity:1;isolation:auto;mix-blend-mode:normal;color-interpolation:sRGB;color-interpolation-filters:linearRGB;solid-color:#000000;solid-opacity:1;vector-effect:none;fill:#a0a5af;fill-opacity:1;fill-rule:nonzero;stroke:none;stroke-width:8;stroke-linecap:round;stroke-linejoin:round;stroke-miterlimit:4;stroke-dasharray:none;stroke-dashoffset:0;stroke-opacity:1;color-rendering:auto;image-rendering:auto;shape-rendering:auto;text-rendering:auto;enable-background:accumulate"
     d="M 106.17578 80.958984 C 98.095781 80.888984 89.616234 82.315766 80.990234 85.259766 C 74.846234 87.357766 65.837 91.248984 60 93.833984 L -23.849609 125.36133 L -23.849609 133.86328 L 60 102.58789 C 64.799 100.44089 76.829219 95.133078 83.574219 92.830078 C 99.295219 87.463078 113.7902 87.785609 125.7832 92.974609 C 137.7742 98.162609 147.44675 108.24092 153.34375 123.29492 C 163.94494 150.3603 180.61423 200.65129 184.26758 211.73242 L 184 212 L 212.2832 285.69531 L 221.25586 285.69531 L 192.7832 212 C 191.1322 206.97 172.37497 149.94695 160.79297 120.37695 C 154.24397 103.65895 143.00794 91.709812 128.96094 85.632812 C 121.93794 82.593812 114.25578 81.028984 106.17578 80.958984 z "
     id="path822" />
  <rect
     width="7.0469999"
     height="9.3430004"
     x="81.432281"
     y="89.997864"
     ry="2.622"
     style="opacity:1;vector-effect:none;fill:#a0a5af;fill-opacity:1;fill-rule:evenodd;stroke:none;stroke-width:4.40449429;stroke-linecap:round;stroke-linejoin:round;stroke-miterlimit:4;stroke-dasharray:none;paint-order:stroke fill markers"
     transform="rotate(-3.484)"
     id="rect824" />
  <rect
     width="7.6129999"
     height="9.1660004"
     x="99.999779"
     y="78.657906"
     ry="2.622"
     style="opacity:1;vector-effect:none;fill:#a0a5af;fill-opacity:1;fill-rule:evenodd;stroke:none;stroke-width:4.40449429;stroke-linecap:round;stroke-linejoin:round;stroke-miterlimit:4;stroke-dasharray:none;paint-order:stroke fill markers"
     transform="rotate(3.406)"
     id="rect826" />
  <rect
     width="7.5999999"
     height="10.182"
     x="114.22375"
     y="70.611641"
     ry="2.622"
     style="opacity:1;vector-effect:none;fill:#a0a5af;fill-opacity:1;fill-rule:evenodd;stroke:none;stroke-width:4.40449429;stroke-linecap:round;stroke-linejoin:round;stroke-miterlimit:4;stroke-dasharray:none;paint-order:stroke fill markers"
     transform="rotate(7.435)"
     id="rect828" />
  <rect
     width="7.9050002"
     height="11.449"
     x="137.49049"
     y="41.482719"
     ry="2.622"
     style="opacity:1;vector-effect:none;fill:#a0a5af;fill-opacity:1;fill-rule:evenodd;stroke:none;stroke-width:4.40449429;stroke-linecap:round;stroke-linejoin:round;stroke-miterlimit:4;stroke-dasharray:none;paint-order:stroke fill markers"
     transform="rotate(19.847)"
     id="rect830" />
  <rect
     width="8.3400002"
     height="12.039"
     x="151.18381"
     y="27.961922"
     ry="2.622"
     style="opacity:1;vector-effect:none;fill:#a0a5af;fill-opacity:1;fill-rule:evenodd;stroke:none;stroke-width:4.40449429;stroke-linecap:round;stroke-linejoin:round;stroke-miterlimit:4;stroke-dasharray:none;paint-order:stroke fill markers"
     transform="rotate(25.13)"
     id="rect832" />
  <rect
     width="7.9050002"
     height="11.449"
     x="164.06442"
     y="10.946472"
     ry="2.622"
     style="opacity:1;vector-effect:none;fill:#a0a5af;fill-opacity:1;fill-rule:evenodd;stroke:none;stroke-width:4.40449429;stroke-linecap:round;stroke-linejoin:round;stroke-miterlimit:4;stroke-dasharray:none;paint-order:stroke fill markers"
     transform="rotate(31.127)"
     id="rect834" />
  <rect
     width="7.0999999"
     height="11.33"
     x="175.13055"
     y="-5.6131568"
     ry="2.622"
     style="opacity:1;vector-effect:none;fill:#a0a5af;fill-opacity:1;fill-rule:evenodd;stroke:none;stroke-width:4.40449429;stroke-linecap:round;stroke-linejoin:round;stroke-miterlimit:4;stroke-dasharray:none;paint-order:stroke fill markers"
     transform="rotate(36.606)"
     id="rect836" />
  <rect
     width="7.6129999"
     height="9.1660004"
     x="178.69766"
     y="-48.11832"
     ry="2.622"
     style="opacity:1;vector-effect:none;fill:#a0a5af;fill-opacity:1;fill-rule:evenodd;stroke:none;stroke-width:4.40449429;stroke-linecap:round;stroke-linejoin:round;stroke-miterlimit:4;stroke-dasharray:none;paint-order:stroke fill markers"
     transform="rotate(50.473)"
     id="rect838" />
  <rect
     width="6.243"
     height="8.6420002"
     x="180.45612"
     y="-71.372757"
     ry="2.5769999"
     style="opacity:1;vector-effect:none;fill:#a0a5af;fill-opacity:1;fill-rule:evenodd;stroke:none;stroke-width:4.40449429;stroke-linecap:round;stroke-linejoin:round;stroke-miterlimit:4;stroke-dasharray:none;paint-order:stroke fill markers"
     transform="rotate(57.771)"
     id="rect840" />
  <path
     style="fill:#a0a5af;stroke:none;stroke-width:1px;stroke-linecap:butt;stroke-linejoin:miter;stroke-opacity:1"
     d="M 100.25977 112.91797 C 100.25977 112.91797 79.627281 132.59298 67.613281 145.70898 C 65.108281 148.44398 71.783203 149.01758 71.783203 149.01758 C 71.783203 149.01758 95.493 139.08555 106.875 147.43555 C 115.272 153.59555 117.66583 164.36055 116.79883 177.06055 C 115.90883 190.09155 104.54658 207.149 101.14258 212 C 101.14258 212 84.893331 232.71397 62.337891 222.17578 C 47.457262 215.22336 50.767578 189.11719 50.767578 189.11719 L 39.669922 197.14648 C 39.669922 197.14648 34.260544 227.64108 54.074219 236.10742 C 90.864131 251.82768 117.83984 212 117.83984 212 C 120.11384 208.16 128.3138 193.43203 128.5918 180.08203 C 128.9658 162.07003 123.05542 150.35792 109.60742 142.54492 C 96.578422 134.97492 75.666016 143.69531 75.666016 143.69531 L 97.240234 122.98633 L 136.35742 141.9707 L 135.92773 128.88281 L 100.25977 112.91797 z "
     id="path842" />
</svg>
