<?xml version="1.0" encoding="UTF-8" standalone="no"?>
<svg
   xmlns:dc="http://purl.org/dc/elements/1.1/"
   xmlns:cc="http://creativecommons.org/ns#"
   xmlns:rdf="http://www.w3.org/1999/02/22-rdf-syntax-ns#"
   xmlns:svg="http://www.w3.org/2000/svg"
   xmlns="http://www.w3.org/2000/svg"
   xmlns:sodipodi="http://sodipodi.sourceforge.net/DTD/sodipodi-0.dtd"
   xmlns:inkscape="http://www.inkscape.org/namespaces/inkscape"
   viewBox="0 0 272 272"
   version="1.1"
   id="svg16"
   sodipodi:docname="_6180_the_moon_fg.svg"
   inkscape:version="0.92.4 (5da689c313, 2019-01-14)"
   width="272"
   height="272">
  <metadata
     id="metadata20">
    <rdf:RDF>
      <cc:Work
         rdf:about="">
        <dc:format>image/svg+xml</dc:format>
        <dc:type
           rdf:resource="http://purl.org/dc/dcmitype/StillImage" />
        <dc:title></dc:title>
      </cc:Work>
    </rdf:RDF>
  </metadata>
  <sodipodi:namedview
     pagecolor="#ffffff"
     bordercolor="#666666"
     borderopacity="1"
     objecttolerance="10"
     gridtolerance="10"
     guidetolerance="10"
     inkscape:pageopacity="0"
     inkscape:pageshadow="2"
     inkscape:window-width="1920"
     inkscape:window-height="1017"
     id="namedview18"
     showgrid="true"
     inkscape:zoom="2.9945397"
     inkscape:cx="36.204625"
     inkscape:cy="101.92595"
     inkscape:window-x="-8"
     inkscape:window-y="-8"
     inkscape:window-maximized="1"
     inkscape:current-layer="svg16"
     inkscape:snap-global="false">
    <inkscape:grid
       type="xygrid"
       id="grid827"
       spacingx="4"
       spacingy="4" />
  </sodipodi:namedview>
  <defs
     id="defs4">
    <style
       id="style2">.a{fill:none;stroke:#b1b5bd;stroke-linecap:round;stroke-linejoin:round;isolation:isolate;opacity:0.63;}</style>
  </defs>
  <path
     inkscape:connector-curvature="0"
     d="m 145.27394,116.93818 c -5.997,0 -10.432,4.186 -10.432,9.684 0,3.123 1.437,5.747 3.748,7.433 -3.623,1.937 -5.934,5.497 -5.934,9.807 0,6.496 5.371,11.557 12.555,11.557 7.247,0 12.682,-5.06 12.682,-11.557 0,-4.31 -2.31,-7.87 -5.996,-9.807 2.312,-1.686 3.748,-4.31 3.748,-7.433 0,-5.497 -4.436,-9.684 -10.37,-9.684 z m 32.082,0 c -9.058,0 -13.744,8.059 -13.744,19.24 0,11.182 4.687,19.24 13.744,19.24 8.933,0 13.742,-8.059 13.742,-19.24 0,-11.182 -4.81,-19.24 -13.742,-19.24 z m -81.429999,0.5 -12.557,16.617 c -1.812,2.499 -3.186,5.37 -3.06,8.682 0.124,7.183 6.308,12.807 13.805,12.619 7.307999,-0.188 13.368999,-5.936 13.243999,-13.244 -0.125,-7.06 -6.123,-12.117 -12.119999,-12.555 -0.75,0 -1.498,0.062 -2.122,0.187 l 9.930999,-12.307 h -7.120999 z m 16.407999,0 v 5.56 h 5.998 v 31.92 h 5.996 v -37.48 z m 32.939,4.623 c 2.874,0 5.123,2.248 5.123,5.184 0,2.936 -2.25,5.185 -5.123,5.185 -2.936,0 -5.184,-2.25 -5.184,-5.185 0,-2.936 2.248,-5.184 5.184,-5.184 z m 32.082,0.438 c 5.435,0 7.746,5.559 7.746,13.68 0,8.12 -2.311,13.68 -7.746,13.68 -5.435,0 -7.746,-5.56 -7.746,-13.68 0,-8.121 2.311,-13.68 7.746,-13.68 z m -83.802999,12.117 c 4.498,-0.125 7.806999,3.06 7.931999,7.558 0.187,4.248 -2.873999,7.621 -7.370999,7.809 -4.56,0.125 -7.745,-2.936 -7.932,-7.246 -0.125,-4.498 2.873,-7.934 7.371,-8.121 z m 51.657999,2.187 c 3.748,0 6.623,2.81 6.623,6.559 0,3.748 -2.875,6.808 -6.623,6.808 -3.685,0 -6.559,-3.06 -6.559,-6.808 0,-3.748 2.874,-6.559 6.559,-6.559 z"
     style="fill:#4a4a4a"
     id="path820" />
</svg>
