<?xml version="1.0" encoding="UTF-8" standalone="no"?>
<svg
   xmlns:dc="http://purl.org/dc/elements/1.1/"
   xmlns:cc="http://creativecommons.org/ns#"
   xmlns:rdf="http://www.w3.org/1999/02/22-rdf-syntax-ns#"
   xmlns:svg="http://www.w3.org/2000/svg"
   xmlns="http://www.w3.org/2000/svg"
   xmlns:sodipodi="http://sodipodi.sourceforge.net/DTD/sodipodi-0.dtd"
   xmlns:inkscape="http://www.inkscape.org/namespaces/inkscape"
   viewBox="0 0 272 272"
   version="1.1"
   id="svg16"
   sodipodi:docname="_7_eleven_fg.svg"
   inkscape:version="0.92.4 (5da689c313, 2019-01-14)"
   width="272"
   height="272">
  <metadata
     id="metadata20">
    <rdf:RDF>
      <cc:Work
         rdf:about="">
        <dc:format>image/svg+xml</dc:format>
        <dc:type
           rdf:resource="http://purl.org/dc/dcmitype/StillImage" />
        <dc:title></dc:title>
      </cc:Work>
    </rdf:RDF>
  </metadata>
  <sodipodi:namedview
     pagecolor="#ffffff"
     bordercolor="#666666"
     borderopacity="1"
     objecttolerance="10"
     gridtolerance="10"
     guidetolerance="10"
     inkscape:pageopacity="0"
     inkscape:pageshadow="2"
     inkscape:window-width="1920"
     inkscape:window-height="1017"
     id="namedview18"
     showgrid="true"
     inkscape:zoom="4.2349186"
     inkscape:cx="94.829131"
     inkscape:cy="139.70708"
     inkscape:window-x="-8"
     inkscape:window-y="-8"
     inkscape:window-maximized="1"
     inkscape:current-layer="svg16"
     inkscape:snap-global="false">
    <inkscape:grid
       type="xygrid"
       id="grid827"
       spacingx="4"
       spacingy="4" />
  </sodipodi:namedview>
  <defs
     id="defs4">
    <style
       id="style2">.a{fill:none;stroke:#b1b5bd;stroke-linecap:round;stroke-linejoin:round;isolation:isolate;opacity:0.63;}</style>
    <style
       type="text/css"
       id="style6">.fil1,.fil3{fill:#008061;fill-rule:nonzero}.fil3{fill:#ed1b2d}.fil2{fill:#f5821f}.fil0,.fil2{fill-rule:nonzero}.fil0,.st0{fill:#fff}</style>
  </defs>
  <g
     transform="matrix(0.52217826,0,0,0.52217826,85.826435,-363.21642)"
     id="layer1">
    <path
       style="fill:#ffffff;fill-rule:nonzero;stroke-width:0.62899798"
       d="M 114.876,1032.862 H 78.818 a 3.99,3.99 0 0 1 -3.99,-3.99 v -1.455 a 1.614,1.614 0 0 0 -1.614,-1.614 H 44.865 c -3.041,0 -5.519,-3.179 -5.519,-7.099 L 26.32,886.966 c 0,-3.922 3.042,-7.104 6.795,-7.104 H 158.91 c 3.73,0 6.77,3.182 6.77,7.104 l -12.878,131.738 c 0,3.92 -2.478,7.1 -5.52,7.1 l -26.801,0.012 a 1.615,1.615 0 0 0 -1.614,1.615 v 1.441 a 3.99,3.99 0 0 1 -3.99,3.99 z"
       id="path1280"
       inkscape:connector-curvature="0" />
    <path
       style="fill:#f8c18c;fill-opacity:1;fill-rule:nonzero;stroke-width:0.62899798"
       d="m 133.447,899.15 c -8.292,3.109 -33.534,20.2 -39.838,31.69 h -41.31 a 3,3 0 0 1 -3,-2.993 l -0.06,-25.704 a 2.986,2.986 0 0 1 2.986,-2.992 z"
       id="path1282"
       inkscape:connector-curvature="0" />
    <path
       style="fill:#ff837d;fill-opacity:1;fill-rule:nonzero;stroke-width:0.62899798"
       d="m 116.349,989.952 c -1.12,10.693 -1.24,23.556 -1.25,37.137 a 2.994,2.994 0 0 1 -2.994,2.993 H 81.59 a 2.98,2.98 0 0 1 -2.985,-2.993 c 0.078,-13.581 0.687,-26.444 1.807,-37.137 z"
       id="path1284"
       inkscape:connector-curvature="0" />
    <path
       style="fill:#70a270;fill-opacity:1;fill-rule:nonzero;stroke-width:0.62899798"
       d="m 54.04,968.924 v 4.445 h 5.839 v 4.447 H 54.04 v 4.45 h 5.839 v 5.098 H 46.534 V 963.64 h 13.345 v 5.284 z"
       id="path1286"
       inkscape:connector-curvature="0" />
    <path
       style="fill:#70a270;fill-opacity:1;fill-rule:nonzero;stroke-width:0.62899798"
       d="m 85.097,968.924 v 4.445 h 5.813 v 4.447 h -5.813 v 4.45 h 5.813 v 5.098 H 77.59 V 963.64 h 13.32 v 5.284 z"
       id="path1288"
       inkscape:connector-curvature="0" />
    <path
       style="fill:#70a270;fill-opacity:1;fill-rule:nonzero;stroke-width:0.62899798"
       d="m 119.268,968.924 v 4.445 h 5.838 v 4.447 h -5.838 v 4.45 h 5.838 v 5.098 H 111.76 V 963.64 h 13.345 v 5.284 z"
       id="path1290"
       inkscape:connector-curvature="0" />
    <path
       style="fill:#70a270;fill-opacity:1;fill-rule:nonzero;stroke-width:0.62899798"
       d="M 62.38,987.364 V 963.64 h 7.507 v 18.626 h 5.838 v 5.098 z"
       id="path1292"
       inkscape:connector-curvature="0" />
    <path
       style="fill:#70a270;fill-opacity:1;fill-rule:nonzero;stroke-width:0.62899798"
       d="m 98.833,963.64 h -6.549 l 3.728,23.724 h 9.64 l 4.515,-23.724 h -5.569 l -2.919,16.034 z"
       id="path1294"
       inkscape:connector-curvature="0" />
    <path
       style="fill:#70a270;fill-opacity:1;fill-rule:nonzero;stroke-width:0.62899798"
       d="m 141.367,962.961 c -1.833,0.024 -3.916,0.661 -5.884,2.067 v -1.389 h -7.212 v 23.721 h 7.212 v -16.685 c 0.4,-2.588 4.072,-1.892 4.072,-0.41 v 17.1 h 7.237 v -20.11 c 0,-2.664 -2.368,-4.333 -5.425,-4.294 z"
       id="path1296"
       inkscape:connector-curvature="0" />
    <path
       style="fill:#ff837d;fill-opacity:1;fill-rule:nonzero;stroke-width:0.62899798"
       d="m 119.734,960.304 c 0.68,-8.38 11.325,-21.654 22.431,-26.711 1.504,-0.685 2.787,-2.428 2.787,-4.08 v -29.04 c 0,-1.653 -1.225,-2.449 -2.721,-1.747 -31.598,14.822 -52.087,36.708 -56.62,61.49 z"
       id="path1298"
       inkscape:connector-curvature="0" />
  </g>
</svg>
