<?xml version="1.0" encoding="UTF-8" standalone="no"?>
<svg
   xmlns:dc="http://purl.org/dc/elements/1.1/"
   xmlns:cc="http://creativecommons.org/ns#"
   xmlns:rdf="http://www.w3.org/1999/02/22-rdf-syntax-ns#"
   xmlns:svg="http://www.w3.org/2000/svg"
   xmlns="http://www.w3.org/2000/svg"
   xmlns:sodipodi="http://sodipodi.sourceforge.net/DTD/sodipodi-0.dtd"
   xmlns:inkscape="http://www.inkscape.org/namespaces/inkscape"
   viewBox="0 0 272 272"
   version="1.1"
   id="svg16"
   sodipodi:docname="_7plus_fg.svg"
   inkscape:version="0.92.4 (5da689c313, 2019-01-14)"
   width="272"
   height="272">
  <metadata
     id="metadata20">
    <rdf:RDF>
      <cc:Work
         rdf:about="">
        <dc:format>image/svg+xml</dc:format>
        <dc:type
           rdf:resource="http://purl.org/dc/dcmitype/StillImage" />
        <dc:title></dc:title>
      </cc:Work>
    </rdf:RDF>
  </metadata>
  <sodipodi:namedview
     pagecolor="#ffffff"
     bordercolor="#666666"
     borderopacity="1"
     objecttolerance="10"
     gridtolerance="10"
     guidetolerance="10"
     inkscape:pageopacity="0"
     inkscape:pageshadow="2"
     inkscape:window-width="1920"
     inkscape:window-height="1017"
     id="namedview18"
     showgrid="true"
     inkscape:zoom="2.9945397"
     inkscape:cx="36.204625"
     inkscape:cy="120.81651"
     inkscape:window-x="-8"
     inkscape:window-y="-8"
     inkscape:window-maximized="1"
     inkscape:current-layer="svg16"
     inkscape:snap-global="true">
    <inkscape:grid
       type="xygrid"
       id="grid827"
       spacingx="4"
       spacingy="4" />
  </sodipodi:namedview>
  <defs
     id="defs4">
    <style
       id="style2">.a{fill:none;stroke:#b1b5bd;stroke-linecap:round;stroke-linejoin:round;isolation:isolate;opacity:0.63;}</style>
    <style
       id="style2-5">.f7924980-f552-4695-b1b0-a71477f05d80{fill:#fff}</style>
  </defs>
  <path
     inkscape:connector-curvature="0"
     id="path12"
     d="m 89.61,173.151 c 0,-0.503 3.89,-7.422 8.528,-15.447 4.64,-8.024 14.39,-24.408 21.478,-36.4 7.086,-11.993 13.176,-22.04 13.6,-22.208 0.425,-0.168 4.215,5.655 8.528,12.83 l 7.768,13 -14.015,24.497 L 121.392,174 h -15.88 C 95.049,174 89.61,173.664 89.61,173.151 Z"
     class="f7924980-f552-4695-b1b0-a71477f05d80"
     style="fill:#ffffff;stroke-width:0.98701298" />
  <path
     inkscape:connector-curvature="0"
     id="path14"
     d="m 164.791,146.976 v -7.6 h -9.288 c -5.823,0 -9.287,-0.336 -9.287,-0.84 0,-0.503 1.628,-3.72 3.602,-7.185 l 3.573,-6.208 5.498,-0.247 5.488,-0.257 0.246,-7.767 0.257,-7.896 h 14.272 v 16.048 h 16.069 v 14.352 h -16.069 v 15.2 h -14.36 z"
     class="f7924980-f552-4695-b1b0-a71477f05d80"
     style="fill:#ffffff;stroke-width:0.98701298" />
  <path
     inkscape:connector-curvature="0"
     id="path16"
     d="m 86.857,115.056 c -3.13,-5.4 -6.673,-11.48 -7.896,-13.424 L 76.779,98 h 27.212 c 21.458,0 27.113,0.257 26.778,1.096 -0.257,0.513 -3.652,6.504 -7.6,13.216 l -7.186,12.337 -11.735,0.168 -11.677,0.207 z"
     class="f7924980-f552-4695-b1b0-a71477f05d80"
     style="fill:#ffffff;stroke-width:0.98701298" />
</svg>
