<?xml version="1.0" encoding="UTF-8" standalone="no"?>
<svg
   xmlns:dc="http://purl.org/dc/elements/1.1/"
   xmlns:cc="http://creativecommons.org/ns#"
   xmlns:rdf="http://www.w3.org/1999/02/22-rdf-syntax-ns#"
   xmlns:svg="http://www.w3.org/2000/svg"
   xmlns="http://www.w3.org/2000/svg"
   xmlns:sodipodi="http://sodipodi.sourceforge.net/DTD/sodipodi-0.dtd"
   xmlns:inkscape="http://www.inkscape.org/namespaces/inkscape"
   viewBox="0 0 272 272"
   version="1.1"
   id="svg16"
   sodipodi:docname="_8_ball_pool_fg.svg"
   inkscape:version="0.92.4 (5da689c313, 2019-01-14)"
   width="272"
   height="272">
  <metadata
     id="metadata20">
    <rdf:RDF>
      <cc:Work
         rdf:about="">
        <dc:format>image/svg+xml</dc:format>
        <dc:type
           rdf:resource="http://purl.org/dc/dcmitype/StillImage" />
        <dc:title></dc:title>
      </cc:Work>
    </rdf:RDF>
  </metadata>
  <sodipodi:namedview
     pagecolor="#ffffff"
     bordercolor="#666666"
     borderopacity="1"
     objecttolerance="10"
     gridtolerance="10"
     guidetolerance="10"
     inkscape:pageopacity="0"
     inkscape:pageshadow="2"
     inkscape:window-width="1920"
     inkscape:window-height="1017"
     id="namedview18"
     showgrid="true"
     inkscape:zoom="2.9945397"
     inkscape:cx="36.204625"
     inkscape:cy="101.92595"
     inkscape:window-x="-8"
     inkscape:window-y="-8"
     inkscape:window-maximized="1"
     inkscape:current-layer="svg16"
     inkscape:snap-global="false">
    <inkscape:grid
       type="xygrid"
       id="grid827"
       spacingx="4"
       spacingy="4" />
  </sodipodi:namedview>
  <defs
     id="defs4">
    <style
       id="style2">.a{fill:none;stroke:#b1b5bd;stroke-linecap:round;stroke-linejoin:round;isolation:isolate;opacity:0.63;}</style>
  </defs>
  <path
     inkscape:connector-curvature="0"
     style="clip-rule:evenodd;fill:#ffffff;fill-rule:evenodd"
     d="m 135.90505,173.92706 c 20.711,0 37.5,-16.789 37.5,-37.5 0,-20.711 -16.789,-37.499997 -37.5,-37.499997 -20.711,0 -37.499995,16.788997 -37.499995,37.499997 0,20.711 16.788995,37.5 37.499995,37.5 z"
     id="path4" />
  <path
     inkscape:connector-curvature="0"
     style="fill:#56595b"
     d="m 142.59505,134.85206 c 1.305,-1.215 2.07,-2.925 2.07,-4.905 0,-4.185 -3.42,-7.38 -8.235,-7.38 -4.77,0 -8.235,3.195 -8.235,7.38 0,1.98 0.765,3.69 2.07,4.95 -2.295,1.44 -3.69,3.825 -3.69,6.705 0,4.95 4.14,8.685 9.855,8.685 5.76,0 9.945,-3.735 9.945,-8.685 0,-2.88 -1.44,-5.265 -3.78,-6.75 z m -6.12,-7.155 c 1.53,0 2.7,1.17 2.7,2.745 0,1.575 -1.17,2.745 -2.7,2.745 -1.575,0 -2.745,-1.17 -2.745,-2.745 0,-1.575 1.17,-2.745 2.745,-2.745 z m -0.045,16.785 c -1.845,0 -3.195,-1.485 -3.195,-3.42 0,-1.89 1.35,-3.15 3.195,-3.15 1.89,0 3.24,1.26 3.24,3.15 0,1.935 -1.35,3.42 -3.24,3.42 z"
     id="path6" />
</svg>
