<?xml version="1.0" encoding="UTF-8" standalone="no"?>
<svg
   xmlns:dc="http://purl.org/dc/elements/1.1/"
   xmlns:cc="http://creativecommons.org/ns#"
   xmlns:rdf="http://www.w3.org/1999/02/22-rdf-syntax-ns#"
   xmlns:svg="http://www.w3.org/2000/svg"
   xmlns="http://www.w3.org/2000/svg"
   xmlns:sodipodi="http://sodipodi.sourceforge.net/DTD/sodipodi-0.dtd"
   xmlns:inkscape="http://www.inkscape.org/namespaces/inkscape"
   viewBox="0 0 272 272"
   version="1.1"
   id="svg16"
   sodipodi:docname="_8bit_painter.svg"
   inkscape:version="0.92.4 (5da689c313, 2019-01-14)"
   width="272"
   height="272">
  <metadata
     id="metadata20">
    <rdf:RDF>
      <cc:Work
         rdf:about="">
        <dc:format>image/svg+xml</dc:format>
        <dc:type
           rdf:resource="http://purl.org/dc/dcmitype/StillImage" />
        <dc:title></dc:title>
      </cc:Work>
    </rdf:RDF>
  </metadata>
  <sodipodi:namedview
     pagecolor="#ffffff"
     bordercolor="#666666"
     borderopacity="1"
     objecttolerance="10"
     gridtolerance="10"
     guidetolerance="10"
     inkscape:pageopacity="0"
     inkscape:pageshadow="2"
     inkscape:window-width="1920"
     inkscape:window-height="1017"
     id="namedview18"
     showgrid="true"
     inkscape:zoom="4.2349186"
     inkscape:cx="36.204625"
     inkscape:cy="120.81651"
     inkscape:window-x="-8"
     inkscape:window-y="-8"
     inkscape:window-maximized="1"
     inkscape:current-layer="svg16"
     inkscape:snap-global="true">
    <inkscape:grid
       type="xygrid"
       id="grid827"
       spacingx="4"
       spacingy="4" />
  </sodipodi:namedview>
  <defs
     id="defs4">
    <style
       id="style2">.a{fill:none;stroke:#b1b5bd;stroke-linecap:round;stroke-linejoin:round;isolation:isolate;opacity:0.63;}</style>
  </defs>
  <path
     inkscape:connector-curvature="0"
     d="m 112,104 v 4 h -4 v 4 h -4 v 8 h -4 v 12 h -4 v 8 h -4 v 4 h 4 v 4 h -4 v 4 h 4 v 4 h 4 v 4 h 4 v 4 h 8 v 4 h 48 v -4 h 8 v -4 h 4 v -4 h 4 v -4 h 4 v -4 h -4 v -4 h 4 v -4 h -4 v -8 h -4 v -12 h -4 v -8 h -4 v -4 h -4 v -4 h -4 v 4 h -4 v 4 h -32 v -4 h -4 v -4 z"
     style="fill:#56595b;stroke-width:0.5;paint-order:stroke fill markers"
     id="path2" />
  <path
     inkscape:connector-curvature="0"
     d="m 112,108 v 4 h -4 v 8 h -4 v 12 h -4 v 8 h 4 v 4 h -4 v 4 h 4 v 4 h -4 v 4 h 4 v 4 h 8 v 4 h 48 v -4 h 8 v -4 h 4 v -4 h -4 v -4 h 4 v -4 h -4 v -4 h 4 v -8 h -4 v -12 h -4 v -8 h -4 v -4 h -4 v 4 h -4 v 4 h -32 v -4 h -4 v -4 z"
     style="fill:#f8c18c;stroke-width:0.5;paint-order:stroke fill markers"
     id="path4" />
  <path
     inkscape:connector-curvature="0"
     d="m 100,136 h 8 v 4 h -8 z m 4,-8 h 4 v 4 h -4 z m 60,8 h 8 v 4 h -8 z m 0,-8 h 4 v 4 h -4 z"
     style="opacity:0.25;stroke-width:0.5;paint-order:stroke fill markers"
     id="path6" />
  <path
     inkscape:connector-curvature="0"
     d="m 104,156 h 64 v 4 h -64 z"
     style="fill:#ffffff;stroke-width:0.5;paint-order:stroke fill markers"
     id="path8" />
  <path
     inkscape:connector-curvature="0"
     d="m 108,152 h 56 v 8 h -56 z"
     style="fill:#ffffff;stroke-width:0.5;paint-order:stroke fill markers"
     id="path10" />
  <path
     inkscape:connector-curvature="0"
     d="m 112,148 h 48 v 16 h -48 z"
     style="fill:#ffffff;stroke-width:0.5;paint-order:stroke fill markers"
     id="path12" />
  <path
     inkscape:connector-curvature="0"
     d="m 120,144 h 32 v 12 h -32 z"
     style="fill:#ffffff;stroke-width:0.5;paint-order:stroke fill markers"
     id="path14" />
  <path
     inkscape:connector-curvature="0"
     d="m 128,140 h 16 v 8 h -16 z"
     style="fill:#ffffff;stroke-width:0.5;paint-order:stroke fill markers"
     id="path16" />
  <path
     inkscape:connector-curvature="0"
     d="m 128,144 h 16 v 4 h -16 z"
     style="fill:#4a4a4a;stroke-width:0.5;paint-order:stroke fill markers"
     id="path18" />
  <path
     inkscape:connector-curvature="0"
     d="m 134,144 h 4 v 12 h -4 z"
     style="fill:#4a4a4a;stroke-width:0.54769999;paint-order:stroke fill markers"
     id="path20" />
  <path
     inkscape:connector-curvature="0"
     d="m 128,156 h 6 v 4 h -6 z m 10,0 h 6 v 4 h -6 z m -14,-4 h 4 v 4 h -4 z m 20,0 h 4 v 4 h -4 z m -24,-20 h 4 v 12 h -4 z m 28,0 h 4 v 12 h -4 z"
     style="fill:#4a4a4a;stroke-width:0.5;paint-order:stroke fill markers"
     id="path22" />
  <path
     inkscape:connector-curvature="0"
     d="m 112,112 h 4 v 8 h -4 z m 44,0 h 4 v 8 h -4 z"
     style="fill:#ff837d;stroke-width:0.5;paint-order:stroke fill markers"
     id="path24" />
  <path
     inkscape:connector-curvature="0"
     d="m 124,116 h 4 v 4 h -4 z m 20,0 h 4 v 4 h -4 z m -10,0 h 4 v 8 h -4 z"
     style="opacity:0.25;stroke-width:0.5;paint-order:stroke fill markers"
     id="path26" />
</svg>
