<?xml version="1.0" encoding="UTF-8" standalone="no"?>
<svg
   xmlns:dc="http://purl.org/dc/elements/1.1/"
   xmlns:cc="http://creativecommons.org/ns#"
   xmlns:rdf="http://www.w3.org/1999/02/22-rdf-syntax-ns#"
   xmlns:svg="http://www.w3.org/2000/svg"
   xmlns="http://www.w3.org/2000/svg"
   xmlns:sodipodi="http://sodipodi.sourceforge.net/DTD/sodipodi-0.dtd"
   xmlns:inkscape="http://www.inkscape.org/namespaces/inkscape"
   viewBox="0 0 272 272"
   version="1.1"
   id="svg16"
   sodipodi:docname="_8fit_fg.svg"
   inkscape:version="0.92.4 (5da689c313, 2019-01-14)"
   width="272"
   height="272">
  <metadata
     id="metadata20">
    <rdf:RDF>
      <cc:Work
         rdf:about="">
        <dc:format>image/svg+xml</dc:format>
        <dc:type
           rdf:resource="http://purl.org/dc/dcmitype/StillImage" />
        <dc:title></dc:title>
      </cc:Work>
    </rdf:RDF>
  </metadata>
  <sodipodi:namedview
     pagecolor="#ffffff"
     bordercolor="#666666"
     borderopacity="1"
     objecttolerance="10"
     gridtolerance="10"
     guidetolerance="10"
     inkscape:pageopacity="0"
     inkscape:pageshadow="2"
     inkscape:window-width="1920"
     inkscape:window-height="1017"
     id="namedview18"
     showgrid="true"
     inkscape:zoom="2.9945397"
     inkscape:cx="36.204625"
     inkscape:cy="139.70708"
     inkscape:window-x="-8"
     inkscape:window-y="-8"
     inkscape:window-maximized="1"
     inkscape:current-layer="svg16"
     inkscape:snap-global="false">
    <inkscape:grid
       type="xygrid"
       id="grid827"
       spacingx="4"
       spacingy="4" />
  </sodipodi:namedview>
  <defs
     id="defs4">
    <style
       id="style2">.a{fill:none;stroke:#b1b5bd;stroke-linecap:round;stroke-linejoin:round;isolation:isolate;opacity:0.63;}</style>
  </defs>
  <path
     inkscape:connector-curvature="0"
     d="m 145.83442,120.24662 c 3.26939,-5.16408 1.73252,-12.00162 -3.43155,-15.27101 -5.1607,-3.26724 -12.00407,-1.73052 -15.27132,3.43018 -3.26778,5.16154 -1.99854,12.0853 3.16216,15.35254 0.0541,0.0342 0.0541,0.0342 0,0 -5.1607,-3.26724 -6.42994,-10.191 -3.16216,-15.35254 3.26725,-5.1607 10.11062,-6.69742 15.27132,-3.43018 5.16407,3.26939 6.70094,10.10693 3.43155,15.27101 z"
     style="clip-rule:evenodd;fill:none;fill-rule:evenodd;stroke:#56595b;stroke-width:4px;stroke-linecap:round;stroke-linejoin:round;stroke-miterlimit:1.5"
     id="path820" />
  <path
     inkscape:connector-curvature="0"
     d="m 127.29197,150.57785 c -3.29889,5.14527 -1.80119,11.9915 3.34408,15.2904 5.14191,3.29674 11.99396,1.79921 15.2907,-3.3427 3.29728,-5.14274 1.79837,-11.9945 -3.34354,-15.29124 5.14191,3.29674 6.64082,10.1485 3.34354,15.29124 -3.29674,5.14191 -10.14879,6.63944 -15.2907,3.3427 -5.14527,-3.2989 -6.64297,-10.14513 -3.34408,-15.2904 z"
     style="clip-rule:evenodd;fill:none;fill-rule:evenodd;stroke:#56595b;stroke-width:4px;stroke-linecap:round;stroke-linejoin:round;stroke-miterlimit:1.5"
     id="path822" />
  <path
     inkscape:connector-curvature="0"
     d="m 151.72667,126.25566 c 6.5875,-8.41738 5.10265,-20.58293 -3.31474,-27.170434 -8.41187,-6.583195 -20.58753,-5.099595 -27.17073,3.312274 -6.58427,8.41326 -5.09822,20.58862 3.31365,27.17182 -8.41187,-6.5832 -9.89792,-18.75856 -3.31365,-27.17182 6.5832,-8.411869 18.75886,-9.895469 27.17073,-3.312274 8.41739,6.587504 9.90224,18.753054 3.31474,27.170434 z"
     style="clip-rule:evenodd;fill:none;fill-rule:evenodd;stroke:#56595b;stroke-width:4.00475168px;stroke-linecap:round;stroke-linejoin:round;stroke-miterlimit:1.5"
     id="path824" />
  <path
     inkscape:connector-curvature="0"
     d="m 151.68486,126.32363 -24.18,24.021"
     style="clip-rule:evenodd;fill:none;fill-rule:evenodd;stroke:#56595b;stroke-width:4px;stroke-linecap:round;stroke-linejoin:round;stroke-miterlimit:1.5"
     id="path826" />
  <path
     inkscape:connector-curvature="0"
     d="m 121.43708,144.5342 c -6.63554,8.37949 -5.22036,20.55326 3.15912,27.18881 8.37401,6.6312 20.55789,5.21734 27.1891,-3.15666 6.63229,-8.37538 5.21596,-20.55898 -3.15804,-27.19018 8.374,6.6312 9.79033,18.8148 3.15804,27.19018 -6.63121,8.374 -18.81509,9.78786 -27.1891,3.15666 -8.37948,-6.63555 -9.79466,-18.80932 -3.15912,-27.18881 z"
     style="clip-rule:evenodd;fill:none;fill-rule:evenodd;stroke:#56595b;stroke-width:4.00472879px;stroke-linecap:round;stroke-linejoin:round;stroke-miterlimit:1.5"
     id="path828" />
  <path
     inkscape:connector-curvature="0"
     d="m 121.64886,144.30263 24.145,-23.988"
     style="clip-rule:evenodd;fill:none;fill-rule:evenodd;stroke:#56595b;stroke-width:4px;stroke-linecap:round;stroke-linejoin:round;stroke-miterlimit:1.5"
     id="path830" />
</svg>
