<?xml version="1.0" encoding="UTF-8" standalone="no"?>
<svg
   xmlns:dc="http://purl.org/dc/elements/1.1/"
   xmlns:cc="http://creativecommons.org/ns#"
   xmlns:rdf="http://www.w3.org/1999/02/22-rdf-syntax-ns#"
   xmlns:svg="http://www.w3.org/2000/svg"
   xmlns="http://www.w3.org/2000/svg"
   xmlns:sodipodi="http://sodipodi.sourceforge.net/DTD/sodipodi-0.dtd"
   xmlns:inkscape="http://www.inkscape.org/namespaces/inkscape"
   viewBox="0 0 272 272"
   version="1.1"
   id="svg16"
   sodipodi:docname="_8vim_keyboard_fg.svg"
   inkscape:version="0.92.4 (5da689c313, 2019-01-14)"
   width="272"
   height="272">
  <metadata
     id="metadata20">
    <rdf:RDF>
      <cc:Work
         rdf:about="">
        <dc:format>image/svg+xml</dc:format>
        <dc:type
           rdf:resource="http://purl.org/dc/dcmitype/StillImage" />
        <dc:title></dc:title>
      </cc:Work>
    </rdf:RDF>
  </metadata>
  <sodipodi:namedview
     pagecolor="#ffffff"
     bordercolor="#666666"
     borderopacity="1"
     objecttolerance="10"
     gridtolerance="10"
     guidetolerance="10"
     inkscape:pageopacity="0"
     inkscape:pageshadow="2"
     inkscape:window-width="1920"
     inkscape:window-height="1017"
     id="namedview18"
     showgrid="true"
     inkscape:zoom="2.9945397"
     inkscape:cx="36.204625"
     inkscape:cy="101.92595"
     inkscape:window-x="-8"
     inkscape:window-y="-8"
     inkscape:window-maximized="1"
     inkscape:current-layer="svg16"
     inkscape:snap-global="false">
    <inkscape:grid
       type="xygrid"
       id="grid827"
       spacingx="4"
       spacingy="4" />
  </sodipodi:namedview>
  <defs
     id="defs4">
    <style
       id="style2">.a{fill:none;stroke:#b1b5bd;stroke-linecap:round;stroke-linejoin:round;isolation:isolate;opacity:0.63;}</style>
  </defs>
  <path
     inkscape:connector-curvature="0"
     d="m 112.51306,177.75894 c -8.326,-0.94 -16.263001,-5.523 -22.862001,-13.198 -7.895,-9.182 -9.565,-16.396 -4.867,-21.02 1.957,-1.926 4.878,-3.079 8.788,-3.47 1.277,-0.127 7.099001,0.113 10.713001,0.442 l 1.311,0.12 1.005,-2.018 c 0.553,-1.11 1.5,-2.57 2.103,-3.245 0.604,-0.675 1.099,-1.344 1.099,-1.487 0,-0.143 -1.01,-1.347 -2.245,-2.676 -3.897,-4.194 -5.544,-6.6 -6.776,-9.894 -0.552,-1.479 -0.608,-1.892 -0.617,-4.553 -0.01,-2.74 0.033,-3.047 0.665,-4.812 0.985,-2.753 2.432,-4.932 4.95,-7.452 8.392,-8.401999 24.31,-12.559999 37.619,-9.827999 10.273,2.11 18.576,7.892999 24.559,17.105999 2.587,3.984 4.973,9.571 6.254,14.644 l 0.714,2.829 2.505,-0.085 c 8.326,-0.28 13.222,4.233 12.34,11.374 -0.709,5.735 -5.209,13.43 -11.265,19.262 -3.438,3.31 -6.226,5.28 -10.55,7.451 -1.582,0.794 -2.519,1.451 -3.737,2.622 -3.478,3.34 -7.745,6.14 -11.091,7.279 -5.083,1.729 -9.15,0.154 -11.79,-4.566 l -0.732,-1.31 -1.798,-0.276 c -0.988,-0.153 -2.988,-0.568 -4.443,-0.922 l -2.646,-0.645 -1.582,1.598 c -2.824,2.855 -5.826,4.725 -9.386,5.845 -2.528,0.795 -5.86,1.153 -8.238,0.885 z m 39.249,-0.836 c 2.919,-0.732 8.494,-4.185 11.114,-6.885 l 0.933,-0.961 -1.584,0.52 c -4.243,1.39 -8.736,2.074 -13.832,2.101 -2.087,0.011 -4.555,-0.057 -5.484,-0.152 l -1.69,-0.173 0.428,0.838 c 2.046,4.012 5.846,5.782 10.115,4.712 z m -32.48,-2.057 c 3.262,-0.784 6.517,-2.631 8.907,-5.055 l 1.151,-1.168 -1.996,-0.714 c -2.427,-0.868 -6.887,-3.046 -9.292,-4.538 -4.763,-2.954 -8.658,-6.794 -10.794,-10.643 -1.426,-2.569 -2.393,-6.417 -2.177,-8.663 l 0.105,-1.092 h -0.673 c -0.37,0.001 -2.64,-0.11 -5.044001,-0.247 -4.923,-0.28 -7.406,-0.09 -9.607,0.74 -5.74,2.163 -6.459,7.131 -2.046,14.16 4.362,6.948 10.985,12.913 17.455001,15.719 4.784,2.075 9.516,2.582 14.011,1.5 z m 33.67,-4.346 c 3.063,-0.37 6.252,-1.074 8.974,-1.98 4.068,-1.353 3.956,-1.267 6.514,-5.06 4.687,-6.95 6.875,-15.03 6.547,-24.173 -0.116,-3.23 -0.624,-7.706 -0.906,-7.988 -0.205,-0.204 -4.15,1.027 -6.53,2.037 -9.982,4.24 -17.857,10.96 -25.746,21.969 l -2.36,3.293 0.127,3.732 c 0.124,3.627 0.456,5.85 1.104,7.403 0.287,0.685 0.401,0.755 1.36,0.83 2.354,0.184 9.2,0.145 10.915,-0.063 z m -12.794,-0.744 c -0.443,-1.165 -0.913,-4.434 -1.05,-7.313 l -0.146,-3.033 -2.06,2.99 c -1.132,1.643 -2.622,3.723 -3.309,4.62 -1.48,1.932 -1.735,1.69 2.761,2.616 3.918,0.807 4.067,0.811 3.804,0.12 z m -8.303,-4.074 c 0.953,-1.222 2.966,-3.994 4.474,-6.16 l 2.741,-3.938 -0.005,-3.975 c -0.005,-3.588 -0.147,-5.997 -0.559,-9.504 -0.077,-0.655 -0.085,-1.141 -0.018,-1.079 0.22,0.203 0.778,6.302 0.926,10.11 l 0.144,3.72 1.56,-2.094 c 5.24,-7.035 10.708,-12.35 16.814,-16.343 4.206,-2.75 9.753,-5.313 14.01,-6.472 0.94,-0.256 1.737,-0.491 1.773,-0.523 0.127,-0.115 -1.045,-4.419 -1.807,-6.63 -0.897,-2.604 -2.914,-6.903 -4.344,-9.259 -3.75,-6.176 -9.038,-11.11 -15.16,-14.142999 -5.488,-2.72 -9.264,-3.647 -15.613,-3.834 -2.619,-0.078 -4.952,-0.027 -6.396,0.14 -15.932,1.829 -28.371,10.956999 -28.394,20.833999 -0.004,1.93 0.463,3.637 1.628,5.953 1.125,2.237 2.512,4.029 5.75,7.429 l 2.287,2.4 1.724,-1.185 c 0.948,-0.653 2.798,-1.71 4.11,-2.349 2.246,-1.095 7.889,-3.163 8.574,-3.142 0.173,0.006 -0.808,0.384 -2.18,0.841 -4.495,1.5 -9.116,3.798 -11.246,5.594 l -0.731,0.617 0.748,1.185 c 1.05,1.663 1.509,2.945 1.52,4.256 0.026,2.86 -2.16,4.37 -6.914,4.771 l -1.587,0.134 -0.02,0.89 c -0.06,2.8 0.226,4.317 1.298,6.868 2.157,5.134 8.055,10.567 15.291,14.085 2.702,1.313 6.902,2.997 7.52,3.015 0.194,0.006 1.124,-0.982 2.083,-2.212 z m 39.627,-1.789 c 8.305,-5.354 15.628,-15.457 16.799,-23.176 0.735,-4.851 -1.574,-8.306 -6.384,-9.55 -1.347,-0.35 -5.862,-0.467 -6.336,-0.165 -0.196,0.124 -0.175,0.702 0.088,2.435 0.444,2.922 0.494,10.367 0.09,13.221 -0.998,7.04 -3.308,12.682 -7.833,19.13 -0.29,0.412 -0.207,0.395 0.758,-0.157 a 80.118,80.118 0 0 0 2.818,-1.738 z m -61.83,-23.776 c 1.419,-0.311 2.319,-1.093 2.319,-2.013 0,-0.737 -1.403,-3.803 -1.74,-3.803 -0.596,0 -3.897,5.082 -3.897,6 0,0.258 1.745,0.161 3.319,-0.184 z"
     style="fill:#728dbe;stroke-width:0.2167988"
     id="path820" />
</svg>
