<?xml version="1.0" encoding="UTF-8" standalone="no"?>
<svg
   xmlns:dc="http://purl.org/dc/elements/1.1/"
   xmlns:cc="http://creativecommons.org/ns#"
   xmlns:rdf="http://www.w3.org/1999/02/22-rdf-syntax-ns#"
   xmlns:svg="http://www.w3.org/2000/svg"
   xmlns="http://www.w3.org/2000/svg"
   xmlns:sodipodi="http://sodipodi.sourceforge.net/DTD/sodipodi-0.dtd"
   xmlns:inkscape="http://www.inkscape.org/namespaces/inkscape"
   viewBox="0 0 272 272"
   version="1.1"
   id="svg16"
   sodipodi:docname="_90s_fg.svg"
   inkscape:version="0.92.4 (5da689c313, 2019-01-14)"
   width="272"
   height="272">
  <metadata
     id="metadata20">
    <rdf:RDF>
      <cc:Work
         rdf:about="">
        <dc:format>image/svg+xml</dc:format>
        <dc:type
           rdf:resource="http://purl.org/dc/dcmitype/StillImage" />
        <dc:title></dc:title>
      </cc:Work>
    </rdf:RDF>
  </metadata>
  <sodipodi:namedview
     pagecolor="#ffffff"
     bordercolor="#666666"
     borderopacity="1"
     objecttolerance="10"
     gridtolerance="10"
     guidetolerance="10"
     inkscape:pageopacity="0"
     inkscape:pageshadow="2"
     inkscape:window-width="1920"
     inkscape:window-height="1017"
     id="namedview18"
     showgrid="true"
     inkscape:zoom="2.9945397"
     inkscape:cx="36.204625"
     inkscape:cy="101.92595"
     inkscape:window-x="-8"
     inkscape:window-y="-8"
     inkscape:window-maximized="1"
     inkscape:current-layer="svg16"
     inkscape:snap-global="true">
    <inkscape:grid
       type="xygrid"
       id="grid827"
       spacingx="4"
       spacingy="4" />
  </sodipodi:namedview>
  <defs
     id="defs4">
    <style
       id="style2">.a{fill:none;stroke:#b1b5bd;stroke-linecap:round;stroke-linejoin:round;isolation:isolate;opacity:0.63;}</style>
  </defs>
  <path
     inkscape:connector-curvature="0"
     d="m 172.9,130.129 -51.054,-29.476 a 6.775,6.775 0 0 0 -10.164,5.87 v 58.953 a 6.775,6.775 0 0 0 10.164,5.871 L 172.9,141.871 a 6.775,6.775 0 0 0 0,-11.742 z m -47.428,23.197 V 118.674 L 155.504,136 Z"
     style="fill:#ff837d;stroke-width:0.99346399"
     id="path820" />
  <path
     inkscape:connector-curvature="0"
     d="M 166.134,130.129 115.07,100.653 a 6.775,6.775 0 0 0 -10.153,5.87 v 58.953 a 6.775,6.775 0 0 0 10.153,5.871 l 51.064,-29.476 a 6.785,6.785 0 0 0 0,-11.742 z m -47.388,23.197 V 118.674 L 148.719,136 Z"
     style="fill:#96dfd3;stroke-width:0.99346399"
     id="path822" />
  <path
     inkscape:connector-curvature="0"
     d="M 166.134,130.129 115.07,100.653 a 6.736,6.736 0 0 0 -3.388,5.87 v 58.953 a 6.736,6.736 0 0 0 3.388,5.871 l 51.064,-29.476 a 6.785,6.785 0 0 0 0,-11.742 z m -40.662,23.197 v -3.904 l -6.726,3.904 v -34.652 l 6.775,3.904 v -3.904 L 155.504,136 Z"
     style="fill:#ffffff;stroke-width:0.99346399"
     id="path824" />
</svg>
