<?xml version="1.0" encoding="UTF-8" standalone="no"?>
<svg
   xmlns:dc="http://purl.org/dc/elements/1.1/"
   xmlns:cc="http://creativecommons.org/ns#"
   xmlns:rdf="http://www.w3.org/1999/02/22-rdf-syntax-ns#"
   xmlns:svg="http://www.w3.org/2000/svg"
   xmlns="http://www.w3.org/2000/svg"
   xmlns:sodipodi="http://sodipodi.sourceforge.net/DTD/sodipodi-0.dtd"
   xmlns:inkscape="http://www.inkscape.org/namespaces/inkscape"
   viewBox="0 0 272 272"
   version="1.1"
   id="svg16"
   sodipodi:docname="_9now_fg.svg"
   inkscape:version="0.92.4 (5da689c313, 2019-01-14)"
   width="272"
   height="272">
  <metadata
     id="metadata20">
    <rdf:RDF>
      <cc:Work
         rdf:about="">
        <dc:format>image/svg+xml</dc:format>
        <dc:type
           rdf:resource="http://purl.org/dc/dcmitype/StillImage" />
        <dc:title></dc:title>
      </cc:Work>
    </rdf:RDF>
  </metadata>
  <sodipodi:namedview
     pagecolor="#ffffff"
     bordercolor="#666666"
     borderopacity="1"
     objecttolerance="10"
     gridtolerance="10"
     guidetolerance="10"
     inkscape:pageopacity="0"
     inkscape:pageshadow="2"
     inkscape:window-width="1920"
     inkscape:window-height="1017"
     id="namedview18"
     showgrid="true"
     inkscape:zoom="5.9890793"
     inkscape:cx="36.204625"
     inkscape:cy="134.17416"
     inkscape:window-x="-8"
     inkscape:window-y="-8"
     inkscape:window-maximized="1"
     inkscape:current-layer="svg16"
     inkscape:snap-global="false">
    <inkscape:grid
       type="xygrid"
       id="grid827"
       spacingx="4"
       spacingy="4" />
  </sodipodi:namedview>
  <defs
     id="defs4">
    <style
       id="style2">.a{fill:none;stroke:#b1b5bd;stroke-linecap:round;stroke-linejoin:round;isolation:isolate;opacity:0.63;}</style>
  </defs>
  <path
     style="fill:#ffffff"
     inkscape:connector-curvature="0"
     d="m 85.089056,147.4 c 0.1,-0.1 0.2,-0.1 0.3,-0.1 1.7,0 3.3,0 4.9,0.2 1.7,0.1 2.8,1.1 3.8,2.4 2.5,3.5 5.2,7 7.700004,10.6 0.7,1 1.5,2 2.3,3.2 v -16.3 h 7.4 v 0.8 c 0,1.5 -0.1,3.1 0,4.5 0,0.9 -0.2,1.6 -0.6,2.4 -1,1.9 -1.6,3.9 -1.8,6.1 -0.3,2.7 0.2,5.3 1,7.9 0.3,0.7 0.6,1.2 0.9,1.9 0.2,0.5 0.3,1 0.4,1.7 0.1,1.7 0,3.4 0,5.3 -1.9,-0.1 -3.9,0.3 -5.8,-0.4 -1.3,-0.5 -2.1,-1.7 -2.9,-2.7 -2.700004,-3.7 -5.400004,-7.3 -8.100004,-10.9 -0.6,-0.8 -1.1,-1.6 -1.7,-2.4 -0.1,0 -0.2,0 -0.2,0.1 v 15.6 c 0,0.7 -0.3,0.9 -0.9,0.9 h -5.9 c -0.3,0 -0.5,-0.1 -0.9,-0.2 v -0.2 c 0.1,-0.3 0.2,-0.4 0.2,-0.7 v -25.5 c 0,-0.3 -0.1,-0.4 -0.2,-0.7 0.1,-1.4 0.1,-2.5 0.1,-3.5 z M 129.48906,93.8 c 1.1,0.4 2.4,0.9 3.2,1.8 1.7,1.9 2.3,4 1.6,6.5 -0.9,2.9 -3.6,4.5 -6.2,4.5 -2.6,0 -4.8,-1.5 -5.8,-3.9 -1.5,-3.7 0.5,-8 4.6,-8.7 0.1,0 0.1,-0.1 0.2,-0.2 z m -18.5,0 c 1,0.4 1.9,0.8 2.7,1.4 1.9,1.5 2.8,3.5 2.4,5.9 -0.4,2.8 -2,4.5 -4.7,5.3 -3.1,0.9 -6.5,-0.9 -7.6,-3.8 -1.4,-3.7 0.9,-7.9 4.6,-8.6 l 0.1,-0.1 c 1,-0.1 1.7,-0.1 2.5,-0.1 z m -18.200004,0 c 1.2,0.4 2.4,0.9 3.3,1.9 1,1.1 1.7,2.4 1.8,4 0.1,2 -0.5,3.8 -1.9,5.2 -2.7,2.6 -7.3,2.2 -9.5,-0.8 -0.7,-1 -1,-2.1 -1.4,-3.1 v -1.5 c 0.1,-0.1 0.1,-0.1 0.1,-0.2 0.2,-1.7 1,-3.1 2.3,-4 0.9,-0.6 1.9,-1 2.9,-1.5 z m -7.7,22.8 c 0.3,-0.8 0.5,-1.7 1,-2.4 1.5,-2.7 5.1,-4 8,-2.6 1.8,0.9 3.1,2.2 3.6,4.1 0.6,2.4 0.2,4.7 -1.9,6.6 -2.4,2.1 -6.1,2.2 -8.5,0 -1.1,-1 -1.9,-2.4 -2.1,-3.9 0,-0.1 -0.1,-0.2 -0.2,-0.3 0.1,-0.6 0.1,-1 0.1,-1.5 z m 0,17 c 0.3,-0.8 0.5,-1.6 0.9,-2.3 1,-1.9 2.7,-3 4.9,-3.2 1.8,-0.2 3.4,0.3 4.8,1.4 1.3,1.1 2.2,2.6 2.3,4.5 0.1,1.9 -0.3,3.4 -1.6,4.7 -1.1,1.3 -2.5,2 -4.3,2.1 -1.9,0.2 -3.7,-0.4 -5.1,-1.7 -1,-1 -1.7,-2.2 -1.8,-3.6 0,-0.1 -0.1,-0.2 -0.2,-0.3 0.1,-0.6 0.1,-1 0.1,-1.6 z m 52.100004,13.7 h 9.3 c 1.7,6.6 3.5,13.1 5.2,19.8 1,-3 1.8,-5.9 2.7,-8.7 0.9,-3 1.8,-5.9 2.7,-8.8 0.2,-0.5 0.3,-1 0.4,-1.4 0.1,-0.8 0.5,-1 1.2,-1 2.3,0.1 4.5,0 6.8,0 0.4,0 0.6,0.1 0.7,0.5 0.8,2.6 1.6,5.3 2.4,8 l 3,9.9 c 0.2,0.4 0.3,0.9 0.5,1.5 0.4,-1.6 0.9,-3 1.2,-4.5 0.3,-0.9 0.4,-1.8 0.7,-2.7 0.3,-1.5 0.8,-3 1.1,-4.5 0.5,-2 1.1,-4 1.7,-5.9 0.2,-0.5 0.3,-1.1 0.4,-1.7 0.1,-0.2 0.3,-0.4 0.6,-0.4 h 8.8 c -0.3,0.8 -0.5,1.6 -0.7,2.4 -0.5,1.7 -1,3.3 -1.6,5 -0.7,2.4 -1.5,4.7 -2.2,7.2 -1,3.2 -1.9,6.5 -3,9.6 -0.7,2.2 -1.7,4.3 -3.6,5.7 -2.2,1.5 -5.6,0.9 -7.2,-1.2 -1.4,-1.7 -2.2,-3.8 -2.9,-5.9 -0.7,-2.3 -1.4,-4.5 -2.2,-6.7 -0.5,-1.6 -1,-3.1 -1.5,-4.7 0,-0.1 -0.1,-0.2 -0.2,-0.3 -0.4,1.2 -0.8,2.4 -1.1,3.5 -0.9,2.6 -1.7,5.2 -2.5,7.8 -0.4,1.4 -1,2.8 -1.6,4.2 -0.7,1.6 -1.7,3 -3.3,3.8 -1.3,0.7 -4.4,0.6 -5.7,-0.6 -1.7,-1.5 -2.5,-3.4 -3.2,-5.4 -0.4,-1.2 -0.7,-2.5 -1.2,-3.7 -0.5,-1.1 -0.1,-2.3 -0.1,-3.5 0,-1.3 0.1,-2.6 -0.1,-3.9 -0.3,-2.3 -1,-4.5 -2.3,-6.4 -0.6,-1 -1.4,-1.8 -2,-2.7 -0.4,-0.5 -0.8,-1.1 -1,-1.7 0.1,-1.1 0,-1.8 -0.2,-2.6 z m -9,-23.5 a 6.2,6.2 0 0 1 -6.4,-6.4 c 0,-3.6 2.7,-6.4 6.4,-6.4 3.4,0 6.6,2.7 6.4,6.7 -0.1,3.1 -2.8,6.1 -6.4,6.1 z m -24.7,-6.5 c -0.2,-3.5 2.9,-6.5 6.4,-6.4 3.7,0 6.5,3 6.4,6.5 0,3.4 -2.7,6.6 -6.8,6.4 -2.9,-0.1 -6.2,-2.8 -6,-6.5 z m 0,17.1 c -0.1,-3.8 2.9,-6.4 6.4,-6.4 3.6,0 6.4,2.7 6.4,6.5 0.1,3.3 -2.9,6.6 -6.9,6.4 -2.9,-0.3 -6.1,-3 -5.9,-6.5 z m 24.7,6.4 c -3.5,0.2 -6.5,-2.8 -6.4,-6.4 0.1,-3.8 3,-6.5 6.5,-6.4 3.7,0.1 6.5,2.8 6.4,6.7 -0.1,3.2 -3.1,6.4 -6.5,6.1 z"
     class="st1"
     id="path823" />
  <style
     id="style818">.st1{fill:#fff}</style>
  <path
     style="fill:#ffffff"
     inkscape:connector-curvature="0"
     d="m 186.98906,136.4 c -0.4,0.9 -0.7,1.8 -1.2,2.6 -0.9,1.3 -2.2,1.7 -3.7,1.7 h -37.5 c -1.9,0 -3.7,-1.6 -4.3,-3.3 -0.5,-1.4 -0.5,-2.6 0,-4 0.7,-1.9 2.7,-3.4 4.7,-3.4 h 31.2 v -6.3 c 0,-1 0,-1 -1,-1 h -29.2 c -1.3,0 -2.5,-0.2 -3.7,-1 -1.4,-1 -2.1,-2.4 -2.2,-4 -0.1,-6.4 -0.1,-12.8 0,-19.1 0,-2 1.3,-3.8 3.2,-4.5 0.3,-0.1 0.4,-0.2 0.7,-0.3 h 38.8 l 0.2,0.2 c 1.3,0.3 2.3,0.9 3,1.9 0.4,0.7 0.7,1.5 1,2.3 z m -36.1,-24.3 h 25.1 v -7.3 h -25.1 z m -26,66.1 c -0.7,-0.2 -1.4,-0.3 -2.2,-0.4 -3.3,-0.8 -6.1,-2.4 -8.3,-5.1 -1.7,-2 -3,-4.4 -3.4,-7 -0.3,-1.4 -0.3,-2.9 -0.2,-4.4 0.1,-2.2 0.8,-4.3 1.8,-6.2 2.3,-4 5.8,-6.6 10.3,-7.6 5.2,-1.1 10,0.3 13.9,4 2.4,2.3 3.9,5 4.5,8.2 0.5,3.2 0.3,6.4 -1.2,9.4 -2.4,5 -6.5,7.8 -11.8,8.7 -0.3,0.1 -0.7,0.1 -1,0.2 -0.8,0.2 -1.6,0.2 -2.4,0.2 z m 1.3,-23.1 c -4.2,-0.1 -7.7,3.3 -7.7,7.6 0,4.4 3.4,7.6 7.6,7.6 4.3,0 7.7,-3.2 7.8,-7.6 0,-4.2 -3.5,-7.7 -7.7,-7.6 z"
     class="st1"
     id="path821" />
</svg>
