<?xml version="1.0" encoding="UTF-8" standalone="no"?>
<svg
   xmlns:dc="http://purl.org/dc/elements/1.1/"
   xmlns:cc="http://creativecommons.org/ns#"
   xmlns:rdf="http://www.w3.org/1999/02/22-rdf-syntax-ns#"
   xmlns:svg="http://www.w3.org/2000/svg"
   xmlns="http://www.w3.org/2000/svg"
   xmlns:sodipodi="http://sodipodi.sourceforge.net/DTD/sodipodi-0.dtd"
   xmlns:inkscape="http://www.inkscape.org/namespaces/inkscape"
   viewBox="0 0 272 272"
   version="1.1"
   id="svg16"
   sodipodi:docname="aosp_keyboard_fg.svg"
   inkscape:version="0.92.4 (5da689c313, 2019-01-14)"
   width="272"
   height="272">
  <metadata
     id="metadata20">
    <rdf:RDF>
      <cc:Work
         rdf:about="">
        <dc:format>image/svg+xml</dc:format>
        <dc:type
           rdf:resource="http://purl.org/dc/dcmitype/StillImage" />
        <dc:title></dc:title>
      </cc:Work>
    </rdf:RDF>
  </metadata>
  <sodipodi:namedview
     pagecolor="#ffffff"
     bordercolor="#666666"
     borderopacity="1"
     objecttolerance="10"
     gridtolerance="10"
     guidetolerance="10"
     inkscape:pageopacity="0"
     inkscape:pageshadow="2"
     inkscape:window-width="1920"
     inkscape:window-height="1017"
     id="namedview18"
     showgrid="true"
     inkscape:zoom="2.1174593"
     inkscape:cx="59.840745"
     inkscape:cy="147.21672"
     inkscape:window-x="-8"
     inkscape:window-y="-8"
     inkscape:window-maximized="1"
     inkscape:current-layer="svg16"
     inkscape:snap-global="false">
    <inkscape:grid
       type="xygrid"
       id="grid827"
       spacingx="4"
       spacingy="4" />
  </sodipodi:namedview>
  <defs
     id="defs4">
    <style
       id="style2">.a{fill:none;stroke:#b1b5bd;stroke-linecap:round;stroke-linejoin:round;isolation:isolate;opacity:0.63;}</style>
  </defs>
  <path
     style="clip-rule:evenodd;fill:#9abeff;fill-rule:evenodd"
     inkscape:connector-curvature="0"
     d="m 173.55461,155.75655 c 5.522,0 9.993,-4.477 9.993,-10.001 V 80.757558 c 0,-5.521 -4.474,-10.001 -9.993,-10.001 H 99.540608 c -5.523002,0 -9.993002,4.477 -9.993002,10 v 64.999992 c 0,5.52 4.474,10 9.993002,10 h 17.947002 a 10,10 0 0 1 7.142,3 l 11.06,11.284 11.237,-11.238 a 10,10 0 0 1 7.011,-2.928 l 19.616,-0.118 z"
     id="path826" />
  <path
     style="clip-rule:evenodd;fill:#ffffff;fill-rule:evenodd"
     inkscape:connector-curvature="0"
     d="m 116.32761,123.75655 h 4.23 l -6.48,-17.99999 h -4.44 l -6.48,17.99999 h 4.23 l 1.11,-3.39 h 6.72 z m -6.78,-6.69 2.31,-7.14 2.31,7.14 z m 20.94,6.93 c 5.13,0 9.24,-4.14 9.24,-9.24 0,-5.09999 -4.11,-9.23999 -9.24,-9.23999 -5.1,0 -9.24,4.14 -9.24,9.23999 0,5.1 4.14,9.24 9.24,9.24 z m 0,-3.87 c -3.03,0 -5.34,-2.34 -5.34,-5.37 0,-3.03 2.31,-5.36999 5.34,-5.36999 3.06,0 5.37,2.33999 5.37,5.36999 0,3.03 -2.31,5.37 -5.37,5.37 z m 17.67,3.87 c 3.36,0 6.21,-1.98 6.21,-5.34 0,-6.66 -8.28,-5.01 -8.28,-8.13 0,-1.01999 0.78,-1.49999 1.74,-1.49999 1.02,0 2.04,0.57 2.94,1.55999 l 2.64,-2.51999 a 7.37,7.37 0 0 0 -5.55,-2.55 c -2.85,0 -5.76,1.71 -5.76,5.30999 0,6.12 8.31,4.65 8.31,7.8 0,0.99 -0.84,1.65 -2.22,1.65 -1.65,0 -2.94,-0.93 -3.6,-2.34 l -3.27,2.04 c 1.17,2.25 3.69,4.02 6.84,4.02 z m 16.29,-18.23999 h -7.65 v 17.99999 h 3.96 v -7.29 h 3.69 c 3.03,0 5.37,-2.25 5.37,-5.28 0,-2.99999 -2.34,-5.42999 -5.37,-5.42999 z m -0.63,7.43999 h -3.06 v -3.95999 h 3.06 c 1.26,0 2.22,0.80999 2.22,1.97999 0,1.2 -0.96,1.98 -2.22,1.98 z"
     id="path828" />
</svg>
