<?xml version="1.0" encoding="UTF-8" standalone="no"?>
<svg
   xmlns:dc="http://purl.org/dc/elements/1.1/"
   xmlns:cc="http://creativecommons.org/ns#"
   xmlns:rdf="http://www.w3.org/1999/02/22-rdf-syntax-ns#"
   xmlns:svg="http://www.w3.org/2000/svg"
   xmlns="http://www.w3.org/2000/svg"
   xmlns:sodipodi="http://sodipodi.sourceforge.net/DTD/sodipodi-0.dtd"
   xmlns:inkscape="http://www.inkscape.org/namespaces/inkscape"
   viewBox="0 0 272 272"
   version="1.1"
   id="svg16"
   sodipodi:docname="aosp_browser_fg.svg"
   inkscape:version="0.92.4 (5da689c313, 2019-01-14)"
   width="272"
   height="272">
  <metadata
     id="metadata20">
    <rdf:RDF>
      <cc:Work
         rdf:about="">
        <dc:format>image/svg+xml</dc:format>
        <dc:type
           rdf:resource="http://purl.org/dc/dcmitype/StillImage" />
        <dc:title></dc:title>
      </cc:Work>
    </rdf:RDF>
  </metadata>
  <sodipodi:namedview
     pagecolor="#ffffff"
     bordercolor="#666666"
     borderopacity="1"
     objecttolerance="10"
     gridtolerance="10"
     guidetolerance="10"
     inkscape:pageopacity="0"
     inkscape:pageshadow="2"
     inkscape:window-width="1920"
     inkscape:window-height="1017"
     id="namedview18"
     showgrid="true"
     inkscape:zoom="2.9945397"
     inkscape:cx="65.615728"
     inkscape:cy="167.4644"
     inkscape:window-x="-8"
     inkscape:window-y="-8"
     inkscape:window-maximized="1"
     inkscape:current-layer="svg16"
     inkscape:snap-global="true">
    <inkscape:grid
       type="xygrid"
       id="grid827"
       spacingx="4"
       spacingy="4" />
  </sodipodi:namedview>
  <defs
     id="defs4">
    <style
       id="style2">.a{fill:none;stroke:#b1b5bd;stroke-linecap:round;stroke-linejoin:round;isolation:isolate;opacity:0.63;}</style>
    <style
       id="style2-7">.a{fill:none;stroke:#b1b5bd;stroke-linecap:round;stroke-linejoin:round;isolation:isolate;opacity:0.63;}</style>
  </defs>
  <path
     style="clip-rule:evenodd;fill:#ffffff;fill-rule:evenodd"
     inkscape:connector-curvature="0"
     d="m 124.88626,57.981471 a 3.048,3.048 0 1 0 0,-6.095 3.048,3.048 0 0 0 0,6.095 z m -20.225,8.589 a 3.048,3.048 0 1 1 -6.095,0 3.048,3.048 0 0 1 6.095,0 z m -11.636,11.636 a 3.0475,3.0475 0 1 1 -6.095,0 3.0475,3.0475 0 0 1 6.095,0 z m 8.589,3.047 a 3.048,3.048 0 1 0 0,-6.095 3.048,3.048 0 0 0 0,6.095 z m -20.225,8.589 a 3.048,3.048 0 1 1 -6.095,0 3.048,3.048 0 0 1 6.095,0 z m 8.589,3.047 a 3.048,3.048 0 1 0 0,-6.095 3.048,3.048 0 0 0 0,6.095 z m 14.683,-3.047 a 3.048,3.048 0 1 1 -6.095,0 3.048,3.048 0 0 1 6.095,0 z m -37.955,14.682999 a 3.048,3.048 0 1 0 0,-6.094999 3.048,3.048 0 0 0 0,6.094999 z m 14.683,-3.047 a 3.048,3.048 0 1 1 -6.095,0 3.048,3.048 0 0 1 6.095,0 z m 8.589,3.047 a 3.0475,3.0475 0 1 0 0,-6.094999 3.0475,3.0475 0 0 0 0,6.094999 z m 14.683,-3.047 a 3.048,3.048 0 1 1 -6.095,0 3.048,3.048 0 0 1 6.095,0 z m 34.909,-46.543999 a 3.048,3.048 0 1 1 -6.095,0 3.048,3.048 0 0 1 6.095,0 z m 8.588,3.047 a 3.048,3.048 0 1 0 0,-6.096 3.048,3.048 0 0 0 0,6.096 z m 0,11.636 a 3.048,3.048 0 1 0 0,-6.096 3.048,3.048 0 0 0 0,6.096 z m 14.684,-3.047 a 3.048,3.048 0 1 1 -6.096,-0.001 3.048,3.048 0 0 1 6.096,0 z m -49.592,14.683 a 3.048,3.048 0 1 0 0,-6.095 3.048,3.048 0 0 0 0,6.095 z m 11.636,0 a 3.0475,3.0475 0 1 0 0,-6.095 3.0475,3.0475 0 0 0 0,6.095 z m 14.684,-3.047 a 3.048,3.048 0 1 1 -6.095,0 3.048,3.048 0 0 1 6.095,0 z m 8.588,3.047 a 3.048,3.048 0 1 0 0,-6.096 3.048,3.048 0 0 0 0,6.096 z m 14.684,-3.047 a 3.048,3.048 0 1 1 -6.096,-10e-4 3.048,3.048 0 0 1 6.096,0 z m -49.592,14.683 a 3.048,3.048 0 1 0 0,-6.095 3.048,3.048 0 0 0 0,6.095 z m 11.636,0 a 3.048,3.048 0 1 0 0,-6.095 3.048,3.048 0 0 0 0,6.095 z m 14.684,-3.047 a 3.048,3.048 0 1 1 -6.096,0 3.048,3.048 0 0 1 6.096,0 z m 8.588,3.047 a 3.048,3.048 0 1 0 0,-6.096 3.048,3.048 0 0 0 0,6.096 z m 14.684,-3.047 a 3.048,3.048 0 1 1 -6.096,-0.001 3.048,3.048 0 0 1 6.096,0 z m -49.592,14.682999 a 3.048,3.048 0 1 0 0,-6.094999 3.048,3.048 0 0 0 0,6.094999 z m 23.272,0 a 3.048,3.048 0 1 0 0,-6.094999 3.048,3.048 0 0 0 0,6.094999 z m 14.684,-3.047 a 3.048,3.048 0 1 1 -6.096,-0.001 3.048,3.048 0 0 1 6.096,0 z m 8.588,3.047 a 3.048,3.048 0 1 0 0,-6.095999 3.048,3.048 0 0 0 0,6.095999 z m 14.684,-37.954999 a 3.048,3.048 0 1 1 -6.096,-0.001 3.048,3.048 0 0 1 6.096,0 z m 0,11.636 a 3.048,3.048 0 1 1 -6.096,-10e-4 3.048,3.048 0 0 1 6.096,0 z m 11.636,0 a 3.048,3.048 0 1 1 -6.096,-10e-4 3.048,3.048 0 0 1 6.096,0 z m -14.684,14.683 a 3.048,3.048 0 1 0 0,-6.096 3.048,3.048 0 0 0 0,6.096 z m 11.636,0 a 3.048,3.048 0 1 0 0,-6.096 3.048,3.048 0 0 0 0,6.096 z m 14.684,-3.047 a 3.048,3.048 0 1 1 -6.096,-0.001 3.048,3.048 0 0 1 6.096,0 z m -26.32,14.682999 a 3.048,3.048 0 1 0 0,-6.095999 3.048,3.048 0 0 0 0,6.095999 z m 11.636,0 a 3.048,3.048 0 1 0 0,-6.095999 3.048,3.048 0 0 0 0,6.095999 z m 14.684,-3.047 a 3.048,3.048 0 1 1 -6.096,-0.001 3.048,3.048 0 0 1 6.096,0 z m 8.588,3.047 a 3.047,3.047 0 1 0 0.001,-6.093999 3.047,3.047 0 0 0 -0.001,6.093999 z m -139.632,11.636 a 3.048,3.048 0 1 0 0,-6.095 3.048,3.048 0 0 0 0,6.095 z m 14.683,-3.047 a 3.048,3.048 0 1 1 -6.095,0 3.048,3.048 0 0 1 6.095,0 z m 8.589,3.047 a 3.0475,3.0475 0 1 0 0,-6.095 3.0475,3.0475 0 0 0 0,6.095 z m 14.683,-3.047 a 3.048,3.048 0 1 1 -6.095,0 3.048,3.048 0 0 1 6.095,0 z m -37.955,14.684 a 3.048,3.048 0 1 0 0,-6.096 3.048,3.048 0 0 0 0,6.096 z m 14.683,-3.048 a 3.048,3.048 0 1 1 -6.095,0 3.048,3.048 0 0 1 6.095,0 z m 8.589,3.047 a 3.048,3.048 0 1 0 0,-6.095 3.048,3.048 0 0 0 0,6.096 z m 14.683,-3.047 a 3.048,3.048 0 1 1 -6.095,0 3.048,3.048 0 0 1 6.095,0 z m -37.955,14.683 a 3.048,3.048 0 1 0 0,-6.095 3.048,3.048 0 0 0 0,6.096 z m 14.683,-3.047 a 3.048,3.048 0 1 1 -6.095,0 3.048,3.048 0 0 1 6.095,0 z m 8.589,3.047 a 3.047,3.047 0 1 0 0,-6.094 3.047,3.047 0 0 0 0,6.094 z m 14.683,-3.047 a 3.048,3.048 0 1 1 -6.095,0 3.048,3.048 0 0 1 6.095,0 z m -26.32,14.684 a 3.048,3.048 0 1 0 0,-6.096 3.048,3.048 0 0 0 0,6.096 z m 14.684,-3.048 a 3.048,3.048 0 1 1 -6.096,0 3.048,3.048 0 0 1 6.096,0 z m 8.589,3.048 a 3.048,3.048 0 1 0 -0.001,-6.096 3.048,3.048 0 0 0 0,6.096 z m -20.225,8.588 a 3.048,3.048 0 1 1 -6.096,0 3.048,3.048 0 0 1 6.096,0 z m 8.589,3.048 a 3.048,3.048 0 1 0 -0.001,-6.096 3.048,3.048 0 0 0 0,6.096 z m 14.683,-3.048 a 3.048,3.048 0 1 1 -6.096,0 3.048,3.048 0 0 1 6.096,0 z m 8.589,-43.497 a 3.048,3.048 0 1 0 0,-6.095 3.048,3.048 0 0 0 0,6.095 z m 46.544,0 a 3.048,3.048 0 1 0 0,-6.096 3.048,3.048 0 0 0 0,6.096 z m -46.544,11.636 a 3.048,3.048 0 1 0 0,-6.095 3.048,3.048 0 0 0 0,6.096 z m 0,11.636 a 3.048,3.048 0 1 0 0,-6.095 3.048,3.048 0 0 0 0,6.096 z m 0,11.637 a 3.048,3.048 0 1 0 -10e-4,-6.096 3.048,3.048 0 0 0 0,6.096 z m 0,11.636 a 3.048,3.048 0 1 0 -10e-4,-6.096 3.048,3.048 0 0 0 0,6.096 z m 58.18,-46.545 a 3.048,3.048 0 1 0 0,-6.096 3.048,3.048 0 0 0 0,6.096 z m 11.636,0 a 3.048,3.048 0 1 0 0,-6.096 3.048,3.048 0 0 0 0,6.096 z m 14.684,-3.047 a 3.048,3.048 0 1 1 -6.096,-10e-4 3.048,3.048 0 0 1 6.096,0 z m 8.588,3.047 a 3.047,3.047 0 1 0 0.001,-6.094 3.047,3.047 0 0 0 -0.001,6.094 z m -34.908,11.636 a 3.048,3.048 0 1 0 0,-6.096 3.0485,3.0485 0 0 0 0,6.097 z m 11.636,0 a 3.048,3.048 0 1 0 0,-6.096 3.0485,3.0485 0 0 0 0,6.097 z m 14.684,-3.047 a 3.048,3.048 0 1 1 -6.096,-0.001 3.048,3.048 0 0 1 6.096,0 z m 8.588,3.047 a 3.047,3.047 0 1 0 0.001,-6.094 3.0475,3.0475 0 0 0 -0.001,6.095 z m -31.86,8.589 a 3.048,3.048 0 1 1 -6.096,-0.001 3.048,3.048 0 0 1 6.096,0.001 z m 11.636,0 a 3.048,3.048 0 1 1 -6.096,-0.001 3.048,3.048 0 0 1 6.096,0.001 z m 8.588,3.047 a 3.048,3.048 0 1 0 0,-6.095 3.048,3.048 0 0 0 0,6.096 z m 14.684,-3.047 a 3.0475,3.0475 0 1 1 -6.095,0 3.0475,3.0475 0 0 1 6.095,0 z m -37.956,14.684 a 3.0485,3.0485 0 1 0 0,-6.097 3.0485,3.0485 0 0 0 0,6.097 z m 11.636,0 a 3.0485,3.0485 0 1 0 0,-6.097 3.0485,3.0485 0 0 0 0,6.097 z m 14.684,-3.048 a 3.0485,3.0485 0 1 1 -6.097,0 3.0485,3.0485 0 0 1 6.097,0 z m 8.588,3.048 a 3.048,3.048 0 1 0 0,-6.096 3.048,3.048 0 0 0 0,6.096 z m -31.86,8.588 a 3.0485,3.0485 0 1 1 -6.097,0 3.0485,3.0485 0 0 1 6.097,0 z m 11.636,0 a 3.0485,3.0485 0 1 1 -6.097,0 3.0485,3.0485 0 0 1 6.097,0 z m 8.588,3.048 a 3.0485,3.0485 0 1 0 0,-6.097 3.0485,3.0485 0 0 0 0,6.097 z m 14.684,-3.048 a 3.048,3.048 0 1 1 -6.096,0 3.048,3.048 0 0 1 6.096,0 z m -119.408,14.684 a 3.048,3.048 0 1 0 -0.001,-6.096 3.048,3.048 0 0 0 0,6.096 z m 14.683,-3.048 a 3.048,3.048 0 1 1 -6.096,0 3.048,3.048 0 0 1 6.096,0 z m -26.32,14.684 a 3.048,3.048 0 1 0 0,-6.096 3.048,3.048 0 0 0 0,6.096 z m 14.684,-3.048 a 3.048,3.048 0 1 1 -6.096,0 3.048,3.048 0 0 1 6.096,0 z m 8.589,3.048 a 3.048,3.048 0 1 0 -0.001,-6.096 3.048,3.048 0 0 0 0,6.096 z m -8.589,8.588 a 3.048,3.048 0 1 1 -6.096,0 3.048,3.048 0 0 1 6.096,0 z m 8.589,3.048 a 3.048,3.048 0 1 0 -0.001,-6.096 3.048,3.048 0 0 0 0,6.096 z m 3.047,8.588 a 3.047,3.047 0 1 1 -6.094,0.001 3.047,3.047 0 0 1 6.094,-0.001 z m 8.589,-31.86 a 3.048,3.048 0 1 0 -10e-4,-6.096 3.048,3.048 0 0 0 0,6.096 z m 0,11.636 a 3.048,3.048 0 1 0 -10e-4,-6.096 3.048,3.048 0 0 0 0,6.096 z m 0,11.636 a 3.048,3.048 0 1 0 -10e-4,-6.096 3.048,3.048 0 0 0 0,6.096 z m 11.636,0 a 3.048,3.048 0 1 0 -10e-4,-6.096 3.048,3.048 0 0 0 10e-4,6.096 z m 14.684,-3.048 a 3.048,3.048 0 1 1 -6.096,0 3.048,3.048 0 0 1 6.096,0 z m -26.32,14.684 a 3.0475,3.0475 0 1 0 0,-6.095 3.0475,3.0475 0 0 0 0,6.095 z m 11.636,0 a 3.0475,3.0475 0 1 0 0,-6.095 3.0475,3.0475 0 0 0 0,6.095 z m 14.684,-3.048 a 3.0475,3.0475 0 1 1 -6.095,0.001 3.0475,3.0475 0 0 1 6.095,-0.001 z m 31.86,-31.86 a 3.0485,3.0485 0 1 0 0,-6.097 3.0485,3.0485 0 0 0 0,6.097 z m 11.636,0 a 3.0485,3.0485 0 1 0 0,-6.097 3.0485,3.0485 0 0 0 0,6.097 z m 14.684,-3.048 a 3.0485,3.0485 0 1 1 -6.097,0 3.0485,3.0485 0 0 1 6.097,0 z m 8.588,3.048 a 3.048,3.048 0 1 0 0,-6.096 3.048,3.048 0 0 0 0,6.096 z"
     id="path824" />
</svg>
