<?xml version="1.0" encoding="UTF-8" standalone="no"?>
<svg
   xmlns:dc="http://purl.org/dc/elements/1.1/"
   xmlns:cc="http://creativecommons.org/ns#"
   xmlns:rdf="http://www.w3.org/1999/02/22-rdf-syntax-ns#"
   xmlns:svg="http://www.w3.org/2000/svg"
   xmlns="http://www.w3.org/2000/svg"
   xmlns:sodipodi="http://sodipodi.sourceforge.net/DTD/sodipodi-0.dtd"
   xmlns:inkscape="http://www.inkscape.org/namespaces/inkscape"
   viewBox="0 0 272 272"
   version="1.1"
   id="svg16"
   sodipodi:docname="bendy_and_the_ink_machine_fg.svg"
   inkscape:version="0.92.4 (5da689c313, 2019-01-14)"
   width="272"
   height="272">
  <metadata
     id="metadata20">
    <rdf:RDF>
      <cc:Work
         rdf:about="">
        <dc:format>image/svg+xml</dc:format>
        <dc:type
           rdf:resource="http://purl.org/dc/dcmitype/StillImage" />
        <dc:title></dc:title>
      </cc:Work>
    </rdf:RDF>
  </metadata>
  <sodipodi:namedview
     pagecolor="#ffffff"
     bordercolor="#666666"
     borderopacity="1"
     objecttolerance="10"
     gridtolerance="10"
     guidetolerance="10"
     inkscape:pageopacity="0"
     inkscape:pageshadow="2"
     inkscape:window-width="1920"
     inkscape:window-height="1017"
     id="namedview18"
     showgrid="true"
     inkscape:zoom="2.1174593"
     inkscape:cx="51.673685"
     inkscape:cy="196.60291"
     inkscape:window-x="-8"
     inkscape:window-y="-8"
     inkscape:window-maximized="1"
     inkscape:current-layer="svg16"
     inkscape:snap-global="true">
    <inkscape:grid
       type="xygrid"
       id="grid827"
       spacingx="4"
       spacingy="4" />
  </sodipodi:namedview>
  <defs
     id="defs4">
    <style
       id="style2">.a{fill:none;stroke:#b1b5bd;stroke-linecap:round;stroke-linejoin:round;isolation:isolate;opacity:0.63;}</style>
  </defs>
  <path
     inkscape:connector-curvature="0"
     d="m 102.54776,100.55374 c 11.78179,-0.34962 28.69703,13.68264 32.54945,13.8182 4.40363,0.15525 21.16811,-14.834341 33.77771,-14.431821 6.91013,0.220211 18.11246,9.759771 25.13332,20.922881 7.02095,11.163 9.86086,23.94955 9.87296,34.34993 0.0498,42.77186 -37.37868,61.113 -68.16903,61.10679 -31.08009,-0.006 -67.719955,-16.44546 -68.78369,-61.72144 -0.253392,-10.78531 3.718311,-24.19479 10.98813,-34.95941 7.269405,-10.76462 17.83618,-18.88336 24.63249,-19.08513 z"
     style="fill:#f9de81;stroke-width:1.03476131"
     id="path826" />
  <path
     inkscape:connector-curvature="0"
     d="m 109.0502,176.18444 c -6.01931,-0.0138 -11.686597,7.69624 -11.617268,12.15844 0.173053,11.06057 17.795828,21.522 38.756988,21.49717 14.47527,-0.0167 38.13198,-6.15321 38.2158,-20.629 0.0242,-4.18034 -4.71634,-12.95625 -10.20409,-12.91796 -9.32558,0.0649 -13.87201,6.13075 -28.44559,5.97005 -14.34076,-0.15814 -17.57542,-6.05832 -26.70615,-6.07922 z m 54.17389,3.36504 c 0.37273,0.003 0.73346,0.0483 1.08526,0.12126 v 20.39825 c -1.92259,1.1342 -4.14588,2.12219 -6.53597,2.97898 0.005,-0.041 0.0222,-0.0768 0.0222,-0.11925 v -22.43983 c 0,-0.009 -0.004,-0.0171 -0.004,-0.0263 1.99812,-0.55048 3.81744,-0.92545 5.43249,-0.9135 z m -53.41334,0.10914 c 1.98291,0.0296 4.12807,0.54367 6.43497,1.2207 -0.08,0.14236 -0.13944,0.29949 -0.13944,0.47899 v 22.06731 c -2.40914,-0.81721 -4.67868,-1.78372 -6.68953,-2.91026 0.0439,-0.10399 0.0687,-0.21722 0.0687,-0.33751 v -20.5069 c 0.10986,-0.002 0.21353,-0.0138 0.32538,-0.0121 z m -2.06342,0.19401 v 19.64598 c -4.15322,-2.72225 -6.88344,-6.21767 -6.94822,-10.50282 -0.0573,-3.7922 2.35212,-8.17938 6.94822,-9.14305 z m 58.30052,0.47292 c 3.73249,2.09808 5.83595,7.9151 5.53763,10.73151 -0.32109,3.03061 -2.39361,5.67981 -5.53763,7.89616 v -18.62777 z m -9.98793,0.65077 v 21.95246 c 0,0.24958 0.0907,0.47272 0.23646,0.64067 -2.73301,0.88672 -5.65476,1.59042 -8.61759,2.10594 0.0753,-0.13931 0.12934,-0.29317 0.12934,-0.46685 V 183.4382 c 3.0124,-0.79189 5.75183,-1.70363 8.25181,-2.4616 z m -38.2158,0.37793 c 2.4858,0.77569 5.18156,1.6729 8.14264,2.39899 v 22.06732 c -2.77523,-0.44537 -5.53784,-1.05939 -8.17503,-1.85533 0.009,-0.0566 0.0323,-0.108 0.0323,-0.16773 v -22.43984 c 0,-0.001 1e-5,-0.003 0,-0.004 z m 28.22725,2.51612 v 21.33782 c 0,0.26801 0.10357,0.50613 0.2688,0.67703 -2.83856,0.43718 -5.67898,0.69747 -8.41147,0.77001 v -21.6172 c 2.8757,-0.12869 5.5934,-0.57394 8.14264,-1.16814 z m -18.34839,0.27689 c 2.61422,0.55053 5.42256,0.92964 8.46807,0.93775 v 21.60478 c -2.69389,-0.008 -5.56753,-0.20801 -8.47004,-0.59823 8e-5,-0.005 0.002,-0.009 0.002,-0.0142 v -21.9297 z"
     style="fill:#56595b;stroke-width:1.03476131"
     id="path828" />
  <path
     inkscape:connector-curvature="0"
     d="m 76.045451,171.72462 c 0,0 7.567727,-3.56393 17.913787,-3.9084 6.285032,-0.20925 12.796892,1.22992 18.456002,3.9084 0.60313,0.28548 2.11495,-1.00087 1.51996,-1.30277 -3.6586,-1.85626 -5.97109,-2.82272 -5.97109,-2.82272 0,0 3.28268,-7.9775 3.25702,-13.46225 C 111.155,140.05999 107.06966,127.55387 94.393838,127.42969 81.480018,127.30374 77.6752,141.43415 77.6752,141.43415 l 18.238702,12.7017 -18.021402,10.42211 c 0,0 0.838095,1.92321 2.062797,3.47411 -3.613904,2.20891 -3.908397,3.6912 -3.908397,3.6912 z"
     style="fill:#56595b;stroke-width:1.03476131"
     id="path830" />
  <path
     inkscape:connector-curvature="0"
     d="m 159.20921,171.94192 c 0,0 7.56773,-3.56393 17.91379,-3.9084 6.28504,-0.20925 12.79689,1.22992 18.456,3.9084 0.60313,0.28548 2.11495,-1.00087 1.51996,-1.30277 -3.6586,-1.85626 -5.97109,-2.82272 -5.97109,-2.82272 0,0 3.28268,-7.9775 3.25702,-13.46225 -0.0661,-14.07689 -4.15146,-26.58301 -16.82729,-26.70719 -12.91382,-0.12595 -16.71864,14.00446 -16.71864,14.00446 l 18.23871,12.7017 -18.02141,10.42211 c 0,0 0.83809,1.92321 2.0627,3.47411 -3.61401,2.20891 -3.9084,3.6912 -3.9084,3.6912 z"
     style="fill:#56595b;stroke-width:1.03476131"
     id="path832" />
</svg>
