<?xml version="1.0" encoding="UTF-8" standalone="no"?>
<svg
   xmlns:dc="http://purl.org/dc/elements/1.1/"
   xmlns:cc="http://creativecommons.org/ns#"
   xmlns:rdf="http://www.w3.org/1999/02/22-rdf-syntax-ns#"
   xmlns:svg="http://www.w3.org/2000/svg"
   xmlns="http://www.w3.org/2000/svg"
   xmlns:sodipodi="http://sodipodi.sourceforge.net/DTD/sodipodi-0.dtd"
   xmlns:inkscape="http://www.inkscape.org/namespaces/inkscape"
   viewBox="0 0 272 272"
   version="1.1"
   id="svg16"
   sodipodi:docname="black_desert_mobile_fg.svg"
   inkscape:version="0.92.4 (5da689c313, 2019-01-14)"
   width="272"
   height="272">
  <metadata
     id="metadata20">
    <rdf:RDF>
      <cc:Work
         rdf:about="">
        <dc:format>image/svg+xml</dc:format>
        <dc:type
           rdf:resource="http://purl.org/dc/dcmitype/StillImage" />
        <dc:title></dc:title>
      </cc:Work>
    </rdf:RDF>
  </metadata>
  <sodipodi:namedview
     pagecolor="#ffffff"
     bordercolor="#666666"
     borderopacity="1"
     objecttolerance="10"
     gridtolerance="10"
     guidetolerance="10"
     inkscape:pageopacity="0"
     inkscape:pageshadow="2"
     inkscape:window-width="725"
     inkscape:window-height="405"
     id="namedview18"
     showgrid="true"
     inkscape:zoom="0.612508"
     inkscape:cx="59.840745"
     inkscape:cy="149.15939"
     inkscape:window-x="208"
     inkscape:window-y="208"
     inkscape:window-maximized="0"
     inkscape:current-layer="svg16"
     inkscape:snap-global="true">
    <inkscape:grid
       type="xygrid"
       id="grid827"
       spacingx="4"
       spacingy="4" />
  </sodipodi:namedview>
  <defs
     id="defs4">
    <style
       id="style2">.a{fill:none;stroke:#b1b5bd;stroke-linecap:round;stroke-linejoin:round;isolation:isolate;opacity:0.63;}</style>
    <style
       id="style2-5">.a{fill:none;stroke:#b1b5bd;stroke-linecap:round;stroke-linejoin:round;isolation:isolate;opacity:0.63;}</style>
  </defs>
  <path
     inkscape:connector-curvature="0"
     d="M 136,77.936721 159.12866,101.06538 136,124.19404 112.87135,101.06538 126.74854,87.188185 140.62573,101.06538 136,105.69111"
     style="fill:none;stroke:#ececec;stroke-width:9.25146294;stroke-linecap:square;stroke-linejoin:round"
     id="path824" />
  <path
     inkscape:connector-curvature="0"
     d="m 94.368419,161.19989 c 0,0 9.251461,9.25146 41.631581,9.25146 32.38012,0 41.63159,-9.25146 41.63159,-9.25146"
     style="fill:none;stroke:#ffffff;stroke-width:9.25146294;stroke-linecap:round;stroke-linejoin:round"
     id="path826" />
  <path
     inkscape:connector-curvature="0"
     d="m 98.996463,158.85233 c -1.45e-4,0.0104 -0.0023,0.0208 -0.0023,0.0316 v 10.31527 c 0.76032,0.32305 1.578417,0.64828 2.466437,0.97123 0.67054,0.24382 1.41281,0.48377 2.15929,0.72277 v -9.81164 c -2.15501,-0.84796 -3.665888,-1.64017 -4.623415,-2.22926 z m 74.007077,0 c -0.95753,0.58916 -2.4684,1.38136 -4.62342,2.22926 v 9.81164 c 0.74652,-0.239 1.4888,-0.47895 2.1593,-0.72277 0.88807,-0.32295 1.70608,-0.64818 2.46644,-0.97123 v -10.31527 c 0,-0.0104 -0.002,-0.0208 -0.002,-0.0316 z m -57.81933,5.33046 v 9.39833 c 1.45954,0.23231 3.00372,0.44192 4.62573,0.62791 v -9.32825 c -1.65508,-0.20764 -3.18632,-0.44276 -4.62573,-0.69793 z m 41.63159,0 c -1.43942,0.25517 -2.97065,0.4903 -4.62574,0.69793 v 9.32825 c 1.62202,-0.18599 3.1662,-0.3956 4.62574,-0.6279 v -9.39833 z m -23.12866,1.59912 v 9.25146 c 0.77842,0.0104 1.5081,0.0407 2.31286,0.0407 0.80477,0 1.53447,-0.0298 2.31287,-0.0407 v -9.25146 c -0.77753,0.0116 -1.50452,0.0407 -2.31287,0.0407 -0.80834,0 -1.53539,-0.0291 -2.31286,-0.0407 z"
     style="fill:#d8d8d8;stroke-width:1.15643287;paint-order:stroke fill markers"
     id="path828" />
  <circle
     cx="96.681282"
     cy="131.13263"
     r="6.9385972"
     style="fill:#ff837d;stroke-width:9.25146294;paint-order:stroke fill markers"
     id="circle830" />
  <circle
     cx="175.31873"
     cy="131.13263"
     r="6.9385972"
     style="fill:#ff837d;stroke-width:9.25146294;paint-order:stroke fill markers"
     id="circle832" />
</svg>
