<?xml version="1.0" encoding="UTF-8" standalone="no"?>
<svg
   xmlns:dc="http://purl.org/dc/elements/1.1/"
   xmlns:cc="http://creativecommons.org/ns#"
   xmlns:rdf="http://www.w3.org/1999/02/22-rdf-syntax-ns#"
   xmlns:svg="http://www.w3.org/2000/svg"
   xmlns="http://www.w3.org/2000/svg"
   xmlns:sodipodi="http://sodipodi.sourceforge.net/DTD/sodipodi-0.dtd"
   xmlns:inkscape="http://www.inkscape.org/namespaces/inkscape"
   viewBox="0 0 272 272"
   version="1.1"
   id="svg16"
   sodipodi:docname="browser_fg.svg"
   inkscape:version="0.92.4 (5da689c313, 2019-01-14)"
   width="272"
   height="272">
  <metadata
     id="metadata20">
    <rdf:RDF>
      <cc:Work
         rdf:about="">
        <dc:format>image/svg+xml</dc:format>
        <dc:type
           rdf:resource="http://purl.org/dc/dcmitype/StillImage" />
        <dc:title></dc:title>
      </cc:Work>
    </rdf:RDF>
  </metadata>
  <sodipodi:namedview
     pagecolor="#ffffff"
     bordercolor="#666666"
     borderopacity="1"
     objecttolerance="10"
     gridtolerance="10"
     guidetolerance="10"
     inkscape:pageopacity="0"
     inkscape:pageshadow="2"
     inkscape:window-width="1920"
     inkscape:window-height="1017"
     id="namedview18"
     showgrid="true"
     inkscape:zoom="8.4698372"
     inkscape:cx="59.840745"
     inkscape:cy="147.21672"
     inkscape:window-x="-8"
     inkscape:window-y="-8"
     inkscape:window-maximized="1"
     inkscape:current-layer="svg16"
     inkscape:snap-global="true">
    <inkscape:grid
       type="xygrid"
       id="grid827"
       spacingx="4"
       spacingy="4" />
  </sodipodi:namedview>
  <defs
     id="defs4">
    <style
       id="style2">.a{fill:none;stroke:#b1b5bd;stroke-linecap:round;stroke-linejoin:round;isolation:isolate;opacity:0.63;}</style>
  </defs>
  <path
     style="clip-rule:evenodd;fill:#71a372;fill-rule:evenodd"
     inkscape:connector-curvature="0"
     d="m 136.4246,93.178433 c 11.715,0 21.727,4.1546 30.036,12.464007 8.309,8.30939 12.464,18.321 12.464,30.03599 0,11.715 -4.155,21.727 -12.464,30.036 -8.309,8.309 -18.321,12.464 -30.036,12.464 -11.715,0 -21.727,-4.155 -30.036,-12.464 -8.309299,-8.309 -12.463999,-18.321 -12.463999,-30.036 0,-11.71499 4.1546,-21.72699 12.463999,-30.03599 8.3094,-8.309307 18.321,-12.464007 30.036,-12.464007 z m -4.4952,78.665997 c 0.2724,-0.54499 0.647,-1.294 1.1238,-2.248 0.4768,-0.953 0.8514,-1.702 1.1238,-2.247 0.2724,-0.545 0.4087,-1.124 0.4087,-1.737 0,-0.613 -0.3406,-1.192 -1.0217,-1.737 -2.1795,-1.907 -3.746,-3.337 -4.6995,-4.291 -0.2724,-0.272 -0.6811,-1.055 -1.226,-2.34999 -0.5448,-1.29401 -0.7492,-2.077 -0.6129,-2.34901 0.6811,-1.226 1.2259,-2.861 1.6346,-4.904 0.4086,-1.635 -0.4768,-3.13299 -2.6563,-4.495 -0.9535,-0.545 -1.907,-1.226 -2.8605,-2.04399 -0.9536,-0.81701 -2.0093,-1.702 -3.1671,-2.65601 -1.1579,-0.953 -2.0773,-1.7025 -2.7584,-2.2474 -2.452,-1.7709 -3.8141,-3.06489 -4.0866,-3.8822 -1.2259,-3.5417 -1.907,-5.4488 -2.0432,-5.72119 -1.226,-1.77081 -1.9752,-3.6438 -2.2476,-5.619 -0.2725,-1.9752 -0.2044,-4.0525 0.2043,-6.232 0,-0.95351 -0.1362,-2.6562 -0.4087,-5.1081 -5.7211,6.5385 -8.5817,14.439 -8.5817,23.70199 0,10.08 3.5416,18.66201 10.625,25.745 5.8574,5.85801 12.941,9.331 21.25,10.421 z m 30.24,-10.421 c 4.768,-4.767 7.969,-10.352 9.604,-16.75499 l -3.883,-0.40801 c -2.86,-3.26999 -4.427,-6.3344 -4.699,-9.195 -0.136,-1.2259 -0.205,-3.133 -0.205,-5.7211 0,-2.5882 -0.136,-4.56329 -0.408,-5.9255 -0.273,-1.22599 -1.192,-2.9287 -2.759,-5.1082 -1.566,-2.1795 -2.486,-3.60979 -2.758,-4.2909 -0.409,-0.95349 -1.056,-2.38379 -1.941,-4.29079 -0.886,-1.90711 -1.601,-3.3374 -2.146,-4.2909 0.137,0 0.375,0.0681 0.716,0.2043 0.34,0.1363 0.579,0.2725 0.715,0.4087 1.362,-0.2724 2.315,-0.4087 2.86,-0.4087 -4.359,-3.133 -9.535,-5.1081 -15.529,-5.925402 v 1.634602 l 0.818,1.8389 -2.8608,2.6563 -1.8389,-0.613 -2.0433,-2.0433 -2.0432,-2.4519 -2.8606,-1.021602 c -2.8606,0.408602 -5.9255,1.294002 -9.1947,2.656202 v 1.4303 c 0.4086,-0.2724 1.1578,-0.5449 2.2476,-0.8173 1.0897,-0.2724 1.907,-0.5449 2.4519,-0.81731 0.2724,-0.1362 1.3622,0.47671 3.2692,1.8389 -0.1362,0.1362 -0.8854,0.7833 -2.2476,1.94111 -1.3622,1.1579 -2.1114,1.9411 -2.2476,2.3498 0,0.1362 0.2384,0.4427 0.7152,0.9195 0.4767,0.4767 0.7151,0.85129 0.7151,1.1238 0,0.4086 -0.034,0.9875 -0.1021,1.7367 -0.0682,0.7492 -0.1022,1.32819 -0.1022,1.7368 2.8606,-2.8606 4.359,-4.2908 4.4952,-4.2908 1.2259,-0.2725 2.7243,0.3064 4.4952,1.7367 1.7708,1.4303 2.7924,2.6222 3.0649,3.5758 0.1362,0.4086 -0.1362,0.98749 -0.8173,1.7367 -0.6811,0.7492 -1.7709,1.7368 -3.2693,2.9628 -1.4984,1.2259 -2.3838,1.9751 -2.6562,2.2476 -0.2725,0.2724 -0.8854,0.7151 -1.839,1.3281 -0.9535,0.613 -1.6346,1.1919 -2.0432,1.7368 -0.4087,0.5448 -0.4768,1.1578 -0.2044,1.8389 1.3622,2.72439 1.7028,4.359 1.0217,4.9039 -0.2725,0.2724 -0.613,0.3065 -1.0217,0.10209 -0.4086,-0.20429 -0.7151,-0.4427 -0.9194,-0.7151 -0.2044,-0.27249 -0.4768,-0.613 -0.8173,-1.02169 -0.3406,-0.4086 -0.579,-0.68101 -0.7152,-0.81731 -0.8173,-0.95349 -3.4054,-1.43029 -7.7644,-1.43029 0,4.35899 1.0216,7.2877 3.0649,8.7861 5.585,4.0867 8.7861,6.3337 9.6034,6.74269 0.8173,0.40901 2.4519,0.40901 4.9038,0 2.4519,-0.40899 4.0184,-0.34 4.6995,0.20401 4.4948,3.13299 7.6968,5.10899 9.6038,5.92599 1.226,0.40901 2.588,1.328 4.086,2.758 1.499,1.431 1.907,2.623 1.226,3.576 -1.771,2.724 -2.724,4.291 -2.86,4.7 -1.09,2.315 -2.452,4.018 -4.087,5.108 -1.771,1.362 -3.201,3.33701 -4.291,5.925 7.356,-1.49799 13.622,-4.835 18.798,-10.012 z"
     id="path824" />
</svg>
