<?xml version="1.0" encoding="UTF-8" standalone="no"?>
<svg
   xmlns:dc="http://purl.org/dc/elements/1.1/"
   xmlns:cc="http://creativecommons.org/ns#"
   xmlns:rdf="http://www.w3.org/1999/02/22-rdf-syntax-ns#"
   xmlns:svg="http://www.w3.org/2000/svg"
   xmlns="http://www.w3.org/2000/svg"
   xmlns:sodipodi="http://sodipodi.sourceforge.net/DTD/sodipodi-0.dtd"
   xmlns:inkscape="http://www.inkscape.org/namespaces/inkscape"
   viewBox="0 0 272 272"
   version="1.1"
   id="svg16"
   sodipodi:docname="danganronpa_fg.svg"
   inkscape:version="0.92.4 (5da689c313, 2019-01-14)"
   width="272"
   height="272">
  <metadata
     id="metadata20">
    <rdf:RDF>
      <cc:Work
         rdf:about="">
        <dc:format>image/svg+xml</dc:format>
        <dc:type
           rdf:resource="http://purl.org/dc/dcmitype/StillImage" />
        <dc:title />
      </cc:Work>
    </rdf:RDF>
  </metadata>
  <sodipodi:namedview
     pagecolor="#ffffff"
     bordercolor="#666666"
     borderopacity="1"
     objecttolerance="10"
     gridtolerance="10"
     guidetolerance="10"
     inkscape:pageopacity="0"
     inkscape:pageshadow="2"
     inkscape:window-width="1920"
     inkscape:window-height="1017"
     id="namedview18"
     showgrid="true"
     inkscape:zoom="7.1795104"
     inkscape:cx="36.580106"
     inkscape:cy="96.756876"
     inkscape:window-x="-8"
     inkscape:window-y="-8"
     inkscape:window-maximized="1"
     inkscape:current-layer="svg16"
     inkscape:snap-global="true">
    <inkscape:grid
       type="xygrid"
       id="grid827"
       spacingx="4"
       spacingy="4" />
  </sodipodi:namedview>
  <defs
     id="defs4">
    <style
       id="style2">.a{fill:none;stroke:#b1b5bd;stroke-linecap:round;stroke-linejoin:round;isolation:isolate;opacity:0.63;}</style>
  </defs>
  <path
     style="opacity:1;vector-effect:none;fill:#56595b;fill-opacity:1;fill-rule:evenodd;stroke:none;stroke-width:16;stroke-linecap:round;stroke-linejoin:round;stroke-miterlimit:4;stroke-dasharray:none;paint-order:stroke fill markers"
     d="M 136,0 H 272 V 272 H 136 V 172 h -12 l -8,-12 20,-8 z"
     id="rect870"
     inkscape:connector-curvature="0"
     sodipodi:nodetypes="ccccccccc" />
  <style
     id="style822"
     type="text/css">.st0{fill:#FFFFFF;}</style>
  <style
     id="style824"
     type="text/css">.st0{fill:#FFFFFF;}</style>
  <path
     inkscape:connector-curvature="0"
     d="m 109.9941,160 11.407,1.6765 c 0,0 0.99349,8.9141 14.382,10.067 15.344,1.3217 23.586,-1.2944 23.586,-1.2944 0,0 -4.8331,12.082 -22.976,11.337 -26.299,-1.0801 -26.399,-21.786 -26.399,-21.786 z"
     style="fill:#d2d2d2;stroke-width:4"
     id="path830" />
  <circle
     cx="108.0001"
     cy="124"
     r="8"
     style="fill:#56595b;stroke-width:4;paint-order:stroke fill markers"
     id="circle832" />
  <path
     inkscape:connector-curvature="0"
     d="m 202.1001,134.375 c -4.7558,4.2301 -9.1903,7.6255 -13.422,10.555 v 10.094 c 5.7357,-5.1647 10.535,-11.89 13.422,-20.648 z m -15.047,11.719 c -3.5216,2.3497 -6.8186,4.2093 -9.9688,5.7812 v 11.031 c 3.4599,-1.8044 6.8384,-3.9187 9.9688,-6.5078 z m -49.76,5.7624 0.28768,18.849 c 0,0 3.5302,0.91724 10.765,0.0784 l -0.14384,-13.19 c -8.1718,-1.4751 -10.909,-5.7376 -10.909,-5.7376 z m 38.167,0.80792 c -4.126,1.9375 -7.9228,3.2761 -11.391,4.1172 v 11.398 c 3.7559,-1.1119 7.6099,-2.5457 11.391,-4.3828 z m -13.023,4.5234 c -4.9018,1.0138 -9.0858,1.0693 -12.609,0.6172 l 0.1438,12.768 c 3.7916,-0.0696 7.9471,-0.7326 12.466,-1.9716 z"
     style="fill:#ffffff;stroke-width:4"
     id="path834" />
  <path
     inkscape:connector-curvature="0"
     d="m 136.0001,128 c -12,0 -32,8 -32,20 0,6.6667 4,16 14,16 7.7746,0 18,-4 18,-12 0,8 10,12 18,12 10,0 14,-9.3333 14,-16 0,-12 -19.421,-20 -32,-20 z"
     style="fill:#d8d8d8;stroke-width:4"
     id="path836" />
  <path
     inkscape:connector-curvature="0"
     d="m 147.5901,127.458 c 0,0 13.712,-8.5113 20.339,-15.864 -1.6031,3.9247 -1.6697,11.119 2.2373,11.593 10.576,1.2843 24.464,-14.305 29.695,-18.915 -4.4865,14.179 -15.864,29.288 -15.864,29.288 0,0 3.9831,-9.3856 -2.6441,-9.5593 -5.568,-0.146 -13.627,10.373 -13.627,10.373 0,0 0.85276,-10.694 -1.8305,-10.983 -5.6746,-0.61172 -18.305,4.0678 -18.305,4.0678 z"
     style="fill:#ff837d;stroke-width:4"
     id="path838" />
  <path
     inkscape:connector-curvature="0"
     d="m 136.0001,152 c 0,0 0,-4 4,-4 2.9814,0 6,-2.3406 6,-4 0,-2.2712 -5.7836,-4 -10,-4 -4.2164,0 -10,1.7288 -10,4 0,2.4746 3.1746,4 6,4 4,0 4,4 4,4 z"
     style="fill:#56595b;stroke-width:4"
     id="path840" />
</svg>
