<?xml version="1.0" encoding="UTF-8" standalone="no"?>
<svg
   xmlns:dc="http://purl.org/dc/elements/1.1/"
   xmlns:cc="http://creativecommons.org/ns#"
   xmlns:rdf="http://www.w3.org/1999/02/22-rdf-syntax-ns#"
   xmlns:svg="http://www.w3.org/2000/svg"
   xmlns="http://www.w3.org/2000/svg"
   xmlns:sodipodi="http://sodipodi.sourceforge.net/DTD/sodipodi-0.dtd"
   xmlns:inkscape="http://www.inkscape.org/namespaces/inkscape"
   viewBox="0 0 272 272"
   version="1.1"
   id="svg16"
   sodipodi:docname="discord.svg"
   inkscape:version="0.92.4 (5da689c313, 2019-01-14)"
   width="272"
   height="272">
  <metadata
     id="metadata20">
    <rdf:RDF>
      <cc:Work
         rdf:about="">
        <dc:format>image/svg+xml</dc:format>
        <dc:type
           rdf:resource="http://purl.org/dc/dcmitype/StillImage" />
        <dc:title></dc:title>
      </cc:Work>
    </rdf:RDF>
  </metadata>
  <sodipodi:namedview
     pagecolor="#ffffff"
     bordercolor="#666666"
     borderopacity="1"
     objecttolerance="10"
     gridtolerance="10"
     guidetolerance="10"
     inkscape:pageopacity="0"
     inkscape:pageshadow="2"
     inkscape:window-width="1920"
     inkscape:window-height="1017"
     id="namedview18"
     showgrid="true"
     inkscape:zoom="2.9945397"
     inkscape:cx="36.204625"
     inkscape:cy="101.92595"
     inkscape:window-x="-8"
     inkscape:window-y="-8"
     inkscape:window-maximized="1"
     inkscape:current-layer="svg16"
     inkscape:snap-global="true">
    <inkscape:grid
       type="xygrid"
       id="grid827"
       spacingx="4"
       spacingy="4" />
  </sodipodi:namedview>
  <defs
     id="defs4">
    <style
       id="style2">.a{fill:none;stroke:#b1b5bd;stroke-linecap:round;stroke-linejoin:round;isolation:isolate;opacity:0.63;}</style>
  </defs>
  <path
     style="clip-rule:evenodd;fill:#ffffff;fill-rule:evenodd"
     inkscape:connector-curvature="0"
     d="m 136.5,105 c 21.815,0 39.5,14.775 39.5,33 0,18.225 -17.685,33 -39.5,33 -21.815,0 -39.5,-14.775 -39.5,-33 0,-18.225 17.685,-33 39.5,-33 z m -16,31 a 8.5,8.5 0 1 1 0,17 8.5,8.5 0 0 1 0,-17 z m 39.5,8.5 a 8.5,8.5 0 1 0 -17,0 8.5,8.5 0 0 0 17,0 z"
     id="path820" />
  <path
     style="clip-rule:evenodd;fill:#ffffff;fill-rule:evenodd"
     inkscape:connector-curvature="0"
     d="M 95.788,109.605 A 10,10 0 0 1 105.69,101 H 110 l -10,71 h -1.493 c -6.077,0 -10.75,-5.377 -9.902,-11.395 z"
     id="path822" />
  <path
     style="clip-rule:evenodd;fill:#ffffff;fill-rule:evenodd"
     inkscape:connector-curvature="0"
     d="m 130.025,101 c -8,1 -21,19 -21,19 L 106,101 Z M 123,172 c -8,-1 -21,-19 -21,-19 l -3.025,19 z m 54.212,-62.395 A 10,10 0 0 0 167.31,101 H 163 l 10,71 h 1.493 c 6.077,0 10.75,-5.377 9.902,-11.395 z"
     id="path824" />
  <path
     style="clip-rule:evenodd;fill:#ffffff;fill-rule:evenodd"
     inkscape:connector-curvature="0"
     d="m 142.98,101 c 8,1 21,19 21,19 l 3.025,-19 z m 7.025,71 c 8,-1 21,-19 21,-19 l 3.025,19 z"
     id="path826" />
</svg>
