<?xml version="1.0" encoding="UTF-8" standalone="no"?>
<svg
   xmlns:dc="http://purl.org/dc/elements/1.1/"
   xmlns:cc="http://creativecommons.org/ns#"
   xmlns:rdf="http://www.w3.org/1999/02/22-rdf-syntax-ns#"
   xmlns:svg="http://www.w3.org/2000/svg"
   xmlns="http://www.w3.org/2000/svg"
   xmlns:sodipodi="http://sodipodi.sourceforge.net/DTD/sodipodi-0.dtd"
   xmlns:inkscape="http://www.inkscape.org/namespaces/inkscape"
   viewBox="0 0 272 272"
   version="1.1"
   id="svg16"
   sodipodi:docname="duolingo_fg.svg"
   inkscape:version="0.92.4 (5da689c313, 2019-01-14)"
   width="272"
   height="272">
  <metadata
     id="metadata20">
    <rdf:RDF>
      <cc:Work
         rdf:about="">
        <dc:format>image/svg+xml</dc:format>
        <dc:type
           rdf:resource="http://purl.org/dc/dcmitype/StillImage" />
        <dc:title></dc:title>
      </cc:Work>
    </rdf:RDF>
  </metadata>
  <sodipodi:namedview
     pagecolor="#ffffff"
     bordercolor="#666666"
     borderopacity="1"
     objecttolerance="10"
     gridtolerance="10"
     guidetolerance="10"
     inkscape:pageopacity="0"
     inkscape:pageshadow="2"
     inkscape:window-width="1920"
     inkscape:window-height="1017"
     id="namedview18"
     showgrid="true"
     inkscape:zoom="8.4698372"
     inkscape:cx="59.840745"
     inkscape:cy="137.8367"
     inkscape:window-x="-8"
     inkscape:window-y="-8"
     inkscape:window-maximized="1"
     inkscape:current-layer="svg16"
     inkscape:snap-global="true">
    <inkscape:grid
       type="xygrid"
       id="grid827"
       spacingx="4"
       spacingy="4" />
  </sodipodi:namedview>
  <defs
     id="defs4">
    <style
       id="style2">.a{fill:none;stroke:#b1b5bd;stroke-linecap:round;stroke-linejoin:round;isolation:isolate;opacity:0.63;}</style>
  </defs>
  <path
     id="path828"
     d="m 104.5,152.01309 c 11.874,0 21.5,-9.6259 21.5,-21.5 0,-11.8741 -9.6259,-21.5 -21.5,-21.5 -11.8741,0 -21.5,9.6259 -21.5,21.5 0,11.8741 9.6259,21.5 21.5,21.5 z"
     inkscape:connector-curvature="0"
     style="clip-rule:evenodd;fill:#ffffff;fill-rule:evenodd" />
  <path
     id="path830"
     d="m 105.5,139.01309 c 5.2467,0 9.5,-4.2533 9.5,-9.5 0,-5.2467 -4.2533,-9.5 -9.5,-9.5 -5.2467,0 -9.5,4.2533 -9.5,9.5 0,5.2467 4.2533,9.5 9.5,9.5 z"
     inkscape:connector-curvature="0"
     style="clip-rule:evenodd;fill:#56595b;fill-rule:evenodd" />
  <path
     id="path832"
     d="m 96.5,131.01309 c 5.2467,0 9.5,-4.2533 9.5,-9.5 0,-5.2467 -4.2533,-9.5 -9.5,-9.5 -5.2467,0 -9.5,4.2533 -9.5,9.5 0,5.2467 4.2533,9.5 9.5,9.5 z"
     inkscape:connector-curvature="0"
     style="clip-rule:evenodd;fill:#ffffff;fill-rule:evenodd" />
  <path
     id="path834"
     d="m 167.5,152.01309 c 11.874,0 21.5,-9.6259 21.5,-21.5 0,-11.8741 -9.626,-21.5 -21.5,-21.5 -11.874,0 -21.5,9.6259 -21.5,21.5 0,11.8741 9.626,21.5 21.5,21.5 z"
     inkscape:connector-curvature="0"
     style="clip-rule:evenodd;fill:#ffffff;fill-rule:evenodd" />
  <path
     id="path836"
     d="m 168.5,139.01309 c 5.247,0 9.5,-4.2533 9.5,-9.5 0,-5.2467 -4.253,-9.5 -9.5,-9.5 -5.247,0 -9.5,4.2533 -9.5,9.5 0,5.2467 4.253,9.5 9.5,9.5 z"
     inkscape:connector-curvature="0"
     style="clip-rule:evenodd;fill:#56595b;fill-rule:evenodd" />
  <path
     id="path838"
     d="m 159.5,131.01309 c 5.247,0 9.5,-4.2533 9.5,-9.5 0,-5.2467 -4.253,-9.5 -9.5,-9.5 -5.247,0 -9.5,4.2533 -9.5,9.5 0,5.2467 4.253,9.5 9.5,9.5 z"
     inkscape:connector-curvature="0"
     style="clip-rule:evenodd;fill:#ffffff;fill-rule:evenodd" />
  <path
     style="clip-rule:evenodd;fill:#f9de81;fill-rule:evenodd"
     inkscape:connector-curvature="0"
     d="m 136,178.01309 c 5.523,0 10,-14.477 10,-20 0,-5.523 -4.477,-10 -10,-10 -5.5228,0 -10,4.477 -10,10 0,5.523 4.4772,20 10,20 z"
     id="path840" />
</svg>
