<?xml version="1.0" encoding="UTF-8" standalone="no"?>
<svg
   xmlns:dc="http://purl.org/dc/elements/1.1/"
   xmlns:cc="http://creativecommons.org/ns#"
   xmlns:rdf="http://www.w3.org/1999/02/22-rdf-syntax-ns#"
   xmlns:svg="http://www.w3.org/2000/svg"
   xmlns="http://www.w3.org/2000/svg"
   xmlns:sodipodi="http://sodipodi.sourceforge.net/DTD/sodipodi-0.dtd"
   xmlns:inkscape="http://www.inkscape.org/namespaces/inkscape"
   viewBox="0 0 272 272"
   version="1.1"
   id="svg16"
   sodipodi:docname="easyrpg_fg.svg"
   inkscape:version="0.92.4 (5da689c313, 2019-01-14)"
   width="272"
   height="272">
  <metadata
     id="metadata20">
    <rdf:RDF>
      <cc:Work
         rdf:about="">
        <dc:format>image/svg+xml</dc:format>
        <dc:type
           rdf:resource="http://purl.org/dc/dcmitype/StillImage" />
        <dc:title></dc:title>
      </cc:Work>
    </rdf:RDF>
  </metadata>
  <sodipodi:namedview
     pagecolor="#ffffff"
     bordercolor="#666666"
     borderopacity="1"
     objecttolerance="10"
     gridtolerance="10"
     guidetolerance="10"
     inkscape:pageopacity="0"
     inkscape:pageshadow="2"
     inkscape:window-width="1920"
     inkscape:window-height="1017"
     id="namedview18"
     showgrid="true"
     inkscape:zoom="2.9945397"
     inkscape:cx="59.840745"
     inkscape:cy="178.00192"
     inkscape:window-x="-8"
     inkscape:window-y="-8"
     inkscape:window-maximized="1"
     inkscape:current-layer="svg16"
     inkscape:snap-global="true">
    <inkscape:grid
       type="xygrid"
       id="grid827"
       spacingx="4"
       spacingy="4" />
  </sodipodi:namedview>
  <defs
     id="defs4">
    <style
       id="style2">.a{fill:none;stroke:#b1b5bd;stroke-linecap:round;stroke-linejoin:round;isolation:isolate;opacity:0.63;}</style>
    <style
       id="style2-7">.a{fill:none;stroke:#b1b5bd;stroke-linecap:round;stroke-linejoin:round;isolation:isolate;opacity:0.63;}</style>
    <style
       id="style2-8">.a{fill:none;stroke:#b1b5bd;stroke-linecap:round;stroke-linejoin:round;isolation:isolate;opacity:0.63;}</style>
  </defs>
  <path
     style="fill:#71a372;stroke:none;stroke-width:0.90188879px;stroke-linecap:butt;stroke-linejoin:miter;stroke-opacity:1"
     d="m 140.37056,83.308541 -11.14473,10.820127 c 0,0 -7.84871,7.948672 -0.2164,15.580982 9.50102,9.50102 17.74501,-0.54101 17.74501,-0.54101 0,0 13.54299,-13.218364 20.23364,-19.90903 7.35708,-7.357076 4.02609,-13.827115 0,-17.853211 -7.11615,-7.116148 -17.63578,-12.010342 -27.69953,-12.010342 -26.00556,0 -44.146121,17.826476 -44.146121,41.008293 0,23.56877 15.256381,33.65059 15.256381,33.65059 l 9.95451,17.96142 1.08201,6.70848 c 0,0 0.37405,17.40845 -18.28601,19.47622 -13.401,1.48501 -18.286014,-12.22673 -18.286014,-12.22673 l 15.797384,4.21984 c 0,0 10.29387,1.75844 12.87596,-7.68229 3.69833,-13.52206 -9.30531,-15.14818 -9.30531,-15.14818 L 76.856413,139.465 c 0,0 -10.797996,-3.45111 -14.931778,7.03308 -7.056319,17.89642 4.947249,41.66974 20.991049,49.989 16.096907,8.34681 37.189876,5.67122 53.126826,-11.68572 5.93595,-6.46485 8.11511,-18.39423 8.11511,-18.39423 l 9.3053,-15.47279 c 0,0 5.93612,-10.26813 17.4204,-9.0889 6.1022,0.62658 15.3028,3.88933 17.63682,16.66299 1.17854,6.45004 -4.21986,13.95796 -4.21986,13.95796 l -3.67885,-14.17437 c 0,0 -2.98949,-11.20138 -13.30875,-9.08889 -11.94686,2.44566 -9.30531,13.52515 -9.30531,13.52515 l 7.68228,30.18816 c 0,0 1.62069,10.64137 13.63336,8.8725 18.59479,-2.73808 33.6344,-24.48592 32.785,-42.3067 -1.08605,-22.78597 -21.87408,-41.13145 -41.3329,-41.22468 -9.01615,-0.0431 -15.58098,2.81323 -15.58098,2.81323 l -19.15162,-0.54101 c 0,0 -18.1209,-2.31762 -17.3122,-19.36803 1.0284,-21.682525 21.64025,-17.853209 21.64025,-17.853209 z"
     id="path837"
     inkscape:connector-curvature="0"
     sodipodi:nodetypes="ccscsssscccsccsccsssccssccsccsssccsc" />
</svg>
