<?xml version="1.0" encoding="UTF-8" standalone="no"?>
<svg
   xmlns:dc="http://purl.org/dc/elements/1.1/"
   xmlns:cc="http://creativecommons.org/ns#"
   xmlns:rdf="http://www.w3.org/1999/02/22-rdf-syntax-ns#"
   xmlns:svg="http://www.w3.org/2000/svg"
   xmlns="http://www.w3.org/2000/svg"
   xmlns:sodipodi="http://sodipodi.sourceforge.net/DTD/sodipodi-0.dtd"
   xmlns:inkscape="http://www.inkscape.org/namespaces/inkscape"
   viewBox="0 0 272 272"
   version="1.1"
   id="svg16"
   sodipodi:docname="edem_rf_fg.svg"
   inkscape:version="0.92.4 (5da689c313, 2019-01-14)"
   width="272"
   height="272">
  <metadata
     id="metadata20">
    <rdf:RDF>
      <cc:Work
         rdf:about="">
        <dc:format>image/svg+xml</dc:format>
        <dc:type
           rdf:resource="http://purl.org/dc/dcmitype/StillImage" />
        <dc:title></dc:title>
      </cc:Work>
    </rdf:RDF>
  </metadata>
  <sodipodi:namedview
     pagecolor="#ffffff"
     bordercolor="#666666"
     borderopacity="1"
     objecttolerance="10"
     gridtolerance="10"
     guidetolerance="10"
     inkscape:pageopacity="0"
     inkscape:pageshadow="2"
     inkscape:window-width="1920"
     inkscape:window-height="1017"
     id="namedview18"
     showgrid="true"
     inkscape:zoom="2.15164"
     inkscape:cx="56.400367"
     inkscape:cy="97.448412"
     inkscape:window-x="-8"
     inkscape:window-y="-8"
     inkscape:window-maximized="1"
     inkscape:current-layer="svg16"
     inkscape:snap-global="true">
    <inkscape:grid
       type="xygrid"
       id="grid827"
       spacingx="4"
       spacingy="4" />
  </sodipodi:namedview>
  <defs
     id="defs4">
    <style
       id="style2">.a{fill:none;stroke:#b1b5bd;stroke-linecap:round;stroke-linejoin:round;isolation:isolate;opacity:0.63;}</style>
    <clipPath
       id="a">
      <path
         id="path818"
         d="M89.22 180.45C39.27 108 30 100.61 30 74a66 66 0 0 1 132 0c0 26.61-9.27 34-59.22 106.45a8.25 8.25 0 0 1-13.56 0Z"
         fill="none" />
    </clipPath>
    <clipPath
       id="a-7">
      <path
         id="path862"
         d="M89.22 180.45C39.27 108 30 100.61 30 74a66 66 0 0 1 132 0c0 26.61-9.27 34-59.22 106.45a8.25 8.25 0 0 1-13.56 0Z"
         fill="none" />
    </clipPath>
  </defs>
  <path
     style="fill:#728dbe"
     inkscape:connector-curvature="0"
     d="m 102.99029,144.43 -1.41,-4.38 a 1.5,1.5 0 0 1 0.75,-1.8 61.86,61.86 0 0 0 5.58,-3.09 c 1.72,-1.21 8.08,-6.71 10.44,-8.12 2.36,-1.41 12.86,-8.27 25.12,-8 2.08,0 11.77,1.34 17.37,1.83 1.47,-0.44 16.82,-2.09 18.25,-0.29 a 35.2,35.2 0 0 1 2.31,3.21 8.89,8.89 0 0 1 0.47,5.1 18.06,18.06 0 0 1 -5.15,3.11 l -1.21,0.44 a 6.21,6.21 0 0 1 -11.22,4.13 l -1.22,0.44 -35.52,10.7 -1.22,0.29 a 6.21,6.21 0 0 1 -11.89,3.22 l -0.15,-0.4 -1.22,0.29 h -0.15 l -6.4,0.82 a 5.43,5.43 0 0 1 -3.81,-3.87 4.3,4.3 0 0 1 0.28,-3.63 z"
     id="path829" />
  <path
     style="fill:#98dc9a"
     inkscape:connector-curvature="0"
     d="M 73.996353,196 C 94.214768,161.87255 177.73341,130.78065 204.83029,139.44 323.56642,177.38449 228,336 228,336 l -59.95,23.55 c 0,0 -165.9857585,-29.84385 -186.142299,-20.17757 C -38.248839,349.03872 33.81413,263.82514 73.996353,196 Z"
     id="path831"
     sodipodi:nodetypes="ssccss" />
  <path
     style="fill:#ffffff"
     inkscape:connector-curvature="0"
     d="m 94.720294,214.04 c 4,-30.74 84.859996,-77.92 113.199996,-65.67 14.91,6.45 -30.44,62.18 -30.44,62.18 L 92,312 c 0,0 -4,-60 2.720294,-97.96 z"
     id="path833"
     sodipodi:nodetypes="ccccc" />
  <path
     style="fill:#728dbe"
     inkscape:connector-curvature="0"
     d="m 106.17029,216.61 c 4,-30.75 93.59231,-82.67163 116.55306,-69.85365 C 308.87228,194.84952 352,320 352,320 l -216,16 c 0,0 -40,-44 -29.82971,-119.39 z"
     id="path835"
     sodipodi:nodetypes="csccc" />
</svg>
