<?xml version="1.0" encoding="UTF-8" standalone="no"?>
<svg
   xmlns:dc="http://purl.org/dc/elements/1.1/"
   xmlns:cc="http://creativecommons.org/ns#"
   xmlns:rdf="http://www.w3.org/1999/02/22-rdf-syntax-ns#"
   xmlns:svg="http://www.w3.org/2000/svg"
   xmlns="http://www.w3.org/2000/svg"
   xmlns:sodipodi="http://sodipodi.sourceforge.net/DTD/sodipodi-0.dtd"
   xmlns:inkscape="http://www.inkscape.org/namespaces/inkscape"
   viewBox="0 0 272 272"
   version="1.1"
   id="svg16"
   sodipodi:docname="garage_bad_dream_adventure_fg.svg"
   inkscape:version="0.92.4 (5da689c313, 2019-01-14)"
   width="272"
   height="272">
  <metadata
     id="metadata20">
    <rdf:RDF>
      <cc:Work
         rdf:about="">
        <dc:format>image/svg+xml</dc:format>
        <dc:type
           rdf:resource="http://purl.org/dc/dcmitype/StillImage" />
        <dc:title></dc:title>
      </cc:Work>
    </rdf:RDF>
  </metadata>
  <sodipodi:namedview
     pagecolor="#ffffff"
     bordercolor="#666666"
     borderopacity="1"
     objecttolerance="10"
     gridtolerance="10"
     guidetolerance="10"
     inkscape:pageopacity="0"
     inkscape:pageshadow="2"
     inkscape:window-width="1920"
     inkscape:window-height="1017"
     id="namedview18"
     showgrid="true"
     inkscape:zoom="8.4698372"
     inkscape:cx="59.840745"
     inkscape:cy="113.24865"
     inkscape:window-x="-8"
     inkscape:window-y="-8"
     inkscape:window-maximized="1"
     inkscape:current-layer="svg16"
     inkscape:snap-global="true">
    <inkscape:grid
       type="xygrid"
       id="grid827"
       spacingx="4"
       spacingy="4" />
  </sodipodi:namedview>
  <defs
     id="defs4">
    <style
       id="style2">.a{fill:none;stroke:#b1b5bd;stroke-linecap:round;stroke-linejoin:round;isolation:isolate;opacity:0.63;}</style>
    <style
       id="style2-2">.a{fill:none;stroke:#b1b5bd;stroke-linecap:round;stroke-linejoin:round;isolation:isolate;opacity:0.63;}</style>
  </defs>
  <path
     inkscape:connector-curvature="0"
     style="color:#000000;font-style:normal;font-variant:normal;font-weight:normal;font-stretch:normal;font-size:medium;line-height:normal;font-family:sans-serif;font-variant-ligatures:normal;font-variant-position:normal;font-variant-caps:normal;font-variant-numeric:normal;font-variant-alternates:normal;font-feature-settings:normal;text-indent:0;text-align:start;text-decoration:none;text-decoration-line:none;text-decoration-style:solid;text-decoration-color:#000000;letter-spacing:normal;word-spacing:normal;text-transform:none;writing-mode:lr-tb;direction:ltr;text-orientation:mixed;dominant-baseline:auto;baseline-shift:baseline;text-anchor:start;white-space:normal;shape-padding:0;clip-rule:nonzero;display:inline;overflow:visible;visibility:visible;opacity:1;isolation:auto;mix-blend-mode:normal;color-interpolation:sRGB;color-interpolation-filters:linearRGB;solid-color:#000000;solid-opacity:1;vector-effect:none;fill:#56595b;fill-opacity:1;fill-rule:nonzero;stroke:none;stroke-width:6.94736862;stroke-linecap:round;stroke-linejoin:round;stroke-miterlimit:4;stroke-dasharray:none;stroke-dashoffset:0;stroke-opacity:1;color-rendering:auto;image-rendering:auto;shape-rendering:auto;text-rendering:auto;enable-background:accumulate"
     d="m 148.28883,141.31352 c -2.79139,0.0209 -4.41944,3.15888 -2.82915,5.45307 0,0 2.3185,3.45043 5.49887,7.52405 3.18037,4.07364 7.11462,8.77219 11.10459,11.68468 4.15112,3.03011 9.41044,4.53147 14.54945,5.87371 5.13901,1.34225 10.21201,2.48843 13.54533,3.9503 12.90589,5.66007 69.92446,99.33491 70.81272,101.67175 l 9.05816,-4.34096 -59.16107,-87.56274 c -3.95699,-6.04431 -9.78438,-12.5641 -17.91967,-16.13194 -4.38649,-1.92376 -9.63041,-3.01542 -14.57997,-4.30819 -4.94957,-1.29276 -9.55125,-2.82287 -12.20878,-4.76275 -2.75411,-2.01037 -6.70529,-6.48333 -9.72394,-10.34981 -3.01864,-3.86647 -5.21222,-7.12546 -5.21222,-7.12546 -0.64617,-0.99043 -1.75177,-1.58413 -2.93432,-1.57571 z"
     id="path829"
     sodipodi:nodetypes="ccccccccccccscc" />
  <rect
     style="opacity:1;vector-effect:none;fill:#bf9e73;fill-opacity:1;fill-rule:evenodd;stroke:none;stroke-width:8.10526276;stroke-linecap:round;stroke-linejoin:round;stroke-miterlimit:4;stroke-dasharray:none;paint-order:stroke fill markers"
     id="rect833"
     width="48.63158"
     height="48.63158"
     x="89.28878"
     y="148.30159"
     ry="24.31579" />
  <path
     inkscape:connector-curvature="0"
     style="color:#000000;font-style:normal;font-variant:normal;font-weight:normal;font-stretch:normal;font-size:medium;line-height:normal;font-family:sans-serif;font-variant-ligatures:normal;font-variant-position:normal;font-variant-caps:normal;font-variant-numeric:normal;font-variant-alternates:normal;font-feature-settings:normal;text-indent:0;text-align:start;text-decoration:none;text-decoration-line:none;text-decoration-style:solid;text-decoration-color:#000000;letter-spacing:normal;word-spacing:normal;text-transform:none;writing-mode:lr-tb;direction:ltr;text-orientation:mixed;dominant-baseline:auto;baseline-shift:baseline;text-anchor:start;white-space:normal;shape-padding:0;clip-rule:nonzero;display:inline;overflow:visible;visibility:visible;opacity:1;isolation:auto;mix-blend-mode:normal;color-interpolation:sRGB;color-interpolation-filters:linearRGB;solid-color:#000000;solid-opacity:1;vector-effect:none;fill:#cccccc;fill-opacity:1;fill-rule:nonzero;stroke:none;stroke-width:6.94736862;stroke-linecap:round;stroke-linejoin:round;stroke-miterlimit:4;stroke-dasharray:none;stroke-dashoffset:0;stroke-opacity:1;color-rendering:auto;image-rendering:auto;shape-rendering:auto;text-rendering:auto;enable-background:accumulate"
     d="m 151.88294,165.65136 c -3.83881,-0.12331 -5.00975,5.15396 -1.47903,6.66581 l 29.9741,13.32144 33.8265,88.10712 h 7.48334 L 186.3043,181.74768 c -0.33665,-0.83999 -0.98778,-1.51547 -1.81486,-1.88271 l -31.26316,-13.89474 c -0.42194,-0.19509 -0.87873,-0.30352 -1.34334,-0.31887 z"
     id="path839"
     sodipodi:nodetypes="ccccccccc" />
  <path
     style="fill:none;stroke:#56595b;stroke-width:13.89473724;stroke-linecap:round;stroke-linejoin:round;stroke-miterlimit:4;stroke-dasharray:none;stroke-opacity:1"
     d="m 137.92036,148.3016 13.89474,31.26315 3.47368,24.31579"
     id="path835"
     inkscape:connector-curvature="0"
     sodipodi:nodetypes="ccc" />
  <path
     style="fill:#d6c8ba;stroke:#d6c8ba;stroke-width:6.94736862;stroke-linecap:round;stroke-linejoin:round;stroke-miterlimit:4;stroke-dasharray:none;stroke-opacity:1"
     d="m 75.394047,144.82791 c 0,-31.26316 0,-69.473682 47.587273,-69.473682 41.68421,0 49.05908,14.129654 53.14957,38.210522 2.75595,16.22438 -31.26316,38.21053 -31.26316,38.21053 0,0 -9.80096,6.32727 -13.89474,10.42105 -6.94736,6.94737 -4.0888,15.02597 -10.42105,17.36842 -3.43414,1.27037 -6.75947,-3.47368 -10.42105,-3.47368 -13.894738,0 -20.842106,6.94737 -20.842106,6.94737 v -3.47369 l -6.947369,-3.47368 c 0,0 -6.947368,-20.58789 -6.947368,-31.26316 z"
     id="path831"
     inkscape:connector-curvature="0"
     sodipodi:nodetypes="ssscssscccs" />
  <path
     style="fill:#83868c;stroke:#83868c;stroke-width:6.94736862;stroke-linecap:round;stroke-linejoin:round;stroke-miterlimit:4;stroke-dasharray:none;stroke-opacity:1"
     d="m 144.86773,183.03844 -3.47368,27.78947 h 38.21052 l -10.42105,-31.26316 -10.42105,-3.47368 z"
     id="path837"
     inkscape:connector-curvature="0"
     sodipodi:nodetypes="cccccc" />
  <path
     inkscape:connector-curvature="0"
     style="color:#000000;font-style:normal;font-variant:normal;font-weight:normal;font-stretch:normal;font-size:medium;line-height:normal;font-family:sans-serif;font-variant-ligatures:normal;font-variant-position:normal;font-variant-caps:normal;font-variant-numeric:normal;font-variant-alternates:normal;font-feature-settings:normal;text-indent:0;text-align:start;text-decoration:none;text-decoration-line:none;text-decoration-style:solid;text-decoration-color:#000000;letter-spacing:normal;word-spacing:normal;text-transform:none;writing-mode:lr-tb;direction:ltr;text-orientation:mixed;dominant-baseline:auto;baseline-shift:baseline;text-anchor:start;white-space:normal;shape-padding:0;clip-rule:nonzero;display:inline;overflow:visible;visibility:visible;opacity:1;isolation:auto;mix-blend-mode:normal;color-interpolation:sRGB;color-interpolation-filters:linearRGB;solid-color:#000000;solid-opacity:1;vector-effect:none;fill:#a0a5af;fill-opacity:1;fill-rule:nonzero;stroke:none;stroke-width:6.94736862;stroke-linecap:round;stroke-linejoin:round;stroke-miterlimit:4;stroke-dasharray:none;stroke-dashoffset:0;stroke-opacity:1;color-rendering:auto;image-rendering:auto;shape-rendering:auto;text-rendering:auto;enable-background:accumulate"
     d="m 183.04434,196.93317 c -0.23322,0.002 -0.46563,0.0277 -0.69372,0.0763 l -48.63158,10.42105 c -1.60191,0.3433 -2.74626,1.75908 -2.74605,3.39735 l -8.20895,68.2961 95.37324,1.13227 -31.83298,-81.14018 c -0.53247,-1.33033 -1.8271,-2.19724 -3.25996,-2.18293 z"
     id="path841"
     sodipodi:nodetypes="ccccccccc" />
  <path
     style="fill:#bf9e73;stroke:none;stroke-width:0.86842108px;stroke-linecap:butt;stroke-linejoin:miter;stroke-opacity:1"
     d="m 79.769644,154.16844 c -1.142574,-7.51358 -2.965842,-20.08075 4.272901,-22.3959 4.466647,-1.42855 8.859169,5.22093 10.166558,9.72454 1.36821,4.71311 -3.432984,9.83389 -2.210122,14.58679 0.883328,3.43324 1.725764,8.43149 2.652145,5.00961 1.591521,-5.87877 0.0712,-12.62323 6.040994,-15.61819 9.27228,-4.65176 29.41645,-1.12158 30.49968,6.18834 0.66259,4.47138 -9.82464,16.00646 -17.97566,19.30172 -6.06434,2.45167 -13.15202,-2.15253 -19.596403,-1.03139 -3.253106,0.56595 -0.277766,4.93729 -3.388853,3.83089 -6.976579,-2.48111 -9.34803,-12.27594 -10.46124,-19.59641 z"
     id="path843"
     inkscape:connector-curvature="0"
     sodipodi:nodetypes="sssssssssss" />
  <rect
     style="opacity:1;vector-effect:none;fill:#8e6f60;fill-opacity:1;fill-rule:evenodd;stroke:none;stroke-width:6.94736862;stroke-linecap:round;stroke-linejoin:round;stroke-miterlimit:4;stroke-dasharray:none;paint-order:stroke fill markers"
     id="rect845"
     width="20.842106"
     height="20.842106"
     x="99.709839"
     y="148.30159"
     ry="10.421053" />
  <path
     style="fill:#d6c8ba;stroke:none;stroke-width:0.86842108px;stroke-linecap:butt;stroke-linejoin:miter;stroke-opacity:1"
     d="m 100.30583,162.19633 c 0,0 0.95923,-7.70794 7.50927,-10.02372 6.55004,-2.31579 12.14085,3.07635 12.14085,3.07635 0,0 -0.95923,7.70794 -7.50927,10.02373 -6.55004,2.31579 -12.14085,-3.07636 -12.14085,-3.07636 z"
     id="path847"
     inkscape:connector-curvature="0"
     sodipodi:nodetypes="czczc" />
  <rect
     style="opacity:1;vector-effect:none;fill:#bf9e73;fill-opacity:1;fill-rule:evenodd;stroke:none;stroke-width:6.94736862;stroke-linecap:round;stroke-linejoin:round;stroke-miterlimit:4;stroke-dasharray:none;paint-order:stroke fill markers"
     id="rect851"
     width="13.894737"
     height="13.894737"
     x="103.18352"
     y="151.77528"
     ry="6.9473686" />
  <rect
     style="opacity:1;vector-effect:none;fill:#56595b;fill-opacity:1;fill-rule:evenodd;stroke:none;stroke-width:6.94736862;stroke-linecap:round;stroke-linejoin:round;stroke-miterlimit:4;stroke-dasharray:none;paint-order:stroke fill markers"
     id="rect853"
     width="6.9473686"
     height="6.9473686"
     x="106.6572"
     y="155.24896"
     ry="3.4736843" />
</svg>
