<?xml version="1.0" encoding="UTF-8" standalone="no"?>
<svg
   xmlns:dc="http://purl.org/dc/elements/1.1/"
   xmlns:cc="http://creativecommons.org/ns#"
   xmlns:rdf="http://www.w3.org/1999/02/22-rdf-syntax-ns#"
   xmlns:svg="http://www.w3.org/2000/svg"
   xmlns="http://www.w3.org/2000/svg"
   xmlns:sodipodi="http://sodipodi.sourceforge.net/DTD/sodipodi-0.dtd"
   xmlns:inkscape="http://www.inkscape.org/namespaces/inkscape"
   viewBox="0 0 272 272"
   version="1.1"
   id="svg16"
   sodipodi:docname="habithub_fg.svg"
   inkscape:version="0.92.4 (5da689c313, 2019-01-14)"
   width="272"
   height="272">
  <metadata
     id="metadata20">
    <rdf:RDF>
      <cc:Work
         rdf:about="">
        <dc:format>image/svg+xml</dc:format>
        <dc:type
           rdf:resource="http://purl.org/dc/dcmitype/StillImage" />
        <dc:title></dc:title>
      </cc:Work>
    </rdf:RDF>
  </metadata>
  <sodipodi:namedview
     pagecolor="#ffffff"
     bordercolor="#666666"
     borderopacity="1"
     objecttolerance="10"
     gridtolerance="10"
     guidetolerance="10"
     inkscape:pageopacity="0"
     inkscape:pageshadow="2"
     inkscape:window-width="1920"
     inkscape:window-height="1017"
     id="namedview18"
     showgrid="true"
     inkscape:zoom="4.2349186"
     inkscape:cx="36.204625"
     inkscape:cy="120.81651"
     inkscape:window-x="-8"
     inkscape:window-y="-8"
     inkscape:window-maximized="1"
     inkscape:current-layer="svg16"
     inkscape:snap-global="true">
    <inkscape:grid
       type="xygrid"
       id="grid827"
       spacingx="4"
       spacingy="4" />
  </sodipodi:namedview>
  <defs
     id="defs4">
    <style
       id="style2">.a{fill:none;stroke:#b1b5bd;stroke-linecap:round;stroke-linejoin:round;isolation:isolate;opacity:0.63;}</style>
  </defs>
  <path
     inkscape:connector-curvature="0"
     d="m 156.45,93.092 c -18.93,0.44 -25.171,14.972 -25.287,24.76 l -0.104,8.815 10.281,-0.211 v -9.862 c 0,-6.928 8.038,-12.908 14.48,-12.8 7.528,0.124 14.243,5.506 14.058,13.43 -0.292,12.49 -11.277,14.203 -15.316,14.27 l -17.877,-0.323 -18.838,-0.31 c -5.911,0.03 -24.769,4.756 -25.39,24.76 -0.355,11.418 12.278,25.018 23.7,24.761 l 0.004,0.004 0.004,-0.004 h 0.002 c 18.93,-0.44 25.171,-14.974 25.287,-24.762 l 0.104,-8.812 -10.281,0.209 v 9.863 c 0,6.928 -8.038,12.906 -14.48,12.8 -7.528,-0.126 -14.243,-5.507 -14.058,-13.43 0.293,-12.49 11.277,-14.203 15.316,-14.269 l 18.555,0.475 18.16,0.158 c 5.911,0.052 24.769,-4.758 25.39,-24.762 0.356,-11.422 -12.285,-25.025 -23.71,-24.76 z"
     style="fill:#ffffff"
     id="path820" />
</svg>
