<?xml version="1.0" encoding="UTF-8" standalone="no"?>
<svg
   xmlns:dc="http://purl.org/dc/elements/1.1/"
   xmlns:cc="http://creativecommons.org/ns#"
   xmlns:rdf="http://www.w3.org/1999/02/22-rdf-syntax-ns#"
   xmlns:svg="http://www.w3.org/2000/svg"
   xmlns="http://www.w3.org/2000/svg"
   xmlns:sodipodi="http://sodipodi.sourceforge.net/DTD/sodipodi-0.dtd"
   xmlns:inkscape="http://www.inkscape.org/namespaces/inkscape"
   viewBox="0 0 272 272"
   version="1.1"
   id="svg16"
   sodipodi:docname="icedrive_fg.svg"
   inkscape:version="0.92.4 (5da689c313, 2019-01-14)"
   width="272"
   height="272">
  <metadata
     id="metadata20">
    <rdf:RDF>
      <cc:Work
         rdf:about="">
        <dc:format>image/svg+xml</dc:format>
        <dc:type
           rdf:resource="http://purl.org/dc/dcmitype/StillImage" />
        <dc:title></dc:title>
      </cc:Work>
    </rdf:RDF>
  </metadata>
  <sodipodi:namedview
     pagecolor="#ffffff"
     bordercolor="#666666"
     borderopacity="1"
     objecttolerance="10"
     gridtolerance="10"
     guidetolerance="10"
     inkscape:pageopacity="0"
     inkscape:pageshadow="2"
     inkscape:window-width="1920"
     inkscape:window-height="1017"
     id="namedview18"
     showgrid="true"
     inkscape:zoom="2.9945397"
     inkscape:cx="65.615728"
     inkscape:cy="68.251813"
     inkscape:window-x="-8"
     inkscape:window-y="-8"
     inkscape:window-maximized="1"
     inkscape:current-layer="svg16"
     inkscape:snap-global="true">
    <inkscape:grid
       type="xygrid"
       id="grid827"
       spacingx="4"
       spacingy="4" />
  </sodipodi:namedview>
  <defs
     id="defs4">
    <style
       id="style2">.a{fill:none;stroke:#b1b5bd;stroke-linecap:round;stroke-linejoin:round;isolation:isolate;opacity:0.63;}</style>
  </defs>
  <path
     style="fill:#9abeff"
     d="M 120 156 L 88 192 L 88.992188 193.58594 L 84 192 L 148 288 L 252 288 L 166.89648 218.34766 C 158.05848 213.10766 148 203.698 148 188 C 148 168 172 160 172 160 L 120 156 z "
     id="path824" />
  <path
     style="fill:#ffffff"
     d="M 123.99805,92 C 68.535598,92.001052 50.70919,136.35139 48.324219,143.07031 0,236 8,280 8,280 l 8,8 h 132 l -44.60742,-70.33984 c -1.778,-4.16 -3.394533,-10.88216 -3.394533,-21.66016 0,-32 32.000003,-36 68.000003,-36 h 12 c 12,0 24,-9.586 24,-20 0,-8 -28,-20 -28,-20 0,0 -5.466,-14 -8,-16 C 156.06455,94.582401 139.20149,92.00022 124,92 Z"
     id="path826"
     inkscape:connector-curvature="0"
     sodipodi:nodetypes="ccccccsssscccc" />
  <path
     inkscape:connector-curvature="0"
     d="m 97.906,95.738 c -12.101,3.72 -21.499,9.821 -28.715,16.453 A 18,14.878 0 0 0 86,121.756 18,14.878 0 0 0 104,106.876 18,14.878 0 0 0 97.906,95.737 Z"
     style="fill:#9abeff;paint-order:normal"
     id="path828" />
  <circle
     cx="94"
     cy="106"
     r="14"
     style="fill:#ffffff;paint-order:normal"
     id="circle830" />
  <path
     inkscape:connector-curvature="0"
     d="m 142.37,120 c -2.374,0 -2.374,-6.665 5.626,-6.665 4.216,0 6.22,1.826 10.219,3.852 1.682,0.852 -0.334,2.813 -2.22,2.813 z"
     style="fill:#728dbe"
     id="path832" />
</svg>
