<?xml version="1.0" encoding="UTF-8" standalone="no"?>
<svg
   xmlns:dc="http://purl.org/dc/elements/1.1/"
   xmlns:cc="http://creativecommons.org/ns#"
   xmlns:rdf="http://www.w3.org/1999/02/22-rdf-syntax-ns#"
   xmlns:svg="http://www.w3.org/2000/svg"
   xmlns="http://www.w3.org/2000/svg"
   xmlns:sodipodi="http://sodipodi.sourceforge.net/DTD/sodipodi-0.dtd"
   xmlns:inkscape="http://www.inkscape.org/namespaces/inkscape"
   viewBox="0 0 272 272"
   version="1.1"
   id="svg16"
   sodipodi:docname="jelly_defense_fg.svg"
   inkscape:version="0.92.4 (5da689c313, 2019-01-14)"
   width="272"
   height="272">
  <metadata
     id="metadata20">
    <rdf:RDF>
      <cc:Work
         rdf:about="">
        <dc:format>image/svg+xml</dc:format>
        <dc:type
           rdf:resource="http://purl.org/dc/dcmitype/StillImage" />
        <dc:title></dc:title>
      </cc:Work>
    </rdf:RDF>
  </metadata>
  <sodipodi:namedview
     pagecolor="#ffffff"
     bordercolor="#666666"
     borderopacity="1"
     objecttolerance="10"
     gridtolerance="10"
     guidetolerance="10"
     inkscape:pageopacity="0"
     inkscape:pageshadow="2"
     inkscape:window-width="1920"
     inkscape:window-height="1017"
     id="namedview18"
     showgrid="true"
     inkscape:zoom="2.9945397"
     inkscape:cx="36.204625"
     inkscape:cy="101.92595"
     inkscape:window-x="-8"
     inkscape:window-y="-8"
     inkscape:window-maximized="1"
     inkscape:current-layer="svg16"
     inkscape:snap-global="false">
    <inkscape:grid
       type="xygrid"
       id="grid827"
       spacingx="4"
       spacingy="4" />
  </sodipodi:namedview>
  <defs
     id="defs4">
    <style
       id="style2">.a{fill:none;stroke:#b1b5bd;stroke-linecap:round;stroke-linejoin:round;isolation:isolate;opacity:0.63;}</style>
    <style
       id="style2-9">.a{fill:none;stroke:#b1b5bd;stroke-linecap:round;stroke-linejoin:round;isolation:isolate;opacity:.63}</style>
  </defs>
  <rect
     id="rect831"
     width="46.585999"
     height="46.585999"
     x="121.69759"
     y="106.07171"
     ry="23.292999"
     style="opacity:1;vector-effect:none;fill:#ffffff;fill-opacity:1;fill-rule:evenodd;stroke:none;stroke-width:3.41865182;stroke-linecap:round;stroke-linejoin:round;stroke-miterlimit:4;stroke-dasharray:none;paint-order:stroke fill markers" />
  <path
     inkscape:connector-curvature="0"
     id="path833"
     d="m 81.214588,144.51071 c 4.88,-6.998 10.955,-7.898 24.452002,-0.507 13.823,7.57 29.261,15.729 44.978,14.57 18.8,-1.385 30.581,-33.508 40.164,-20.398 7.704,10.54 -18.93,33.523 -39.15,37.503 -18.03,3.548 -50.602,-3.178 -64.996002,-16.09 -3.78,-3.39 -8.352,-10.914 -5.448,-15.078 z"
     style="fill:#56595b;stroke-width:0.44048011" />
  <rect
     id="rect835"
     width="11.403"
     height="11.403"
     x="134.93459"
     y="127.27971"
     ry="5.7010002"
     style="opacity:1;vector-effect:none;fill:#56595b;fill-opacity:1;fill-rule:evenodd;stroke-width:0.44048011;paint-order:stroke fill markers" />
  <path
     inkscape:connector-curvature="0"
     id="rect837"
     d="m 96.941588,140.01571 a 9.693,9.693 0 0 0 -0.143,1.644 c 0,5.3 4.266002,9.566 9.566002,9.566 a 9.525,9.525 0 0 0 7.027,-3.08 c -2.623,-1.36 -5.201,-2.76 -7.724,-4.142 -3.33,-1.823 -6.207002,-3.14 -8.726002,-3.987 z m 78.510002,1.654 c -3.389,3.356 -7.097,7.398 -11.21,10.698 a 7.763,7.763 0 0 0 5.028,1.835 7.775,7.775 0 0 0 7.792,-7.791 7.76,7.76 0 0 0 -1.61,-4.742 z m -55.841,9.555 a 9.545,9.545 0 0 0 9.496,10.707 9.54,9.54 0 0 0 8.082,-4.437 c -5.985,-1.31 -11.87,-3.594 -17.578,-6.27 z m 41.63,3.358 c -3.27,2.17 -6.789,3.711 -10.595,3.992 -2.724,0.2 -5.438,0.116 -8.138,-0.191 a 9.543,9.543 0 0 0 9.278,7.222 c 5.3,0 9.565,-4.266 9.565,-9.566 0,-0.495 -0.038,-0.982 -0.11,-1.457 z"
     style="opacity:1;vector-effect:none;fill:#ffffff;fill-opacity:1;fill-rule:evenodd;stroke-width:0.40310609;paint-order:stroke fill markers" />
  <rect
     id="rect866"
     width="8.4890003"
     height="8.4890003"
     x="132.78058"
     y="124.23871"
     ry="4.244"
     style="opacity:1;vector-effect:none;fill:#ffffff;fill-opacity:1;fill-rule:evenodd;stroke-width:0.44048011;paint-order:stroke fill markers" />
</svg>
