<?xml version="1.0" encoding="UTF-8" standalone="no"?>
<svg
   xmlns:dc="http://purl.org/dc/elements/1.1/"
   xmlns:cc="http://creativecommons.org/ns#"
   xmlns:rdf="http://www.w3.org/1999/02/22-rdf-syntax-ns#"
   xmlns:svg="http://www.w3.org/2000/svg"
   xmlns="http://www.w3.org/2000/svg"
   xmlns:sodipodi="http://sodipodi.sourceforge.net/DTD/sodipodi-0.dtd"
   xmlns:inkscape="http://www.inkscape.org/namespaces/inkscape"
   viewBox="0 0 272 272"
   version="1.1"
   id="svg16"
   sodipodi:docname="kanade_fg.svg"
   inkscape:version="0.92.4 (5da689c313, 2019-01-14)"
   width="272"
   height="272">
  <metadata
     id="metadata20">
    <rdf:RDF>
      <cc:Work
         rdf:about="">
        <dc:format>image/svg+xml</dc:format>
        <dc:type
           rdf:resource="http://purl.org/dc/dcmitype/StillImage" />
        <dc:title></dc:title>
      </cc:Work>
    </rdf:RDF>
  </metadata>
  <sodipodi:namedview
     pagecolor="#ffffff"
     bordercolor="#666666"
     borderopacity="1"
     objecttolerance="10"
     gridtolerance="10"
     guidetolerance="10"
     inkscape:pageopacity="0"
     inkscape:pageshadow="2"
     inkscape:window-width="1920"
     inkscape:window-height="1017"
     id="namedview18"
     showgrid="true"
     inkscape:zoom="2.1174593"
     inkscape:cx="59.840745"
     inkscape:cy="124.57134"
     inkscape:window-x="-8"
     inkscape:window-y="-8"
     inkscape:window-maximized="1"
     inkscape:current-layer="svg16"
     inkscape:snap-global="true">
    <inkscape:grid
       type="xygrid"
       id="grid827"
       spacingx="4"
       spacingy="4" />
  </sodipodi:namedview>
  <defs
     id="defs4">
    <style
       id="style2">.a{fill:none;stroke:#b1b5bd;stroke-linecap:round;stroke-linejoin:round;isolation:isolate;opacity:0.63;}</style>
  </defs>
  <path
     style="fill:#98dc9a"
     inkscape:connector-curvature="0"
     d="m 118.362,96 h -10.135 v 24.613 h 5.234 v -9.69 h 5.012 v -4.788 h -5.013 v -5.012 h 4.9 z m -10.135,24.613 h -5.29 v 15.146 h 64.26 l 0.056,-15.146 h -5.123 v 9.69 l -53.903,0.11 z M 152,96 h 10.135 v 24.613 h -5.234 v -9.69 h -5.012 v -4.788 h 5.012 v -5.012 h -4.9 z"
     id="path824" />
  <path
     style="fill:#98dc9a"
     inkscape:connector-curvature="0"
     d="m 118.362,101.123 v 5.012 h 4.815 v -5.012 z m 4.815,0 0.03,-5.123 h 24.167 v 5.123 z m 23.893,0 v 5.012 h 4.815 v -5.012 z"
     id="path826" />
  <path
     style="fill:#ffffff"
     inkscape:connector-curvature="0"
     d="m 142.53,115.601 v 5.847 h 5.617 v -5.847 z m -19.741,0 v 5.847 h 5.617 v -5.847 z m 9.94,24.892 v 14.868 h -4.845 v 4.845 h 4.845 v 5.29 h 5.346 v -4.9 h 4.844 v -5.458 h -4.399 v -14.645 z m -4.845,14.87 h -4.789 v -5.234 h 4.789 z m 19.826,0 h -4.789 v -5.234 h 4.789 z"
     id="path828" />
  <rect
     style="fill:#98dc9a"
     width="5.29"
     height="20.603001"
     x="103.16"
     y="150.123"
     ry="0"
     id="rect830" />
  <rect
     style="fill:#98dc9a"
     width="5.29"
     height="20.603001"
     x="162.34999"
     y="150.123"
     ry="0"
     id="rect832" />
  <path
     style="fill:#98dc9a"
     inkscape:connector-curvature="0"
     d="m 108.45,170.733 h 53.903 v 5.457 H 108.45 Z"
     id="path834" />
</svg>
