<?xml version="1.0" encoding="UTF-8" standalone="no"?>
<svg
   xmlns:dc="http://purl.org/dc/elements/1.1/"
   xmlns:cc="http://creativecommons.org/ns#"
   xmlns:rdf="http://www.w3.org/1999/02/22-rdf-syntax-ns#"
   xmlns:svg="http://www.w3.org/2000/svg"
   xmlns="http://www.w3.org/2000/svg"
   xmlns:sodipodi="http://sodipodi.sourceforge.net/DTD/sodipodi-0.dtd"
   xmlns:inkscape="http://www.inkscape.org/namespaces/inkscape"
   viewBox="0 0 272 272"
   version="1.1"
   id="svg16"
   sodipodi:docname="king_of_theives_fg.svg"
   inkscape:version="0.92.4 (5da689c313, 2019-01-14)"
   width="272"
   height="272">
  <metadata
     id="metadata20">
    <rdf:RDF>
      <cc:Work
         rdf:about="">
        <dc:format>image/svg+xml</dc:format>
        <dc:type
           rdf:resource="http://purl.org/dc/dcmitype/StillImage" />
        <dc:title></dc:title>
      </cc:Work>
    </rdf:RDF>
  </metadata>
  <sodipodi:namedview
     pagecolor="#ffffff"
     bordercolor="#666666"
     borderopacity="1"
     objecttolerance="10"
     gridtolerance="10"
     guidetolerance="10"
     inkscape:pageopacity="0"
     inkscape:pageshadow="2"
     inkscape:window-width="1920"
     inkscape:window-height="1017"
     id="namedview18"
     showgrid="true"
     inkscape:zoom="1.7948776"
     inkscape:cx="36.580106"
     inkscape:cy="112.42446"
     inkscape:window-x="-8"
     inkscape:window-y="-8"
     inkscape:window-maximized="1"
     inkscape:current-layer="svg16"
     inkscape:snap-global="true"
     showguides="false">
    <inkscape:grid
       type="xygrid"
       id="grid827"
       spacingx="4"
       spacingy="4" />
  </sodipodi:namedview>
  <defs
     id="defs4">
    <style
       id="style2">.a{fill:none;stroke:#b1b5bd;stroke-linecap:round;stroke-linejoin:round;isolation:isolate;opacity:0.63;}</style>
  </defs>
  <ellipse
     cx="128"
     cy="142"
     rx="4"
     ry="6"
     style="fill:#56595b;paint-order:stroke fill markers"
     id="ellipse854" />
  <ellipse
     cx="144"
     cy="142"
     rx="4"
     ry="6"
     style="fill:#56595b;paint-order:stroke fill markers"
     id="ellipse856" />
  <path
     inkscape:connector-curvature="0"
     d="m 113.294,73.23 a 5.667,5.667 0 0 0 -5.667,5.667 5.667,5.667 0 0 0 3.168,5.08 l 2.538,15.221 c 0.046,0.279 0.134,0.549 0.26,0.802 0,0 0.542,0.94 1.366,1.7 0.823,0.76 2.07,1.635 3.914,2.454 3.686,1.639 9.736,3.079 19.924,3.079 10.188,0 16.238,-1.44 19.924,-3.079 1.843,-0.819 3.09,-1.694 3.914,-2.454 0.824,-0.76 1.365,-1.7 1.365,-1.7 0.126,-0.253 0.213,-0.523 0.26,-0.802 l 2.536,-15.218 a 5.667,5.667 0 0 0 3.17,-5.083 5.667,5.667 0 0 0 -5.668,-5.667 5.667,5.667 0 0 0 -5.667,5.667 5.667,5.667 0 0 0 2.174,4.455 25.368,25.368 0 0 1 -1.167,2.778 c -0.624,1.248 -1.396,2.432 -2.125,3.16 -0.728,0.73 -1.243,0.942 -1.715,0.942 -0.472,0 -0.987,-0.213 -1.716,-0.941 -0.729,-0.729 -1.501,-1.913 -2.125,-3.16 -0.49,-0.979 -0.86,-1.929 -1.165,-2.775 a 5.667,5.667 0 0 0 2.172,-4.459 5.667,5.667 0 0 0 -5.667,-5.667 5.667,5.667 0 0 0 -5.667,5.667 5.667,5.667 0 0 0 2.173,4.455 25.368,25.368 0 0 1 -1.166,2.778 c -0.624,1.248 -1.397,2.432 -2.125,3.16 -0.728,0.728 -1.244,0.942 -1.716,0.942 -0.472,0 -0.987,-0.213 -1.716,-0.941 -1.539,-1.783 -2.533,-3.749 -3.304,-5.924 a 5.667,5.667 0 0 0 2.186,-4.47 5.667,5.667 0 0 0 -5.667,-5.667 5.667,5.667 0 0 0 -5.667,5.667 5.667,5.667 0 0 0 2.173,4.455 25.368,25.368 0 0 1 -1.166,2.779 c -0.624,1.247 -1.397,2.431 -2.125,3.16 -0.729,0.728 -1.244,0.94 -1.716,0.94 -0.472,0 -0.987,-0.212 -1.716,-0.94 -0.729,-0.728 -1.5,-1.912 -2.125,-3.16 -0.489,-0.979 -0.86,-1.929 -1.165,-2.775 a 5.667,5.667 0 0 0 2.173,-4.459 5.667,5.667 0 0 0 -5.668,-5.667 z"
     style="color:#000000;font-variant-ligatures:normal;font-variant-position:normal;font-variant-caps:normal;font-variant-numeric:normal;font-variant-alternates:normal;font-feature-settings:normal;text-indent:0;text-decoration:none;text-decoration-line:none;text-decoration-style:solid;text-decoration-color:#000000;text-transform:none;text-orientation:mixed;dominant-baseline:auto;white-space:normal;shape-padding:0;isolation:auto;mix-blend-mode:normal;solid-color:#000000;fill:#f9de81;color-rendering:auto;image-rendering:auto;shape-rendering:auto"
     id="path860" />
</svg>
