<?xml version="1.0" encoding="UTF-8" standalone="no"?>
<svg
   xmlns:dc="http://purl.org/dc/elements/1.1/"
   xmlns:cc="http://creativecommons.org/ns#"
   xmlns:rdf="http://www.w3.org/1999/02/22-rdf-syntax-ns#"
   xmlns:svg="http://www.w3.org/2000/svg"
   xmlns="http://www.w3.org/2000/svg"
   xmlns:sodipodi="http://sodipodi.sourceforge.net/DTD/sodipodi-0.dtd"
   xmlns:inkscape="http://www.inkscape.org/namespaces/inkscape"
   viewBox="0 0 272 272"
   version="1.1"
   id="svg16"
   sodipodi:docname="kleptocats_fg.svg"
   inkscape:version="0.92.4 (5da689c313, 2019-01-14)"
   width="272"
   height="272">
  <metadata
     id="metadata20">
    <rdf:RDF>
      <cc:Work
         rdf:about="">
        <dc:format>image/svg+xml</dc:format>
        <dc:type
           rdf:resource="http://purl.org/dc/dcmitype/StillImage" />
        <dc:title></dc:title>
      </cc:Work>
    </rdf:RDF>
  </metadata>
  <sodipodi:namedview
     pagecolor="#ffffff"
     bordercolor="#666666"
     borderopacity="1"
     objecttolerance="10"
     gridtolerance="10"
     guidetolerance="10"
     inkscape:pageopacity="0"
     inkscape:pageshadow="2"
     inkscape:window-width="1920"
     inkscape:window-height="1017"
     id="namedview18"
     showgrid="true"
     inkscape:zoom="2.5383403"
     inkscape:cx="83.070111"
     inkscape:cy="127.45732"
     inkscape:window-x="-8"
     inkscape:window-y="-8"
     inkscape:window-maximized="1"
     inkscape:current-layer="svg16"
     inkscape:snap-global="true">
    <inkscape:grid
       type="xygrid"
       id="grid827"
       spacingx="4"
       spacingy="4" />
  </sodipodi:namedview>
  <defs
     id="defs4">
    <style
       id="style2">.a{fill:none;stroke:#b1b5bd;stroke-linecap:round;stroke-linejoin:round;isolation:isolate;opacity:0.63;}</style>
    <clipPath
       id="b">
      <path
         id="path818"
         d="m129.82 60.976 1.147.316.968-.69 20.632-14.69c5.144-3.664 9.423-4.039 12.305-2.696 2.881 1.343 5.346 4.86 5.847 11.16l.78 9.81v99.875c0 4.134-3.355 7.491-7.503 7.491H32.006c-4.144 0-7.503-3.368-7.503-7.49V55.421l.084-1.048c.5-6.3 2.965-9.817 5.847-11.16 2.882-1.343 7.16-.968 12.305 2.695l20.253 14.422.958.682 1.136-.303c9.973-2.658 20.702-4.106 31.883-4.106 11.545 0 22.609 1.544 32.855 4.37z"
         stroke-width="5"
         stroke="#56595b" />
    </clipPath>
    <clipPath
       id="a">
      <path
         id="path821"
         d="m129.82 60.976 1.147.316.968-.69 20.632-14.69c5.144-3.664 9.423-4.039 12.305-2.696 2.881 1.343 5.346 4.86 5.847 11.16l.78 9.81v99.875c0 4.134-3.355 7.491-7.503 7.491H32.006c-4.144 0-7.503-3.368-7.503-7.49V55.421l.084-1.048c.5-6.3 2.965-9.817 5.847-11.16 2.882-1.343 7.16-.968 12.305 2.695l20.253 14.422.958.682 1.136-.303c9.973-2.658 20.702-4.106 31.883-4.106 11.545 0 22.609 1.544 32.855 4.37z"
         stroke-width="5"
         stroke="#56595b" />
    </clipPath>
  </defs>
  <path
     id="path836"
     d="m 175.55918,145.704 c 6.627,0 12,-5.373 12,-12 0,-6.627 -5.373,-12 -12,-12 -6.627,0 -12,5.373 -12,12 0,6.627 5.373,12 12,12 z m -81.000003,0 c 6.627003,0 12.000003,-5.373 12.000003,-12 0,-6.627 -5.373,-12 -12.000003,-12 -6.627,0 -12,5.373 -12,12 0,6.627 5.373,12 12,12 z"
     inkscape:connector-curvature="0"
     style="clip-rule:evenodd;fill:#56595b;fill-rule:evenodd" />
  <path
     id="path838"
     d="m 191.82918,147.974 5.917,0.8 m -5.937,2.97 6.312,1.598 m -117.834003,-5.368 -5.917,0.8 m 5.938,2.97 -6.312,1.598"
     inkscape:connector-curvature="0"
     style="fill:none;stroke:#56595b;stroke-width:3;stroke-linecap:round" />
  <path
     style="fill:none;stroke:#56595b;stroke-width:5;stroke-linecap:round"
     inkscape:connector-curvature="0"
     d="m 118.30418,142.704 c 0,3.574 3.759,6.471 8.395,6.471 4.636,0 8.395,-2.897 8.395,-6.471 m 17.225,0 c 0,3.574 -3.758,6.471 -8.395,6.471 -4.636,0 -8.395,-2.897 -8.395,-6.471"
     id="path854" />
</svg>
