<?xml version="1.0" encoding="UTF-8" standalone="no"?>
<svg
   xmlns:dc="http://purl.org/dc/elements/1.1/"
   xmlns:cc="http://creativecommons.org/ns#"
   xmlns:rdf="http://www.w3.org/1999/02/22-rdf-syntax-ns#"
   xmlns:svg="http://www.w3.org/2000/svg"
   xmlns="http://www.w3.org/2000/svg"
   xmlns:sodipodi="http://sodipodi.sourceforge.net/DTD/sodipodi-0.dtd"
   xmlns:inkscape="http://www.inkscape.org/namespaces/inkscape"
   viewBox="0 0 272 272"
   version="1.1"
   id="svg16"
   sodipodi:docname="larnu_fg.svg"
   inkscape:version="0.92.4 (5da689c313, 2019-01-14)"
   width="272"
   height="272">
  <metadata
     id="metadata20">
    <rdf:RDF>
      <cc:Work
         rdf:about="">
        <dc:format>image/svg+xml</dc:format>
        <dc:type
           rdf:resource="http://purl.org/dc/dcmitype/StillImage" />
        <dc:title />
      </cc:Work>
    </rdf:RDF>
  </metadata>
  <sodipodi:namedview
     pagecolor="#ffffff"
     bordercolor="#666666"
     borderopacity="1"
     objecttolerance="10"
     gridtolerance="10"
     guidetolerance="10"
     inkscape:pageopacity="0"
     inkscape:pageshadow="2"
     inkscape:window-width="1920"
     inkscape:window-height="1017"
     id="namedview18"
     showgrid="true"
     inkscape:zoom="2.5383403"
     inkscape:cx="91.560411"
     inkscape:cy="91.989918"
     inkscape:window-x="-8"
     inkscape:window-y="-8"
     inkscape:window-maximized="1"
     inkscape:current-layer="svg16"
     inkscape:snap-global="false">
    <inkscape:grid
       type="xygrid"
       id="grid827"
       spacingx="4"
       spacingy="4" />
  </sodipodi:namedview>
  <defs
     id="defs4">
    <style
       id="style2">.a{fill:none;stroke:#b1b5bd;stroke-linecap:round;stroke-linejoin:round;isolation:isolate;opacity:0.63;}</style>
    <clipPath
       id="clipPath685">
      <circle
         id="circle850"
         fill="#fff"
         r="88"
         cy="96"
         cx="96"
         class="a" />
    </clipPath>
  </defs>
  <rect
     style="opacity:1;vector-effect:none;fill:#f9de81;fill-opacity:1;fill-rule:evenodd;stroke:none;stroke-width:16;stroke-linecap:round;stroke-linejoin:round;stroke-miterlimit:4;stroke-dasharray:none;paint-order:stroke fill markers"
     id="rect905"
     width="39.931686"
     height="71.556763"
     x="115.99203"
     y="213.45355"
     ry="5.2541752" />
  <path
     style="fill:#bd9aff;stroke-width:0.38758001"
     inkscape:connector-curvature="0"
     d="m 121.83137,204.96259 -4.8568,-4.1461 c -9.55781,-8.1593 -13.251,-14.113 -16.561,-23.78 -1.940905,-5.668 -2.237505,-7.7704 -2.451805,-17.381 -0.16316,-7.317 -0.07815,-9.8935 0.43232,-13.102 2.345805,-14.746 12.866005,-26.542 27.548995,-30.89 4.25311,-1.2594 10.756,-1.6717 15.792,-1.0015 14.044,1.8688 26.621,12.416 31.02701,26.018 1.64109,5.0666 1.93109,8.2371 1.7358,18.975 -0.16466,9.0533 -0.2632,10.196 -1.1735,13.608 -1.9256,7.2166 -5.326,13.615 -10.186,19.166 -1.1311,1.292 -4.7682,4.693 -8.0824,7.5577 -4.7536,4.109 -5.98761,5.3723 -5.84481,5.9838 0.0995,0.42633 -0.13681,-1.8447 0,0 z m -12.397,-36.534 c 0.73515,-0.59367 1.5872,-2.7059 1.5872,-3.9347 0,-1.6282 -1.1037,-3.3025 -2.58511,-3.9215 -1.78499,-0.74583 -3.2767,-0.39429 -4.7586,1.1214 -2.17159,2.2212 -1.32439,5.7807 1.69101,7.1053 1.2544,0.55102 3.13679,0.37946 4.0656,-0.37054 z m 57.74899,0 c 0.73516,-0.59367 1.5872,-2.7059 1.5872,-3.9347 0,-1.6282 -1.1037,-3.3025 -2.5851,-3.9215 -1.785,-0.74583 -3.27679,-0.39429 -4.7586,1.1214 -2.1716,2.2212 -1.3244,5.7807 1.691,7.1053 1.2544,0.55102 3.1368,0.37946 4.0656,-0.37054 z"
     id="path857" />
  <path
     style="fill:#8c72bd;stroke-width:0.38758001"
     inkscape:connector-curvature="0"
     d="m 133.89736,192.07259 c -0.85253,-0.74853 -1.37,-1.5537 -1.37,-2.1317 0,-1.2288 0.2047,-1.1779 1.719,0.42773 2.1756,2.3068 4.6026,1.7168 5.9468,-1.4458 0.31565,-0.74267 0.63774,-0.98607 1.0802,-0.81628 1.0023,0.38465 0.3756,2.4584 -1.1815,3.9092 -1.8894,1.7605 -4.2296,1.782 -6.1945,0.0568 z m -25.206,-4.2364 c -4.00829,-0.81664 -4.88369,-1.7818 -7.36939,-8.1259 -2.338505,-5.9684 -3.037505,-9.5011 -3.067205,-15.503 l -0.02793,-5.6199 1.937905,-0.96894 c 1.61519,-0.80758 2.4865,-0.96804 5.23229,-0.9635 2.84981,0.005 3.5736,0.15175 5.3631,1.0895 4.39511,2.3033 7.30781,6.6385 9.02201,13.428 1.0487,4.1538 0.88144,8.5672 -0.43044,11.356 -1.2047,2.5606 -3.81461,4.7728 -6.24611,5.2943 -2.1463,0.4603 -2.22139,0.46053 -4.41409,0.0138 z m 0.25222,-18.622 c 0.83358,-0.44612 2.2443,-3.1741 2.2585,-4.3673 0.0148,-1.2463 -1.1255,-3.1689 -2.2861,-3.8545 -0.61565,-0.36367 -1.767,-0.66123 -2.5586,-0.66123 -1.93899,0 -4.4486,2.3902 -4.4486,4.237 0,3.5271 4.0847,6.2248 7.0348,4.646 z m 50.326,18.668 c -5.5365,-1.1506 -8.4568,-6.6716 -7.3896,-13.97 1.2183,-8.3318 5.0116,-14.274 10.412,-16.31 3.0526,-1.1509 8.02931,-0.96215 10.446,0.39624 l 1.64681,0.92556 -0.003,2.351 c -0.01,7.0558 -1.7782,14.794 -4.8014,21.009 -2.0957,4.3076 -2.1046,4.3186 -3.9771,4.9149 -2.48851,0.7925 -4.6753,1.0287 -6.3339,0.68396 z m 7.3854,-18.648 c 1.74341,-0.93302 2.60561,-4.7591 1.5268,-6.7748 -1.2708,-2.3746 -4.5922,-2.8346 -6.7551,-0.93559 -1.6943,1.4876 -2.1405,3.3694 -1.2444,5.2484 1.1085,2.3245 4.3943,3.5743 6.4727,2.462 z m -32.965,7.2134 c 0,-0.96072 0.45326,-1.7758 0.98753,-1.7758 0.78706,0 1.0336,0.67054 0.56706,1.5423 -0.47924,0.89544 -1.5546,1.057 -1.5546,0.23349 z m 3.3359,-0.0634 c -0.39594,-1.0318 -0.26379,-1.7124 0.33247,-1.7124 0.66853,0 1.5101,1.3979 1.1714,1.9459 -0.36206,0.58582 -1.2419,0.44922 -1.5039,-0.2335 z m 36.843,-24.45 c -0.14211,-0.14211 -0.23626,-1.3194 -0.20924,-2.6161 l 0.0492,-2.3578 0.32363,2.5017 c 0.32802,2.5356 0.30146,2.9372 -0.16355,2.4722 z m -75.835995,-2.4229 c 0,-2.2262 0.30374,-2.8169 1.2015,-2.3364 0.892475,0.47763 0.952315,1.824 0.13307,2.9936 -0.89058,1.2715 -1.3345,1.0528 -1.3345,-0.65721 z m 70.405005,0.42225 c -1.29831,-1.4346 -0.56192,-3.167 1.3463,-3.167 1.3049,0 2.2756,0.91531 2.2756,2.1457 0,1.6351 -2.443,2.324 -3.6219,1.0213 z m -65.991,-0.47203 c -1.2795,-0.47657 -1.4238,-1.8445 -0.31182,-2.9565 1.8063,-1.8063 4.2519,-0.39112 3.1318,1.8123 -0.54902,1.08 -1.7185,1.5545 -2.8199,1.1442 z m 4.7211,-1.3669 c -0.72699,-0.72699 -0.72107,-0.65645 -0.15849,-1.8912 0.46509,-1.0208 1.9781,-1.3745 2.4706,-0.57757 0.41077,0.66464 -0.15719,2.2493 -0.96022,2.679 -0.55929,0.29932 -0.89447,0.24719 -1.3519,-0.21028 z m 56.83099,-2.5683 c -1.2618,-1.2618 0.13529,-5.3486 1.82841,-5.3486 0.92173,0 1.9093,1.1506 2.1893,2.5508 0.44899,2.245 -2.51001,4.3055 -4.01771,2.7978 z m -65.189995,-0.58583 c 0,-0.96166 1.1383,-4.8569 1.543905,-5.2831 0.65003,-0.6831 1.9443,0.51181 1.9429,1.7936 -0.002,1.2806 -1.2546,3.7652 -1.899,3.7652 -0.19886,0 -0.637455,0.10586 -0.974645,0.23525 -0.42822,0.16433 -0.61306,0.0102 -0.61306,-0.51102 z m 72.166995,-0.18932 c -0.9129,-0.9129 -0.37572,-5.3486 0.64772,-5.3486 0.31998,0 1.6002,4.1814 1.6002,5.2264 0,0.70879 -1.5757,0.79439 -2.24789,0.12212 z m -66.48199,-0.56845 c -0.98516,-0.98515 0.61865,-4.3925 2.0675,-4.3925 0.94189,0 1.9374,1.019 1.9374,1.9832 0,1.6067 -3.0018,3.4126 -4.005,2.4094 z m -2.3255,-5.8136 c -1.0496,-1.0496 1.33189,-6.718 2.82239,-6.718 1.74601,0 2.42261,2.0389 1.5281,4.6049 -0.58363,1.6742 -3.4144,3.0492 -4.35049,2.1131 z m 64.49499,-0.76282 c -1.2805,-1.6279 -0.87634,-5.7444 0.61214,-6.2349 0.24556,-0.0809 1.189,1.198 2.0965,2.842 l 1.65011,2.9892 -0.87985,0.71245 c -1.24181,1.0055 -2.53541,0.89072 -3.47891,-0.30875 z m -33.054,-2.2202 c -0.63142,-0.47973 -1.4686,-2.1914 -1.4686,-3.0027 0,-0.85664 1.937,-2.2826 3.1006,-2.2826 1.4579,0 3.1006,1.503 3.1006,2.8369 0,1.5072 -1.40869,2.9787 -2.8381,2.9644 -0.67731,-0.007 -1.5299,-0.239 -1.8945,-0.51605 z m -4.5395,-7.839 c -2.9544,-2.486 -0.0781,-5.6701 3.4662,-3.8373 2.9632,1.5323 2.3614,4.8407 -0.88059,4.8407 -0.93333,0 -1.7867,-0.33118 -2.5856,-1.0034 z m 7.7984,0.32514 c -1.4029,-1.213 -1.4283,-2.293 -0.0856,-3.6357 1.0368,-1.0368 1.4039,-1.1759 2.5943,-0.9827 2.5962,0.42131 3.6231,2.4569 2.2374,4.4352 -0.77049,1.1 -3.5612,1.2077 -4.7461,0.18313 z m -14.42999,-0.41715 -0.87414,-0.70784 0.90428,-0.84247 c 1.58889,-1.4803 3.8587,-0.92869 3.8587,0.93767 0,1.4473 -2.3926,1.8242 -3.88891,0.61263 z m 22.71399,0.0988 c -1.3076,-1.3076 -0.41883,-4.4317 1.25961,-4.428 0.35781,8.1e-4 1.2174,0.34705 1.9102,0.76946 1.7218,1.0498 1.7776,2.8171 0.11614,3.6763 -1.4617,0.7559 -2.518,0.7502 -3.286,-0.0177 z m 5.9798,-4.0419 c -0.42634,-0.42633 -0.77516,-1.1204 -0.77516,-1.5425 0,-0.80004 1.1228,-3.8836 1.414,-3.8836 0.35713,0 3.1948,1.5563 3.378,1.8526 0.32791,0.53059 -1.1918,3.4862 -2.0205,3.9298 -1.0364,0.55469 -1.0959,0.54407 -1.9963,-0.3563 z m -29.398,-0.10681 c -1.59299,-0.5094 -2.1944,-1.646 -1.64099,-3.1015 0.487,-1.2809 2.5384,-2.6019 4.0437,-2.6039 1.6652,-0.002 3.7151,1.1186 3.9805,2.1764 0.78055,3.11 -2.3248,4.8268 -6.38331,3.529 z m 20.185,-2.2192 c -1.9247,-1.1735 -2.3619,-2.4602 -1.4282,-4.204 0.93686,-1.7497 1.7513,-1.899 5.3158,-0.97447 3.1543,0.81812 3.8268,1.6319 2.9994,3.6295 -0.93978,2.2688 -4.4218,3.052 -6.887,1.5489 z m -25.28099,-1.131 c 1.3856,-0.83425 2.577,-1.4591 2.6475,-1.3885 0.0706,0.0706 -0.0542,0.4693 -0.27728,0.88611 -0.48071,0.89821 -2.69411,2.0221 -3.97911,2.0204 -0.68231,-8.9e-4 -0.27925,-0.38116 1.60891,-1.518 z m 14.772,0.51826 c -0.43302,-0.5505 -0.89438,-1.3383 -1.0253,-1.7506 -0.13086,-0.41233 -0.92289,-1.0991 -1.7601,-1.5262 -0.83717,-0.42709 -1.5221,-0.93294 -1.5221,-1.1241 0,-0.39218 3.3644,-1.1914 4.9607,-1.1785 2.1617,0.0176 6.279,2.4902 6.279,3.7708 0,0.29899 -0.50981,1.0534 -1.1329,1.6765 -0.95032,0.95032 -1.4455,1.1329 -3.07251,1.1329 -1.62379,0 -2.0678,-0.16297 -2.7269,-1.0009 z"
     id="path859" />
  <circle
     style="fill:#ffffff;stroke-width:1.16270006;stroke-linecap:round;stroke-linejoin:round"
     cx="107.20137"
     cy="165.50259"
     r="5.6113"
     id="circle861" />
  <circle
     style="fill:#ffffff;stroke-width:1.16270006;stroke-linecap:round;stroke-linejoin:round"
     cx="164.00937"
     cy="165.50259"
     r="5.6113"
     id="circle863" />
  <path
     style="fill:#bd9aff;stroke-width:1.16270006;stroke-linecap:round;stroke-linejoin:round"
     inkscape:connector-curvature="0"
     d="m 121.83137,204.96259 0.20166,8.6808 h 27.28599 v -8.1566 z"
     id="path865" />
  <path
     style="fill:#8c72bd;stroke-width:1.16270006;stroke-linecap:round;stroke-linejoin:round"
     inkscape:connector-curvature="0"
     d="m 121.83137,204.96259 c 0,0 4.27259,4.0438 6.79429,5.5066 1.2649,0.73376 2.6494,1.335 4.0899,1.5871 2.5462,0.44566 5.2496,0.46299 7.7525,-0.18312 0.97816,-0.25253 1.8503,-0.83627 2.6859,-1.404 1.1337,-0.77019 2.0072,-1.8764 3.1132,-2.6859 0.92995,-0.68062 3.09432,-2.36274 3.09432,-2.36274 l -0.0421,8.22284 c 0,0 -0.92813,-0.6775 -1.465,-0.8546 -1.4191,-0.46809 -2.9636,-0.56023 -4.4561,-0.48835 -0.99651,0.048 -1.939,0.49561 -2.9301,0.61043 -1.5973,0.18508 -3.2144,0.1134 -4.8224,0.12209 -1.4041,0.008 -2.8081,-0.0359 -4.212,-0.061 -0.95641,-0.0171 -1.9166,0.028 -2.869,-0.061 -1.1091,-0.10368 -2.262,-0.13593 -3.2963,-0.54939 -0.70746,-0.2828 -1.4082,-0.69364 -1.8923,-1.2819 -0.56199,-0.68284 -0.80231,-1.5893 -1.0377,-2.4417 -0.32922,-1.1921 -0.50687,-3.6753 -0.50687,-3.6753 z"
     id="path867"
     sodipodi:nodetypes="ccccccccccccscccccc" />
</svg>
