<?xml version="1.0" encoding="UTF-8" standalone="no"?>
<svg
   xmlns:dc="http://purl.org/dc/elements/1.1/"
   xmlns:cc="http://creativecommons.org/ns#"
   xmlns:rdf="http://www.w3.org/1999/02/22-rdf-syntax-ns#"
   xmlns:svg="http://www.w3.org/2000/svg"
   xmlns="http://www.w3.org/2000/svg"
   xmlns:sodipodi="http://sodipodi.sourceforge.net/DTD/sodipodi-0.dtd"
   xmlns:inkscape="http://www.inkscape.org/namespaces/inkscape"
   viewBox="0 0 272 272"
   version="1.1"
   id="svg16"
   sodipodi:docname="last_fm_fg.svg"
   inkscape:version="0.92.4 (5da689c313, 2019-01-14)"
   width="272"
   height="272">
  <metadata
     id="metadata20">
    <rdf:RDF>
      <cc:Work
         rdf:about="">
        <dc:format>image/svg+xml</dc:format>
        <dc:type
           rdf:resource="http://purl.org/dc/dcmitype/StillImage" />
        <dc:title></dc:title>
      </cc:Work>
    </rdf:RDF>
  </metadata>
  <sodipodi:namedview
     pagecolor="#ffffff"
     bordercolor="#666666"
     borderopacity="1"
     objecttolerance="10"
     gridtolerance="10"
     guidetolerance="10"
     inkscape:pageopacity="0"
     inkscape:pageshadow="2"
     inkscape:window-width="1920"
     inkscape:window-height="1017"
     id="namedview18"
     showgrid="true"
     inkscape:zoom="8.4698372"
     inkscape:cx="59.840745"
     inkscape:cy="124.57134"
     inkscape:window-x="-8"
     inkscape:window-y="-8"
     inkscape:window-maximized="1"
     inkscape:current-layer="svg16"
     inkscape:snap-global="false">
    <inkscape:grid
       type="xygrid"
       id="grid827"
       spacingx="4"
       spacingy="4" />
  </sodipodi:namedview>
  <defs
     id="defs4">
    <style
       id="style2">.a{fill:none;stroke:#b1b5bd;stroke-linecap:round;stroke-linejoin:round;isolation:isolate;opacity:0.63;}</style>
  </defs>
  <path
     inkscape:connector-curvature="0"
     id="path963"
     d="m 130.86773,149.98147 -1.295,-3.52 c -0.381,-1.036 -1.306,-1.22 -2.168,-0.532 -1.8,1.436 -5.132,3.505 -9.393,3.505 -5.77,0 -9.867,-5.017 -9.867,-13.044 0,-10.286 5.184,-13.965 10.286,-13.965 7.358,0 9.699,4.766 11.706,10.871 l 2.676,8.362 c 2.675,8.11 7.693,14.633 22.159,14.633 10.37,0 17.393,-3.177 17.393,-11.54 0,-6.772 -3.847,-10.284 -11.039,-11.957 l -5.351,-1.17 c -3.679,-0.837 -4.766,-2.342 -4.766,-4.85 0,-2.844 2.257,-4.516 5.937,-4.516 3.195,0 5.224,0.953 6.088,3.155 0.402,1.025 1.324,1.839 2.42,1.707 l 4.39,-0.527 c 1.097,-0.131 1.925,-1.136 1.686,-2.214 -1.356,-6.096 -6.342,-8.644 -14.082,-8.644 -7.525,0 -14.884,2.844 -14.884,11.958 0,5.686 2.76,9.282 9.699,10.954 l 5.687,1.338 c 4.264,1.003 5.685,2.76 5.685,5.185 0,3.093 -3.01,4.347 -8.696,4.347 -8.445,0 -11.957,-4.431 -13.964,-10.536 l -2.76,-8.361 c -3.51,-10.87 -9.114,-14.885 -20.236,-14.885 -12.291,0 -18.813999,7.777 -18.813999,20.989 0,12.71 6.522999,19.567 18.229999,19.567 6.22,0 10.303,-1.922 12.366,-3.234 0.93,-0.592 1.289,-2.038 0.907,-3.075 z"
     style="fill:#fefefe;fill-opacity:1;stroke-width:0.32034799" />
  <style
     type="text/css"
     id="style853">.st0{fill:#fff}</style>
</svg>
