<?xml version="1.0" encoding="UTF-8" standalone="no"?>
<svg
   xmlns:dc="http://purl.org/dc/elements/1.1/"
   xmlns:cc="http://creativecommons.org/ns#"
   xmlns:rdf="http://www.w3.org/1999/02/22-rdf-syntax-ns#"
   xmlns:svg="http://www.w3.org/2000/svg"
   xmlns="http://www.w3.org/2000/svg"
   xmlns:sodipodi="http://sodipodi.sourceforge.net/DTD/sodipodi-0.dtd"
   xmlns:inkscape="http://www.inkscape.org/namespaces/inkscape"
   viewBox="0 0 272 272"
   version="1.1"
   id="svg16"
   sodipodi:docname="lynx_launcher_fg.svg"
   inkscape:version="0.92.4 (5da689c313, 2019-01-14)"
   width="272"
   height="272">
  <metadata
     id="metadata20">
    <rdf:RDF>
      <cc:Work
         rdf:about="">
        <dc:format>image/svg+xml</dc:format>
        <dc:type
           rdf:resource="http://purl.org/dc/dcmitype/StillImage" />
        <dc:title></dc:title>
      </cc:Work>
    </rdf:RDF>
  </metadata>
  <sodipodi:namedview
     pagecolor="#ffffff"
     bordercolor="#666666"
     borderopacity="1"
     objecttolerance="10"
     gridtolerance="10"
     guidetolerance="10"
     inkscape:pageopacity="0"
     inkscape:pageshadow="2"
     inkscape:window-width="1920"
     inkscape:window-height="1017"
     id="namedview18"
     showgrid="true"
     inkscape:zoom="2.9945397"
     inkscape:cx="59.840745"
     inkscape:cy="140.0733"
     inkscape:window-x="-8"
     inkscape:window-y="-8"
     inkscape:window-maximized="1"
     inkscape:current-layer="svg16"
     inkscape:snap-global="true">
    <inkscape:grid
       type="xygrid"
       id="grid827"
       spacingx="4"
       spacingy="4" />
  </sodipodi:namedview>
  <defs
     id="defs4">
    <style
       id="style2">.a{fill:none;stroke:#b1b5bd;stroke-linecap:round;stroke-linejoin:round;isolation:isolate;opacity:0.63;}</style>
    <style
       id="style2-1">.a{fill:none;stroke:#b1b5bd;stroke-linecap:round;stroke-linejoin:round;isolation:isolate;opacity:.63}</style>
  </defs>
  <path
     style="fill:#56595b"
     d="m 141.0332,78.330078 c 0,0 -6.22054,0.295219 -9.06054,11.074219 -8.255,8.016 -7.40821,26.462893 -7.40821,26.462893 0,0 -8.95325,7.87286 -15.53125,11.50586 -2.236,1.235 -4.32267,1.35957 -7.26367,5.39257 -2.199999,3.015 -4.674124,10.22404 -6.328124,14.95704 -1.781,2.503 -9.977937,7.49806 -10.210937,11.28906 -0.638,10.364 11.291015,13.87891 11.291015,13.8789 0,0 1.257141,5.12354 9.994136,8.26954 1.23001,-1.413 2.98961,-1.11218 4.09961,-0.57618 1.78,0.86 5.99486,7.29816 11.50586,13.16016 4.9,-4.374 11.18585,-5.13336 13.58985,-4.81836 9.669,1.265 12.74609,25.46458 12.74609,34.0957 C 148.45703,244 144,284 144,284 H 284 V 156 c 0,0 -41.70573,0.42052 -62.55859,0.63086 -9.44141,0.0952 -17.4848,-1.94686 -24.9668,-4.88086 -6.422,-2.518 -18.86127,-8.77714 -21.57227,-12.36914 -5.522,-9.29 -14.23828,-19.99024 -14.23828,-19.99024 0,0 3.55288,-10.7756 1.79688,-25.599604 0.544,-2.255 2.14242,-4.157391 2.73242,-6.400391 1.429,-5.427 5.10547,-8.988281 5.10547,-8.988281 0,0 -8.0176,0.169812 -14.3086,12.007812 -1.837,0.854 -4.09525,2.519735 -7.03125,5.927735 -2.4,2.785 -6.48828,9.029299 -6.48828,9.029299 0,0 -0.58567,-2.67342 -2.01367,-5.607424 -1.369,-2.814 -3.23344,-6.507172 -3.52344,-8.701172 -0.002,-1.732 1.11441,-0.68736 1.94141,-4.81836 0.302,-1.509 -0.0786,-3.126562 0.35938,-4.601562 0.35599,-1.204 1.79882,-3.308594 1.79882,-3.308594 z"
     id="path829"
     inkscape:connector-curvature="0"
     sodipodi:nodetypes="ccccccccccccscccscccccccccccccc" />
</svg>
