<?xml version="1.0" encoding="UTF-8" standalone="no"?>
<svg
   xmlns:dc="http://purl.org/dc/elements/1.1/"
   xmlns:cc="http://creativecommons.org/ns#"
   xmlns:rdf="http://www.w3.org/1999/02/22-rdf-syntax-ns#"
   xmlns:svg="http://www.w3.org/2000/svg"
   xmlns="http://www.w3.org/2000/svg"
   xmlns:sodipodi="http://sodipodi.sourceforge.net/DTD/sodipodi-0.dtd"
   xmlns:inkscape="http://www.inkscape.org/namespaces/inkscape"
   viewBox="0 0 272 272"
   version="1.1"
   id="svg16"
   sodipodi:docname="mastodon_fg.svg"
   inkscape:version="0.92.4 (5da689c313, 2019-01-14)"
   width="272"
   height="272">
  <metadata
     id="metadata20">
    <rdf:RDF>
      <cc:Work
         rdf:about="">
        <dc:format>image/svg+xml</dc:format>
        <dc:type
           rdf:resource="http://purl.org/dc/dcmitype/StillImage" />
        <dc:title></dc:title>
      </cc:Work>
    </rdf:RDF>
  </metadata>
  <sodipodi:namedview
     pagecolor="#ffffff"
     bordercolor="#666666"
     borderopacity="1"
     objecttolerance="10"
     gridtolerance="10"
     guidetolerance="10"
     inkscape:pageopacity="0"
     inkscape:pageshadow="2"
     inkscape:window-width="1920"
     inkscape:window-height="1017"
     id="namedview18"
     showgrid="true"
     inkscape:zoom="8.4698372"
     inkscape:cx="59.840745"
     inkscape:cy="147.21672"
     inkscape:window-x="-8"
     inkscape:window-y="-8"
     inkscape:window-maximized="1"
     inkscape:current-layer="svg16"
     inkscape:snap-global="false">
    <inkscape:grid
       type="xygrid"
       id="grid827"
       spacingx="4"
       spacingy="4" />
  </sodipodi:namedview>
  <defs
     id="defs4">
    <style
       id="style2">.a{fill:none;stroke:#b1b5bd;stroke-linecap:round;stroke-linejoin:round;isolation:isolate;opacity:0.63;}</style>
  </defs>
  <path
     style="fill:#ffffff"
     inkscape:connector-curvature="0"
     d="m 173.10386,128.24866 c 0,-16.27 -11.42699,-21.039 -11.42699,-21.039 -5.76501,-2.467 -15.65901,-3.506 -25.93801,-3.584 h -0.253 c -10.27899,0.078 -20.16599,1.117 -25.92799,3.584 0,0 -11.429005,4.769 -11.429005,21.039 0,3.727 -0.077,8.18 0.049,12.904 0.415,15.91 3.127005,31.593 18.898005,35.486 7.27,1.796 13.51499,2.171 18.54199,1.913 9.11901,-0.469 14.229,-3.035 14.229,-3.035 l -0.29999,-6.171 c 0,0 -6.51601,1.917 -13.834,1.682 -7.25,-0.231 -14.9,-0.729 -16.071,-9.032 a 15.838,15.838 0 0 1 -0.168,-2.329 99.783,99.783 0 0 0 16.136,2.008 c 5.51599,0.236 10.68699,-0.301 15.94099,-0.886 10.074,-1.122 18.846,-6.912 19.94801,-12.201 1.74399,-8.335 1.603,-20.34 1.603,-20.34 z"
     id="path824" />
  <path
     style="fill:#728dbe"
     inkscape:connector-curvature="0"
     d="m 149.51386,116.98466 c -4.56,0 -8.08,2.08 -10.08,5.6 -1.84,-3.36 -5.04,-5.6 -9.12,-5.6 -3.68,0 -6.64,1.76 -8.72,4.56 v -3.92 h -10.23999 v 32 h 10.23999 v -18.56 c 0,-2.32 1.44,-5.04 4.56,-5.04 2.8,0 4.64,2.24 4.64,5.04 v 18.56 h 10.24 v -18.56 c 0,-2.32 1.44,-5.04 4.56,-5.04 2.8,0 4.72,2.24 4.72,5.04 v 18.56 h 10.16 v -20.24 c 0,-7.44 -3.92,-12.4 -10.96,-12.4 z"
     id="path826" />
</svg>
