<?xml version="1.0" encoding="UTF-8" standalone="no"?>
<svg
   xmlns:dc="http://purl.org/dc/elements/1.1/"
   xmlns:cc="http://creativecommons.org/ns#"
   xmlns:rdf="http://www.w3.org/1999/02/22-rdf-syntax-ns#"
   xmlns:svg="http://www.w3.org/2000/svg"
   xmlns="http://www.w3.org/2000/svg"
   xmlns:sodipodi="http://sodipodi.sourceforge.net/DTD/sodipodi-0.dtd"
   xmlns:inkscape="http://www.inkscape.org/namespaces/inkscape"
   viewBox="0 0 272 272"
   version="1.1"
   id="svg16"
   sodipodi:docname="microtrip_fg.svg"
   inkscape:version="0.92.4 (5da689c313, 2019-01-14)"
   width="272"
   height="272">
  <metadata
     id="metadata20">
    <rdf:RDF>
      <cc:Work
         rdf:about="">
        <dc:format>image/svg+xml</dc:format>
        <dc:type
           rdf:resource="http://purl.org/dc/dcmitype/StillImage" />
        <dc:title></dc:title>
      </cc:Work>
    </rdf:RDF>
  </metadata>
  <sodipodi:namedview
     pagecolor="#ffffff"
     bordercolor="#666666"
     borderopacity="1"
     objecttolerance="10"
     gridtolerance="10"
     guidetolerance="10"
     inkscape:pageopacity="0"
     inkscape:pageshadow="2"
     inkscape:window-width="1920"
     inkscape:window-height="1017"
     id="namedview18"
     showgrid="true"
     inkscape:zoom="2.9945397"
     inkscape:cx="36.204625"
     inkscape:cy="101.92595"
     inkscape:window-x="-8"
     inkscape:window-y="-8"
     inkscape:window-maximized="1"
     inkscape:current-layer="svg16"
     inkscape:snap-global="true">
    <inkscape:grid
       type="xygrid"
       id="grid827"
       spacingx="4"
       spacingy="4" />
  </sodipodi:namedview>
  <defs
     id="defs4">
    <style
       id="style2">.a{fill:none;stroke:#b1b5bd;stroke-linecap:round;stroke-linejoin:round;isolation:isolate;opacity:0.63;}</style>
  </defs>
  <circle
     cx="110"
     cy="122"
     r="6"
     style="fill:#56595b;stroke-width:24;stroke-linecap:round;stroke-linejoin:round;paint-order:stroke fill markers"
     id="circle826" />
  <circle
     cx="162"
     cy="122"
     r="6"
     style="fill:#56595b;stroke-width:24;stroke-linecap:round;stroke-linejoin:round;paint-order:stroke fill markers"
     id="circle828" />
  <path
     inkscape:connector-curvature="0"
     d="m 100,132 c -12,0 -16,5.333 -16,12 0,28 52,28 52,28 0,0 52,0 52,-28 0,-6.667 -4,-12 -16,-12 -12.074,0 -20,4 -36,4 -16,0 -23.926,-4 -36,-4 z"
     style="fill:#56595b"
     id="path830" />
  <path
     inkscape:connector-curvature="0"
     d="M 102,136.041 V 142 c 0,5.54 4.46,10 10,10 5.54,0 10,-4.46 10,-10 v -3.078 c -7.192,-1.084 -12.974,-2.624 -20,-2.881 z m 68,0 c -7.026,0.257 -12.808,1.797 -20,2.88 V 142 c 0,5.54 4.46,10 10,10 5.54,0 10,-4.46 10,-10 z m -44,3.404 V 142 c 0,5.54 4.46,10 10,10 5.54,0 10,-4.46 10,-10 v -2.555 c -3.003,0.333 -6.277,0.555 -10,0.555 -3.723,0 -6.997,-0.222 -10,-0.555 z"
     style="fill:#ffffff;paint-order:stroke fill markers"
     id="path832" />
</svg>
