<?xml version="1.0" encoding="UTF-8" standalone="no"?>
<svg
   xmlns:dc="http://purl.org/dc/elements/1.1/"
   xmlns:cc="http://creativecommons.org/ns#"
   xmlns:rdf="http://www.w3.org/1999/02/22-rdf-syntax-ns#"
   xmlns:svg="http://www.w3.org/2000/svg"
   xmlns="http://www.w3.org/2000/svg"
   xmlns:sodipodi="http://sodipodi.sourceforge.net/DTD/sodipodi-0.dtd"
   xmlns:inkscape="http://www.inkscape.org/namespaces/inkscape"
   viewBox="0 0 272 272"
   version="1.1"
   id="svg16"
   sodipodi:docname="mimo_fg.svg"
   inkscape:version="0.92.4 (5da689c313, 2019-01-14)"
   width="272"
   height="272">
  <metadata
     id="metadata20">
    <rdf:RDF>
      <cc:Work
         rdf:about="">
        <dc:format>image/svg+xml</dc:format>
        <dc:type
           rdf:resource="http://purl.org/dc/dcmitype/StillImage" />
        <dc:title></dc:title>
      </cc:Work>
    </rdf:RDF>
  </metadata>
  <sodipodi:namedview
     pagecolor="#ffffff"
     bordercolor="#666666"
     borderopacity="1"
     objecttolerance="10"
     gridtolerance="10"
     guidetolerance="10"
     inkscape:pageopacity="0"
     inkscape:pageshadow="2"
     inkscape:window-width="1920"
     inkscape:window-height="1017"
     id="namedview18"
     showgrid="true"
     inkscape:zoom="2.1174593"
     inkscape:cx="36.204625"
     inkscape:cy="112.37119"
     inkscape:window-x="-8"
     inkscape:window-y="-8"
     inkscape:window-maximized="1"
     inkscape:current-layer="svg16"
     inkscape:snap-global="true">
    <inkscape:grid
       type="xygrid"
       id="grid827"
       spacingx="4"
       spacingy="4" />
  </sodipodi:namedview>
  <defs
     id="defs4">
    <style
       id="style2">.a{fill:none;stroke:#b1b5bd;stroke-linecap:round;stroke-linejoin:round;isolation:isolate;opacity:0.63;}</style>
    <clipPath
       id="a">
      <path
         id="path826"
         d="M0 0h192v192H0z"
         fill="#fff" />
    </clipPath>
  </defs>
  <rect
     style="opacity:0.5;vector-effect:none;fill:#ffffff;fill-opacity:1;fill-rule:evenodd;stroke:none;stroke-width:16;stroke-linecap:round;stroke-linejoin:round;stroke-miterlimit:4;stroke-dasharray:none;paint-order:stroke fill markers"
     id="rect883"
     width="272"
     height="272"
     x="0"
     y="0" />
  <path
     inkscape:connector-curvature="0"
     id="path1124"
     d="m 98.314,59.088 c -10.39,-0.669 -19.15,4.114 -25.453,11.925 -8.966,11.105 -22.152,37.233 -23.684,51.27 -1.065,9.776 1.957,16.443 9.013,21.59 13.363,9.744 53.347,25.639 71.585,30.191 10.888,2.717 23.158,1.163 30.447,-7.094 10.321,-11.692 22.175,-34.868 25.819,-54.41 2.333,-12.518 -1.347,-22.656 -12.03,-29.75 C 155.537,70.542 120.505,60.52 98.315,59.088"
     style="fill:#708cbd;fill-opacity:1;fill-rule:evenodd;stroke-width:0.99554199" />
  <path
     inkscape:connector-curvature="0"
     id="path1126"
     d="m 125.258,136 c 5.182,2.067 11.274,-0.67 13.607,-6.113 l 5.07,-11.828 c 2.332,-5.443 -0.062,-11.307 -5.348,-13.096 -5.286,-1.79 -11.409,1.031 -13.677,6.302 l -4.928,11.448 c -2.27,5.27 0.093,11.218 5.276,13.287"
     style="fill:#96dfd3;fill-opacity:1;fill-rule:evenodd;stroke-width:0.99554199" />
  <path
     inkscape:connector-curvature="0"
     id="path1128"
     d="m 156,161.126 c 7.724,-9.987 20.444,-35.107 23.292,-50.054 1.925,-10.098 1.443,-21.272 -5.281,-28.263 10.683,7.095 14.363,17.233 12.029,29.75 -3.644,19.543 -15.497,42.72 -25.818,54.411 -7.289,8.257 -19.56,9.811 -30.447,7.094 -0.27,-0.068 -0.56,-0.145 -0.839,-0.218 13.655,0.545 21.024,-4.908 27.065,-12.72"
     style="fill:#54688c;fill-opacity:1;fill-rule:evenodd;stroke-width:0.99554199" />
  <path
     inkscape:connector-curvature="0"
     id="path1130"
     d="m 101.006,109.564 c 0,3.887 -2.406,5.923 -5.46,4.812 -1.667,-0.555 -2.592,-1.758 -2.5,-3.517 0.185,-2.591 -0.648,-4.72 -3.147,-5.738 -2.684,-1.11 -4.997,-0.463 -7.126,1.666 -1.666,1.758 -4.258,1.666 -5.831,0 -1.296,-1.296 -1.48,-3.054 -0.463,-4.35 3.517,-4.258 8.145,-5.646 13.328,-4.906 4.813,0.648 8.422,3.332 10.366,7.868 0.555,1.295 0.925,2.869 0.833,4.164 z"
     style="fill:#96dfd3;fill-opacity:1;stroke-width:0.92553699" />
  <path
     inkscape:connector-curvature="0"
     id="path1132"
     d="m 104.161,189.736 c 0,3.07 -1.382,5.123 -4.519,6.667 -6.334,3.119 -11.74,-0.35 -13.3,-1.355 -10.123,-6.518 -9.4,-17.983 -9.163,-20.304 0.105,-1.03 1.09,-2.859 2.532,-1.533 4.05,5.902 8.152,14.948 16.702,12.248 3.41,-1.076 7.483,-0.663 7.748,4.277 z"
     style="fill:#708cbd;fill-opacity:1;stroke:none;stroke-width:0.357274px;stroke-linecap:butt;stroke-linejoin:miter;stroke-opacity:1" />
  <path
     inkscape:connector-curvature="0"
     id="path1134"
     d="m 80.417,174.268 c 0.715,7.75 4.399,23.458 22.886,19.01 0.035,-0.06 0.1,-0.191 0.15,-0.285 0.477,-0.943 0.708,-2.016 0.708,-3.257 -0.265,-4.94 -4.338,-5.353 -7.748,-4.276 -8.054,2.543 -12.16,-5.336 -15.996,-11.192 z"
     style="fill:#54688c;fill-opacity:1;stroke:none;stroke-width:0.357274px;stroke-linecap:butt;stroke-linejoin:miter;stroke-opacity:1" />
  <style
     type="text/css"
     id="style853">.st0{fill:#fff}</style>
</svg>
