<?xml version="1.0" encoding="UTF-8" standalone="no"?>
<svg
   xmlns:dc="http://purl.org/dc/elements/1.1/"
   xmlns:cc="http://creativecommons.org/ns#"
   xmlns:rdf="http://www.w3.org/1999/02/22-rdf-syntax-ns#"
   xmlns:svg="http://www.w3.org/2000/svg"
   xmlns="http://www.w3.org/2000/svg"
   xmlns:sodipodi="http://sodipodi.sourceforge.net/DTD/sodipodi-0.dtd"
   xmlns:inkscape="http://www.inkscape.org/namespaces/inkscape"
   viewBox="0 0 272 272"
   version="1.1"
   id="svg16"
   sodipodi:docname="music_alt_2_fg.svg"
   inkscape:version="0.92.4 (5da689c313, 2019-01-14)"
   width="272"
   height="272">
  <metadata
     id="metadata20">
    <rdf:RDF>
      <cc:Work
         rdf:about="">
        <dc:format>image/svg+xml</dc:format>
        <dc:type
           rdf:resource="http://purl.org/dc/dcmitype/StillImage" />
        <dc:title></dc:title>
      </cc:Work>
    </rdf:RDF>
  </metadata>
  <sodipodi:namedview
     pagecolor="#ffffff"
     bordercolor="#666666"
     borderopacity="1"
     objecttolerance="10"
     gridtolerance="10"
     guidetolerance="10"
     inkscape:pageopacity="0"
     inkscape:pageshadow="2"
     inkscape:window-width="1920"
     inkscape:window-height="1017"
     id="namedview18"
     showgrid="true"
     inkscape:zoom="2.9945397"
     inkscape:cx="36.204625"
     inkscape:cy="128.64124"
     inkscape:window-x="-8"
     inkscape:window-y="-8"
     inkscape:window-maximized="1"
     inkscape:current-layer="svg16"
     inkscape:snap-global="false">
    <inkscape:grid
       type="xygrid"
       id="grid827"
       spacingx="4"
       spacingy="4" />
  </sodipodi:namedview>
  <defs
     id="defs4">
    <style
       id="style2">.a{fill:none;stroke:#b1b5bd;stroke-linecap:round;stroke-linejoin:round;isolation:isolate;opacity:0.63;}</style>
  </defs>
  <path
     style="stroke:#ffffff;stroke-width:5;fill:none"
     inkscape:connector-curvature="0"
     id="path7"
     d="m 136.08694,183.50006 c 0,0 -1.454,16.119 9.531,16.119 10.985,0 10.292,22.101 10.292,22.101 l 0.0406,63.30364"
     sodipodi:nodetypes="cscc" />
  <path
     inkscape:connector-curvature="0"
     style="fill:#b1b5bd;stroke:#ffffff;stroke-width:6"
     d="m 154.07294,135.92706 c 0,9.941 -8.059,18 -18,18 -9.941,0 -18,-8.059 -18,-18 0,-9.941 8.059,-18 18,-18 9.941,0 18,8.059 18,18 z"
     id="path11" />
  <rect
     style="fill:#ffffff"
     width="10"
     height="34"
     x="131.07294"
     y="150.92706"
     rx="5"
     id="rect13" />
  <path
     inkscape:connector-curvature="0"
     style="stroke:#ffffff;stroke-width:5;stroke-linecap:round;fill:none"
     d="m 108.36194,117.92706 c -10.100003,10.1 -10.100003,26.477 0,36.577 m -11.000003,-45.221 c -14.875,14.874 -14.875,38.991 0,53.865 m 65.311003,-46.109 c 10.1,10.1 10.1,26.476 0,36.577 m 10.356,-44.577 c 14.874,14.874 14.874,38.991 0,53.865"
     id="path15" />
</svg>
