<?xml version="1.0" encoding="UTF-8" standalone="no"?>
<svg
   xmlns:dc="http://purl.org/dc/elements/1.1/"
   xmlns:cc="http://creativecommons.org/ns#"
   xmlns:rdf="http://www.w3.org/1999/02/22-rdf-syntax-ns#"
   xmlns:svg="http://www.w3.org/2000/svg"
   xmlns="http://www.w3.org/2000/svg"
   xmlns:sodipodi="http://sodipodi.sourceforge.net/DTD/sodipodi-0.dtd"
   xmlns:inkscape="http://www.inkscape.org/namespaces/inkscape"
   viewBox="0 0 272 272"
   version="1.1"
   id="svg16"
   sodipodi:docname="newpipe_legacy_fg.svg"
   inkscape:version="0.92.4 (5da689c313, 2019-01-14)"
   width="272"
   height="272">
  <metadata
     id="metadata20">
    <rdf:RDF>
      <cc:Work
         rdf:about="">
        <dc:format>image/svg+xml</dc:format>
        <dc:type
           rdf:resource="http://purl.org/dc/dcmitype/StillImage" />
        <dc:title></dc:title>
      </cc:Work>
    </rdf:RDF>
  </metadata>
  <sodipodi:namedview
     pagecolor="#ffffff"
     bordercolor="#666666"
     borderopacity="1"
     objecttolerance="10"
     gridtolerance="10"
     guidetolerance="10"
     inkscape:pageopacity="0"
     inkscape:pageshadow="2"
     inkscape:window-width="1920"
     inkscape:window-height="1017"
     id="namedview18"
     showgrid="true"
     inkscape:zoom="2.1174593"
     inkscape:cx="36.204625"
     inkscape:cy="101.92595"
     inkscape:window-x="-8"
     inkscape:window-y="-8"
     inkscape:window-maximized="1"
     inkscape:current-layer="svg16"
     inkscape:snap-global="false">
    <inkscape:grid
       type="xygrid"
       id="grid827"
       spacingx="4"
       spacingy="4" />
  </sodipodi:namedview>
  <defs
     id="defs4">
    <style
       id="style2">.a{fill:none;stroke:#b1b5bd;stroke-linecap:round;stroke-linejoin:round;isolation:isolate;opacity:0.63;}</style>
    <path
       d="M103.712 266.523h170.091v57.607H103.712z"
       id="rect1073" />
  </defs>
  <style
     type="text/css"
     id="style824">.st0{fill:#cd201f}.st1{fill:#fff}</style>
  <g
     id="g1051"
     transform="matrix(1.23198,0,0,1.23198,-617.35392,513.02144)">
    <path
       style="fill:#ffffff"
       inkscape:connector-curvature="0"
       id="path1039"
       d="m 592.4,-333.92 v 55.7 c 0,1.657 1.156,2.316 2.582,1.472 7.426,-4.395 29.441,-17.422 47.134,-27.849 1.427,-0.841 1.427,-2.204 0,-3.045 l -47.13,-27.755 a 1.715,1.715 150.247 0 0 -2.585,1.477 z"
       class="st1" />
    <path
       inkscape:connector-curvature="0"
       id="path1041"
       d="m 602.1,-317.12 v 22 c 0,1.657 1.157,2.318 2.585,1.477 3.97,-2.34 11.825,-6.969 18.628,-10.96 1.429,-0.838 1.43,-2.198 0.002,-3.038 l -18.629,-10.958 a 1.716,1.716 150.233 0 0 -2.586,1.48 z"
       class="st0"
       style="fill:#ff8183;fill-opacity:1" />
    <path
       inkscape:connector-curvature="0"
       id="rect1043"
       d="m 602.101,-300.52 h 6.2 v 21 h -6.2 z"
       class="st0"
       style="fill:#ff8183;fill-opacity:1" />
    <path
       inkscape:connector-curvature="0"
       id="path1045"
       d="m 592.4,-333.92 v 55.7 c 0,1.657 1.156,2.316 2.582,1.472 7.426,-4.395 29.441,-17.422 47.134,-27.849 1.427,-0.841 1.427,-2.204 0,-3.045 l -47.13,-27.755 a 1.715,1.715 150.247 0 0 -2.585,1.477 z"
       class="st1"
       style="fill:#000000;fill-opacity:0" />
    <path
       inkscape:connector-curvature="0"
       id="path1047"
       d="m 602.1,-317.12 v 22 c 0,1.657 1.157,2.318 2.585,1.477 3.97,-2.34 11.825,-6.969 18.628,-10.96 1.429,-0.838 1.43,-2.198 0.002,-3.038 l -18.629,-10.958 a 1.716,1.716 150.233 0 0 -2.586,1.48 z"
       class="st0"
       style="fill:#000000;fill-opacity:0" />
    <path
       inkscape:connector-curvature="0"
       id="rect1049"
       d="m 602.101,-300.52 h 6.2 v 21 h -6.2 z"
       class="st0"
       style="fill:#000000;fill-opacity:0" />
  </g>
  <g
     id="g1061"
     transform="translate(40.66308,329.50144)">
    <path
       inkscape:connector-curvature="0"
       id="path1053"
       d="M 64.335,-336.1428 -65.605412,-334.28922 -125.65074,-193.59 -77.884279,-33.76308 64.335,-43.006706 V -189.57476 Z"
       style="fill:#ffffff;fill-opacity:1;stroke-width:1.75999999"
       sodipodi:nodetypes="ccccccc" />
    <text
       xml:space="preserve"
       id="text1059"
       style="font-style:normal;font-variant:normal;font-weight:700;font-stretch:normal;font-size:40px;line-height:1.25;font-family:now;-inkscape-font-specification:'now Bold';letter-spacing:0;word-spacing:0;white-space:pre;shape-inside:url(#rect1073);fill:#ff8183;fill-opacity:1"
       transform="matrix(0,-0.78937,0.78937,0,-176.479,-46.639)"><tspan
         x="103.711"
         y="301.14499"
         id="tspan833"><tspan
           style="font-style:normal;font-variant:normal;font-weight:700;font-stretch:normal;font-family:now;-inkscape-font-specification:'now Bold';fill:#ff8183;fill-opacity:1"
           id="tspan831">LEGACY</tspan></tspan></text>
  </g>
</svg>
