<?xml version="1.0" encoding="UTF-8" standalone="no"?>
<svg
   xmlns:dc="http://purl.org/dc/elements/1.1/"
   xmlns:cc="http://creativecommons.org/ns#"
   xmlns:rdf="http://www.w3.org/1999/02/22-rdf-syntax-ns#"
   xmlns:svg="http://www.w3.org/2000/svg"
   xmlns="http://www.w3.org/2000/svg"
   xmlns:sodipodi="http://sodipodi.sourceforge.net/DTD/sodipodi-0.dtd"
   xmlns:inkscape="http://www.inkscape.org/namespaces/inkscape"
   viewBox="0 0 272 272"
   version="1.1"
   id="svg16"
   sodipodi:docname="ooni_probe_fg.svg"
   inkscape:version="0.92.4 (5da689c313, 2019-01-14)"
   width="272"
   height="272">
  <metadata
     id="metadata20">
    <rdf:RDF>
      <cc:Work
         rdf:about="">
        <dc:format>image/svg+xml</dc:format>
        <dc:type
           rdf:resource="http://purl.org/dc/dcmitype/StillImage" />
        <dc:title></dc:title>
      </cc:Work>
    </rdf:RDF>
  </metadata>
  <sodipodi:namedview
     pagecolor="#ffffff"
     bordercolor="#666666"
     borderopacity="1"
     objecttolerance="10"
     gridtolerance="10"
     guidetolerance="10"
     inkscape:pageopacity="0"
     inkscape:pageshadow="2"
     inkscape:window-width="1920"
     inkscape:window-height="1017"
     id="namedview18"
     showgrid="true"
     inkscape:zoom="11.978159"
     inkscape:cx="65.615728"
     inkscape:cy="158.83335"
     inkscape:window-x="-8"
     inkscape:window-y="-8"
     inkscape:window-maximized="1"
     inkscape:current-layer="svg16"
     inkscape:snap-global="false">
    <inkscape:grid
       type="xygrid"
       id="grid827"
       spacingx="4"
       spacingy="4" />
  </sodipodi:namedview>
  <defs
     id="defs4">
    <style
       id="style2">.a{fill:none;stroke:#b1b5bd;stroke-linecap:round;stroke-linejoin:round;isolation:isolate;opacity:0.63;}</style>
  </defs>
  <path
     inkscape:connector-curvature="0"
     d="m 135.996,82.298596 c -10.976,10e-4 -23.425,7.138 -23.553,23.010004 -0.095,11.771 12.665,20.528 12.139,24.278 -0.541,3.858 -3.872,9.957 -13.316,10.055 -5.497,0.057 -12.715,-3.89 -13.498,-9.33 -0.6,-4.174 4.857,-10.406 7.79,-9.965 3.237,0.485 7.045,1.417 4.711,11.777 2.093,-0.782 4.353,-1.87 5.888,-6.976 1.142,-3.796 -0.397,-5.529 -1.177,-6.522 -0.768,-0.977 -0.53,-2.7 -1.631,-3.352 -0.632,-0.374 -1.319,0.02 -1.993,-0.271 -1.199,-0.52 -1.093,-2.292 -2.355,-2.628 -0.783,-0.208 -1.727,0.614 -2.537,0.635 -1.054,0.027 -1.491,-0.957 -2.536,-0.816 -1.617,0.218 -3.805,3.08 -3.805,3.08 0,0 -9.672,7.577 -9.24,15.763 0.474,8.976 8.32,16.676 20.383,17.484 8.364,0.56 17.303,-9.15 17.303,-9.15 0,0 0.995,2.401 -2.536,5.617 -4.078,3.714 -18.546,7.826 -19.024,16.125 -0.722,12.55 16.41,13.86 16.306,18.48 -0.076,3.331 0.922,4.59 -7.247,6.885 1.449,1.568 2.804,2.6 4.763,2.62 2.363,0.026 6.108,-3.163 6.108,-3.163 0,0 2.833,-0.962 3.442,-2.174 0.353,-0.704 -0.244,-1.57 -0.181,-2.356 0.144,-1.796 1.191,0.005 1.268,-3.204 0.062,-2.586 -0.41,-4.391 -1.436,-5.758 -0.925,-1.23 -2.91,-3.567 -4.362,-4.083 -1.44,-0.511 -3.1,0.385 -4.657,0.469 -2.221,0.12 -4.783,-1.686 -4.592,-4.998 0.223,-3.848 4.897,-5.334 10.518,-7.79 5.216,-2.28 8.878,-7.972 8.878,-7.972 0,0 2.738,3.958 6.885,7.64 5.688,5.052 10.365,5.075 12.661,11.684 1.205,3.468 -2.49,7.44 -6.138,7.852 -4.042,0.458 -9.128,-3.905 -9.24,-7.971 -0.153,-5.581 6.522,-3.805 6.522,-3.805 0,0 -0.149,-3.093 -2.536,-3.261 -5.54,-0.39 -10.717,1.887 -10.66,7.804 0.069,6.918 2.847,12.687 15.008,12.935 6.648,0.135 15.314,-3.141 15.4,-12.042 0.054,-5.582 -5.987,-10.891 -10.552,-14.101 -10.868,-7.64 -8.653,-11.445 -8.653,-11.445 0,0 7.657,8.31 15.038,8.515 8.984,0.25 20.192,-5.712 20.836,-15.038 0.684,-9.903 -10.78,-20.071 -10.508,-27.358 0.25,-6.679 7.972,-12.320004 7.972,-12.320004 0,0 -1.685,-1.857 -3.17,-1.993 -1.162,-0.107 -2.778,0.573 -3.896,0.906 -1.124,0.334 -2.576,-0.066 -3.442,0.724 -0.607,0.554 -0.628,1.584 -1.087,2.265 -0.697,1.032004 -1.974,1.335004 -2.537,2.446004 -0.547,1.078 -0.193,2.224 -0.815,3.261 -0.543,0.906 -1.64,1.035 -2.084,1.993 -0.554,1.193 0.377,1.697 0.272,3.895 -0.043,0.891 -0.75,1.387 -0.906,2.265 -0.494,2.78 2.428,2.88 3.805,5.345 0.743,1.33 0.236,2.349 2.627,5.344 0.743,0.931 2.521,1.213 3.08,2.265 0.454,0.855 0.683,1.957 0.906,2.899 0.439,1.853 1.863,2.72 1.79,4.483 -0.185,4.44 -4.23,9.031 -8.675,9.015 -7.232,-0.027 -14.055,-4.794 -14.313,-12.501 -0.219,-6.543 9.881,-10.316 9.784,-24.821 C 159.094,90.571596 146.805,82.300596 136,82.301596 Z"
     style="fill:#728dbe;stroke-width:0.61053002"
     id="path824" />
  <circle
     cx="133.33"
     cy="107.75159"
     r="10.99"
     style="fill:#ffffff;stroke-width:0.61053002;paint-order:stroke fill markers"
     id="circle826" />
  <circle
     cx="130.88701"
     cy="108.9726"
     r="2.4419999"
     style="fill:#728dbe;stroke-width:0.61053002;paint-order:stroke fill markers"
     id="circle828" />
</svg>
