<?xml version="1.0" encoding="UTF-8" standalone="no"?>
<svg
   xmlns:dc="http://purl.org/dc/elements/1.1/"
   xmlns:cc="http://creativecommons.org/ns#"
   xmlns:rdf="http://www.w3.org/1999/02/22-rdf-syntax-ns#"
   xmlns:svg="http://www.w3.org/2000/svg"
   xmlns="http://www.w3.org/2000/svg"
   xmlns:sodipodi="http://sodipodi.sourceforge.net/DTD/sodipodi-0.dtd"
   xmlns:inkscape="http://www.inkscape.org/namespaces/inkscape"
   viewBox="0 0 272 272"
   version="1.1"
   id="svg16"
   sodipodi:docname="robotek_fg.svg"
   inkscape:version="0.92.4 (5da689c313, 2019-01-14)"
   width="272"
   height="272">
  <metadata
     id="metadata20">
    <rdf:RDF>
      <cc:Work
         rdf:about="">
        <dc:format>image/svg+xml</dc:format>
        <dc:type
           rdf:resource="http://purl.org/dc/dcmitype/StillImage" />
        <dc:title />
      </cc:Work>
    </rdf:RDF>
  </metadata>
  <sodipodi:namedview
     pagecolor="#ffffff"
     bordercolor="#666666"
     borderopacity="1"
     objecttolerance="10"
     gridtolerance="10"
     guidetolerance="10"
     inkscape:pageopacity="0"
     inkscape:pageshadow="2"
     inkscape:window-width="1920"
     inkscape:window-height="1017"
     id="namedview18"
     showgrid="true"
     inkscape:zoom="3.0428785"
     inkscape:cx="94.181647"
     inkscape:cy="131.92332"
     inkscape:window-x="-8"
     inkscape:window-y="-8"
     inkscape:window-maximized="1"
     inkscape:current-layer="svg16"
     inkscape:snap-global="true">
    <inkscape:grid
       type="xygrid"
       id="grid827"
       spacingx="4"
       spacingy="4" />
  </sodipodi:namedview>
  <defs
     id="defs4">
    <style
       id="style2">.a{fill:none;stroke:#b1b5bd;stroke-linecap:round;stroke-linejoin:round;isolation:isolate;opacity:0.63;}</style>
    <style
       id="style2-2">.a{fill:none;stroke:#b1b5bd;stroke-linecap:round;stroke-linejoin:round;isolation:isolate;opacity:.63}</style>
  </defs>
  <path
     inkscape:connector-curvature="0"
     id="path863"
     d="m 111.033,164.612 c 1.935,-6.4 3.072,-12.63 3.065,-17.076 -5.228,-2.028 -8.468,-3.595 -13.135,-4.962 -5.288,6.603 -8.157,13.312 -8.757,20.724 5.481,1.931 10.8,2.917 18.827,1.314 z"
     style="fill:#56595b;stroke-width:1.01479471" />
  <path
     inkscape:connector-curvature="0"
     id="path863-8"
     d="m 160.655,163.152 c -1.935,-6.4 -3.072,-12.63 -3.065,-17.076 5.228,-2.027 7.447,-2.573 12.113,-3.94 6.164,5.873 9.47,12.728 9.779,21.162 -6.21,1.493 -11.675,1.166 -18.827,-0.146 z"
     style="fill:#56595b;stroke-width:1.01479471" />
  <path
     inkscape:connector-curvature="0"
     id="path880"
     d="m 132.726,186.062 c 0.509,-13.183 -0.619,-20.743 -0.619,-20.743 l -3.818,-0.516 1.238,-4.334 15.377,0.413 0.516,2.373 -3.406,0.516 c 0,0 -0.887,11.703 -0.825,21.053 5.065,5.392 17.582,6.305 22.188,0.516 -0.084,-15.721 -6.296,-24.665 -6.296,-24.665 l -4.437,1.135 -0.723,-2.27 4.128,-0.722 0.413,-13.571 8.901,-0.929 c 0,0 2.549,-26.407 2.637,-46.414 -18.404,-3.504 -49.193,-2.319 -64.63,1.835 l 4.963,45.754 8.684,1.386 1.313,12.333 3.065,0.802 -0.73,2.262 -4.962,-0.948 c 0,0 -3.58,8.72 -5.619,19.63 1.315,3.491 9.414,6.056 9.414,6.056 0,0 10.265,2.33 13.228,-0.952 z"
     style="fill:#56595b;stroke:none;stroke-width:1.01479471px;stroke-linecap:butt;stroke-linejoin:miter;stroke-opacity:1" />
  <path
     inkscape:connector-curvature="0"
     id="path882"
     d="m 124.898,103.971 1.313,14.522 29.555,-0.073 0.583,-14.376 c 0,0 -14.446,-2.55 -31.451,-0.073 z"
     style="fill:#f9de81;stroke:none;stroke-width:1.01479471px;stroke-linecap:butt;stroke-linejoin:miter;stroke-opacity:1" />
  <path
     inkscape:connector-curvature="0"
     id="rect847"
     d="m 70,158.21 c -3.405616,-0.002 -6.786954,0.57303 -10,1.702 V 272 h 10 132 10 V 162.547 c -1.3218,-0.22202 -2.65969,-0.3344 -4,-0.336 -9.53076,-0.0201 -18.16583,5.61433 -21.986,14.346 -1.98328,-0.37014 -3.99647,-0.5566 -6.014,-0.557 -8.775,0 -16.579,3.427 -21.705,8.809 -3.657,-1.657 -7.84,-2.598 -12.295,-2.598 -4.09,0 -7.951,0.793 -11.387,2.205 -3.69728,-2.58487 -8.10175,-3.96666 -12.613,-3.957 -2.991,0 -5.838,0.594 -8.434,1.666 -3.76188,-7.31984 -11.30307,-11.91953 -19.533,-11.914 -5.664048,-7.57371 -14.57562,-12.02338 -24.033,-12 z"
     style="opacity:1;vector-effect:none;fill:#54688c;fill-opacity:1;fill-rule:evenodd;stroke:none;paint-order:stroke fill markers"
     sodipodi:nodetypes="cccccccccccscccccc" />
  <path
     inkscape:connector-curvature="0"
     id="rect847-8"
     d="m 70,158.21 c -3.405616,-0.002 -6.786954,0.57303 -10,1.702 L 0,192 v 80 h 272 v -88 c 0,0 -40,-21.453 -60,-21.453 -1.34032,0 -2.65969,-0.3344 -4,-0.336 -9.53076,-0.0201 -18.16583,5.61433 -21.986,14.34599 -1.98328,-0.37014 -3.99647,-0.5566 -6.014,-0.557 -8.775,0 -16.579,3.427 -21.705,8.809 -3.657,-1.657 -7.84,-2.598 -12.295,-2.598 -4.09,0 -7.951,0.793 -11.387,2.205 -3.69728,-2.58487 -8.10175,-3.96666 -12.613,-3.957 -2.991,0 -5.838,0.594 -8.434,1.666 -3.76188,-7.31984 -11.30307,-11.91953 -19.533,-11.914 C 88.368952,162.63729 79.45738,158.18762 70,158.211 Z"
     style="opacity:1;vector-effect:none;fill:#54688c;fill-opacity:1;fill-rule:evenodd;stroke:none;paint-order:stroke fill markers"
     sodipodi:nodetypes="ccccccsccccscccccc" />
  <rect
     style="opacity:1;vector-effect:none;fill:#54688c;fill-opacity:1;fill-rule:evenodd;stroke:none;stroke-width:16;stroke-linecap:round;stroke-linejoin:round;stroke-miterlimit:4;stroke-dasharray:none;paint-order:stroke fill markers"
     id="rect873"
     width="68"
     height="68"
     x="-16"
     y="136"
     ry="34" />
  <rect
     style="opacity:1;vector-effect:none;fill:#54688c;fill-opacity:1;fill-rule:evenodd;stroke:none;stroke-width:16;stroke-linecap:round;stroke-linejoin:round;stroke-miterlimit:4;stroke-dasharray:none;paint-order:stroke fill markers"
     id="rect873-0"
     width="68"
     height="68"
     x="220"
     y="136"
     ry="34" />
</svg>
