<?xml version="1.0" encoding="UTF-8" standalone="no"?>
<svg
   xmlns:dc="http://purl.org/dc/elements/1.1/"
   xmlns:cc="http://creativecommons.org/ns#"
   xmlns:rdf="http://www.w3.org/1999/02/22-rdf-syntax-ns#"
   xmlns:svg="http://www.w3.org/2000/svg"
   xmlns="http://www.w3.org/2000/svg"
   xmlns:sodipodi="http://sodipodi.sourceforge.net/DTD/sodipodi-0.dtd"
   xmlns:inkscape="http://www.inkscape.org/namespaces/inkscape"
   viewBox="0 0 272 272"
   version="1.1"
   id="svg16"
   sodipodi:docname="rooms_of_doom_fg.svg"
   inkscape:version="0.92.4 (5da689c313, 2019-01-14)"
   width="272"
   height="272">
  <metadata
     id="metadata20">
    <rdf:RDF>
      <cc:Work
         rdf:about="">
        <dc:format>image/svg+xml</dc:format>
        <dc:type
           rdf:resource="http://purl.org/dc/dcmitype/StillImage" />
        <dc:title></dc:title>
      </cc:Work>
    </rdf:RDF>
  </metadata>
  <sodipodi:namedview
     pagecolor="#ffffff"
     bordercolor="#666666"
     borderopacity="1"
     objecttolerance="10"
     gridtolerance="10"
     guidetolerance="10"
     inkscape:pageopacity="0"
     inkscape:pageshadow="2"
     inkscape:window-width="1920"
     inkscape:window-height="1017"
     id="namedview18"
     showgrid="true"
     inkscape:zoom="3.5897552"
     inkscape:cx="83.801521"
     inkscape:cy="114.69163"
     inkscape:window-x="-8"
     inkscape:window-y="-8"
     inkscape:window-maximized="1"
     inkscape:current-layer="svg16"
     inkscape:snap-global="true"
     showguides="false">
    <inkscape:grid
       type="xygrid"
       id="grid827"
       spacingx="4"
       spacingy="4" />
  </sodipodi:namedview>
  <defs
     id="defs4">
    <style
       id="style2">.a{fill:none;stroke:#b1b5bd;stroke-linecap:round;stroke-linejoin:round;isolation:isolate;opacity:0.63;}</style>
    <style
       id="style2-4">.a{fill:none;stroke:#b1b5bd;stroke-linecap:round;stroke-linejoin:round;isolation:isolate;opacity:.63}</style>
  </defs>
  <path
     inkscape:connector-curvature="0"
     id="path833-6-3-5"
     d="M 119.895,119.895 136,116 152.105,119.895 136,136 Z"
     style="fill:#ffffff;stroke-width:4.02631569"
     sodipodi:nodetypes="ccccc" />
  <path
     inkscape:connector-curvature="0"
     id="path833-6-3"
     d="M 71.579,119.895 88,116 103.789,119.895 87.684,136 Z"
     style="fill:#ffffff;stroke-width:4.02631569"
     sodipodi:nodetypes="ccccc" />
  <path
     inkscape:connector-curvature="0"
     id="path833-6-3-6"
     d="M 168.21,119.895 184,116 200.421,119.895 184.316,136 Z"
     style="fill:#ffffff;stroke-width:4.02631569"
     sodipodi:nodetypes="ccccc" />
  <rect
     style="opacity:1;vector-effect:none;fill:#f9de81;fill-opacity:1;fill-rule:evenodd;stroke:none;stroke-width:10.62737846;stroke-linecap:round;stroke-linejoin:round;stroke-miterlimit:4;stroke-dasharray:none;paint-order:stroke fill markers"
     id="rect879"
     width="272"
     height="120"
     x="0"
     y="0" />
  <path
     inkscape:connector-curvature="0"
     id="path835-3-7-8"
     d="m 156,100 c 0,0 7.684,-32.814996 43.922,-32.412996 8.051,0.089 12.078,7.65 12.078,7.65 0,0 4,4.763 4,8.763 0,12 -4,15.395 -4,15.395 0,0 -8.053,12.078996 -24.158,12.078996 C 167.711,111.474 156,100 156,100 Z"
     style="fill:#98dc9a;stroke-width:4.02631569"
     sodipodi:nodetypes="cccccsc" />
  <path
     inkscape:connector-curvature="0"
     id="path833-6"
     d="m 119.895,99.395 h 32.21 L 136,115.5 Z"
     style="fill:#c39a54;stroke-width:4.02631569" />
  <path
     inkscape:connector-curvature="0"
     id="path835-3-7"
     d="M 116,100 C 116,100 108.316,67.185 72.078,67.587 64.027,67.676 60,75.237 60,75.237 c 0,0 -4,4.763 -4,8.763 0,12 4,15.395 4,15.395 0,0 8.053,12.079 24.158,12.079 C 104.289,111.474 116,100 116,100 Z"
     style="fill:#98dc9a;stroke-width:4.02631569"
     sodipodi:nodetypes="cccccsc" />
  <path
     inkscape:connector-curvature="0"
     id="path950"
     d="m 84.158,91.342 c 0,-8.052 6.04,-16.105 6.04,-16.105 0,0 6.039,8.053 6.039,16.105 0,8.053 -6.04,16.106 -6.04,16.106 0,0 -6.04,-8.053 -6.04,-16.106 z"
     style="fill:#4a4a4a;stroke-width:4.02631569" />
  <path
     inkscape:connector-curvature="0"
     id="path950-9"
     d="m 175.763,91.342 c 0,-8.052 6.04,-16.105 6.04,-16.105 0,0 6.04,8.053 6.04,16.105 0,8.053 -6.04,16.106 -6.04,16.106 0,0 -6.04,-8.053 -6.04,-16.106 z"
     style="fill:#4a4a4a;stroke-width:4.02631569" />
  <style
     type="text/css"
     id="style853">.st0{fill:#898989}.st1{fill:#fff}</style>
  <rect
     style="opacity:1;vector-effect:none;fill:#f9de81;fill-opacity:1;fill-rule:evenodd;stroke:none;stroke-width:16;stroke-linecap:round;stroke-linejoin:round;stroke-miterlimit:4;stroke-dasharray:none;paint-order:stroke fill markers"
     id="rect910"
     width="272"
     height="76"
     x="0"
     y="196" />
</svg>
