<?xml version="1.0" encoding="UTF-8" standalone="no"?>
<svg
   xmlns:dc="http://purl.org/dc/elements/1.1/"
   xmlns:cc="http://creativecommons.org/ns#"
   xmlns:rdf="http://www.w3.org/1999/02/22-rdf-syntax-ns#"
   xmlns:svg="http://www.w3.org/2000/svg"
   xmlns="http://www.w3.org/2000/svg"
   xmlns:sodipodi="http://sodipodi.sourceforge.net/DTD/sodipodi-0.dtd"
   xmlns:inkscape="http://www.inkscape.org/namespaces/inkscape"
   viewBox="0 0 272 272"
   version="1.1"
   id="svg16"
   sodipodi:docname="schildichat_fg.svg"
   inkscape:version="0.92.4 (5da689c313, 2019-01-14)"
   width="272"
   height="272">
  <metadata
     id="metadata20">
    <rdf:RDF>
      <cc:Work
         rdf:about="">
        <dc:format>image/svg+xml</dc:format>
        <dc:type
           rdf:resource="http://purl.org/dc/dcmitype/StillImage" />
        <dc:title></dc:title>
      </cc:Work>
    </rdf:RDF>
  </metadata>
  <sodipodi:namedview
     pagecolor="#ffffff"
     bordercolor="#666666"
     borderopacity="1"
     objecttolerance="10"
     gridtolerance="10"
     guidetolerance="10"
     inkscape:pageopacity="0"
     inkscape:pageshadow="2"
     inkscape:window-width="1920"
     inkscape:window-height="1017"
     id="namedview18"
     showgrid="true"
     inkscape:zoom="2.9945397"
     inkscape:cx="59.840745"
     inkscape:cy="124.57134"
     inkscape:window-x="-8"
     inkscape:window-y="-8"
     inkscape:window-maximized="1"
     inkscape:current-layer="svg16"
     inkscape:snap-global="false">
    <inkscape:grid
       type="xygrid"
       id="grid827"
       spacingx="4"
       spacingy="4" />
  </sodipodi:namedview>
  <defs
     id="defs4">
    <style
       id="style2">.a{fill:none;stroke:#b1b5bd;stroke-linecap:round;stroke-linejoin:round;isolation:isolate;opacity:0.63;}</style>
    <style
       id="style2-4">.a{fill:none;stroke:#b1b5bd;stroke-linecap:round;stroke-linejoin:round;isolation:isolate;opacity:0.63;}</style>
  </defs>
  <circle
     class="a"
     cx="136"
     cy="134.51576"
     r="22.956305"
     id="circle10"
     style="opacity:0.62999998;isolation:isolate;fill:none;stroke:#b1b5bd;stroke-width:0.62893981;stroke-linecap:round;stroke-linejoin:round" />
  <path
     inkscape:connector-curvature="0"
     d="m 136,101.81089 -12.5788,2.51576 -7.54728,5.03152 -7.54727,10.06303 -12.578797,32.70488 7.547277,2.51576 h 10.06304 l 15.09456,7.54728 H 136 h 7.54727 l 15.09456,-7.54728 h 10.06304 l 7.54728,-2.51576 -12.5788,-32.70488 -7.54727,-10.06303 -7.54728,-5.03152 z"
     style="fill:#98dc9a;stroke:#71a372;stroke-width:5.03151846;stroke-linecap:round;stroke-linejoin:round"
     id="path828" />
  <path
     inkscape:connector-curvature="0"
     d="m 156.15752,111.8582 a 2.516011,2.516011 0 0 0 -1.13876,0.2727 c 0,0 -4.9061,2.29035 -7.64414,4.49472 -1.4639,1.1785 -3.02619,2.91224 -4.17898,4.27604 -0.32566,-0.15592 -0.65517,-0.28884 -0.97781,-0.4066 -1.31015,-0.47812 -2.67633,-0.71704 -3.96038,-0.86724 -0.5706,-0.0668 -1.11662,-0.10827 -1.6387,-0.14126 a 2.516011,2.516011 0 0 0 -0.52207,-0.0626 c 0,0 -0.57161,-0.009 -1.17555,-0.009 -0.0907,-10e-4 -0.0951,-4.3e-4 -0.17936,-10e-4 -0.0842,6.3e-4 -0.0885,-2.6e-4 -0.17934,10e-4 -0.60396,-6.2e-4 -1.17554,0.009 -1.17554,0.009 a 2.516011,2.516011 0 0 0 -0.52331,0.0626 c -0.5217,0.033 -1.0673,0.0746 -1.63744,0.14126 -1.28404,0.1502 -2.65023,0.38913 -3.96037,0.86724 -0.32267,0.11776 -0.65216,0.25068 -0.97781,0.4066 -1.15279,-1.3638 -2.71514,-3.09754 -4.17899,-4.27604 -2.73822,-2.20437 -7.64414,-4.49472 -7.64414,-4.49472 a 2.516011,2.516011 0 0 0 -1.21486,-0.27147 2.516011,2.516011 0 0 0 -0.9987,4.7895 c 0,0 5.12581,2.62652 6.70325,3.89647 0.99599,0.80178 2.83437,2.90628 3.98735,4.26006 -3.3974,6.6806 -14.35241,28.71614 -14.35241,28.71614 a 2.516074,2.516074 0 1 0 4.50579,2.24061 c 0,0 12.14482,-24.43055 14.86374,-29.73314 a 2.516011,2.516011 0 0 0 0.2555,-0.40291 c 0.0962,-0.067 0.3256,-0.24089 0.77637,-0.40537 0.71435,-0.2607 1.77222,-0.47317 2.82042,-0.59577 1.03881,-0.12152 2.04939,-0.16473 2.80808,-0.17812 0.0645,3.5e-4 0.0528,-0.001 0.12285,-0.001 0.07,-6.3e-4 0.0583,0.001 0.12283,0.001 0.75875,0.0134 1.76927,0.0566 2.80809,0.17812 1.04819,0.1226 2.10607,0.33507 2.82042,0.59577 0.45201,0.16494 0.68201,0.33881 0.77755,0.40537 a 2.516011,2.516011 0 0 0 0.25429,0.40291 c 2.71871,5.30285 14.86374,29.73314 14.86374,29.73314 a 2.516074,2.516074 0 1 0 4.50578,-2.24061 c 0,0 -10.95551,-22.03554 -14.3524,-28.71614 1.15296,-1.35385 2.99142,-3.45828 3.98735,-4.26006 1.57756,-1.27001 6.70325,-3.89647 6.70325,-3.89647 a 2.516011,2.516011 0 0 0 -1.07486,-4.79076 z"
     style="color:#000000;font-variant-ligatures:normal;font-variant-position:normal;font-variant-caps:normal;font-variant-numeric:normal;font-variant-alternates:normal;font-feature-settings:normal;text-indent:0;text-decoration:none;text-decoration-line:none;text-decoration-style:solid;text-decoration-color:#000000;text-transform:none;text-orientation:mixed;dominant-baseline:auto;white-space:normal;shape-padding:0;isolation:auto;mix-blend-mode:normal;solid-color:#000000;fill:#71a372;stroke-width:0.62893981;color-rendering:auto;image-rendering:auto;shape-rendering:auto"
     id="path830" />
</svg>
