<?xml version="1.0" encoding="UTF-8" standalone="no"?>
<svg
   xmlns:dc="http://purl.org/dc/elements/1.1/"
   xmlns:cc="http://creativecommons.org/ns#"
   xmlns:rdf="http://www.w3.org/1999/02/22-rdf-syntax-ns#"
   xmlns:svg="http://www.w3.org/2000/svg"
   xmlns="http://www.w3.org/2000/svg"
   xmlns:sodipodi="http://sodipodi.sourceforge.net/DTD/sodipodi-0.dtd"
   xmlns:inkscape="http://www.inkscape.org/namespaces/inkscape"
   viewBox="0 0 272 272"
   version="1.1"
   id="svg16"
   sodipodi:docname="spotify_fg.svg"
   inkscape:version="0.92.4 (5da689c313, 2019-01-14)"
   width="272"
   height="272">
  <metadata
     id="metadata20">
    <rdf:RDF>
      <cc:Work
         rdf:about="">
        <dc:format>image/svg+xml</dc:format>
        <dc:type
           rdf:resource="http://purl.org/dc/dcmitype/StillImage" />
        <dc:title></dc:title>
      </cc:Work>
    </rdf:RDF>
  </metadata>
  <sodipodi:namedview
     pagecolor="#ffffff"
     bordercolor="#666666"
     borderopacity="1"
     objecttolerance="10"
     gridtolerance="10"
     guidetolerance="10"
     inkscape:pageopacity="0"
     inkscape:pageshadow="2"
     inkscape:window-width="1920"
     inkscape:window-height="1017"
     id="namedview18"
     showgrid="true"
     inkscape:zoom="2.9945397"
     inkscape:cx="59.840745"
     inkscape:cy="135.89403"
     inkscape:window-x="-8"
     inkscape:window-y="-8"
     inkscape:window-maximized="1"
     inkscape:current-layer="svg16"
     inkscape:snap-global="true">
    <inkscape:grid
       type="xygrid"
       id="grid827"
       spacingx="4"
       spacingy="4" />
  </sodipodi:namedview>
  <defs
     id="defs4">
    <style
       id="style2">.a{fill:none;stroke:#b1b5bd;stroke-linecap:round;stroke-linejoin:round;isolation:isolate;opacity:0.63;}</style>
  </defs>
  <g
     style="fill-opacity:0.25;fill-rule:nonzero"
     transform="rotate(-45,206.52452,-41.376823)"
     id="g828">
    <path
       inkscape:connector-curvature="0"
       d="M 56.965,61.236 H 56.9585 C 56.9585,47.908 52.0713,34.902 43.2915,25.3 33.793347,14.913 20.363547,9.041 4.1795474,9.041 V 9.028364 c -2.3376,-0.17411 -4.18,-2.1258 -4.18,-4.5079 0,-2.3821 1.8424,-4.3338 4.18,-4.5079 V -7.2e-5 c 0.09111,2e-12 0.18215,1.6432e-4 0.27313,4.9279e-4 0.02244,-3.2815e-4 0.044919,-4.9279e-4 0.067437,-4.9279e-4 0.037325,0 0.074544,4.5236e-4 0.11165,0.0013519 18.5159996,0.11081 34.2049996,7.0292 45.3319996,19.1980001 10.328,11.295 16.036,26.485 16.036,42.037 h -0.0065 c 0.0043,0.08066 0.0065,0.16189 0.0065,0.24362 0,2.4966 -2.0239,4.5205 -4.5205,4.5205 -2.4966,0 -4.5205,-2.0239 -4.5205,-4.5205 0,-0.08173 0.0022,-0.16296 0.0065,-0.24362 z"
       id="path824" />
    <path
       inkscape:connector-curvature="0"
       d="m 38.072,61.511 h -0.16734 v -1.3562 c 0,-8.4665 -3.1138,-16.68 -8.6314,-22.714 -6.0879,-6.6578 -14.616,-10.25 -24.716,-10.25 h -1.3562 v -0.29746 c -1.6091,-0.63123 -2.7485,-2.1981 -2.7485,-4.0311 0,-1.833 1.1393,-3.3999 2.7485,-4.0311 v -0.29746 h 1.3562 c 0.057707,0 0.11538,9.8e-5 0.17302,2.93e-4 0.016949,-1.95e-4 0.033922,-2.93e-4 0.050917,-2.93e-4 0.031207,0 0.062337,3.3e-4 0.093387,9.87e-4 12.381,0.07713 23.113,4.6701 30.788,13.064 6.9865,7.6404 10.9,17.939 10.9,28.556 v 1.3562 h -0.16734 c -0.51894,1.8089 -2.1855,3.1326 -4.1612,3.1326 -1.9757,0 -3.6423,-1.3237 -4.1612,-3.1326 z"
       id="path826" />
  </g>
</svg>
