<?xml version="1.0" encoding="UTF-8" standalone="no"?>
<svg
   xmlns:dc="http://purl.org/dc/elements/1.1/"
   xmlns:cc="http://creativecommons.org/ns#"
   xmlns:rdf="http://www.w3.org/1999/02/22-rdf-syntax-ns#"
   xmlns:svg="http://www.w3.org/2000/svg"
   xmlns="http://www.w3.org/2000/svg"
   xmlns:sodipodi="http://sodipodi.sourceforge.net/DTD/sodipodi-0.dtd"
   xmlns:inkscape="http://www.inkscape.org/namespaces/inkscape"
   viewBox="0 0 272 272"
   version="1.1"
   id="svg16"
   sodipodi:docname="twitter_fg.svg"
   inkscape:version="0.92.4 (5da689c313, 2019-01-14)"
   width="272"
   height="272">
  <metadata
     id="metadata20">
    <rdf:RDF>
      <cc:Work
         rdf:about="">
        <dc:format>image/svg+xml</dc:format>
        <dc:type
           rdf:resource="http://purl.org/dc/dcmitype/StillImage" />
        <dc:title></dc:title>
      </cc:Work>
    </rdf:RDF>
  </metadata>
  <sodipodi:namedview
     pagecolor="#ffffff"
     bordercolor="#666666"
     borderopacity="1"
     objecttolerance="10"
     gridtolerance="10"
     guidetolerance="10"
     inkscape:pageopacity="0"
     inkscape:pageshadow="2"
     inkscape:window-width="1920"
     inkscape:window-height="1017"
     id="namedview18"
     showgrid="true"
     inkscape:zoom="2.5383403"
     inkscape:cx="12.943986"
     inkscape:cy="100.74203"
     inkscape:window-x="-8"
     inkscape:window-y="-8"
     inkscape:window-maximized="1"
     inkscape:current-layer="svg16"
     inkscape:snap-global="false">
    <inkscape:grid
       type="xygrid"
       id="grid827"
       spacingx="4"
       spacingy="4" />
  </sodipodi:namedview>
  <defs
     id="defs4">
    <style
       id="style2">.a{fill:none;stroke:#b1b5bd;stroke-linecap:round;stroke-linejoin:round;isolation:isolate;opacity:0.63;}</style>
    <style
       id="style2-2">.a{fill:none;stroke:#b1b5bd;stroke-linecap:round;stroke-linejoin:round;isolation:isolate;opacity:0.63;}</style>
  </defs>
  <path
     id="path822"
     d="m 175.77491,108.99985 c 0.0136,0.22724 -0.23589,1.14624 -0.31542,1.36532 -0.81626,2.24158 -3.95545,4.10316 -6.33444,4.55038 -0.005,9.5e-4 -0.0113,0.002 -0.0159,0.003 2.05065,-0.85446 3.7691,-2.50106 4.64752,-4.73174 0.65627,-1.66569 0.75037,-3.41322 0.37451,-5.03451 -0.0655,0.24952 -0.14499,0.49857 -0.2418,0.74489 -1.32937,3.37369 -5.43438,4.91625 -8.51601,3.70183 -0.18816,-0.0741 -0.3595,-0.16362 -0.3595,-0.16362 -0.11181,-0.0973 -0.23543,-0.17816 -0.36496,-0.24951 -4.17679,-4.25631 -10.51537,-6.1076 -16.61835,-4.26041 -7.91506,2.3961 -13.27628,11.03488 -11.92481,18.25465 -0.35133,0.16499 -0.69083,0.35314 -1.01307,0.57128 0,0 -0.66128,0.25088 -1.3771,0.43813 -11.72096,3.06102 -25.95205,-4.33402 -29.30379,-17.16685 -0.24452,-0.93714 -0.42358,-1.87525 -0.5531,-2.81148 -2.07385,5.7229 -2.49655,12.11072 -0.84171,18.44607 1.08578,4.15724 2.96282,7.89804 5.42702,11.10298 -2.38607,-0.83991 -4.64477,-2.11568 -6.63584,-3.86775 -0.6513,-0.57312 -1.25442,-1.18033 -1.819802,-1.8107 1.328502,5.28991 4.216772,10.24574 8.620932,14.12113 1.96342,1.72754 4.1045,3.12143 6.35146,4.20177 -3.32823,0.17589 -6.7228,-0.52996 -9.7529,-2.32109 -0.62632,-0.36996 -1.21802,-0.77536 -1.78207,-1.20625 1.92159,4.14818 5.07547,7.77701 9.3084,10.27886 2.74558,1.623 5.68837,2.61743 8.66187,3.03147 -5.93686,4.44723 -13.19989,7.19907 -21.04316,7.19907 -1.464846,0 -2.906038,-0.0968 -4.32542,-0.26542 7.58145,5.22224 16.76744,8.28225 26.66944,8.28225 25.99944,0 47.07805,-21.07676 47.07805,-47.07804 0,0 -0.003,-1.74435 -0.29134,-4.0809 3.5196,-0.93217 5.44957,-4.17951 6.18121,-6.20928 0.40995,-1.13624 0.87355,-3.78317 0.11225,-5.03727"
     inkscape:connector-curvature="0"
     style="fill:#ffffff;fill-rule:evenodd;stroke-width:0.46015102" />
</svg>
