<?xml version="1.0" encoding="UTF-8" standalone="no"?>
<svg
   xmlns:dc="http://purl.org/dc/elements/1.1/"
   xmlns:cc="http://creativecommons.org/ns#"
   xmlns:rdf="http://www.w3.org/1999/02/22-rdf-syntax-ns#"
   xmlns:svg="http://www.w3.org/2000/svg"
   xmlns="http://www.w3.org/2000/svg"
   xmlns:sodipodi="http://sodipodi.sourceforge.net/DTD/sodipodi-0.dtd"
   xmlns:inkscape="http://www.inkscape.org/namespaces/inkscape"
   viewBox="0 0 272 272"
   version="1.1"
   id="svg16"
   sodipodi:docname="wallcanic_walls_fg.svg"
   inkscape:version="0.92.4 (5da689c313, 2019-01-14)"
   width="272"
   height="272">
  <metadata
     id="metadata20">
    <rdf:RDF>
      <cc:Work
         rdf:about="">
        <dc:format>image/svg+xml</dc:format>
        <dc:type
           rdf:resource="http://purl.org/dc/dcmitype/StillImage" />
        <dc:title></dc:title>
      </cc:Work>
    </rdf:RDF>
  </metadata>
  <sodipodi:namedview
     pagecolor="#ffffff"
     bordercolor="#666666"
     borderopacity="1"
     objecttolerance="10"
     gridtolerance="10"
     guidetolerance="10"
     inkscape:pageopacity="0"
     inkscape:pageshadow="2"
     inkscape:window-width="1920"
     inkscape:window-height="1017"
     id="namedview18"
     showgrid="true"
     inkscape:zoom="2.9945397"
     inkscape:cx="152.99313"
     inkscape:cy="223.05394"
     inkscape:window-x="-8"
     inkscape:window-y="-8"
     inkscape:window-maximized="1"
     inkscape:current-layer="svg16"
     inkscape:snap-global="true">
    <inkscape:grid
       type="xygrid"
       id="grid827"
       spacingx="4"
       spacingy="4" />
  </sodipodi:namedview>
  <defs
     id="defs4">
    <style
       id="style2">.a{fill:none;stroke:#b1b5bd;stroke-linecap:round;stroke-linejoin:round;isolation:isolate;opacity:0.63;}</style>
  </defs>
  <rect
     width="48"
     height="48"
     x="52"
     y="48"
     ry="24"
     style="opacity:1;vector-effect:none;fill:#ff837d;fill-opacity:1;fill-rule:evenodd;stroke:none;stroke-width:8;stroke-linecap:round;stroke-linejoin:round;stroke-miterlimit:4;stroke-dasharray:none;paint-order:stroke fill markers"
     id="rect824" />
  <rect
     width="40"
     height="40"
     x="72"
     y="80"
     ry="20"
     style="opacity:1;vector-effect:none;fill:#ff837d;fill-opacity:1;fill-rule:evenodd;stroke:none;stroke-width:8;stroke-linecap:round;stroke-linejoin:round;stroke-miterlimit:4;stroke-dasharray:none;paint-order:stroke fill markers"
     id="rect826" />
  <path
     inkscape:connector-curvature="0"
     style="opacity:1;vector-effect:none;fill:#ff837d;fill-opacity:1;fill-rule:evenodd;stroke:none;stroke-width:7.33333349;stroke-linecap:round;stroke-linejoin:round;stroke-miterlimit:4;stroke-dasharray:none;paint-order:stroke fill markers"
     d="m 86.77539,-44 c 10.34162,0 18.96996,7.06635 21.34766,16.652344 9.58599,2.377701 16.65234,11.006032 16.65234,21.347656 0,3.203633 -0.6835,6.240198 -1.9043,8.980469 3.6643,3.926608 5.9043,9.20022 5.9043,15.019531 0,0.129142 -0.008,0.256166 -0.01,0.384766 7.1386,3.628337 12.01,11.029792 12.01,19.615234 0,12.188 -9.812,22 -22,22 -3.39361,0 -6.60212,-0.76216 -9.4668,-2.12305 C 105.40514,63.97168 98.58031,68 90.77539,68 c -0.67482,0 -1.34101,-0.0349 -2,-0.0937 C 88.1164,67.9652 87.45021,68 86.77539,68 82.70646,68 78.9052,66.90268 75.64258,64.99219 72.73294,73.7306 64.51603,80 54.77539,80 44.65948,80 36.1864,73.23769 33.5957,63.9707 20.13528,63.3748 9.4006,52.640112 8.80469,39.179688 1.4359,37.119656 -4.34427,31.33949 -6.4043,23.970703 -20.25604,23.35747 -31.22461,12.008256 -31.22461,-2 c 0,-14.404 11.596,-26 26,-26 6.62048,0 12.64387,2.45382 17.22461,6.5 3.85988,-6.306735 10.80952,-10.5 18.77539,-10.5 0.39747,0 0.79144,0.01259 1.18359,0.0332 C 36.68729,-36.918734 43.35631,-40 50.77539,-40 57.39587,-40 63.41926,-37.54618 68,-33.5 71.85988,-39.806735 78.80952,-44 86.77539,-44 Z"
     id="rect838-6-2-8" />
  <rect
     width="48"
     height="48"
     x="84"
     y="52"
     ry="24"
     style="opacity:1;vector-effect:none;fill:#ffb0ac;fill-opacity:1;fill-rule:evenodd;stroke:none;stroke-width:8;stroke-linecap:round;stroke-linejoin:round;stroke-miterlimit:4;stroke-dasharray:none;paint-order:stroke fill markers"
     id="rect828" />
  <rect
     width="44"
     height="44"
     x="104"
     y="80"
     ry="22"
     style="opacity:1;vector-effect:none;fill:#ffb0ac;fill-opacity:1;fill-rule:evenodd;stroke:none;stroke-width:7.33333349;stroke-linecap:round;stroke-linejoin:round;stroke-miterlimit:4;stroke-dasharray:none;paint-order:stroke fill markers"
     id="rect832" />
  <rect
     width="48"
     height="48"
     x="112"
     y="48"
     ry="24"
     style="opacity:1;vector-effect:none;fill:#ffb0ac;fill-opacity:1;fill-rule:evenodd;stroke:none;stroke-width:8;stroke-linecap:round;stroke-linejoin:round;stroke-miterlimit:4;stroke-dasharray:none;paint-order:stroke fill markers"
     id="rect834" />
  <rect
     width="44"
     height="44"
     x="132"
     y="72"
     ry="22"
     style="opacity:1;vector-effect:none;fill:#ffb0ac;fill-opacity:1;fill-rule:evenodd;stroke:none;stroke-width:7.33333349;stroke-linecap:round;stroke-linejoin:round;stroke-miterlimit:4;stroke-dasharray:none;paint-order:stroke fill markers"
     id="rect836" />
  <path
     inkscape:connector-curvature="0"
     style="opacity:1;vector-effect:none;fill:#ffb0ac;fill-opacity:1;fill-rule:evenodd;stroke:none;stroke-width:7.33333349;stroke-linecap:round;stroke-linejoin:round;stroke-miterlimit:4;stroke-dasharray:none;paint-order:stroke fill markers"
     d="m 132.86719,-44 c -10.34162,0 -18.96996,7.06635 -21.34766,16.652344 C 101.93354,-24.969955 94.86719,-16.341624 94.86719,-6 c 0,3.203633 0.6835,6.240198 1.9043,8.980469 -3.6643,3.926608 -5.9043,9.20022 -5.9043,15.019531 0,0.129142 0.008,0.256166 0.01,0.384766 -7.1386,3.628337 -12.01,11.029792 -12.01,19.615234 0,12.188 9.812,22 22,22 3.39361,0 6.60212,-0.76216 9.4668,-2.12305 C 114.23744,63.97168 121.06227,68 128.86719,68 c 0.67482,0 1.34101,-0.0349 2,-0.0937 0.65899,0.0589 1.32518,0.0937 2,0.0937 C 136.93612,68 140.73738,66.90268 144,64.99219 146.90964,73.7306 155.12655,80 164.86719,80 c 10.11591,0 18.58899,-6.76231 21.17969,-16.0293 13.46042,-0.5959 24.1951,-11.330588 24.79101,-24.791012 7.36879,-2.060032 13.14896,-7.840198 15.20899,-15.208985 C 239.89862,23.35747 250.86719,12.008256 250.86719,-2 c 0,-14.404 -11.596,-26 -26,-26 -6.62048,0 -12.64387,2.45382 -17.22461,6.5 -3.85988,-6.306735 -10.80952,-10.5 -18.77539,-10.5 -0.39747,0 -0.79144,0.01259 -1.18359,0.0332 C 182.95529,-36.918734 176.28627,-40 168.86719,-40 c -6.62048,0 -12.64387,2.45382 -17.22461,6.5 C 147.7827,-39.806735 140.83306,-44 132.86719,-44 Z"
     id="rect838-6-2" />
  <rect
     width="44"
     height="44"
     x="120"
     y="64"
     ry="22"
     style="opacity:1;vector-effect:none;fill:#ffd6d4;fill-opacity:1;fill-rule:evenodd;stroke:none;stroke-width:7.33333349;stroke-linecap:round;stroke-linejoin:round;stroke-miterlimit:4;stroke-dasharray:none;paint-order:stroke fill markers"
     id="rect838" />
  <rect
     width="44"
     height="44"
     x="136"
     y="48"
     ry="22"
     style="opacity:1;vector-effect:none;fill:#ffd6d4;fill-opacity:1;fill-rule:evenodd;stroke:none;stroke-width:7.33333349;stroke-linecap:round;stroke-linejoin:round;stroke-miterlimit:4;stroke-dasharray:none;paint-order:stroke fill markers"
     id="rect840" />
  <rect
     width="44"
     height="44"
     x="152"
     y="76"
     ry="22"
     style="opacity:1;vector-effect:none;fill:#ffd6d4;fill-opacity:1;fill-rule:evenodd;stroke:none;stroke-width:7.33333349;stroke-linecap:round;stroke-linejoin:round;stroke-miterlimit:4;stroke-dasharray:none;paint-order:stroke fill markers"
     id="rect842" />
  <rect
     width="52"
     height="52"
     x="168"
     y="52"
     ry="26"
     style="opacity:1;vector-effect:none;fill:#ffd6d4;fill-opacity:1;fill-rule:evenodd;stroke:none;stroke-width:8.66666698;stroke-linecap:round;stroke-linejoin:round;stroke-miterlimit:4;stroke-dasharray:none;paint-order:stroke fill markers"
     id="rect844" />
  <rect
     width="12"
     height="12"
     x="88"
     y="124"
     ry="6"
     style="opacity:1;vector-effect:none;fill:#ffd6d4;fill-opacity:1;fill-rule:evenodd;stroke:none;stroke-width:8;stroke-linecap:round;stroke-linejoin:round;stroke-miterlimit:4;stroke-dasharray:none;paint-order:stroke fill markers"
     id="rect848" />
  <rect
     width="4"
     height="4"
     x="160"
     y="144"
     ry="2"
     style="opacity:1;vector-effect:none;fill:#ffd6d4;fill-opacity:1;fill-rule:evenodd;stroke:none;stroke-width:8;stroke-linecap:round;stroke-linejoin:round;stroke-miterlimit:4;stroke-dasharray:none;paint-order:stroke fill markers"
     id="rect854" />
  <path
     style="opacity:1;vector-effect:none;fill:#ffd6d4;fill-opacity:1;fill-rule:evenodd;stroke:none;stroke-width:7.33333349;stroke-linecap:round;stroke-linejoin:round;stroke-miterlimit:4;stroke-dasharray:none;paint-order:stroke fill markers"
     d="M 194 -44 C 183.65838 -44 175.03004 -36.93365 172.65234 -27.347656 C 163.06635 -24.969955 156 -16.341624 156 -6 C 156 -2.7963667 156.6835 0.24019777 157.9043 2.9804688 C 154.24 6.907077 152 12.180689 152 18 C 152 18.129142 152.00757 18.256166 152.00977 18.384766 C 144.8714 22.013103 140 29.414558 140 38 C 140 50.188 149.812 60 162 60 C 165.39361 60 168.60212 59.237845 171.4668 57.876953 C 175.37025 63.971678 182.19508 68 190 68 C 190.67482 68 191.34101 67.965146 192 67.90625 C 192.65899 67.965146 193.32518 68 194 68 C 198.06893 68 201.87019 66.902678 205.13281 64.992188 C 208.04245 73.730604 216.25936 80 226 80 C 236.11591 80 244.58899 73.237688 247.17969 63.970703 C 260.64011 63.374795 271.37479 52.640112 271.9707 39.179688 C 279.33949 37.119656 285.11966 31.33949 287.17969 23.970703 C 301.03143 23.35747 312 12.008256 312 -2 C 312 -16.404 300.404 -28 286 -28 C 279.37952 -28 273.35613 -25.54618 268.77539 -21.5 C 264.91551 -27.806735 257.96587 -32 250 -32 C 249.60253 -32 249.20856 -31.987409 248.81641 -31.966797 C 244.0881 -36.918734 237.41908 -40 230 -40 C 223.37952 -40 217.35613 -37.54618 212.77539 -33.5 C 208.91551 -39.806735 201.96587 -44 194 -44 z "
     id="rect838-6" />
</svg>
