<?xml version="1.0" encoding="UTF-8" standalone="no"?>
<svg
   xmlns:dc="http://purl.org/dc/elements/1.1/"
   xmlns:cc="http://creativecommons.org/ns#"
   xmlns:rdf="http://www.w3.org/1999/02/22-rdf-syntax-ns#"
   xmlns:svg="http://www.w3.org/2000/svg"
   xmlns="http://www.w3.org/2000/svg"
   xmlns:sodipodi="http://sodipodi.sourceforge.net/DTD/sodipodi-0.dtd"
   xmlns:inkscape="http://www.inkscape.org/namespaces/inkscape"
   viewBox="0 0 272 272"
   version="1.1"
   id="svg16"
   sodipodi:docname="xenowerk_fg.svg"
   inkscape:version="0.92.4 (5da689c313, 2019-01-14)"
   width="272"
   height="272">
  <metadata
     id="metadata20">
    <rdf:RDF>
      <cc:Work
         rdf:about="">
        <dc:format>image/svg+xml</dc:format>
        <dc:type
           rdf:resource="http://purl.org/dc/dcmitype/StillImage" />
        <dc:title></dc:title>
      </cc:Work>
    </rdf:RDF>
  </metadata>
  <sodipodi:namedview
     pagecolor="#ffffff"
     bordercolor="#666666"
     borderopacity="1"
     objecttolerance="10"
     gridtolerance="10"
     guidetolerance="10"
     inkscape:pageopacity="0"
     inkscape:pageshadow="2"
     inkscape:window-width="1920"
     inkscape:window-height="1017"
     id="namedview18"
     showgrid="true"
     inkscape:zoom="2.9945397"
     inkscape:cx="65.615728"
     inkscape:cy="90.352088"
     inkscape:window-x="-8"
     inkscape:window-y="-8"
     inkscape:window-maximized="1"
     inkscape:current-layer="svg16"
     inkscape:snap-global="true">
    <inkscape:grid
       type="xygrid"
       id="grid827"
       spacingx="4"
       spacingy="4" />
  </sodipodi:namedview>
  <defs
     id="defs4">
    <style
       id="style2">.a{fill:none;stroke:#b1b5bd;stroke-linecap:round;stroke-linejoin:round;isolation:isolate;opacity:0.63;}</style>
    <style
       id="style2-1">.a{fill:none;stroke:#b1b5bd;stroke-linecap:round;stroke-linejoin:round;isolation:isolate;opacity:0.63;}</style>
  </defs>
  <circle
     class="a"
     cx="136"
     cy="136"
     r="36.5"
     id="circle10"
     style="opacity:0.62999998;isolation:isolate;fill:none;stroke:#b1b5bd;stroke-linecap:round;stroke-linejoin:round" />
  <path
     inkscape:connector-curvature="0"
     style="opacity:1;fill:#ff837d;stroke:none;stroke-width:1px;stroke-linecap:butt;stroke-linejoin:miter;stroke-opacity:1"
     d="m 136,60 c 0,0 -56,0 -52,64 1.42123,22.73964 8,52 24,64 7.54247,5.65685 28,4 28,4 0,0 20.45753,1.65685 28,-4 16,-12 22.57877,-41.26036 24,-64 4,-64 -52,-64 -52,-64 z"
     id="path829" />
  <rect
     style="opacity:1;vector-effect:none;fill:#ba6561;fill-opacity:1;fill-rule:evenodd;stroke:none;stroke-width:8;stroke-linecap:round;stroke-linejoin:round;stroke-miterlimit:4;stroke-dasharray:none;paint-order:stroke fill markers"
     id="rect831"
     width="32"
     height="24"
     x="120"
     y="72"
     rx="16" />
  <rect
     style="opacity:1;vector-effect:none;fill:#ff837d;fill-opacity:1;fill-rule:evenodd;stroke:none;stroke-width:8;stroke-linecap:round;stroke-linejoin:round;stroke-miterlimit:4;stroke-dasharray:none;paint-order:stroke fill markers"
     id="rect833"
     width="24"
     height="16"
     x="124"
     y="76"
     rx="16" />
  <path
     inkscape:connector-curvature="0"
     style="fill:#ba6561;stroke:none;stroke-width:1px;stroke-linecap:butt;stroke-linejoin:miter;stroke-opacity:1"
     d="m 92,88 c -8,36 2.830078,53.67773 15.83008,61.67773 C 120.83008,157.67773 136,156 136,156 L 100,120 96,96 c -1.33333,-2.666667 -2.66667,-5.333333 -4,-8 z m 44,68 c 0,0 15.16992,1.67773 28.16992,-6.32227 C 177.16992,141.67773 188,124 180,88 c -1.33333,2.666667 -2.66667,5.333333 -4,8 l -4,24 z"
     id="path846" />
  <path
     style="fill:#96dfd3;stroke:none;stroke-width:1px;stroke-linecap:butt;stroke-linejoin:miter;stroke-opacity:1"
     d="m 96,96 c 0,0 -5.048567,22.20608 1.757812,37.29492 C 107.99946,155.99929 136,156 136,156 c 0,0 28.00054,-7.1e-4 38.24219,-22.70508 C 181.04857,118.20608 176,96 176,96 c 0,0 -1.68552,6.58044 -8.88477,12.33984 -10,8 -20.03915,11.66016 -31.11523,11.66016 -11.07609,0 -21.11523,-3.66016 -31.11523,-11.66016 C 97.685516,102.58044 96,96 96,96 Z"
     id="path835"
     inkscape:connector-curvature="0"
     sodipodi:nodetypes="cscscszsc" />
  <rect
     style="opacity:1;vector-effect:none;fill:#83868c;fill-opacity:1;fill-rule:evenodd;stroke:none;stroke-width:8;stroke-linecap:round;stroke-linejoin:round;stroke-miterlimit:4;stroke-dasharray:none;paint-order:stroke fill markers"
     id="rect854"
     width="40"
     height="19.999985"
     x="-176"
     y="164"
     ry="7.9999924"
     transform="scale(-1,1)" />
  <path
     style="fill:#a0a5af;stroke:none;stroke-width:1px;stroke-linecap:butt;stroke-linejoin:miter;stroke-opacity:1"
     d="m 136,156 v 40 h 12 c 0,0 4,0 4,-4 V 177.99998 L 156,164 c 0,0 4,-8 -8,-8 -4,0 -12,0 -12,0 z"
     id="path848"
     inkscape:connector-curvature="0"
     sodipodi:nodetypes="cccsccsc" />
  <path
     style="fill:#d2d2d2;stroke:none;stroke-width:1px;stroke-linecap:butt;stroke-linejoin:miter;stroke-opacity:1"
     d="m 148,156 c 3.682,0 5.85256,0.75468 7.09961,1.79883 L 144,180 h -8 v -24 z"
     id="path850"
     inkscape:connector-curvature="0" />
  <rect
     style="opacity:1;vector-effect:none;fill:#56595b;fill-opacity:1;fill-rule:evenodd;stroke:none;stroke-width:8;stroke-linecap:round;stroke-linejoin:round;stroke-miterlimit:4;stroke-dasharray:none;paint-order:stroke fill markers"
     id="rect852"
     width="4"
     height="25.876591"
     x="-144"
     y="164"
     ry="2"
     transform="scale(-1,1)" />
  <rect
     style="opacity:1;vector-effect:none;fill:#b1b5bd;fill-opacity:1;fill-rule:evenodd;stroke:none;stroke-width:8;stroke-linecap:round;stroke-linejoin:round;stroke-miterlimit:4;stroke-dasharray:none;paint-order:stroke fill markers"
     id="rect856"
     width="16"
     height="12"
     x="-172"
     y="168"
     ry="6"
     transform="scale(-1,1)" />
  <rect
     style="opacity:1;vector-effect:none;fill:#56595b;fill-opacity:1;fill-rule:evenodd;stroke:none;stroke-width:8;stroke-linecap:round;stroke-linejoin:round;stroke-miterlimit:4;stroke-dasharray:none;paint-order:stroke fill markers"
     id="rect858"
     width="8"
     height="8"
     x="-168"
     y="168"
     ry="4"
     transform="scale(-1,1)" />
  <rect
     style="opacity:1;vector-effect:none;fill:#83868c;fill-opacity:1;fill-rule:evenodd;stroke:none;stroke-width:8;stroke-linecap:round;stroke-linejoin:round;stroke-miterlimit:4;stroke-dasharray:none;paint-order:stroke fill markers"
     id="rect854-6"
     width="40"
     height="19.999985"
     x="96"
     y="164"
     ry="7.9999924" />
  <path
     style="fill:#a0a5af;stroke:none;stroke-width:1px;stroke-linecap:butt;stroke-linejoin:miter;stroke-opacity:1"
     d="m 136,156 v 40 h -12 c 0,0 -4,0 -4,-4 V 177.99998 L 116,164 c 0,0 -4,-8 8,-8 4,0 12,0 12,0 z"
     id="path848-8"
     inkscape:connector-curvature="0"
     sodipodi:nodetypes="cccsccsc" />
  <path
     style="fill:#d2d2d2;stroke:none;stroke-width:1px;stroke-linecap:butt;stroke-linejoin:miter;stroke-opacity:1"
     d="m 124,156 c -3.682,0 -5.85256,0.75468 -7.09961,1.79883 L 128,180 h 8 v -24 z"
     id="path850-2"
     inkscape:connector-curvature="0" />
  <rect
     style="opacity:1;vector-effect:none;fill:#56595b;fill-opacity:1;fill-rule:evenodd;stroke:none;stroke-width:8;stroke-linecap:round;stroke-linejoin:round;stroke-miterlimit:4;stroke-dasharray:none;paint-order:stroke fill markers"
     id="rect852-1"
     width="4"
     height="25.876591"
     x="128"
     y="164"
     ry="2" />
  <rect
     style="opacity:1;vector-effect:none;fill:#b1b5bd;fill-opacity:1;fill-rule:evenodd;stroke:none;stroke-width:8;stroke-linecap:round;stroke-linejoin:round;stroke-miterlimit:4;stroke-dasharray:none;paint-order:stroke fill markers"
     id="rect856-9"
     width="16"
     height="12"
     x="100"
     y="168"
     ry="6" />
  <rect
     style="opacity:1;vector-effect:none;fill:#56595b;fill-opacity:1;fill-rule:evenodd;stroke:none;stroke-width:8;stroke-linecap:round;stroke-linejoin:round;stroke-miterlimit:4;stroke-dasharray:none;paint-order:stroke fill markers"
     id="rect858-3"
     width="8"
     height="8"
     x="104"
     y="168"
     ry="4" />
</svg>
