<?xml version="1.0" encoding="UTF-8" standalone="no"?>
<svg
   xmlns:dc="http://purl.org/dc/elements/1.1/"
   xmlns:cc="http://creativecommons.org/ns#"
   xmlns:rdf="http://www.w3.org/1999/02/22-rdf-syntax-ns#"
   xmlns:svg="http://www.w3.org/2000/svg"
   xmlns="http://www.w3.org/2000/svg"
   xmlns:sodipodi="http://sodipodi.sourceforge.net/DTD/sodipodi-0.dtd"
   xmlns:inkscape="http://www.inkscape.org/namespaces/inkscape"
   viewBox="0 0 272 272"
   version="1.1"
   id="svg16"
   sodipodi:docname="xposed_installer_fg.svg"
   inkscape:version="0.92.4 (5da689c313, 2019-01-14)"
   width="272"
   height="272">
  <metadata
     id="metadata20">
    <rdf:RDF>
      <cc:Work
         rdf:about="">
        <dc:format>image/svg+xml</dc:format>
        <dc:type
           rdf:resource="http://purl.org/dc/dcmitype/StillImage" />
        <dc:title></dc:title>
      </cc:Work>
    </rdf:RDF>
  </metadata>
  <sodipodi:namedview
     pagecolor="#ffffff"
     bordercolor="#666666"
     borderopacity="1"
     objecttolerance="10"
     gridtolerance="10"
     guidetolerance="10"
     inkscape:pageopacity="0"
     inkscape:pageshadow="2"
     inkscape:window-width="1920"
     inkscape:window-height="1017"
     id="namedview18"
     showgrid="true"
     inkscape:zoom="2.5383403"
     inkscape:cx="36.580106"
     inkscape:cy="132.76744"
     inkscape:window-x="-8"
     inkscape:window-y="-8"
     inkscape:window-maximized="1"
     inkscape:current-layer="svg16"
     inkscape:snap-global="true">
    <inkscape:grid
       type="xygrid"
       id="grid827"
       spacingx="4"
       spacingy="4" />
  </sodipodi:namedview>
  <defs
     id="defs4">
    <style
       id="style2">.a{fill:none;stroke:#b1b5bd;stroke-linecap:round;stroke-linejoin:round;isolation:isolate;opacity:0.63;}</style>
    <style
       id="style2-6">.a{fill:none;stroke:#b1b5bd;stroke-linecap:round;stroke-linejoin:round;isolation:isolate;opacity:.63}</style>
  </defs>
  <path
     style="color:#000000;font-style:normal;font-variant:normal;font-weight:normal;font-stretch:normal;font-size:medium;line-height:normal;font-family:sans-serif;font-variant-ligatures:normal;font-variant-position:normal;font-variant-caps:normal;font-variant-numeric:normal;font-variant-alternates:normal;font-feature-settings:normal;text-indent:0;text-align:start;text-decoration:none;text-decoration-line:none;text-decoration-style:solid;text-decoration-color:#000000;letter-spacing:normal;word-spacing:normal;text-transform:none;writing-mode:lr-tb;direction:ltr;text-orientation:mixed;dominant-baseline:auto;baseline-shift:baseline;text-anchor:start;white-space:normal;shape-padding:0;clip-rule:evenodd;display:inline;overflow:visible;visibility:visible;opacity:1;isolation:auto;mix-blend-mode:normal;color-interpolation:sRGB;color-interpolation-filters:linearRGB;solid-color:#000000;solid-opacity:1;vector-effect:none;fill:#56595b;fill-opacity:1;fill-rule:evenodd;stroke:none;stroke-width:16;stroke-linecap:butt;stroke-linejoin:miter;stroke-miterlimit:4;stroke-dasharray:none;stroke-dashoffset:0;stroke-opacity:1;color-rendering:auto;image-rendering:auto;shape-rendering:auto;text-rendering:auto;enable-background:accumulate"
     d="m 141.96484,80 c -9.84647,0 -18,8.154711 -18,18 0,0.68019 0.11033,1.335876 0.18555,2 h -2.14258 c -9.84625,0 -17.97865,8.15718 -18,17.98242 v 0.01 0.3164 c -0.64421,-0.0694 -1.25561,-0.30949 -1.9082,-0.30859 -9.842702,0.004 -17.992188,8.15639 -17.992188,18 0,9.84625 8.153746,18 17.999998,18 0.61852,0 1.266,-0.2255 1.90039,-0.2832 V 154 c 0,9.84625 8.15375,18 18,18 h 35.95703 c 9.84626,0 18,-8.15375 18,-18 v -36 c 0,-9.22918 -7.18877,-16.88028 -16.19531,-17.81445 0.089,-0.726549 0.19603,-1.450895 0.19531,-2.189456 C 159.96266,88.15065 151.80956,80 141.96484,80 Z"
     id="path849" />
  <path
     inkscape:connector-curvature="0"
     id="path6"
     d="m 149.495,104.58 a 9.965,9.965 0 0 0 2.47,-6.58 c 0,-5.523 -4.478,-10 -10,-10 -5.524,0 -10,4.477 -10,10 0,2.52 0.931,4.821 2.468,6.58 0.26,0.38 0.531,0.9 0.531,1.42 0,1 -0.162,2 -1,2 h -11.957 c -5.523,0 -9.988,4.477 -10,10 v 11 c 0,2.146 -2.211,0.267 -3.897,-1 a 9.955,9.955 0 0 0 -6.002,-2 c -5.523,0 -10,4.477 -10,10 0,5.523 4.477,10 10,10 2.52,0 4.532,-0.606 6.005,-1.894 0.977,-0.977 3.894,-1.487 3.894,-0.106 v 10 c 0,5.523 4.477,10 10,10 h 35.957 c 5.523,0 10,-4.477 10,-10 v -36 c 0,-5.523 -4.477,-10 -10,-10 h -8 c -0.685,0 -1,-1 -1,-2 0,-0.52 0.271,-1.04 0.531,-1.42 z"
     style="clip-rule:evenodd;fill:#9abeff;fill-rule:evenodd;stroke:none;stroke-opacity:1;stroke-width:16;stroke-miterlimit:4;stroke-dasharray:none" />
  <path
     inkscape:connector-curvature="0"
     id="path8"
     d="M 155.158,149 145.753,135.005 154.528,122 h -7.83 l -4.635,7.29 -4.635,-7.29 h -7.83 l 8.775,13.005 -9.405,13.995 h 7.83 l 5.265,-8.325 5.265,8.325 z"
     style="clip-rule:evenodd;fill:#ffffff;fill-rule:evenodd" />
  <path
     style="color:#000000;font-style:normal;font-variant:normal;font-weight:normal;font-stretch:normal;font-size:medium;line-height:normal;font-family:sans-serif;font-variant-ligatures:normal;font-variant-position:normal;font-variant-caps:normal;font-variant-numeric:normal;font-variant-alternates:normal;font-feature-settings:normal;text-indent:0;text-align:start;text-decoration:none;text-decoration-line:none;text-decoration-style:solid;text-decoration-color:#000000;letter-spacing:normal;word-spacing:normal;text-transform:none;writing-mode:lr-tb;direction:ltr;text-orientation:mixed;dominant-baseline:auto;baseline-shift:baseline;text-anchor:start;white-space:normal;shape-padding:0;clip-rule:evenodd;display:inline;overflow:visible;visibility:visible;opacity:1;isolation:auto;mix-blend-mode:normal;color-interpolation:sRGB;color-interpolation-filters:linearRGB;solid-color:#000000;solid-opacity:1;vector-effect:none;fill:#56595b;fill-opacity:1;fill-rule:evenodd;stroke:none;stroke-width:16;stroke-linecap:butt;stroke-linejoin:miter;stroke-miterlimit:4;stroke-dasharray:none;stroke-dashoffset:0;stroke-opacity:1;color-rendering:auto;image-rendering:auto;shape-rendering:auto;text-rendering:auto;enable-background:accumulate"
     d="m 112.95312,150.42383 c -0.34848,0.27978 -0.8009,0.6572 -0.99023,0.6875 0.33239,-0.22522 0.67305,-0.43055 0.99023,-0.6875 z"
     id="path6-0" />
</svg>
