<?xml version="1.0" encoding="UTF-8" standalone="no"?>
<svg
   xmlns:dc="http://purl.org/dc/elements/1.1/"
   xmlns:cc="http://creativecommons.org/ns#"
   xmlns:rdf="http://www.w3.org/1999/02/22-rdf-syntax-ns#"
   xmlns:svg="http://www.w3.org/2000/svg"
   xmlns="http://www.w3.org/2000/svg"
   xmlns:sodipodi="http://sodipodi.sourceforge.net/DTD/sodipodi-0.dtd"
   xmlns:inkscape="http://www.inkscape.org/namespaces/inkscape"
   viewBox="0 0 272 272"
   version="1.1"
   id="svg16"
   sodipodi:docname="zameen_fg.svg"
   inkscape:version="0.92.4 (5da689c313, 2019-01-14)"
   width="272"
   height="272">
  <metadata
     id="metadata20">
    <rdf:RDF>
      <cc:Work
         rdf:about="">
        <dc:format>image/svg+xml</dc:format>
        <dc:type
           rdf:resource="http://purl.org/dc/dcmitype/StillImage" />
        <dc:title></dc:title>
      </cc:Work>
    </rdf:RDF>
  </metadata>
  <sodipodi:namedview
     pagecolor="#ffffff"
     bordercolor="#666666"
     borderopacity="1"
     objecttolerance="10"
     gridtolerance="10"
     guidetolerance="10"
     inkscape:pageopacity="0"
     inkscape:pageshadow="2"
     inkscape:window-width="1920"
     inkscape:window-height="1017"
     id="namedview18"
     showgrid="true"
     inkscape:zoom="4.2349186"
     inkscape:cx="36.204625"
     inkscape:cy="101.92595"
     inkscape:window-x="-8"
     inkscape:window-y="-8"
     inkscape:window-maximized="1"
     inkscape:current-layer="svg16"
     inkscape:snap-global="false">
    <inkscape:grid
       type="xygrid"
       id="grid827"
       spacingx="4"
       spacingy="4" />
  </sodipodi:namedview>
  <defs
     id="defs4">
    <style
       id="style2">.a{fill:none;stroke:#b1b5bd;stroke-linecap:round;stroke-linejoin:round;isolation:isolate;opacity:0.63;}</style>
  </defs>
  <path
     inkscape:connector-curvature="0"
     d="m 170.56863,119.73196 v -11.17059 a 2.5238567,2.5238567 0 0 0 -2.52386,-2.52385 h -16.73821 l -13.72978,-9.802664 a 2.5238567,2.5238567 0 0 0 -2.93777,0 L 95.95333,123.99728 a 1.514314,1.514314 0 0 0 -0.630964,1.22155 v 15.64791 a 1.514314,1.514314 0 0 0 2.422902,1.23164 l 3.906932,-2.91758 v 30.71029 a 2.5238567,2.5238567 0 0 0 2.52385,2.52386 h 11.23622 a 7.7835742,7.7835742 0 0 1 0.56534,-6.60746 l 15.95582,-27.85328 -14.72923,3.67978 a 7.245122,7.245122 0 1 1 -3.49301,-14.06293 l 31.15448,-7.74319 a 0.35333994,0.35333994 0 0 0 0.28772,-0.0959 h 0.0909 a 1.1963081,1.1963081 0 0 1 0.57039,-0.0959 c 0.18677,0 0.46944,-0.0909 0.65621,-0.0909 h 1.51431 a 3.2961569,3.2961569 0 0 1 0.94392,0.18676 8.4145384,8.4145384 0 0 1 1.98375,0.75716 7.7684311,7.7684311 0 0 1 2.86206,10.66582 l -15.10781,26.62669 16.3344,-4.15427 a 7.2485166,7.2485166 0 0 1 3.49302,14.06798 l -18.50492,4.71961 h 28.06529 a 2.5238567,2.5238567 0 0 0 2.52386,-2.52386 V 139.1808 l 3.90693,2.91758 a 1.514314,1.514314 0 0 0 2.40776,-1.23164 v -15.64791 a 1.514314,1.514314 0 0 0 -0.60573,-1.2165 l -5.71906,-4.26532 z"
     style="fill:#ffffff;fill-rule:evenodd;stroke-width:0.50477135"
     id="path820" />
</svg>
