<?xml version="1.0" encoding="UTF-8" standalone="no"?>
<svg
   xmlns:dc="http://purl.org/dc/elements/1.1/"
   xmlns:cc="http://creativecommons.org/ns#"
   xmlns:rdf="http://www.w3.org/1999/02/22-rdf-syntax-ns#"
   xmlns:svg="http://www.w3.org/2000/svg"
   xmlns="http://www.w3.org/2000/svg"
   xmlns:sodipodi="http://sodipodi.sourceforge.net/DTD/sodipodi-0.dtd"
   xmlns:inkscape="http://www.inkscape.org/namespaces/inkscape"
   viewBox="0 0 272 272"
   version="1.1"
   id="svg16"
   sodipodi:docname="zap_map_fg.svg"
   inkscape:version="0.92.4 (5da689c313, 2019-01-14)"
   width="272"
   height="272">
  <metadata
     id="metadata20">
    <rdf:RDF>
      <cc:Work
         rdf:about="">
        <dc:format>image/svg+xml</dc:format>
        <dc:type
           rdf:resource="http://purl.org/dc/dcmitype/StillImage" />
        <dc:title></dc:title>
      </cc:Work>
    </rdf:RDF>
  </metadata>
  <sodipodi:namedview
     pagecolor="#ffffff"
     bordercolor="#666666"
     borderopacity="1"
     objecttolerance="10"
     gridtolerance="10"
     guidetolerance="10"
     inkscape:pageopacity="0"
     inkscape:pageshadow="2"
     inkscape:window-width="1920"
     inkscape:window-height="1017"
     id="namedview18"
     showgrid="true"
     inkscape:zoom="4.2349186"
     inkscape:cx="124.06641"
     inkscape:cy="139.70708"
     inkscape:window-x="-8"
     inkscape:window-y="-8"
     inkscape:window-maximized="1"
     inkscape:current-layer="svg16"
     inkscape:snap-global="false">
    <inkscape:grid
       type="xygrid"
       id="grid827"
       spacingx="4"
       spacingy="4" />
  </sodipodi:namedview>
  <defs
     id="defs4">
    <style
       id="style2">.a{fill:none;stroke:#b1b5bd;stroke-linecap:round;stroke-linejoin:round;isolation:isolate;opacity:0.63;}</style>
  </defs>
  <path
     style="fill:#ff837d;stroke-width:1.72000003;stroke-linecap:round;stroke-linejoin:round"
     inkscape:connector-curvature="0"
     d="m 151.2916,91.291604 -9.161,12.448996 c 0.87465,0.20176 1.7325,0.44527 2.5722,0.7301 z m -6.5888,13.178996 -12.474,24.948 h 20.64 l -26.688,36.401 c 5.3416,7.9774 9.8878,13.909 9.8878,13.909 0,0 26.875,-34.966 26.875,-49.808 0,-11.821 -7.6352,-21.852 -18.24,-25.45 z m -18.522,61.349 c -0.57771,-0.86278 -1.1549,-1.7361 -1.7469,-2.6427 l -8.9751,17.268 z m -1.7469,-2.6427 13.672,-26.305 h -20.353 l 24.379,-33.131 c -1.9492,-0.44965 -3.9767,-0.69539 -6.0626,-0.69539 -14.843,0 -26.875,12.032 -26.875,26.875 0,8.0886 7.9767,22.131 15.24,33.257 z"
     id="path820" />
</svg>
