<?xml version="1.0" encoding="UTF-8" standalone="no"?>
<svg
   xmlns:dc="http://purl.org/dc/elements/1.1/"
   xmlns:cc="http://creativecommons.org/ns#"
   xmlns:rdf="http://www.w3.org/1999/02/22-rdf-syntax-ns#"
   xmlns:svg="http://www.w3.org/2000/svg"
   xmlns="http://www.w3.org/2000/svg"
   xmlns:sodipodi="http://sodipodi.sourceforge.net/DTD/sodipodi-0.dtd"
   xmlns:inkscape="http://www.inkscape.org/namespaces/inkscape"
   viewBox="0 0 272 272"
   version="1.1"
   id="svg16"
   sodipodi:docname="zapp_fg.svg"
   inkscape:version="0.92.4 (5da689c313, 2019-01-14)"
   width="272"
   height="272">
  <metadata
     id="metadata20">
    <rdf:RDF>
      <cc:Work
         rdf:about="">
        <dc:format>image/svg+xml</dc:format>
        <dc:type
           rdf:resource="http://purl.org/dc/dcmitype/StillImage" />
        <dc:title></dc:title>
      </cc:Work>
    </rdf:RDF>
  </metadata>
  <sodipodi:namedview
     pagecolor="#ffffff"
     bordercolor="#666666"
     borderopacity="1"
     objecttolerance="10"
     gridtolerance="10"
     guidetolerance="10"
     inkscape:pageopacity="0"
     inkscape:pageshadow="2"
     inkscape:window-width="1920"
     inkscape:window-height="1017"
     id="namedview18"
     showgrid="true"
     inkscape:zoom="1.4972698"
     inkscape:cx="92.442414"
     inkscape:cy="224.71461"
     inkscape:window-x="-8"
     inkscape:window-y="-8"
     inkscape:window-maximized="1"
     inkscape:current-layer="svg16"
     inkscape:snap-global="false">
    <inkscape:grid
       type="xygrid"
       id="grid827"
       spacingx="4"
       spacingy="4" />
  </sodipodi:namedview>
  <defs
     id="defs4">
    <style
       id="style2">.a{fill:none;stroke:#b1b5bd;stroke-linecap:round;stroke-linejoin:round;isolation:isolate;opacity:0.63;}</style>
  </defs>
  <path
     inkscape:connector-curvature="0"
     d="m 116.73608,91.280076 a 4.826,4.826 0 0 0 -4.826,4.826 4.826,4.826 0 0 0 4.826,4.826004 4.826,4.826 0 0 0 0.725,-0.058 l 5.648,9.28 -14.859,1.525 c -7.318,0.75 -12.696004,7.257 -12.059004,14.586 l 2.453,28.2 c 0.56,6.425 5.550004,11.286 11.703004,11.882 l -3.293,8.279 a 5,5 0 1 0 9.291,3.695 l 5.111,-12.85 35.807,-3.676 9.059,13.297 a 5,5 0 1 0 8.264,-5.63 l -6.471,-9.5 c 5.057,-2.306 8.365,-7.605 7.857,-13.437 l -2.455,-28.2 a 13.003,13.003 0 0 0 -14.359,-11.874 l -22.139,2.274 1.914,-7.44 a 4.826,4.826 0 0 0 4.032,-4.760004 4.826,4.826 0 0 0 -4.826,-4.826 4.826,4.826 0 0 0 -4.827,4.827 4.826,4.826 0 0 0 1.756,3.720004 l -2.29,8.914 -5.262,0.54 -6.707,-11.017004 a 4.826,4.826 0 0 0 0.753,-2.578 4.826,4.826 0 0 0 -4.826,-4.826 z m 43.105,26.744004 a 2.268,2.268 0 0 1 2.504,2.07 l 2.369,27.24 a 2.354,2.354 0 0 1 -2.102,2.543 l -49.664,5.098 a 2.265,2.265 0 0 1 -2.502,-2.069 l -2.37,-27.241 a 2.352,2.352 0 0 1 2.1,-2.542 l 49.665,-5.1 z"
     style="fill:#ffffff;paint-order:stroke fill markers"
     id="path836" />
</svg>
