<?xml version="1.0" encoding="UTF-8" standalone="no"?>
<svg
   xmlns:dc="http://purl.org/dc/elements/1.1/"
   xmlns:cc="http://creativecommons.org/ns#"
   xmlns:rdf="http://www.w3.org/1999/02/22-rdf-syntax-ns#"
   xmlns:svg="http://www.w3.org/2000/svg"
   xmlns="http://www.w3.org/2000/svg"
   xmlns:sodipodi="http://sodipodi.sourceforge.net/DTD/sodipodi-0.dtd"
   xmlns:inkscape="http://www.inkscape.org/namespaces/inkscape"
   viewBox="0 0 272 272"
   version="1.1"
   id="svg16"
   sodipodi:docname="zara_fg.svg"
   inkscape:version="0.92.4 (5da689c313, 2019-01-14)"
   width="272"
   height="272">
  <metadata
     id="metadata20">
    <rdf:RDF>
      <cc:Work
         rdf:about="">
        <dc:format>image/svg+xml</dc:format>
        <dc:type
           rdf:resource="http://purl.org/dc/dcmitype/StillImage" />
        <dc:title></dc:title>
      </cc:Work>
    </rdf:RDF>
  </metadata>
  <sodipodi:namedview
     pagecolor="#ffffff"
     bordercolor="#666666"
     borderopacity="1"
     objecttolerance="10"
     gridtolerance="10"
     guidetolerance="10"
     inkscape:pageopacity="0"
     inkscape:pageshadow="2"
     inkscape:window-width="1920"
     inkscape:window-height="1017"
     id="namedview18"
     showgrid="true"
     inkscape:zoom="4.2349186"
     inkscape:cx="114.51955"
     inkscape:cy="142.94818"
     inkscape:window-x="-8"
     inkscape:window-y="-8"
     inkscape:window-maximized="1"
     inkscape:current-layer="svg16"
     inkscape:snap-global="false">
    <inkscape:grid
       type="xygrid"
       id="grid827"
       spacingx="4"
       spacingy="4" />
  </sodipodi:namedview>
  <defs
     id="defs4">
    <style
       id="style2">.a{fill:none;stroke:#b1b5bd;stroke-linecap:round;stroke-linejoin:round;isolation:isolate;opacity:0.63;}</style>
  </defs>
  <path
     inkscape:connector-curvature="0"
     d="m 179.73,155.25226 -14.44,-39.75 H 165 l -3,8.17 -5.41,14.88 a 14.08,14.08 0 0 0 -7.86,-3.07 l -1,-0.11 1,-0.13 c 5.5,-1 9.2,-4.46 9.2,-8.64 0,-5.74 -5.4,-9.74 -13.13,-9.74 h -16.08 v 0.29 h 4.68 v 29.64 l -11.35,-31.29 h -0.29 l -3,8.17 -11.45,31.48 h -0.07 l -0.58,0.06 H 94.21 l 22,-38.15 0.17,-0.29 H 89.46 v 11.85 h 0.28 c 0,-5.75 3.4,-11.52 10.8,-11.52 h 8.92 l -22.19,38.44 h 29.9 v -11.31 h -0.29 c 0,5 -2.88,9.77 -9,10.85 h -0.2 l 4.7,-12.93 h 13.13 l 4.75,13.07 h -4.68 v 0.29 H 144 v -0.29 h -4.7 v -19.69 h 5.43 c 5.52,0 8.69,2.47 8.69,6.77 v 3.5 c 0,0.39 0,1 0.05,1.42 l -2.92,8 h -3.85 v 0.29 h 7.89 v -0.29 h -3.77 l 2.66,-7.3 a 0.68,0.68 0 0 0 0,0.12 l 0.07,0.66 0.07,0.43 a 8.86,8.86 0 0 0 3.06,5.88 l 0.23,0.17 a 7.68,7.68 0 0 0 4.45,1.26 6.41,6.41 0 0 0 5.14,-1.94 l -0.17,-0.16 a 4.7,4.7 0 0 1 -3.4,1.53 c -2.1,0 -3.21,-2.56 -3.21,-5.08 v -4.82 a 10.6,10.6 0 0 0 -0.56,-3.58 v -0.15 h 9.64 l 4.75,13.08 h -4.69 v 0.28 h 15.91 v -0.28 z m -67.29,-13.36 6.49,-17.83 6.48,17.83 z m 26.82,-6.64 v -18.15 h 4.14 c 5.54,0 8.46,3.29 8.46,9.51 0,6.62 -1.68,8.64 -7.17,8.64 z m 19.74,6.64 v -0.07 a 8.84,8.84 0 0 0 -1.84,-2.8 l -0.27,-0.27 5.33,-14.66 6.48,17.83 z"
     style="fill:#56595b;fill-opacity:1"
     id="path824" />
</svg>
