<?xml version="1.0" encoding="UTF-8" standalone="no"?>
<svg
   xmlns:dc="http://purl.org/dc/elements/1.1/"
   xmlns:cc="http://creativecommons.org/ns#"
   xmlns:rdf="http://www.w3.org/1999/02/22-rdf-syntax-ns#"
   xmlns:svg="http://www.w3.org/2000/svg"
   xmlns="http://www.w3.org/2000/svg"
   xmlns:sodipodi="http://sodipodi.sourceforge.net/DTD/sodipodi-0.dtd"
   xmlns:inkscape="http://www.inkscape.org/namespaces/inkscape"
   viewBox="0 0 272 272"
   version="1.1"
   id="svg16"
   sodipodi:docname="zaza_remote_fg.svg"
   inkscape:version="0.92.4 (5da689c313, 2019-01-14)"
   width="272"
   height="272">
  <metadata
     id="metadata20">
    <rdf:RDF>
      <cc:Work
         rdf:about="">
        <dc:format>image/svg+xml</dc:format>
        <dc:type
           rdf:resource="http://purl.org/dc/dcmitype/StillImage" />
        <dc:title></dc:title>
      </cc:Work>
    </rdf:RDF>
  </metadata>
  <sodipodi:namedview
     pagecolor="#ffffff"
     bordercolor="#666666"
     borderopacity="1"
     objecttolerance="10"
     gridtolerance="10"
     guidetolerance="10"
     inkscape:pageopacity="0"
     inkscape:pageshadow="2"
     inkscape:window-width="1920"
     inkscape:window-height="1017"
     id="namedview18"
     showgrid="true"
     inkscape:zoom="4.2349186"
     inkscape:cx="90.055696"
     inkscape:cy="115.28359"
     inkscape:window-x="-8"
     inkscape:window-y="-8"
     inkscape:window-maximized="1"
     inkscape:current-layer="svg16"
     inkscape:snap-global="true">
    <inkscape:grid
       type="xygrid"
       id="grid827"
       spacingx="4"
       spacingy="4" />
  </sodipodi:namedview>
  <defs
     id="defs4">
    <style
       id="style2">.a{fill:none;stroke:#b1b5bd;stroke-linecap:round;stroke-linejoin:round;isolation:isolate;opacity:0.63;}</style>
  </defs>
  <path
     style="clip-rule:evenodd;fill:#b1b5bd;fill-rule:evenodd"
     inkscape:connector-curvature="0"
     d="M 136.435,68 149.87,81.435 H 123 Z m 0,135.87 13.435,-13.435 H 123 Z M 204.5,135.935 191.065,149.37 V 122.5 l 13.435,13.434 z m -135.87,0 13.435,13.435 V 122.5 L 68.63,135.934 Z"
     id="path820" />
  <path
     style="fill:#b1b5bd"
     inkscape:connector-curvature="0"
     d="m 121.525,150.36 c 7.695,0 13.86,-6.21 13.86,-13.86 0,-7.65 -6.165,-13.86 -13.86,-13.86 -7.65,0 -13.86,6.21 -13.86,13.86 0,7.65 6.21,13.86 13.86,13.86 z m 0,-5.805 c -4.545,0 -8.01,-3.51 -8.01,-8.055 0,-4.545 3.465,-8.055 8.01,-8.055 4.59,0 8.055,3.51 8.055,8.055 0,4.545 -3.465,8.055 -8.055,8.055 z M 156.608,150 h 7.92 L 151.523,135.015 163.178,123 h -7.65 l -8.82,9.54 h -1.035 V 123 h -5.94 v 27 h 5.94 v -12.33 h 0.855 z"
     id="path822" />
</svg>
