<?xml version="1.0" encoding="UTF-8" standalone="no"?>
<svg
   xmlns:dc="http://purl.org/dc/elements/1.1/"
   xmlns:cc="http://creativecommons.org/ns#"
   xmlns:rdf="http://www.w3.org/1999/02/22-rdf-syntax-ns#"
   xmlns:svg="http://www.w3.org/2000/svg"
   xmlns="http://www.w3.org/2000/svg"
   xmlns:sodipodi="http://sodipodi.sourceforge.net/DTD/sodipodi-0.dtd"
   xmlns:inkscape="http://www.inkscape.org/namespaces/inkscape"
   viewBox="0 0 272 272"
   version="1.1"
   id="svg16"
   sodipodi:docname="zdf_mediathek_fg.svg"
   inkscape:version="0.92.4 (5da689c313, 2019-01-14)"
   width="272"
   height="272">
  <metadata
     id="metadata20">
    <rdf:RDF>
      <cc:Work
         rdf:about="">
        <dc:format>image/svg+xml</dc:format>
        <dc:type
           rdf:resource="http://purl.org/dc/dcmitype/StillImage" />
        <dc:title></dc:title>
      </cc:Work>
    </rdf:RDF>
  </metadata>
  <sodipodi:namedview
     pagecolor="#ffffff"
     bordercolor="#666666"
     borderopacity="1"
     objecttolerance="10"
     gridtolerance="10"
     guidetolerance="10"
     inkscape:pageopacity="0"
     inkscape:pageshadow="2"
     inkscape:window-width="1920"
     inkscape:window-height="1017"
     id="namedview18"
     showgrid="true"
     inkscape:zoom="2.9945397"
     inkscape:cx="36.204625"
     inkscape:cy="101.92595"
     inkscape:window-x="-8"
     inkscape:window-y="-8"
     inkscape:window-maximized="1"
     inkscape:current-layer="svg16"
     inkscape:snap-global="true">
    <inkscape:grid
       type="xygrid"
       id="grid827"
       spacingx="4"
       spacingy="4" />
  </sodipodi:namedview>
  <defs
     id="defs4">
    <style
       id="style2">.a{fill:none;stroke:#b1b5bd;stroke-linecap:round;stroke-linejoin:round;isolation:isolate;opacity:0.63;}</style>
  </defs>
  <path
     style="clip-rule:evenodd;fill:#f8c18c;fill-rule:evenodd"
     inkscape:connector-curvature="0"
     d="m 136,150 v -28 h 9.209 c 7.675,0 13.954,6.253 13.954,14 0,7.747 -6.279,14 -13.954,14 z m 6.14,-5.46 h 3.023 c 4.418,0 7.86,-3.687 7.86,-8.54 0,-4.853 -3.442,-8.54 -7.86,-8.54 H 142.14 Z M 176,127.413 V 122 h -16.791 v 28 h 6.14 v -11.293 h 9.116 v -5.414 h -9.116 v -5.88 z"
     id="path820" />
  <path
     style="clip-rule:evenodd;fill:#f8c18c;fill-rule:evenodd"
     inkscape:connector-curvature="0"
     d="m 118,159 c 12.703,0 23,-10.297 23,-23 0,-12.703 -10.297,-23 -23,-23 -12.703,0 -23,10.297 -23,23 0,12.703 10.297,23 23,23 z"
     id="path822" />
  <path
     style="clip-rule:evenodd;fill:#ffffff;fill-rule:evenodd"
     inkscape:connector-curvature="0"
     d="m 136,122 h -19.859 v 5.46 h 10.5 L 115,150 h 21 v -5.46 h -11.55 z"
     id="path824" />
</svg>
