<?xml version="1.0" encoding="UTF-8" standalone="no"?>
<svg
   xmlns:dc="http://purl.org/dc/elements/1.1/"
   xmlns:cc="http://creativecommons.org/ns#"
   xmlns:rdf="http://www.w3.org/1999/02/22-rdf-syntax-ns#"
   xmlns:svg="http://www.w3.org/2000/svg"
   xmlns="http://www.w3.org/2000/svg"
   xmlns:sodipodi="http://sodipodi.sourceforge.net/DTD/sodipodi-0.dtd"
   xmlns:inkscape="http://www.inkscape.org/namespaces/inkscape"
   viewBox="0 0 272 272"
   version="1.1"
   id="svg16"
   sodipodi:docname="zdf_heute_fg.svg"
   inkscape:version="0.92.4 (5da689c313, 2019-01-14)"
   width="272"
   height="272">
  <metadata
     id="metadata20">
    <rdf:RDF>
      <cc:Work
         rdf:about="">
        <dc:format>image/svg+xml</dc:format>
        <dc:type
           rdf:resource="http://purl.org/dc/dcmitype/StillImage" />
        <dc:title></dc:title>
      </cc:Work>
    </rdf:RDF>
  </metadata>
  <sodipodi:namedview
     pagecolor="#ffffff"
     bordercolor="#666666"
     borderopacity="1"
     objecttolerance="10"
     gridtolerance="10"
     guidetolerance="10"
     inkscape:pageopacity="0"
     inkscape:pageshadow="2"
     inkscape:window-width="1920"
     inkscape:window-height="1017"
     id="namedview18"
     showgrid="true"
     inkscape:zoom="2.9945397"
     inkscape:cx="36.204625"
     inkscape:cy="101.92595"
     inkscape:window-x="-8"
     inkscape:window-y="-8"
     inkscape:window-maximized="1"
     inkscape:current-layer="svg16"
     inkscape:snap-global="true">
    <inkscape:grid
       type="xygrid"
       id="grid827"
       spacingx="4"
       spacingy="4" />
  </sodipodi:namedview>
  <defs
     id="defs4">
    <style
       id="style2">.a{fill:none;stroke:#b1b5bd;stroke-linecap:round;stroke-linejoin:round;isolation:isolate;opacity:0.63;}</style>
  </defs>
  <path
     style="fill:#56595b"
     inkscape:connector-curvature="0"
     d="m 100.455,143.64 c -1.98,0 -3.78,0.9 -5.04,2.385 v -14.85 h -5.76 V 162 h 5.76 v -10.17 c 0,-1.575 1.305,-3.105 3.06,-3.105 1.62,0 2.745,1.26 2.745,2.835 V 162 h 5.76 v -11.385 c 0,-3.96 -2.88,-6.975 -6.525,-6.975 z m 30.229,9.315 c -0.045,-5.625 -4.05,-9.36 -9.945,-9.36 -5.895,0 -10.125,3.78 -10.125,9.405 0,5.625 4.185,9.36 10.26,9.36 5.175,0 8.595,-2.655 9.495,-6.57 h -5.58 c -0.495,1.44 -1.935,2.295 -3.96,2.295 -2.655,0 -3.915,-1.575 -4.14,-4.14 h 13.95 z m -9.855,-4.95 c 1.98,0 3.195,0.9 3.78,2.475 h -7.605 c 0.585,-1.53 1.755,-2.475 3.825,-2.475 z m 22.022,14.355 c 5.445,0 8.46,-2.835 8.46,-7.245 V 144 h -5.715 v 10.35 c 0,1.71 -1.17,2.925 -2.745,2.925 -1.53,0 -2.7,-1.215 -2.7,-2.925 V 144 h -5.76 v 11.115 c 0,4.41 3.015,7.245 8.46,7.245 z m 24.27,-13.905 V 144 h -4.275 v -6.93 h -5.715 V 144 h -3.015 v 4.455 h 3.015 v 7.11 c 0,3.825 3.24,6.795 7.065,6.795 1.215,0 2.43,-0.27 2.88,-0.585 v -4.455 h -2.16 c -1.215,0 -2.07,-0.945 -2.07,-2.43 v -6.435 z m 22.379,4.5 c -0.045,-5.625 -4.05,-9.36 -9.945,-9.36 -5.895,0 -10.125,3.78 -10.125,9.405 0,5.625 4.185,9.36 10.26,9.36 5.175,0 8.595,-2.655 9.495,-6.57 h -5.58 c -0.495,1.44 -1.935,2.295 -3.96,2.295 -2.655,0 -3.915,-1.575 -4.14,-4.14 h 13.95 z m -9.855,-4.95 c 1.98,0 3.195,0.9 3.78,2.475 h -7.605 c 0.585,-1.53 1.755,-2.475 3.825,-2.475 z"
     id="path820" />
  <path
     style="fill:#f8c18c"
     inkscape:connector-curvature="0"
     d="m 104.055,107 h -14.85 v 2.79 h 9.63 L 88.485,125 h 15.57 v -2.79 h -10.35 z m 19.427,-15.12 v 17.46 c -1.71,-1.665 -4.005,-2.7 -6.57,-2.7 a 9.353,9.353 0 0 0 -9.36,9.36 9.353,9.353 0 0 0 9.36,9.36 c 2.565,0 4.86,-1.035 6.57,-2.7 V 125 h 2.79 V 91.88 Z m -6.57,30.69 a 6.549,6.549 0 0 1 -6.57,-6.57 6.549,6.549 0 0 1 6.57,-6.57 c 3.6,0 6.57,2.925 6.57,6.57 0,3.645 -2.97,6.57 -6.57,6.57 z M 141.5,107 h -4.815 v -9.675 c 0,-1.665 1.26,-2.745 2.7,-2.745 l 2.07,0.045 v -2.16 C 140.96,92.15 139.97,91.88 139.07,91.88 c -2.79,0 -5.175,2.25 -5.175,5.085 V 107 h -3.015 v 2.7 h 3.015 V 125 h 2.79 v -15.3 h 4.815 z"
     id="path822" />
  <path
     style="fill:none;stroke:#f8c18c;stroke-width:2.5"
     inkscape:connector-curvature="0"
     d="m 89,171.75 h 18"
     id="path824" />
</svg>
