<?xml version="1.0" encoding="UTF-8" standalone="no"?>
<svg
   xmlns:dc="http://purl.org/dc/elements/1.1/"
   xmlns:cc="http://creativecommons.org/ns#"
   xmlns:rdf="http://www.w3.org/1999/02/22-rdf-syntax-ns#"
   xmlns:svg="http://www.w3.org/2000/svg"
   xmlns="http://www.w3.org/2000/svg"
   xmlns:sodipodi="http://sodipodi.sourceforge.net/DTD/sodipodi-0.dtd"
   xmlns:inkscape="http://www.inkscape.org/namespaces/inkscape"
   viewBox="0 0 272 272"
   version="1.1"
   id="svg16"
   sodipodi:docname="zedge_fg.svg"
   inkscape:version="0.92.4 (5da689c313, 2019-01-14)"
   width="272"
   height="272">
  <metadata
     id="metadata20">
    <rdf:RDF>
      <cc:Work
         rdf:about="">
        <dc:format>image/svg+xml</dc:format>
        <dc:type
           rdf:resource="http://purl.org/dc/dcmitype/StillImage" />
        <dc:title></dc:title>
      </cc:Work>
    </rdf:RDF>
  </metadata>
  <sodipodi:namedview
     pagecolor="#ffffff"
     bordercolor="#666666"
     borderopacity="1"
     objecttolerance="10"
     gridtolerance="10"
     guidetolerance="10"
     inkscape:pageopacity="0"
     inkscape:pageshadow="2"
     inkscape:window-width="1920"
     inkscape:window-height="1017"
     id="namedview18"
     showgrid="false"
     inkscape:zoom="4.2349186"
     inkscape:cx="185.81174"
     inkscape:cy="94.772477"
     inkscape:window-x="-8"
     inkscape:window-y="-8"
     inkscape:window-maximized="1"
     inkscape:current-layer="svg16"
     inkscape:snap-global="true">
    <inkscape:grid
       type="xygrid"
       id="grid827"
       spacingx="4"
       spacingy="4" />
  </sodipodi:namedview>
  <defs
     id="defs4">
    <style
       id="style2">.a{fill:none;stroke:#b1b5bd;stroke-linecap:round;stroke-linejoin:round;isolation:isolate;opacity:0.63;}</style>
    <mask
       fill="#fff"
       id="b">
      <path
         id="path827"
         d="m 116.417,94.986 c -1.787,4.015 -5.21,6.861 -10.229,8.799 -5.134,1.983 -11.26,2.715 -16.832,2.715 H 73.353 l 5.759,-11.25 h 6.798 l 3.856,-7 H 82.695 L 86.407,81 h 26.24 c 2.121,0 3.557,0.948 4.482,2.925 1.039,2.22 1.463,6.175 -0.712,11.061 z M 71.461,88.25 80.291,71 h 32.356 c 12.565,0 19.241,13.818 12.906,28.052 C 119.218,113.286 101.92,116.5 89.356,116.5 H 57 l 5.119,-10 5.759,-11.25 H 59.91 l 3.856,-7 z"
         inkscape:connector-curvature="0"
         style="clip-rule:evenodd;fill-rule:evenodd" />
    </mask>
  </defs>
  <path
     style="clip-rule:evenodd;fill:#8c72bd;fill-rule:evenodd"
     d="M 163.31641 116 L 122.01172 117.12891 L 111.14062 132.26562 L 99.609375 135.79102 L 106.10352 142.2832 L 97 157.13086 L 154.23633 214.36719 L 240.14648 308.12891 L 356.55859 308.12891 L 257.07227 214.36719 L 163.31641 116 z "
     id="path823" />
  <path
     style="clip-rule:evenodd;fill:#bd9aff;fill-rule:evenodd"
     d="m 164.95703,117.03906 0.98047,22.88477 71.69922,71.69922 47.61132,44.55664 v -18.1836 l -47.57421,-48.24218 z m -38.18164,4.12696 -7.29492,2.4707 -8.73633,26.87305 14.47461,1.84765 25.95703,-6.79101 z"
     id="path825"
     inkscape:connector-curvature="0"
     sodipodi:nodetypes="ccccccccccccc" />
  <path
     style="fill:#ffffff;stroke:none;stroke-width:1px;stroke-linecap:butt;stroke-linejoin:miter;stroke-opacity:1"
     d="M 120.13477 110.70703 L 111.53711 127.98828 L 103.60547 127.98828 L 99.609375 135.79102 L 107.19531 135.66797 L 97 157.13086 C 97 157.13086 121.77291 156.87305 134.16016 156.87305 C 146.0652 156.87305 166.74177 150.43053 168.39062 129.32422 C 169.40859 116.29357 159.37761 110.70703 154.11328 110.70703 L 120.13477 110.70703 z M 126.77539 121.16602 C 126.77539 121.16602 142.4121 121.30859 151.10742 121.30859 C 158.06137 121.30859 158.68258 127.92271 157.70312 131.57812 C 154.94082 141.88723 142.2106 146.1875 132.57422 146.1875 L 114.04102 146.1875 L 126.77539 121.16602 z "
     id="path874" />
</svg>
