<?xml version="1.0" encoding="UTF-8" standalone="no"?>
<svg
   xmlns:dc="http://purl.org/dc/elements/1.1/"
   xmlns:cc="http://creativecommons.org/ns#"
   xmlns:rdf="http://www.w3.org/1999/02/22-rdf-syntax-ns#"
   xmlns:svg="http://www.w3.org/2000/svg"
   xmlns="http://www.w3.org/2000/svg"
   xmlns:sodipodi="http://sodipodi.sourceforge.net/DTD/sodipodi-0.dtd"
   xmlns:inkscape="http://www.inkscape.org/namespaces/inkscape"
   viewBox="0 0 272 272"
   version="1.1"
   id="svg16"
   sodipodi:docname="zee5_fg.svg"
   inkscape:version="0.92.4 (5da689c313, 2019-01-14)"
   width="272"
   height="272">
  <metadata
     id="metadata20">
    <rdf:RDF>
      <cc:Work
         rdf:about="">
        <dc:format>image/svg+xml</dc:format>
        <dc:type
           rdf:resource="http://purl.org/dc/dcmitype/StillImage" />
        <dc:title></dc:title>
      </cc:Work>
    </rdf:RDF>
  </metadata>
  <sodipodi:namedview
     pagecolor="#ffffff"
     bordercolor="#666666"
     borderopacity="1"
     objecttolerance="10"
     gridtolerance="10"
     guidetolerance="10"
     inkscape:pageopacity="0"
     inkscape:pageshadow="2"
     inkscape:window-width="1920"
     inkscape:window-height="1017"
     id="namedview18"
     showgrid="true"
     inkscape:zoom="2.9945397"
     inkscape:cx="65.615728"
     inkscape:cy="158.83335"
     inkscape:window-x="-8"
     inkscape:window-y="-8"
     inkscape:window-maximized="1"
     inkscape:current-layer="svg16"
     inkscape:snap-global="true">
    <inkscape:grid
       type="xygrid"
       id="grid827"
       spacingx="4"
       spacingy="4" />
  </sodipodi:namedview>
  <defs
     id="defs4">
    <style
       id="style2">.a{fill:none;stroke:#b1b5bd;stroke-linecap:round;stroke-linejoin:round;isolation:isolate;opacity:0.63;}</style>
    <style
       id="style2-2">.a{fill:none;stroke:#b1b5bd;stroke-linecap:round;stroke-linejoin:round;isolation:isolate;opacity:.63}</style>
  </defs>
  <g
     id="text967"
     aria-label="ZEE5"
     style="font-style:normal;font-variant:normal;font-weight:400;font-stretch:normal;font-size:27.68956184px;line-height:1.25;font-family:Aleo;-inkscape-font-specification:Aleo;letter-spacing:0;word-spacing:0;fill:#56595b;fill-opacity:1;stroke:none;stroke-width:0.69223911"
     transform="translate(40,40)">
    <path
       inkscape:connector-curvature="0"
       id="path971"
       d="M 100.84,83.863 H 85.785 v 4.05 h 7.961 L 84.92,104.63 h 15.921 v -4.05 h -8.756 z"
       style="font-style:normal;font-variant:normal;font-weight:700;font-stretch:normal;font-family:Now;-inkscape-font-specification:'Now Bold';fill:#56595b;stroke-width:0.69223911" />
    <path
       inkscape:connector-curvature="0"
       id="path973"
       d="m 116.572,87.878 v -4.015 h -12.495 v 20.767 h 12.495 v -4.015 h -7.927 v -4.361 h 6.784 v -4.015 h -6.784 v -4.361 z"
       style="font-style:normal;font-variant:normal;font-weight:700;font-stretch:normal;font-family:Now;-inkscape-font-specification:'Now Bold';fill:#56595b;stroke-width:0.69223911" />
    <path
       inkscape:connector-curvature="0"
       id="path975"
       d="m 132.688,87.878 v -4.015 h -12.495 v 20.767 h 12.495 v -4.015 h -7.926 v -4.361 h 7.384 v -4.015 h -7.384 v -4.361 z"
       style="font-style:normal;font-variant:normal;font-weight:700;font-stretch:normal;font-family:Now;-inkscape-font-specification:'Now Bold';fill:#56595b;stroke-width:0.69223911" />
    <path
       inkscape:connector-curvature="0"
       id="path977"
       d="m 147.22,90.578 c -1.627,0 -2.839,0.553 -3.808,1.419 l 0.346,-4.154 h 8.55 v -3.91 h -12.045 l -0.9,9.898 3.495,2.111 c 0.797,-0.865 2.112,-1.453 3.254,-1.453 1.8,0 3.15,1.384 3.15,3.184 0,1.835 -1.454,3.184 -3.635,3.184 -1.869,0 -3.98,-0.484 -5.814,-2.803 h -0.796 l -0.312,4.153 c 1.523,1.558 4.534,2.7 7.165,2.7 4.568,0 7.822,-3.115 7.822,-7.407 0,-3.946 -2.63,-6.922 -6.472,-6.922 z"
       style="fill:#ffffff" />
  </g>
</svg>
