<?xml version="1.0" encoding="UTF-8" standalone="no"?>
<svg
   xmlns:dc="http://purl.org/dc/elements/1.1/"
   xmlns:cc="http://creativecommons.org/ns#"
   xmlns:rdf="http://www.w3.org/1999/02/22-rdf-syntax-ns#"
   xmlns:svg="http://www.w3.org/2000/svg"
   xmlns="http://www.w3.org/2000/svg"
   xmlns:sodipodi="http://sodipodi.sourceforge.net/DTD/sodipodi-0.dtd"
   xmlns:inkscape="http://www.inkscape.org/namespaces/inkscape"
   viewBox="0 0 272 272"
   version="1.1"
   id="svg16"
   sodipodi:docname="zen_flip_clock_fg.svg"
   inkscape:version="0.92.4 (5da689c313, 2019-01-14)"
   width="272"
   height="272">
  <metadata
     id="metadata20">
    <rdf:RDF>
      <cc:Work
         rdf:about="">
        <dc:format>image/svg+xml</dc:format>
        <dc:type
           rdf:resource="http://purl.org/dc/dcmitype/StillImage" />
        <dc:title></dc:title>
      </cc:Work>
    </rdf:RDF>
  </metadata>
  <sodipodi:namedview
     pagecolor="#ffffff"
     bordercolor="#666666"
     borderopacity="1"
     objecttolerance="10"
     gridtolerance="10"
     guidetolerance="10"
     inkscape:pageopacity="0"
     inkscape:pageshadow="2"
     inkscape:window-width="1920"
     inkscape:window-height="1017"
     id="namedview18"
     showgrid="true"
     inkscape:zoom="2.9945397"
     inkscape:cx="36.204625"
     inkscape:cy="155.35653"
     inkscape:window-x="-8"
     inkscape:window-y="-8"
     inkscape:window-maximized="1"
     inkscape:current-layer="svg16"
     inkscape:snap-global="true">
    <inkscape:grid
       type="xygrid"
       id="grid827"
       spacingx="4"
       spacingy="4" />
  </sodipodi:namedview>
  <defs
     id="defs4">
    <style
       id="style2">.a{fill:none;stroke:#b1b5bd;stroke-linecap:round;stroke-linejoin:round;isolation:isolate;opacity:0.63;}</style>
    <style
       id="style2-5">.a{fill:none;stroke:#b1b5bd;stroke-linecap:round;stroke-linejoin:round;isolation:isolate;opacity:.63}</style>
  </defs>
  <path
     inkscape:connector-curvature="0"
     id="path845"
     d="m 160.482,151.57 7.013,-8.73 c 5.894,-7.386 7.684,-10.296 7.684,-15.518 0,-7.386 -5.968,-12.758 -13.728,-12.758 -8.132,0 -15.294,5.82 -14.548,14.175 h 9.251 c -0.447,-3.506 1.866,-5.67 4.85,-5.67 2.238,0 4.924,1.12 4.924,5.148 0,2.014 -0.522,3.357 -5.223,9.326 L 143.173,160 H 176 v -8.43 z"
     style="font-style:normal;font-variant:normal;font-weight:700;font-stretch:normal;font-size:40px;line-height:1.25;font-family:'Now Alt';-inkscape-font-specification:'Now Alt Bold';letter-spacing:0;word-spacing:0;fill:#ffffff;fill-opacity:1;stroke:none;stroke-width:1.49215698" />
  <path
     inkscape:connector-curvature="0"
     id="path833"
     d="m 192.279,132 12,-32 h -88 l 12,32 z"
     style="fill:#4a4a4a;stroke:#4a4a4a;stroke-width:8;stroke-linecap:round;stroke-linejoin:round;stroke-miterlimit:4;stroke-dasharray:none;stroke-opacity:1" />
  <path
     inkscape:connector-curvature="0"
     id="rect837"
     d="m 124.279,132 h 72 v 4 h -72 z"
     style="opacity:1;vector-effect:none;fill:#4a4a4a;fill-opacity:1;fill-rule:evenodd;paint-order:stroke fill markers" />
  <path
     inkscape:connector-curvature="0"
     id="path843"
     d="m 104,159.898 h 9.624 V 114.786 H 97.158 v 8.496 H 104 Z"
     style="font-style:normal;font-variant:normal;font-weight:700;font-stretch:normal;font-size:40px;line-height:1.25;font-family:'Now Alt';-inkscape-font-specification:'Now Alt Bold';letter-spacing:0;word-spacing:0;fill:#ffffff;fill-opacity:1;stroke:none;stroke-width:1.50373816" />
  <path
     inkscape:connector-curvature="0"
     id="rect850"
     d="m 161.594,120 c -12.654,0 -20.702,5.905 -16.63,12.064 h 10.458 c -0.942,-2.325 1.692,-3.937 5.48,-3.937 2.84,0 6.203,0.852 5.724,3.61 -0.192,1.11 -0.82,1.863 -4.731,4.263 h 10.655 c 2.652,-1.547 4.028,-2.847 5.023,-4.837 C 180.399,125.507 173.668,120 161.594,120"
     style="opacity:1;vector-effect:none;fill:#cccccc;fill-opacity:1;fill-rule:evenodd;paint-order:stroke fill markers" />
</svg>
