<?xml version="1.0" encoding="UTF-8" standalone="no"?>
<svg
   xmlns:dc="http://purl.org/dc/elements/1.1/"
   xmlns:cc="http://creativecommons.org/ns#"
   xmlns:rdf="http://www.w3.org/1999/02/22-rdf-syntax-ns#"
   xmlns:svg="http://www.w3.org/2000/svg"
   xmlns="http://www.w3.org/2000/svg"
   xmlns:sodipodi="http://sodipodi.sourceforge.net/DTD/sodipodi-0.dtd"
   xmlns:inkscape="http://www.inkscape.org/namespaces/inkscape"
   viewBox="0 0 272 272"
   version="1.1"
   id="svg16"
   sodipodi:docname="zenge_fg.svg"
   inkscape:version="0.92.4 (5da689c313, 2019-01-14)"
   width="272"
   height="272">
  <metadata
     id="metadata20">
    <rdf:RDF>
      <cc:Work
         rdf:about="">
        <dc:format>image/svg+xml</dc:format>
        <dc:type
           rdf:resource="http://purl.org/dc/dcmitype/StillImage" />
        <dc:title></dc:title>
      </cc:Work>
    </rdf:RDF>
  </metadata>
  <sodipodi:namedview
     pagecolor="#ffffff"
     bordercolor="#666666"
     borderopacity="1"
     objecttolerance="10"
     gridtolerance="10"
     guidetolerance="10"
     inkscape:pageopacity="0"
     inkscape:pageshadow="2"
     inkscape:window-width="1920"
     inkscape:window-height="1017"
     id="namedview18"
     showgrid="true"
     inkscape:zoom="2.5383403"
     inkscape:cx="151.29849"
     inkscape:cy="131.46368"
     inkscape:window-x="-8"
     inkscape:window-y="-8"
     inkscape:window-maximized="1"
     inkscape:current-layer="svg16"
     inkscape:snap-global="true">
    <inkscape:grid
       type="xygrid"
       id="grid827"
       spacingx="4"
       spacingy="4" />
  </sodipodi:namedview>
  <defs
     id="defs4">
    <style
       id="style2">.a{fill:none;stroke:#b1b5bd;stroke-linecap:round;stroke-linejoin:round;isolation:isolate;opacity:0.63;}</style>
  </defs>
  <path
     style="fill:#f8c18c;stroke:none;stroke-width:1px;stroke-linecap:butt;stroke-linejoin:miter;stroke-opacity:1"
     d="M 272 136 L 224 148.84375 C 217.26 150.93575 187.34042 160.26356 170.98242 166.10156 C 151.5591 173.03202 143.50897 184.3156 130.62891 185.82031 L 124 272 L 272 272 L 272 136 z "
     id="path830-0" />
  <path
     inkscape:connector-curvature="0"
     d="m 99.685,129.458 -2.014,-11.65 8.485,3.452 3.164,-3.02 -1.725,-6.904 7.622,2.59 1.007,-1.727 1.006,-9.635 8.917,5.608 1.87,-1.15 1.007,-10.787 8.916,6.185 4.89,-9.78 6.616,8.917 h 7.622 l 9.492,-10.93 4.458,13.95 0.72,-1.726 13.662,-5.465 1.582,16.252 17.402,17.545 9.349,-1.725 -5.61,8.341 -54.938,-27.325 z m -14.958,13.95 5.753,9.06 3.164,-10.21 z"
     style="fill:#71a372;stroke:none;stroke-width:1px;stroke-linecap:butt;stroke-linejoin:miter;stroke-opacity:1"
     id="path826" />
  <path
     inkscape:connector-curvature="0"
     d="m 90.625,148.873 c 0,0 13.202,-49.455 62.416,-49.905 46.544,-0.425 63.28,53.213 63.28,53.213 l -57.383,31.928 -30.202,-0.576 -27.47,-6.328 -13.518,-21.141 z"
     style="fill:#98dc9a;stroke:none;stroke-width:1px;stroke-linecap:butt;stroke-linejoin:miter;stroke-opacity:1"
     id="path828" />
  <path
     style="fill:#f8c18c;stroke:none;stroke-width:1px;stroke-linecap:butt;stroke-linejoin:miter;stroke-opacity:1"
     d="M 272 136 L 224 148.84375 C 217.26 150.93575 187.34042 160.26356 170.98242 166.10156 C 150.5898 173.37788 142.72965 185.44278 128.6582 185.96094 L 105.40625 272 L 272 272 L 272 136 z "
     id="path830" />
  <path
     style="opacity:1;fill:#f8c18c;stroke:none;stroke-width:1px;stroke-linecap:butt;stroke-linejoin:miter;stroke-opacity:1"
     d="m 85.158203,151.75 c 0,0 -1.297488,1.225 -1.000613,3.70742 0.296875,2.48242 4.251566,13.79202 3.877566,21.31602 C 87.172156,194.17244 81.365234,200 81.365234,200 L 24,272 h 172 c 0,0 -24,-40 -24.875,-72 -0.0989,-3.61823 3.48828,-10.2832 3.48828,-10.2832 l -15.67578,-5.60742 -26.89453,0.42968 -24.16016,-6.03906 -1.15039,-7.19141 7.76563,-9.06054 -7.47852,-2.87696 -14.814452,-3.73828 z"
     id="path834-4"
     inkscape:connector-curvature="0"
     sodipodi:nodetypes="czccccsccccccccc" />
  <path
     style="opacity:0.25;fill:#ba6561;stroke:none;stroke-width:1px;stroke-linecap:butt;stroke-linejoin:miter;stroke-opacity:1"
     d="m 85.158203,151.75 c 0,0 -1.297488,1.225 -1.000613,3.70742 0.296875,2.48242 4.251566,13.79202 3.877566,21.31602 C 87.172156,194.17244 81.365234,200 81.365234,200 L 24,272 h 172 c 0,0 -24,-40 -24.875,-72 -0.0989,-3.61823 3.48828,-10.2832 3.48828,-10.2832 l -15.67578,-5.60742 -26.89453,0.42968 -24.16016,-6.03906 -1.15039,-7.19141 7.76563,-9.06054 -7.47852,-2.87696 -14.814452,-3.73828 z"
     id="path834"
     inkscape:connector-curvature="0"
     sodipodi:nodetypes="czccccsccccccccc" />
  <path
     inkscape:connector-curvature="0"
     d="m 103.28,173.467 c 0,0 2.59,6.56 2.59,12.512 0,6.943 -4.335,12.037 -6.33,14.021 h 40.286 l 14.223,-4.098 3.594,-7.478 -1.87,-4.315 -28.906,0.287 -23.588,-10.93 z"
     style="fill:#f8c18c;stroke:none;stroke-width:1px;stroke-linecap:butt;stroke-linejoin:miter;stroke-opacity:1"
     id="path836" />
  <path
     inkscape:connector-curvature="0"
     d="m 103.28,173.467 c 0,0 2.59,6.56 2.59,12.512 0,6.943 -4.335,12.037 -6.33,14.021 h 40.286 l 14.223,-4.098 3.594,-7.478 -1.87,-4.315 -28.906,0.287 z"
     style="opacity:0.5;fill:#ba6561;stroke:none;stroke-width:1px;stroke-linecap:butt;stroke-linejoin:miter;stroke-opacity:1"
     id="path838" />
  <path
     inkscape:connector-curvature="0"
     d="m 90.625,148.873 c 0,0 -5.802,0.965 -5.467,3.02 1.106,6.783 25.34,8.927 25.309,10.894 -0.042,2.59 -8.13,6.552 -7.13,11.223 1.658,7.738 11.017,10.343 19.645,12.226 17.422,3.804 33.56,-0.79 33.358,1.63 -0.272,3.232 -5.582,3.552 -8.746,4.269 -7.604,1.723 -15.624,-0.888 -23.39,-0.203 -14.61,1.287 -26.725085,4.95957 -29.188,8.068 C 76,224 68,272 68,272 h 104 c 0,0 -36,-35.51596 -36,-59.99271 0,-8 39.37,-15.95929 38.471,-23.29629 -1.53,-12.485 -24.85,-7.24 -37.393,-8.197 -8.126,-0.62 -22.664,-1.1 -25.744,-7.192 -1.948,-3.852 8.063,-7.205 6.473,-11.218 -1.768,-4.461 -22.121,-4.555 -27.614,-10.067 -0.75,-0.754 0.432,-3.164 0.432,-3.164 z"
     style="fill:#fcecdc;stroke:none;stroke-width:1px;stroke-linecap:butt;stroke-linejoin:miter;stroke-opacity:1"
     id="path840"
     sodipodi:nodetypes="ccccccccsccscscccc" />
  <path
     inkscape:connector-curvature="0"
     d="m 106.013,144.27 v -10.641 l 10.067,2.301 c 0,0 0.837,6.122 -2.733,8.054 -4.165,2.255 -7.334,0.288 -7.334,0.288 z m 19.271,-11.073 2.733,-13.807 11.074,8.486 c 0,0 0.823,6.224 -4.602,8.197 -6.16,2.24 -9.205,-2.876 -9.205,-2.876 z m 11.793,-16.971 2.445,-12.08 7.91,8.197 c 0,0 -0.013,3.953 -4.027,5.465 -4.056,1.528 -6.328,-1.582 -6.328,-1.582 z m 20.135,2.301 12.368,-7.334 4.459,13.23 c 0,0 -3.688,6.238 -10.5,3.596 -6.639,-2.575 -6.327,-9.492 -6.327,-9.492 z m 32.215,-0.143 14.094,-5.61 -3.164,12.944 c 0,0 -3.846,3.186 -8.916,-0.575 -3.016,-2.237 -2.014,-6.76 -2.014,-6.76 z m 8.486,23.01 10.786,2.59 -7.479,7.19 c 0,0 -3.985,-0.252 -5.177,-4.458 -0.81,-2.858 1.87,-5.322 1.87,-5.322 z m -17.69,-8.772 9.78,-2.59 0.431,9.924 c 0,0 -4.43,1.993 -7.766,-0.431 -3.337,-2.425 -2.445,-6.903 -2.445,-6.903 z"
     style="fill:#71a372;stroke:none;stroke-width:1px;stroke-linecap:butt;stroke-linejoin:miter;stroke-opacity:1"
     id="path842" />
  <rect
     width="13.231"
     height="13.231"
     x="144.84399"
     y="139.66901"
     ry="6.6160002"
     style="opacity:1;vector-effect:none;fill:#71a372;fill-opacity:1;fill-rule:evenodd;stroke:none;stroke-width:4;stroke-linecap:round;stroke-linejoin:round;stroke-miterlimit:4;stroke-dasharray:none;paint-order:stroke fill markers"
     id="rect844" />
  <rect
     width="12.512"
     height="12.512"
     x="166.992"
     y="147.57901"
     ry="6.256"
     style="opacity:1;vector-effect:none;fill:#71a372;fill-opacity:1;fill-rule:evenodd;stroke:none;stroke-width:4;stroke-linecap:round;stroke-linejoin:round;stroke-miterlimit:4;stroke-dasharray:none;paint-order:stroke fill markers"
     id="rect846" />
  <rect
     width="12.944"
     height="12.944"
     x="130.89301"
     y="158.94"
     ry="6.4720001"
     style="opacity:1;vector-effect:none;fill:#71a372;fill-opacity:1;fill-rule:evenodd;stroke:none;stroke-width:4;stroke-linecap:round;stroke-linejoin:round;stroke-miterlimit:4;stroke-dasharray:none;paint-order:stroke fill markers"
     id="rect848" />
  <rect
     width="12.512"
     height="12.512"
     x="115.073"
     y="149.88"
     ry="6.256"
     style="opacity:1;vector-effect:none;fill:#71a372;fill-opacity:1;fill-rule:evenodd;stroke:none;stroke-width:4;stroke-linecap:round;stroke-linejoin:round;stroke-miterlimit:4;stroke-dasharray:none;paint-order:stroke fill markers"
     id="rect850" />
  <path
     inkscape:connector-curvature="0"
     d="m 161.348,175.05 a 3.076,3.076 0 0 0 -3.077,3.077 3.076,3.076 0 0 0 2.045,2.894 c -0.473,0.77 -0.974,2.051 -1.027,4.098 -0.026,1.03 -0.017,2.212 2.236,2.135 1.411,-0.049 1.92,-0.825 1.932,-1.678 0.03,-2.061 -0.71,-3.55 -1.357,-4.469 a 3.076,3.076 0 0 0 2.324,-2.98 3.076,3.076 0 0 0 -3.076,-3.076 z"
     style="opacity:1;vector-effect:none;fill:#ba6561;fill-opacity:1;fill-rule:evenodd;stroke:none;stroke-width:4;stroke-linecap:round;stroke-linejoin:round;stroke-miterlimit:4;stroke-dasharray:none;paint-order:stroke fill markers"
     id="path852" />
</svg>
