<?xml version="1.0" encoding="UTF-8" standalone="no"?>
<svg
   xmlns:dc="http://purl.org/dc/elements/1.1/"
   xmlns:cc="http://creativecommons.org/ns#"
   xmlns:rdf="http://www.w3.org/1999/02/22-rdf-syntax-ns#"
   xmlns:svg="http://www.w3.org/2000/svg"
   xmlns="http://www.w3.org/2000/svg"
   xmlns:sodipodi="http://sodipodi.sourceforge.net/DTD/sodipodi-0.dtd"
   xmlns:inkscape="http://www.inkscape.org/namespaces/inkscape"
   viewBox="0 0 272 272"
   version="1.1"
   id="svg16"
   sodipodi:docname="zenk_remote_fg.svg"
   inkscape:version="0.92.4 (5da689c313, 2019-01-14)"
   width="272"
   height="272">
  <metadata
     id="metadata20">
    <rdf:RDF>
      <cc:Work
         rdf:about="">
        <dc:format>image/svg+xml</dc:format>
        <dc:type
           rdf:resource="http://purl.org/dc/dcmitype/StillImage" />
        <dc:title></dc:title>
      </cc:Work>
    </rdf:RDF>
  </metadata>
  <sodipodi:namedview
     pagecolor="#ffffff"
     bordercolor="#666666"
     borderopacity="1"
     objecttolerance="10"
     gridtolerance="10"
     guidetolerance="10"
     inkscape:pageopacity="0"
     inkscape:pageshadow="2"
     inkscape:window-width="1920"
     inkscape:window-height="1017"
     id="namedview18"
     showgrid="true"
     inkscape:zoom="2.9945397"
     inkscape:cx="36.204625"
     inkscape:cy="101.92595"
     inkscape:window-x="-8"
     inkscape:window-y="-8"
     inkscape:window-maximized="1"
     inkscape:current-layer="svg16"
     inkscape:snap-global="false">
    <inkscape:grid
       type="xygrid"
       id="grid827"
       spacingx="4"
       spacingy="4" />
  </sodipodi:namedview>
  <defs
     id="defs4">
    <style
       id="style2">.a{fill:none;stroke:#b1b5bd;stroke-linecap:round;stroke-linejoin:round;isolation:isolate;opacity:0.63;}</style>
  </defs>
  <circle
     style="fill:#73ada4"
     cx="136"
     cy="136.034"
     r="36.5"
     id="circle820" />
  <path
     style="fill:#ffffff"
     inkscape:connector-curvature="0"
     d="m 117.272,119.574 12.811,34.163 a 1.761,1.761 0 0 0 3.302,-0.022 l 5.129,-14.11 a 1.783,1.783 0 0 1 1.056,-1.057 l 14.11,-5.129 a 1.761,1.761 0 0 0 0.022,-3.301 L 119.54,117.307 a 1.761,1.761 0 0 0 -2.267,2.267 z"
     id="path822" />
  <path
     style="stroke:#ffffff;stroke-width:3.52200007;stroke-linecap:round;stroke-linejoin:round"
     inkscape:connector-curvature="0"
     d="m 138.932,138.966 15.718,15.718"
     id="path824" />
  <path
     style="fill:#56595b"
     inkscape:connector-curvature="0"
     d="M 64.966,136.034 90,117.294 v 37.48 z m 142.073,0 -25.034,-18.74 v 37.48 z M 136,208.073 117.26,183.039 h 37.48 z M 136,64 117.26,89.034 h 37.48 z"
     id="path826" />
</svg>
