<?xml version="1.0" encoding="UTF-8" standalone="no"?>
<svg
   xmlns:dc="http://purl.org/dc/elements/1.1/"
   xmlns:cc="http://creativecommons.org/ns#"
   xmlns:rdf="http://www.w3.org/1999/02/22-rdf-syntax-ns#"
   xmlns:svg="http://www.w3.org/2000/svg"
   xmlns="http://www.w3.org/2000/svg"
   xmlns:sodipodi="http://sodipodi.sourceforge.net/DTD/sodipodi-0.dtd"
   xmlns:inkscape="http://www.inkscape.org/namespaces/inkscape"
   viewBox="0 0 272 272"
   version="1.1"
   id="svg16"
   sodipodi:docname="zenmate_fg.svg"
   inkscape:version="0.92.4 (5da689c313, 2019-01-14)"
   width="272"
   height="272">
  <metadata
     id="metadata20">
    <rdf:RDF>
      <cc:Work
         rdf:about="">
        <dc:format>image/svg+xml</dc:format>
        <dc:type
           rdf:resource="http://purl.org/dc/dcmitype/StillImage" />
        <dc:title></dc:title>
      </cc:Work>
    </rdf:RDF>
  </metadata>
  <sodipodi:namedview
     pagecolor="#ffffff"
     bordercolor="#666666"
     borderopacity="1"
     objecttolerance="10"
     gridtolerance="10"
     guidetolerance="10"
     inkscape:pageopacity="0"
     inkscape:pageshadow="2"
     inkscape:window-width="1920"
     inkscape:window-height="1017"
     id="namedview18"
     showgrid="true"
     inkscape:zoom="2.9945397"
     inkscape:cx="36.204625"
     inkscape:cy="101.92595"
     inkscape:window-x="-8"
     inkscape:window-y="-8"
     inkscape:window-maximized="1"
     inkscape:current-layer="svg16"
     inkscape:snap-global="false">
    <inkscape:grid
       type="xygrid"
       id="grid827"
       spacingx="4"
       spacingy="4" />
  </sodipodi:namedview>
  <defs
     id="defs4">
    <style
       id="style2">.a{fill:none;stroke:#b1b5bd;stroke-linecap:round;stroke-linejoin:round;isolation:isolate;opacity:0.63;}</style>
  </defs>
  <path
     style="fill:#ffffff;stroke-width:0.45272684"
     inkscape:connector-curvature="0"
     d="m 138.01436,95.55772 c 10.00525,0.316905 19.5578,1.131825 28.74815,4.210345 0.58853,0.1811 1.17708,0.407465 1.72035,0.633815 2.49,1.04128 3.71237,2.80693 3.44073,5.52328 -1.72037,17.33944 -5.976,33.90925 -14.98527,48.98504 -4.43672,7.42472 -10.0958,13.85344 -17.20361,18.83344 -2.71637,1.90144 -4.84418,1.90144 -7.56054,-0.0454 -9.5978,-6.83618 -16.34343,-16.02654 -21.32342,-26.52979 -6.20237,-12.94799 -9.41672,-26.71089 -10.910718,-40.88124 -0.316917,-3.03327 0.950718,-5.02526 3.938718,-6.11181 6.11182,-2.218365 12.49526,-3.304885 18.96926,-3.938725 5.16109,-0.54327 10.36743,-0.769628 15.16635,-0.679079 z"
     id="path820" />
  <path
     style="fill:#9abeff;stroke-width:0.45272684"
     inkscape:connector-curvature="0"
     d="m 135.16217,101.66954 c 9.91472,0 18.96925,1.22235 27.8427,3.71234 1.8109,0.49801 2.26364,1.08655 2.03728,2.80691 -1.76565,14.44199 -5.38746,28.34071 -12.54055,41.1076 -3.80289,6.83618 -8.60181,12.90273 -14.75888,17.74689 -1.44873,1.13182 -2.21836,1.13182 -3.66709,0 -8.73764,-6.88144 -14.53252,-15.93599 -18.83345,-25.98652 -4.57252,-10.59381 -7.15307,-21.73089 -8.46598,-33.18487 -0.18109,-1.35819 0.49801,-2.12782 1.72036,-2.49001 6.47399,-1.85618 13.12909,-2.988 19.82944,-3.44073 2.53526,-0.13582 5.02526,-0.36216 6.83617,-0.27161 z"
     id="path822" />
  <path
     style="fill:#ffffff;stroke-width:0.45272684"
     inkscape:connector-curvature="0"
     d="m 136.02236,108.14351 c 6.74562,0.0906 13.44598,0.76965 20.05578,2.1731 1.44873,0.31691 1.94674,0.95073 1.72036,2.44473 -1.99198,11.72563 -5.20635,23.0438 -11.04652,33.50178 -2.53526,4.52726 -5.52328,8.69235 -9.19036,12.35945 -1.35818,1.35817 -1.72036,1.35817 -3.12381,-0.0453 -6.29289,-6.33818 -10.5938,-13.944 -13.85343,-22.18361 -3.07855,-7.74163 -5.11581,-15.80017 -6.42872,-24.0398 -0.22638,-1.40345 0.40743,-1.85619 1.53927,-2.08255 6.65507,-1.40344 13.44598,-2.08255 20.32743,-2.12782 z"
     id="path824" />
  <path
     style="fill:#9abeff;stroke-width:0.45272684"
     inkscape:connector-curvature="0"
     d="m 135.97709,131.27787 v -14.53255 c 0,-2.08253 0.1358,-2.21835 2.3089,-2.17308 3.48599,0.0906 6.92672,0.54328 10.32218,0.95074 1.17706,0.13579 1.72036,0.72435 1.4487,1.99199 -2.21835,10.0958 -5.47798,19.82942 -11.04653,28.61234 -0.18108,0.3169 -0.40744,0.58854 -0.58853,0.90544 -0.36219,0.58854 -0.81491,1.08655 -1.62983,0.86018 -0.81489,-0.22636 -0.81489,-0.90545 -0.81489,-1.58452 z"
     id="path826" />
</svg>
