<?xml version="1.0" encoding="UTF-8" standalone="no"?>
<svg
   xmlns:dc="http://purl.org/dc/elements/1.1/"
   xmlns:cc="http://creativecommons.org/ns#"
   xmlns:rdf="http://www.w3.org/1999/02/22-rdf-syntax-ns#"
   xmlns:svg="http://www.w3.org/2000/svg"
   xmlns="http://www.w3.org/2000/svg"
   xmlns:sodipodi="http://sodipodi.sourceforge.net/DTD/sodipodi-0.dtd"
   xmlns:inkscape="http://www.inkscape.org/namespaces/inkscape"
   viewBox="0 0 272 272"
   version="1.1"
   id="svg16"
   sodipodi:docname="zeplin_fg.svg"
   inkscape:version="0.92.4 (5da689c313, 2019-01-14)"
   width="272"
   height="272">
  <metadata
     id="metadata20">
    <rdf:RDF>
      <cc:Work
         rdf:about="">
        <dc:format>image/svg+xml</dc:format>
        <dc:type
           rdf:resource="http://purl.org/dc/dcmitype/StillImage" />
        <dc:title></dc:title>
      </cc:Work>
    </rdf:RDF>
  </metadata>
  <sodipodi:namedview
     pagecolor="#ffffff"
     bordercolor="#666666"
     borderopacity="1"
     objecttolerance="10"
     gridtolerance="10"
     guidetolerance="10"
     inkscape:pageopacity="0"
     inkscape:pageshadow="2"
     inkscape:window-width="1920"
     inkscape:window-height="1017"
     id="namedview18"
     showgrid="true"
     inkscape:zoom="2.1174593"
     inkscape:cx="176.53161"
     inkscape:cy="101.92595"
     inkscape:window-x="-8"
     inkscape:window-y="-8"
     inkscape:window-maximized="1"
     inkscape:current-layer="svg16"
     inkscape:snap-global="false">
    <inkscape:grid
       type="xygrid"
       id="grid827"
       spacingx="4"
       spacingy="4" />
  </sodipodi:namedview>
  <defs
     id="defs4">
    <style
       id="style2">.a{fill:none;stroke:#b1b5bd;stroke-linecap:round;stroke-linejoin:round;isolation:isolate;opacity:0.63;}</style>
  </defs>
  <path
     style="fill:#ffffff;stroke-width:0.75810242"
     inkscape:connector-curvature="0"
     d="m 176.99172,121.23553 c -4.06571,-11.18883 -22.38223,-14.37968 -45.16926,-6.62884 -15.23408,5.18162 -24.98176,13.21145 -28.82912,21.26931 l -14.278098,5.62437 7.47261,8.60598 0.22667,12.00076 13.362308,-4.92312 c 7.55601,3.87315 19.86835,3.78065 36.771,-2.05976 22.13129,-7.64698 34.51034,-22.70062 30.44389,-33.8887 z"
     id="path824" />
  <path
     style="fill:#f9de81;stroke-width:0.75810242"
     inkscape:connector-curvature="0"
     d="m 98.618332,158.88138 11.307098,-4.16501 0.8847,0.45258 c 3.11732,1.59808 7.09812,2.40925 11.83094,2.40925 6.55228,0 14.34709,-1.54576 23.16761,-4.59409 13.58747,-4.69493 24.08947,-12.51401 28.09453,-20.91529 1.29408,-2.71477 1.79897,-5.36207 1.50255,-7.78117 l -76.917068,27.70637 z"
     id="path826" />
  <path
     style="fill:#ffffff;stroke-width:0.75810242"
     inkscape:connector-curvature="0"
     d="m 142.57841,157.3629 a 85.19555,85.19555 0 0 1 -0.85211,3.89286 c -2.05142,8.27544 -4.14681,10.12749 -4.78135,10.12749 h -0.0144 c -0.62772,0 -2.57831,-1.95818 -4.03994,-10.34885 -1.25466,-7.20578 -1.74439,-16.78288 -1.37823,-26.92933 0.36389,-10.09564 1.53213,-19.56889 3.28941,-26.65488 2.05218,-8.274681 4.14682,-10.092611 4.795,-10.092611 0.62771,0.0227 2.57831,1.91648 4.03993,10.307161 0.17057,0.97947 0.3275,2.00291 0.4685,3.06501 a 43.803158,43.803158 0 0 1 2.67686,-0.47836 81.984229,81.984229 0 0 0 -0.46851,-3.0544 c -1.45251,-8.342161 -3.61766,-12.450311 -6.61823,-12.558721 -0.0379,-0.002 -0.0743,-0.003 -0.1122,-0.003 -2.96418,0 -5.39087,3.97473 -7.41879,12.151621 -1.80049,7.26338 -2.99678,16.92312 -3.36673,27.20072 -0.37222,10.33066 0.13039,20.08743 1.41765,27.47287 1.45328,8.34368 3.61766,12.45107 6.61824,12.55948 l 0.11219,0.002 c 2.96495,0 5.39087,-3.97397 7.41955,-12.15086 a 88.250706,88.250706 0 0 0 1.1546,-5.44014 35.624749,35.624749 0 0 1 -2.94144,0.93246 z"
     id="path828" />
  <path
     style="fill:#ffffff;stroke-width:0.75810242"
     inkscape:connector-curvature="0"
     d="m 162.78791,149.46802 a 81.198834,81.198834 0 0 0 -1.73,-2.83454 l -2.29174,1.45859 a 79.104198,79.104198 0 0 1 1.67313,2.74205 c 4.27949,7.36345 4.00582,10.06988 3.53959,10.49138 -0.16375,0.14859 -0.49959,0.17058 -0.68457,0.17058 -4.00809,0 -15.58204,-8.09199 -29.13615,-23.09029 -6.80776,-7.53402 -12.58147,-15.16507 -16.25599,-21.48917 -4.27949,-7.3642 -4.00582,-10.07063 -3.53958,-10.49213 0.16375,-0.14783 0.49883,-0.16982 0.68457,-0.16982 4.00808,0 15.58203,8.09274 29.1369,23.09104 a 177.12305,177.12305 0 0 1 2.64578,2.99374 l 2.71249,-1.01282 a 185.25219,185.25219 0 0 0 -3.34247,-3.80264 c -6.07013,-6.71603 -12.48216,-12.80208 -18.05573,-17.13614 -4.0187,-3.12566 -9.5536,-6.85022 -13.09622,-6.85022 -1.02343,0 -1.86645,0.29339 -2.50629,0.87106 -2.2273,2.01352 -1.24252,6.55152 3.0127,13.87327 3.76625,6.48178 9.65823,14.27583 16.58956,21.94556 6.07012,6.71603 12.48216,12.80207 18.05496,17.13614 4.01871,3.1249 9.55437,6.85022 13.09622,6.85022 1.02421,0 1.86645,-0.29339 2.50705,-0.87107 2.22655,-2.01504 1.24025,-6.55303 -3.01421,-13.87479 z"
     id="path830" />
</svg>
