<?xml version="1.0" encoding="UTF-8" standalone="no"?>
<svg
   xmlns:dc="http://purl.org/dc/elements/1.1/"
   xmlns:cc="http://creativecommons.org/ns#"
   xmlns:rdf="http://www.w3.org/1999/02/22-rdf-syntax-ns#"
   xmlns:svg="http://www.w3.org/2000/svg"
   xmlns="http://www.w3.org/2000/svg"
   xmlns:sodipodi="http://sodipodi.sourceforge.net/DTD/sodipodi-0.dtd"
   xmlns:inkscape="http://www.inkscape.org/namespaces/inkscape"
   viewBox="0 0 272 272"
   version="1.1"
   id="svg16"
   sodipodi:docname="zepp_fg.svg"
   inkscape:version="0.92.4 (5da689c313, 2019-01-14)"
   width="272"
   height="272">
  <metadata
     id="metadata20">
    <rdf:RDF>
      <cc:Work
         rdf:about="">
        <dc:format>image/svg+xml</dc:format>
        <dc:type
           rdf:resource="http://purl.org/dc/dcmitype/StillImage" />
        <dc:title></dc:title>
      </cc:Work>
    </rdf:RDF>
  </metadata>
  <sodipodi:namedview
     pagecolor="#ffffff"
     bordercolor="#666666"
     borderopacity="1"
     objecttolerance="10"
     gridtolerance="10"
     guidetolerance="10"
     inkscape:pageopacity="0"
     inkscape:pageshadow="2"
     inkscape:window-width="1920"
     inkscape:window-height="1017"
     id="namedview18"
     showgrid="true"
     inkscape:zoom="2.9945397"
     inkscape:cx="69.591066"
     inkscape:cy="158.59764"
     inkscape:window-x="-8"
     inkscape:window-y="-8"
     inkscape:window-maximized="1"
     inkscape:current-layer="svg16"
     inkscape:snap-global="false">
    <inkscape:grid
       type="xygrid"
       id="grid827"
       spacingx="4"
       spacingy="4" />
  </sodipodi:namedview>
  <defs
     id="defs4">
    <style
       id="style2">.a{fill:none;stroke:#b1b5bd;stroke-linecap:round;stroke-linejoin:round;isolation:isolate;opacity:0.63;}</style>
    <clipPath
       id="a">
      <path
         id="path824"
         d="M0 0h192v192H0z"
         fill="#fff" />
    </clipPath>
  </defs>
  <path
     id="path820"
     d="m 167.00547,99.332118 c -20.66,0.05 -41.33,-0.05 -61.99,0 0.05,2.600002 0.34,6.520002 1.48,10.900002 0.98,3.76 2.86,10.67 8.68,17.13 2.01,2.23 5.67,5.72 11.42,8.45 -5.75,2.73 -9.41,6.22 -11.42,8.45 -5.82,6.46 -7.7,13.37 -8.68,17.13 -1.14,4.38 -1.43,8.3 -1.48,10.9 20.66,0.05 41.33,-0.05 61.99,0 v -12.24 h -45.09 c 1.66,-4.6 3.96,-7.64 5.5,-9.37 2.88,-3.25 5.93,-4.93 11.86,-8.2 3.85,-2.12 7.24,-3.72 9.86,-4.87 v -3.62 c -2.62,-1.15 -6.02,-2.74 -9.86,-4.87 -5.92,-3.27 -8.97,-4.95 -11.86,-8.2 -1.54,-1.73 -3.84,-4.77 -5.5,-9.37 h 45.09 z"
     inkscape:connector-curvature="0"
     style="clip-rule:evenodd;fill:#ffffff;fill-rule:evenodd" />
</svg>
