<?xml version="1.0" encoding="UTF-8" standalone="no"?>
<svg
   xmlns:dc="http://purl.org/dc/elements/1.1/"
   xmlns:cc="http://creativecommons.org/ns#"
   xmlns:rdf="http://www.w3.org/1999/02/22-rdf-syntax-ns#"
   xmlns:svg="http://www.w3.org/2000/svg"
   xmlns="http://www.w3.org/2000/svg"
   xmlns:sodipodi="http://sodipodi.sourceforge.net/DTD/sodipodi-0.dtd"
   xmlns:inkscape="http://www.inkscape.org/namespaces/inkscape"
   viewBox="0 0 272 272"
   version="1.1"
   id="svg16"
   sodipodi:docname="zity_fg.svg"
   inkscape:version="0.92.4 (5da689c313, 2019-01-14)"
   width="272"
   height="272">
  <metadata
     id="metadata20">
    <rdf:RDF>
      <cc:Work
         rdf:about="">
        <dc:format>image/svg+xml</dc:format>
        <dc:type
           rdf:resource="http://purl.org/dc/dcmitype/StillImage" />
        <dc:title></dc:title>
      </cc:Work>
    </rdf:RDF>
  </metadata>
  <sodipodi:namedview
     pagecolor="#ffffff"
     bordercolor="#666666"
     borderopacity="1"
     objecttolerance="10"
     gridtolerance="10"
     guidetolerance="10"
     inkscape:pageopacity="0"
     inkscape:pageshadow="2"
     inkscape:window-width="1920"
     inkscape:window-height="1017"
     id="namedview18"
     showgrid="true"
     inkscape:zoom="2.9945397"
     inkscape:cx="36.204625"
     inkscape:cy="101.92595"
     inkscape:window-x="-8"
     inkscape:window-y="-8"
     inkscape:window-maximized="1"
     inkscape:current-layer="svg16"
     inkscape:snap-global="false">
    <inkscape:grid
       type="xygrid"
       id="grid827"
       spacingx="4"
       spacingy="4" />
  </sodipodi:namedview>
  <defs
     id="defs4">
    <style
       id="style2">.a{fill:none;stroke:#b1b5bd;stroke-linecap:round;stroke-linejoin:round;isolation:isolate;opacity:0.63;}</style>
  </defs>
  <g
     style="display:inline"
     id="g824"
     transform="translate(40.246118,39.734823)">
    <path
       inkscape:connector-curvature="0"
       d="m 21.77,118.199 c -5.431,-4.826 1.14,-10.947 4.261,-14.892 5.23,-6.595 10.627,-13.471 15.734,-20.161 H 19.5 c 0.436,-4.5 3.108,-10.187 8.343,-9.88 h 27.021 c 6.044,4.607 -0.767,11.785 -3.967,15.795 -5.232,6.664 -10.661,13.393 -15.794,20.134 h 22.433 c -0.323,5.48 -5.199,10.438 -10.758,10.079 H 22.886 Z M 63.845,96.17 V 73.266 h 10.78 c -0.141,12.748 0.324,25.523 -0.394,38.251 -1.053,4.513 -5.794,8.033 -10.386,7.757 z m 30.99,4.94 V 83.147 H 83.9 c -1.068,0.078 -2,-0.998 -2.015,-2 v -5.88 c 0.172,-1.482 0.347,-1.8 2,-2 10.455,-0.056 25.343,0.013 35.201,0 0.279,3.574 -0.361,8.804 -4.44,9.88 h -9.033 v 36.128 H 94.835 Z M 142.44,99.6 123.128,73.267 h 10.373 c 0,0 1.377,0.19 1.95,0.456 0.572,0.266 1.202,0.907 1.202,0.907 l 11.177,13.222 10.946,-12.983 c 0,0 0.68,-0.858 1.3,-1.146 0.618,-0.288 2.05,-0.456 2.05,-0.456 H 172.5 L 153.22,99.6 v 19.675 h -10.779 z"
       style="fill:#ffffff;fill-opacity:1;stroke-width:0.44911501"
       id="path822" />
  </g>
</svg>
