<?xml version="1.0" encoding="UTF-8" standalone="no"?>
<svg
   xmlns:dc="http://purl.org/dc/elements/1.1/"
   xmlns:cc="http://creativecommons.org/ns#"
   xmlns:rdf="http://www.w3.org/1999/02/22-rdf-syntax-ns#"
   xmlns:svg="http://www.w3.org/2000/svg"
   xmlns="http://www.w3.org/2000/svg"
   xmlns:sodipodi="http://sodipodi.sourceforge.net/DTD/sodipodi-0.dtd"
   xmlns:inkscape="http://www.inkscape.org/namespaces/inkscape"
   viewBox="0 0 272 272"
   version="1.1"
   id="svg16"
   sodipodi:docname="zoho_desk_fg.svg"
   inkscape:version="0.92.4 (5da689c313, 2019-01-14)"
   width="272"
   height="272">
  <metadata
     id="metadata20">
    <rdf:RDF>
      <cc:Work
         rdf:about="">
        <dc:format>image/svg+xml</dc:format>
        <dc:type
           rdf:resource="http://purl.org/dc/dcmitype/StillImage" />
        <dc:title></dc:title>
      </cc:Work>
    </rdf:RDF>
  </metadata>
  <sodipodi:namedview
     pagecolor="#ffffff"
     bordercolor="#666666"
     borderopacity="1"
     objecttolerance="10"
     gridtolerance="10"
     guidetolerance="10"
     inkscape:pageopacity="0"
     inkscape:pageshadow="2"
     inkscape:window-width="1920"
     inkscape:window-height="1017"
     id="namedview18"
     showgrid="true"
     inkscape:zoom="4.2349186"
     inkscape:cx="36.204625"
     inkscape:cy="120.81651"
     inkscape:window-x="-8"
     inkscape:window-y="-8"
     inkscape:window-maximized="1"
     inkscape:current-layer="svg16"
     inkscape:snap-global="true">
    <inkscape:grid
       type="xygrid"
       id="grid827"
       spacingx="4"
       spacingy="4" />
  </sodipodi:namedview>
  <defs
     id="defs4">
    <style
       id="style2">.a{fill:none;stroke:#b1b5bd;stroke-linecap:round;stroke-linejoin:round;isolation:isolate;opacity:0.63;}</style>
  </defs>
  <path
     style="fill:none;stroke:#ffffff;stroke-width:4;stroke-linecap:round"
     inkscape:connector-curvature="0"
     d="m 158.78,149.4 -4.033,15.419 a 5.18,5.18 0 0 1 -5.012,3.87 H 119.9 a 15.613,15.613 0 0 0 -7.507,1.923 l -6.785,3.72 a 1.906,1.906 0 0 1 -2.791,-2.011 l 7.471,-41.093 a 4.793,4.793 0 0 1 4.716,-3.936 h 29.39 a 4.625,4.625 0 0 0 4.577,-3.958 l 1.073,-7.367 a 3.46,3.46 0 0 0 -3.424,-3.958 2.87,2.87 0 0 1 -1.705,-3.965 l 0.876,-6.61 a 4.566,4.566 0 0 1 4.526,-3.966 h 10.547 a 3.607,3.607 0 0 1 3.588,3.979 l -2.884,27.802 a 8.183,8.183 0 0 1 -3.806,6.097 l -18.883,11.788 a 5.991,5.991 0 0 1 -6.65,-0.204 l -11.73,-8.361"
     id="path820" />
</svg>
