<?xml version="1.0" encoding="UTF-8" standalone="no"?>
<svg
   xmlns:dc="http://purl.org/dc/elements/1.1/"
   xmlns:cc="http://creativecommons.org/ns#"
   xmlns:rdf="http://www.w3.org/1999/02/22-rdf-syntax-ns#"
   xmlns:svg="http://www.w3.org/2000/svg"
   xmlns="http://www.w3.org/2000/svg"
   xmlns:sodipodi="http://sodipodi.sourceforge.net/DTD/sodipodi-0.dtd"
   xmlns:inkscape="http://www.inkscape.org/namespaces/inkscape"
   viewBox="0 0 272 272"
   version="1.1"
   id="svg16"
   sodipodi:docname="zoiper_fg.svg"
   inkscape:version="0.92.4 (5da689c313, 2019-01-14)"
   width="272"
   height="272">
  <metadata
     id="metadata20">
    <rdf:RDF>
      <cc:Work
         rdf:about="">
        <dc:format>image/svg+xml</dc:format>
        <dc:type
           rdf:resource="http://purl.org/dc/dcmitype/StillImage" />
        <dc:title></dc:title>
      </cc:Work>
    </rdf:RDF>
  </metadata>
  <sodipodi:namedview
     pagecolor="#ffffff"
     bordercolor="#666666"
     borderopacity="1"
     objecttolerance="10"
     gridtolerance="10"
     guidetolerance="10"
     inkscape:pageopacity="0"
     inkscape:pageshadow="2"
     inkscape:window-width="1920"
     inkscape:window-height="1017"
     id="namedview18"
     showgrid="true"
     inkscape:zoom="2.9945397"
     inkscape:cx="36.204625"
     inkscape:cy="128.64124"
     inkscape:window-x="-8"
     inkscape:window-y="-8"
     inkscape:window-maximized="1"
     inkscape:current-layer="svg16"
     inkscape:snap-global="false">
    <inkscape:grid
       type="xygrid"
       id="grid827"
       spacingx="4"
       spacingy="4" />
  </sodipodi:namedview>
  <defs
     id="defs4">
    <style
       id="style2">.a{fill:none;stroke:#b1b5bd;stroke-linecap:round;stroke-linejoin:round;isolation:isolate;opacity:0.63;}</style>
  </defs>
  <path
     inkscape:connector-curvature="0"
     d="m 103.76466,162.11705 c -2.04378,-0.39918 -3.41694,-0.0559 -4.590514,2.13159 -2.426989,4.51867 -8.191083,6.32295 -12.973203,4.55061 -5.061545,-1.87613 -7.879724,-6.77002 -7.097339,-12.3026 0.694565,-4.92582 5.021626,-8.72596 10.362594,-9.10119 5.013643,-0.35128 10.011323,3.00978 11.017242,8.15117 0.55086,2.82615 1.79629,3.09759 4.0157,2.63454 3.59258,0.008 7.18517,0.008 10.77774,0.016 4.90986,0.0319 9.84367,-0.20758 14.72958,0.15967 6.13931,0.46305 9.58819,-3.21736 12.87739,-7.41668 0.90214,-1.14962 0.75046,-1.91605 -0.55885,-2.89802 -11.69583,-8.78185 -9.5802,-25.60311 3.87999,-31.23946 0.84626,-0.35127 1.55678,-0.66263 1.9879,-1.56477 2.33916,-4.84599 4.72623,-9.67602 7.08935,-14.50604 1.66856,-3.36106 3.32912,-6.722113 4.99768,-10.083165 0.78238,-1.484889 1.66056,-2.92192 2.31522,-4.462737 0.54287,-1.277362 1.19752,-1.620653 2.57068,-1.245428 6.51455,1.804273 11.86349,5.428786 16.49394,10.258812 0.69456,0.726499 0.66262,1.349206 0.26345,2.139572 -0.39917,0.782387 -0.73448,1.596707 -1.09374,2.395055 -1.66855,3.480821 -3.33711,6.953641 -5.00566,10.434451 -2.26732,4.60649 -4.51069,9.22893 -6.84187,13.80348 -0.44708,0.87819 -0.16766,1.5009 0.12774,2.24338 5.38089,13.45221 -4.24723,26.44936 -18.66544,25.1161 -1.1656,-0.11176 -1.74041,0.16767 -2.3312,1.06181 -2.15553,3.26525 -4.96574,5.89184 -8.23099,8.03941 -1.86015,1.22946 -3.76821,1.79628 -6.09141,1.7324 -6.43471,-0.18361 -12.86942,-0.0479 -19.31211,-0.04 -3.56864,-0.10378 -7.14524,-0.30337 -10.71387,-0.008 z"
     style="fill:#56595b;stroke-width:0.79835087"
     id="path837" />
  <path
     style="fill:#f8c18c;stroke-width:0.79835087"
     inkscape:connector-curvature="0"
     d="m 103.76466,162.11705 c 3.56863,-0.29539 7.14523,-0.0959 10.71387,0 -0.28741,3.26525 -1.22946,6.4906 -0.62272,9.81173 0.47902,2.63456 1.55679,3.59258 4.20732,3.69636 2.49086,0.0959 4.97372,0.1437 7.46458,0.28742 6.49858,0.37522 12.16686,-1.32527 16.77335,-6.19521 2.70641,-2.8581 5.66031,-5.47669 8.50244,-8.20705 1.77233,-1.69251 3.80014,-2.49883 6.32293,-2.3711 3.20938,0.15967 6.43471,-0.0239 9.65206,0.0559 3.91991,0.0879 6.96162,-1.63661 9.51635,-4.3989 2.4669,-2.65852 3.87201,-5.89982 4.76615,-9.35668 1.72443,-6.70615 1.95597,-13.52407 0.88617,-20.334 -0.84626,-5.43676 -2.44295,-10.64202 -6.13133,-14.94513 1.66855,-3.4808 3.3371,-6.95363 5.00565,-10.434442 6.69019,6.378822 10.10712,14.370312 11.50425,23.351762 1.49291,9.61215 1.17357,19.12848 -2.13161,28.33348 -3.35307,9.32473 -9.33271,16.11071 -19.53564,18.11457 -3.40897,0.67062 -6.91372,0.35927 -10.3626,0.23951 -2.21941,-0.0798 -3.77619,0.64667 -5.25314,2.21143 -3.26527,3.44887 -6.66623,6.76203 -10.53026,9.56424 -3.37702,2.44295 -6.93766,4.30311 -11.2248,4.54262 -6.03554,0.34329 -12.08704,0.61472 -18.07467,-0.20758 -6.8259,-0.94204 -11.43239,-6.28301 -11.93535,-13.18076 -0.26345,-3.5367 0.0161,-7.06541 0.487,-10.57815 z"
     class="st3"
     id="path839" />
  <path
     style="fill:#f8c18c;stroke-width:0.79835087"
     inkscape:connector-curvature="0"
     d="m 115.27688,158.20513 c -3.59257,-0.008 -7.18516,-0.008 -10.77774,-0.016 0.52692,-3.33711 0.99795,-6.67422 1.59671,-9.99536 0.28741,-1.56477 -0.0639,-2.21941 -1.76435,-2.59463 -6.594388,-1.46099 -11.280707,-5.10945 -12.406383,-12.12695 -0.686581,-4.28715 0.534896,-8.19108 3.688382,-11.24876 9.013381,-8.74194 18.098621,-17.40406 26.928381,-26.329616 4.6464,-4.694306 10.78572,-5.851915 17.06075,-6.22714 6.9217,-0.407158 13.83542,-0.255471 20.68527,0.981976 -1.66856,3.361053 -3.32911,6.722106 -4.99767,10.08317 -5.42879,-1.069793 -10.91347,-0.68659 -16.3662,-0.37522 -3.1934,0.18361 -6.5305,0.6706 -8.93354,3.12155 -8.46253,8.63017 -17.25237,16.91706 -25.90649,25.33965 -2.63455,2.5707 -2.15555,4.84599 1.32526,6.12335 2.5228,0.9261 5.21323,0.87021 7.86376,1.06979 4.55858,0.33532 5.64434,1.78033 4.71027,6.26706 -1.10971,5.2771 -2.04378,10.57815 -2.70641,15.9271 z"
     class="st3"
     id="path841" />
  <style
     id="style829">.st0{fill:#fff}.st3{fill:#f8c18c}</style>
</svg>
