<?xml version="1.0" encoding="UTF-8" standalone="no"?>
<svg
   xmlns:dc="http://purl.org/dc/elements/1.1/"
   xmlns:cc="http://creativecommons.org/ns#"
   xmlns:rdf="http://www.w3.org/1999/02/22-rdf-syntax-ns#"
   xmlns:svg="http://www.w3.org/2000/svg"
   xmlns="http://www.w3.org/2000/svg"
   xmlns:sodipodi="http://sodipodi.sourceforge.net/DTD/sodipodi-0.dtd"
   xmlns:inkscape="http://www.inkscape.org/namespaces/inkscape"
   viewBox="0 0 272 272"
   version="1.1"
   id="svg16"
   sodipodi:docname="zomato_fg.svg"
   inkscape:version="0.92.4 (5da689c313, 2019-01-14)"
   width="272"
   height="272">
  <metadata
     id="metadata20">
    <rdf:RDF>
      <cc:Work
         rdf:about="">
        <dc:format>image/svg+xml</dc:format>
        <dc:type
           rdf:resource="http://purl.org/dc/dcmitype/StillImage" />
        <dc:title></dc:title>
      </cc:Work>
    </rdf:RDF>
  </metadata>
  <sodipodi:namedview
     pagecolor="#ffffff"
     bordercolor="#666666"
     borderopacity="1"
     objecttolerance="10"
     gridtolerance="10"
     guidetolerance="10"
     inkscape:pageopacity="0"
     inkscape:pageshadow="2"
     inkscape:window-width="1920"
     inkscape:window-height="1017"
     id="namedview18"
     showgrid="true"
     inkscape:zoom="4.2349186"
     inkscape:cx="36.204625"
     inkscape:cy="139.70708"
     inkscape:window-x="-8"
     inkscape:window-y="-8"
     inkscape:window-maximized="1"
     inkscape:current-layer="svg16"
     inkscape:snap-global="false">
    <inkscape:grid
       type="xygrid"
       id="grid827"
       spacingx="4"
       spacingy="4" />
  </sodipodi:namedview>
  <defs
     id="defs4">
    <style
       id="style2">.a{fill:none;stroke:#b1b5bd;stroke-linecap:round;stroke-linejoin:round;isolation:isolate;opacity:0.63;}</style>
  </defs>
  <path
     style="fill:#ffffff"
     inkscape:connector-curvature="0"
     d="M 106.07387,131.15 H 96.023868 v 3.18 h 4.380002 l -5.010002,8.82 h 10.500002 v -3.18 h -4.86 z m 8.029,12.24 c 4.02,0 6.66,-2.64 6.66,-6.24 0,-3.6 -2.64,-6.24 -6.66,-6.24 -4.02,0 -6.69,2.64 -6.69,6.24 0,3.6 2.67,6.24 6.69,6.24 z m 0,-3.39 c -1.65,-0.03 -2.85,-1.23 -2.85,-2.85 0,-1.62 1.2,-2.82 2.85,-2.85 1.62,0.03 2.85,1.23 2.85,2.85 0,1.62 -1.23,2.82 -2.85,2.85 z m 23.694,-9.09 c -1.71,0 -3.03,0.78 -3.78,2.1 -0.69,-1.26 -1.89,-2.1 -3.42,-2.1 -1.38,0 -2.49,0.66 -3.27,1.71 v -1.47 h -3.84 v 12 h 3.84 v -6.96 c 0,-0.87 0.54,-1.89 1.71,-1.89 1.05,0 1.74,0.84 1.74,1.89 v 6.96 h 3.84 v -6.96 c 0,-0.87 0.54,-1.89 1.71,-1.89 1.05,0 1.77,0.84 1.77,1.89 v 6.96 h 3.81 v -7.59 c 0,-2.79 -1.47,-4.65 -4.11,-4.65 z m 19.507,9.12 c -0.45,0 -0.75,-0.57 -0.75,-1.56 v -2.55 c 0,-3.06 -2.37,-5.01 -5.88,-5.01 -3.51,0 -5.85,1.74 -5.85,4.44 h 3.84 c 0,-0.96 0.84,-1.53 2.01,-1.53 1.2,0 2.04,0.66 2.04,1.71 v 0.9 h -4.11 c -2.31,0 -3.78,1.38 -3.78,3.51 0,2.1 1.74,3.45 4.41,3.45 1.77,0 3.3,-0.63 4.23,-1.68 0.69,1.08 1.83,1.68 3.27,1.68 0.36,0 0.81,-0.09 1.2,-0.24 v -3.12 z m -6.99,0.78 c -0.99,0 -1.62,-0.39 -1.62,-1.02 0,-0.63 0.48,-1.05 1.23,-1.05 h 2.79 c -0.15,1.26 -1.05,2.07 -2.4,2.07 z m 16.802,-6.69 v -2.97 h -2.85 v -4.62 h -3.81 v 4.62 h -2.01 v 2.97 h 2.01 v 4.74 c 0,2.55 2.16,4.53 4.71,4.53 0.81,0 1.62,-0.18 1.92,-0.39 v -2.97 h -1.44 c -0.81,0 -1.38,-0.63 -1.38,-1.62 v -4.29 z m 8.229,9.27 c 4.02,0 6.66,-2.64 6.66,-6.24 0,-3.6 -2.64,-6.24 -6.66,-6.24 -4.02,0 -6.69,2.64 -6.69,6.24 0,3.6 2.67,6.24 6.69,6.24 z m 0,-3.39 c -1.65,-0.03 -2.85,-1.23 -2.85,-2.85 0,-1.62 1.2,-2.82 2.85,-2.85 1.62,0.03 2.85,1.23 2.85,2.85 0,1.62 -1.23,2.82 -2.85,2.85 z"
     id="path820" />
</svg>
