<?xml version="1.0" encoding="UTF-8" standalone="no"?>
<svg
   xmlns:dc="http://purl.org/dc/elements/1.1/"
   xmlns:cc="http://creativecommons.org/ns#"
   xmlns:rdf="http://www.w3.org/1999/02/22-rdf-syntax-ns#"
   xmlns:svg="http://www.w3.org/2000/svg"
   xmlns="http://www.w3.org/2000/svg"
   xmlns:sodipodi="http://sodipodi.sourceforge.net/DTD/sodipodi-0.dtd"
   xmlns:inkscape="http://www.inkscape.org/namespaces/inkscape"
   viewBox="0 0 272 272"
   version="1.1"
   id="svg16"
   sodipodi:docname="zoom_fg.svg"
   inkscape:version="0.92.4 (5da689c313, 2019-01-14)"
   width="272"
   height="272">
  <metadata
     id="metadata20">
    <rdf:RDF>
      <cc:Work
         rdf:about="">
        <dc:format>image/svg+xml</dc:format>
        <dc:type
           rdf:resource="http://purl.org/dc/dcmitype/StillImage" />
        <dc:title></dc:title>
      </cc:Work>
    </rdf:RDF>
  </metadata>
  <sodipodi:namedview
     pagecolor="#ffffff"
     bordercolor="#666666"
     borderopacity="1"
     objecttolerance="10"
     gridtolerance="10"
     guidetolerance="10"
     inkscape:pageopacity="0"
     inkscape:pageshadow="2"
     inkscape:window-width="1920"
     inkscape:window-height="1017"
     id="namedview18"
     showgrid="true"
     inkscape:zoom="2.1174593"
     inkscape:cx="36.204625"
     inkscape:cy="177.4882"
     inkscape:window-x="-8"
     inkscape:window-y="-8"
     inkscape:window-maximized="1"
     inkscape:current-layer="svg16"
     inkscape:snap-global="true">
    <inkscape:grid
       type="xygrid"
       id="grid827"
       spacingx="4"
       spacingy="4" />
  </sodipodi:namedview>
  <defs
     id="defs4">
    <style
       id="style2">.a{fill:none;stroke:#b1b5bd;stroke-linecap:round;stroke-linejoin:round;isolation:isolate;opacity:0.63;}</style>
  </defs>
  <g
     style="fill:#ffffff;stroke-width:1.1875"
     id="g822"
     transform="translate(40.5,39.5)">
    <path
       inkscape:connector-curvature="0"
       d="M 100.754,68.896 56.612,69 H 54.6 c 0,0 -5.6,-0.206 -5.6,5.384 v 32.423 c 0,0 0.257,15.172 16.356,15.172 L 109.607,122 h 2.068 c 0,0 5.324,-0.044 5.324,-5.634 V 83.943 c 0.001,0 -0.145,-15.047 -16.245,-15.047 z m 41.143,0.513 c -2.013,-1.006 -4.224,0.727 -4.224,0.727 -4.099,3.541 -8.193,7.087 -12.299,10.618 -2.338,2.011 -4.027,4.181 -4.027,7.438 l -0.012,14.444 c 0,3.258 1.679,5.428 4.017,7.438 4.106,3.53 8.178,7.077 12.275,10.617 0,0 2.257,1.733 4.269,0.728 2.013,-1.007 2.104,-2.684 2.104,-3.857 V 73.266 c 0,-1.174 -0.091,-2.851 -2.103,-3.857 z"
       style="stroke-width:1.26763999"
       transform="matrix(0.8421,0,0,0.8421,14.737,15.623)"
       id="path820" />
  </g>
</svg>
