<?xml version="1.0" encoding="UTF-8" standalone="no"?>
<svg
   xmlns:dc="http://purl.org/dc/elements/1.1/"
   xmlns:cc="http://creativecommons.org/ns#"
   xmlns:rdf="http://www.w3.org/1999/02/22-rdf-syntax-ns#"
   xmlns:svg="http://www.w3.org/2000/svg"
   xmlns="http://www.w3.org/2000/svg"
   xmlns:sodipodi="http://sodipodi.sourceforge.net/DTD/sodipodi-0.dtd"
   xmlns:inkscape="http://www.inkscape.org/namespaces/inkscape"
   viewBox="0 0 272 272"
   version="1.1"
   id="svg16"
   sodipodi:docname="zooper_fg.svg"
   inkscape:version="0.92.4 (5da689c313, 2019-01-14)"
   width="272"
   height="272">
  <metadata
     id="metadata20">
    <rdf:RDF>
      <cc:Work
         rdf:about="">
        <dc:format>image/svg+xml</dc:format>
        <dc:type
           rdf:resource="http://purl.org/dc/dcmitype/StillImage" />
        <dc:title></dc:title>
      </cc:Work>
    </rdf:RDF>
  </metadata>
  <sodipodi:namedview
     pagecolor="#ffffff"
     bordercolor="#666666"
     borderopacity="1"
     objecttolerance="10"
     gridtolerance="10"
     guidetolerance="10"
     inkscape:pageopacity="0"
     inkscape:pageshadow="2"
     inkscape:window-width="1920"
     inkscape:window-height="1017"
     id="namedview18"
     showgrid="true"
     inkscape:zoom="2.9945397"
     inkscape:cx="36.204625"
     inkscape:cy="101.92595"
     inkscape:window-x="-8"
     inkscape:window-y="-8"
     inkscape:window-maximized="1"
     inkscape:current-layer="svg16"
     inkscape:snap-global="false">
    <inkscape:grid
       type="xygrid"
       id="grid827"
       spacingx="4"
       spacingy="4" />
  </sodipodi:namedview>
  <defs
     id="defs4">
    <style
       id="style2">.a{fill:none;stroke:#b1b5bd;stroke-linecap:round;stroke-linejoin:round;isolation:isolate;opacity:0.63;}</style>
  </defs>
  <path
     style="clip-rule:evenodd;fill:#728dbe;fill-rule:evenodd"
     inkscape:connector-curvature="0"
     d="M 114.92882,101.39582 H 93.184823 v 6.558 h 10.353997 l -11.536997,23.025 h 22.729997 v -6.557 h -11.194 l 11.39,-23.026 z m 16.171,29.978 c 8.382,0 15.186,-6.804 15.186,-15.186 0,-8.382 -6.804,-15.186 -15.186,-15.186 -8.43,0 -15.185,6.804 -15.185,15.186 0,8.382 6.754,15.186 15.186,15.186 z m 0,-7.396 c -4.486,0 -7.839,-3.303 -7.839,-7.79 0,-4.487 3.353,-7.79 7.84,-7.79 4.437,0 7.79,3.303 7.79,7.79 0,4.486 -3.353,7.79 -7.79,7.79 z m 33.626,7.396 c 8.382,0 15.186,-6.804 15.186,-15.186 0,-8.382 -6.804,-15.186 -15.186,-15.186 -8.431,0 -15.186,6.804 -15.186,15.186 0,8.382 6.755,15.186 15.186,15.186 z m 0,-7.396 c -4.487,0 -7.839,-3.303 -7.839,-7.79 0,-4.487 3.352,-7.79 7.839,-7.79 4.438,0 7.79,3.303 7.79,7.79 0,4.486 -3.352,7.79 -7.79,7.79 z m -71.825997,16.862 v 29.583 h 7.543997 v -11.587 h 5.62 c 5.128,0 9.073,-3.747 9.073,-8.875 0,-5.029 -3.945,-9.121 -9.072,-9.121 z m 11.931997,11.882 h -4.388 v -5.324 h 4.388 c 1.775,0 3.057,1.084 3.057,2.613 0,1.577 -1.282,2.711 -3.057,2.711 z m 38.08,-5.324 v -6.558 h -18.342 v 29.583 h 18.342 v -6.558 h -10.798 v -4.979 h 9.121 v -6.509 h -9.121 v -4.979 z m 28.476,11.29 c 3.402,-1.183 5.768,-4.486 5.768,-8.529 0,-5.128 -3.796,-9.319 -9.072,-9.319 h -13.164 v 29.583 h 7.544 v -10.847 h 1.725 l 6.903,10.847 h 8.48 z m -4.536,-5.177 h -4.388 v -6.113 h 4.388 c 1.775,0 3.057,1.281 3.057,3.056 0,1.775 -1.282,3.057 -3.057,3.057 z"
     id="path822" />
</svg>
