<?xml version="1.0" encoding="UTF-8" standalone="no"?>
<svg
   xmlns:dc="http://purl.org/dc/elements/1.1/"
   xmlns:cc="http://creativecommons.org/ns#"
   xmlns:rdf="http://www.w3.org/1999/02/22-rdf-syntax-ns#"
   xmlns:svg="http://www.w3.org/2000/svg"
   xmlns="http://www.w3.org/2000/svg"
   xmlns:sodipodi="http://sodipodi.sourceforge.net/DTD/sodipodi-0.dtd"
   xmlns:inkscape="http://www.inkscape.org/namespaces/inkscape"
   viewBox="0 0 272 272"
   version="1.1"
   id="svg16"
   sodipodi:docname="zwart_fg.svg"
   inkscape:version="0.92.4 (5da689c313, 2019-01-14)"
   width="272"
   height="272">
  <metadata
     id="metadata20">
    <rdf:RDF>
      <cc:Work
         rdf:about="">
        <dc:format>image/svg+xml</dc:format>
        <dc:type
           rdf:resource="http://purl.org/dc/dcmitype/StillImage" />
        <dc:title></dc:title>
      </cc:Work>
    </rdf:RDF>
  </metadata>
  <sodipodi:namedview
     pagecolor="#ffffff"
     bordercolor="#666666"
     borderopacity="1"
     objecttolerance="10"
     gridtolerance="10"
     guidetolerance="10"
     inkscape:pageopacity="0"
     inkscape:pageshadow="2"
     inkscape:window-width="1920"
     inkscape:window-height="1017"
     id="namedview18"
     showgrid="true"
     inkscape:zoom="2.9945397"
     inkscape:cx="36.204625"
     inkscape:cy="101.92595"
     inkscape:window-x="-8"
     inkscape:window-y="-8"
     inkscape:window-maximized="1"
     inkscape:current-layer="svg16"
     inkscape:snap-global="false">
    <inkscape:grid
       type="xygrid"
       id="grid827"
       spacingx="4"
       spacingy="4" />
  </sodipodi:namedview>
  <defs
     id="defs4">
    <style
       id="style2">.a{fill:none;stroke:#b1b5bd;stroke-linecap:round;stroke-linejoin:round;isolation:isolate;opacity:0.63;}</style>
    <style
       id="style2-2">.a{fill:none;stroke:#b1b5bd;stroke-linecap:round;stroke-linejoin:round;isolation:isolate;opacity:.63}.st0{fill:#fff}</style>
  </defs>
  <g
     id="g830"
     transform="matrix(0.49810216,0,0,0.49810107,88.34189,88.015191)">
    <path
       style="fill:#56595b;fill-opacity:1;stroke-width:11.77560043;stroke-linecap:square"
       d="m 96,8 a 8.49,8.49 0 0 0 -6.021,2.502 L 10.502,89.98 a 8.495,8.495 0 0 0 0,12.041 L 89.979,181.5 a 8.497,8.497 0 0 0 12.042,0 l 25.5,-25.5 4.479,-16 19.52,-8 29.978,-29.979 a 8.495,8.495 0 0 0 0,-12.04 L 158.355,66.838 128,52 127.52,36 102.021,10.502 A 8.49,8.49 0 0 0 96,8 Z"
       id="rect923"
       inkscape:connector-curvature="0" />
    <path
       style="fill:#ffffff"
       d="m 96,36 c -8,0 -8,8 -8,8 v 16 h 40 l -48,76 c 0,0 -4,4 -4,8 v 8 c 0,0 0,4 4,4 l 73.66765,0 13.9426,-24 L 116,132 158.355,66.838 183.83587,36 Z"
       id="path829"
       inkscape:connector-curvature="0"
       sodipodi:nodetypes="sccccscscccccs" />
  </g>
</svg>
